<svg width="674" height="340" viewBox="0 0 674 340" fill="none" xmlns="http://www.w3.org/2000/svg">
<path d="M192.773 169.42C190.641 171.599 188.383 173.652 186.013 175.57C183.759 177.624 181.388 179.548 178.913 181.33C181.049 179.154 183.306 177.101 185.673 175.18C187.927 173.125 190.298 171.202 192.773 169.42Z" fill="#E0E0E0"/>
<path d="M308.913 40.5201C309.033 36.1601 305.013 32.8001 300.913 31.2001C296.813 29.6001 292.353 29.0001 288.733 26.5701C285.533 24.4101 283.383 21.0501 280.673 18.3101C277.329 14.9214 273.144 12.4834 268.547 11.2463C263.95 10.0093 259.106 10.0177 254.513 11.2708C249.92 12.5238 245.744 14.9764 242.412 18.3767C239.08 21.7771 236.712 26.0028 235.553 30.6201C234.003 36.8201 235.063 44.1501 239.953 48.2801C245.633 53.0601 254.043 52.0001 261.313 50.5101C268.583 49.0201 276.823 47.5101 282.893 51.8201C286.553 54.4001 288.653 58.5901 290.893 62.4701C293.133 66.3501 295.893 70.3001 300.173 71.7601C304.453 73.2201 310.173 70.7001 310.323 66.2301" fill="#404041"/>
<path d="M308.623 42.9102C308.143 46.5602 310.783 49.8302 313.413 52.4102C316.043 54.9902 319.013 57.7202 319.483 61.4102C320.023 65.6802 316.903 69.8802 317.813 74.0902C318.383 76.7602 320.463 78.8102 321.723 81.2402C323.393 84.7367 323.668 88.738 322.493 92.4302C321.413 96.1102 319.683 104.32 317.123 107.18C310.053 115.08 298.803 121.9 288.473 124.27C278.143 126.64 267.403 126.66 256.823 126.01C248.163 125.48 238.193 125.88 230.973 113.96C227.233 107.78 225.383 99.5802 223.403 92.6402C221.683 86.6402 220.203 80.2702 221.983 74.3102C222.983 70.8502 225.113 67.7602 226.133 64.3102C227.413 59.9702 226.943 55.3102 227.453 50.8402C228.01 45.9499 229.727 41.2634 232.46 37.1704C235.194 33.0775 238.866 29.6965 243.169 27.3088C247.473 24.9211 252.285 23.5957 257.205 23.4429C262.124 23.2901 267.009 24.3143 271.453 26.4302" fill="#404041"/>
<path d="M231.603 57.8801C232.413 45.4501 240.683 30.2101 253.073 31.5501L291.733 41.4101C293.547 41.6095 295.221 42.4804 296.426 43.8517C297.631 45.2229 298.279 46.9952 298.243 48.8201L293.893 142.1L294.163 142.15C294.163 142.15 285.353 168.46 259.783 160.43C254.713 158.83 252.393 153.29 251.393 147.58H251.133C251.133 146.9 251.133 146.27 251.133 145.58C250.635 141.327 250.585 137.034 250.983 132.77C250.913 125.24 250.923 122.16 250.913 122.23C250.903 122.3 235.033 119.55 231.793 98.8201C230.143 88.5901 230.703 71.6901 231.603 57.8801Z" fill="#FFBE9D"/>
<path d="M237.833 70.3701C237.822 71.0629 238.083 71.7323 238.56 72.2351C239.036 72.7379 239.691 73.0341 240.383 73.0601C240.722 73.0873 241.062 73.0468 241.384 72.9408C241.707 72.8348 242.004 72.6656 242.261 72.443C242.517 72.2204 242.726 71.949 242.876 71.6446C243.026 71.3401 243.113 71.0088 243.133 70.6701C243.142 69.9765 242.879 69.307 242.4 68.8045C241.922 68.302 241.267 68.0062 240.573 67.9801C240.236 67.9529 239.896 67.9935 239.574 68.0996C239.252 68.2057 238.955 68.3751 238.7 68.5978C238.444 68.8205 238.236 69.092 238.087 69.3964C237.939 69.7008 237.852 70.0319 237.833 70.3701Z" fill="#404041"/>
<path d="M235.243 66.6802C235.573 67.0302 237.593 65.5402 240.453 65.5502C243.313 65.5602 245.453 67.0002 245.723 66.6502C245.873 66.5002 245.533 65.8702 244.623 65.2102C243.391 64.3446 241.919 63.8865 240.413 63.9002C238.925 63.8878 237.471 64.3501 236.263 65.2202C235.383 65.9002 235.073 66.5202 235.243 66.6802Z" fill="#404041"/>
<path d="M265.943 70.3702C265.935 71.0639 266.198 71.7333 266.676 72.2358C267.154 72.7384 267.81 73.0342 268.503 73.0602C268.841 73.0874 269.181 73.0468 269.502 72.9407C269.824 72.8346 270.121 72.6653 270.377 72.4426C270.632 72.2199 270.84 71.9483 270.989 71.6439C271.138 71.3396 271.224 71.0085 271.243 70.6702C271.254 69.9775 270.993 69.308 270.517 68.8052C270.04 68.3024 269.385 68.0063 268.693 67.9802C268.355 67.9516 268.014 67.9912 267.691 68.0966C267.368 68.202 267.069 68.3712 266.813 68.594C266.557 68.8169 266.347 69.0889 266.198 69.394C266.049 69.6991 265.962 70.031 265.943 70.3702Z" fill="#404041"/>
<path d="M263.363 67.2701C263.693 67.6201 265.713 66.1401 268.573 66.1501C271.433 66.1601 273.523 67.6001 273.833 67.2501C273.983 67.0901 273.653 66.4701 272.733 65.8001C271.498 64.9417 270.028 64.4843 268.523 64.4901C267.037 64.4827 265.587 64.9485 264.383 65.8201C263.503 66.4901 263.203 67.1601 263.363 67.2701Z" fill="#404041"/>
<path d="M252.933 88.4601C252.933 88.3001 251.173 87.9901 248.293 87.6101C247.563 87.5401 246.873 87.3901 246.743 86.8901C246.685 86.1359 246.859 85.3821 247.243 84.7301L249.413 79.1701C252.413 71.2601 254.613 64.7501 254.293 64.6401C253.973 64.5301 251.293 70.8301 248.293 78.7501C247.56 80.6968 246.866 82.5601 246.213 84.3401C245.749 85.2174 245.611 86.2306 245.823 87.2001C245.929 87.4576 246.092 87.6877 246.3 87.8731C246.508 88.0584 246.755 88.1942 247.023 88.2701C247.427 88.3811 247.844 88.4416 248.263 88.4501C251.123 88.6101 252.923 88.6301 252.933 88.4601Z" fill="#404041"/>
<path d="M250.883 122.31C260.642 122.48 270.256 119.935 278.653 114.96C278.653 114.96 271.653 129.29 250.903 127.31L250.883 122.31Z" fill="#EB996E"/>
<path d="M254.133 95.3602C254.678 94.6761 255.388 94.1424 256.196 93.8099C257.005 93.4773 257.885 93.357 258.753 93.4602C259.385 93.5163 259.999 93.7004 260.558 94.0012C261.117 94.3021 261.608 94.7134 262.003 95.2102C262.379 95.6888 262.6 96.2703 262.638 96.8775C262.675 97.4847 262.527 98.089 262.213 98.6102C261.756 99.1269 261.153 99.4931 260.484 99.6609C259.815 99.8287 259.11 99.7901 258.463 99.5502C257.114 99.0679 255.874 98.3236 254.813 97.3602C254.49 97.1371 254.214 96.8515 254.003 96.5202C253.902 96.3602 253.848 96.1746 253.848 95.9852C253.848 95.7958 253.902 95.6102 254.003 95.4502" fill="#EB996E"/>
<path d="M261.343 90.4601C260.883 90.4601 260.873 93.5401 258.203 95.7301C255.533 97.9201 252.203 97.5801 252.203 98.0201C252.203 98.2101 252.943 98.6201 254.333 98.6601C256.152 98.6912 257.923 98.0785 259.333 96.9301C260.685 95.8275 261.557 94.2427 261.763 92.5101C261.903 91.2101 261.563 90.4401 261.343 90.4601Z" fill="#404041"/>
<path d="M262.073 62.26C262.353 63.04 265.213 62.68 268.563 63.09C271.913 63.5 274.633 64.42 275.083 63.73C275.283 63.4 274.813 62.66 273.713 61.91C272.268 60.9616 270.614 60.3782 268.893 60.21C267.178 59.9963 265.436 60.1952 263.813 60.79C262.583 61.29 261.963 61.89 262.073 62.26Z" fill="#404041"/>
<path d="M236.313 58.4002C236.823 59.0502 238.793 58.4002 241.163 58.4002C243.533 58.4002 245.533 58.8402 246.003 58.1702C246.203 57.8402 245.883 57.1702 245.003 56.5702C243.828 55.8285 242.459 55.4534 241.07 55.4925C239.68 55.5317 238.334 55.9834 237.203 56.7902C236.373 57.4202 236.073 58.0902 236.313 58.4002Z" fill="#404041"/>
<path d="M306.203 109.6C303.341 110.177 300.381 110.064 297.571 109.271C294.76 108.478 292.178 107.028 290.039 105.039C287.9 103.051 286.266 100.581 285.27 97.836C284.274 95.0905 283.946 92.1474 284.313 89.25C284.953 84.16 287.703 78.98 285.933 74.16C283.603 67.79 274.673 65.83 272.303 59.47C270.923 55.78 272.163 51.47 270.603 47.84C269.133 44.43 265.553 42.4701 262.063 41.2101C258.573 39.9501 254.843 39.08 251.913 36.81C248.983 34.54 247.163 30.24 249.053 27.05C264.53 28.9031 279.731 32.5959 294.333 38.05C297.723 39.31 301.273 40.83 303.273 43.84C305.393 47.02 305.273 51.13 305.113 54.95L302.503 110.77" fill="#404041"/>
<path d="M304.903 116.72C304.903 116.72 305.033 116.66 305.243 116.51L306.163 115.81C306.963 115.18 308.163 114.25 309.593 112.96C311.383 111.42 313.014 109.705 314.463 107.84C316.445 105.36 317.779 102.425 318.343 99.3C318.74 97.3991 318.707 95.4333 318.245 93.5471C317.783 91.6609 316.904 89.9021 315.673 88.4C314.17 86.9058 312.556 85.5285 310.843 84.28C309.119 82.973 307.809 81.1948 307.073 79.16C305.543 74.94 306.223 70.05 305.633 65.05C305.047 59.8338 303.01 54.8864 299.753 50.77C298.074 48.6967 295.983 46.9942 293.613 45.77C291.286 44.7118 288.857 43.8942 286.363 43.33C284.041 42.7461 281.87 41.6758 279.993 40.19C278.228 38.7118 276.674 36.9993 275.373 35.1C272.773 31.4 270.843 27.46 268.373 24.17C267.203 22.5592 265.832 21.1041 264.293 19.84C262.849 18.6805 261.21 17.7867 259.453 17.2C257.952 16.6273 256.338 16.4123 254.739 16.572C253.141 16.7317 251.601 17.2617 250.243 18.12C249.288 18.8611 248.502 19.7976 247.938 20.8668C247.374 21.936 247.045 23.1134 246.973 24.32C246.849 25.8488 247.294 27.3695 248.223 28.59C248.462 28.8996 248.745 29.1726 249.063 29.4C249.165 29.489 249.28 29.5631 249.403 29.62C249.318 29.5153 249.225 29.4182 249.123 29.33C248.839 29.0788 248.587 28.7933 248.373 28.48C247.555 27.2677 247.201 25.8021 247.373 24.35C247.468 23.2086 247.803 22.1 248.356 21.097C248.909 20.094 249.668 19.2193 250.583 18.53C251.879 17.7458 253.339 17.2727 254.848 17.1478C256.358 17.0229 257.876 17.2495 259.283 17.81C260.96 18.3875 262.52 19.2576 263.893 20.38C265.367 21.6294 266.683 23.0532 267.813 24.62C270.213 27.85 272.103 31.79 274.743 35.62C276.077 37.5954 277.679 39.3758 279.503 40.91C281.44 42.4437 283.679 43.5512 286.073 44.16C288.512 44.7167 290.888 45.5209 293.163 46.56C295.427 47.7385 297.422 49.3728 299.023 51.36C302.181 55.3358 304.162 60.1162 304.743 65.16C305.353 69.99 304.653 74.96 306.283 79.45C307.07 81.6163 308.457 83.5137 310.283 84.92C311.969 86.1344 313.563 87.4714 315.053 88.92C316.227 90.3345 317.069 91.9935 317.519 93.7757C317.969 95.5578 318.015 97.418 317.653 99.22C317.142 102.253 315.892 105.114 314.013 107.55C312.604 109.413 311.027 111.144 309.303 112.72C307.893 114.04 306.753 115.01 305.993 115.72C305.61 116.031 305.246 116.365 304.903 116.72Z" fill="#455A64"/>
<path d="M308.693 119.3C312.953 115.18 320.223 118.76 323.803 123.48C327.383 128.2 329.913 134.3 335.343 136.68C340.773 139.06 347.823 137.01 352.343 140.79C358.623 146.01 355.093 158.1 361.893 162.64C364.583 164.44 368.143 164.38 371.023 165.86C377.813 169.36 377.733 178.94 376.683 186.51C375.253 197.16 373.633 208.16 367.773 217.16C361.913 226.16 350.503 232.45 340.363 228.99C330.613 225.66 325.603 215.14 321.633 205.63C316.153 192.443 310.667 179.287 305.173 166.16C302.003 158.55 298.793 150.82 297.763 142.64C296.733 134.46 298.113 125.64 303.323 119.22" fill="#404041"/>
<path d="M311.423 110.22C314.513 109.85 316.883 113.64 316.063 116.65C315.243 119.66 312.363 121.65 309.413 122.65C307.785 123.296 306.015 123.5 304.283 123.24C303.418 123.105 302.602 122.745 301.92 122.195C301.237 121.646 300.711 120.927 300.393 120.11C300.069 119.406 300.036 118.601 300.302 117.873C300.568 117.144 301.111 116.55 301.813 116.22C303.813 114.95 305.043 113.95 306.653 113.06C309.113 111.71 308.963 111.53 311.423 110.17" fill="#EE1C25"/>
<path d="M240.193 143.57L252.213 134.46L297.523 131.56L299.343 137.64L284.603 229.6L296.233 339.32H233.023L240.193 143.57Z" fill="#EE1C25"/>
<g opacity="0.3">
<path d="M288.703 300.4C287.253 298.85 284.883 296.73 282.773 296.68C267.633 296.35 252.183 294.84 237.043 294.5L235.833 339.34C239.453 332.96 242.883 326.34 243.833 319.04C244.253 315.86 244.833 312.04 247.683 310.7C249.323 309.93 251.253 310.23 253.023 310.59C258.493 311.67 263.923 313.08 269.483 313.43C275.043 313.78 280.873 312.96 285.543 309.92C287.201 308.942 288.536 307.499 289.383 305.77C289.786 304.902 289.936 303.937 289.816 302.987C289.696 302.037 289.31 301.141 288.703 300.4Z" fill="#404041"/>
</g>
<path d="M249.993 145.43L248.583 132.28C248.525 131.729 248.577 131.172 248.737 130.642C248.896 130.111 249.159 129.617 249.511 129.189C249.863 128.761 250.296 128.407 250.785 128.148C251.275 127.889 251.811 127.73 252.363 127.68L294.063 123.91C294.33 123.89 294.598 123.923 294.852 124.008C295.105 124.093 295.339 124.228 295.54 124.406C295.74 124.583 295.903 124.798 296.019 125.04C296.135 125.281 296.201 125.543 296.213 125.81L296.683 141.46L284.603 161.95L272.193 165.9H257.013L248.283 156.58L249.993 145.43Z" fill="#EE1C25"/>
<path d="M290.523 136.44C289.964 136.416 289.406 136.36 288.853 136.27C287.344 136.129 285.826 136.102 284.313 136.19C282.064 136.352 279.831 136.686 277.633 137.19C275.143 137.71 272.433 138.44 269.563 139.14C266.869 139.844 264.124 140.332 261.353 140.6C259.073 140.815 256.773 140.66 254.543 140.14C253.043 139.788 251.611 139.194 250.303 138.38C249.955 138.154 249.621 137.907 249.303 137.64C249.083 137.46 248.973 137.35 248.993 137.34C249.013 137.33 249.483 137.67 250.423 138.2C251.748 138.93 253.174 139.463 254.653 139.78C256.848 140.24 259.102 140.355 261.333 140.12C264.076 139.827 266.794 139.329 269.463 138.63C272.323 137.94 275.043 137.22 277.553 136.72C279.778 136.243 282.039 135.955 284.313 135.86C285.847 135.794 287.384 135.875 288.903 136.1C289.443 136.193 289.853 136.273 290.133 136.34C290.383 136.38 290.533 136.42 290.523 136.44Z" fill="#404041"/>
<g opacity="0.3">
<path d="M250.983 138.51C249.863 141.58 249.833 145.38 252.103 147.73C253.943 149.65 256.913 150.13 259.523 149.61C262.108 148.945 264.56 147.842 266.773 146.35C272.513 142.94 278.353 139.4 284.873 137.95C285.301 137.899 285.706 137.729 286.043 137.46C286.121 137.388 286.183 137.301 286.225 137.203C286.268 137.106 286.29 137.001 286.29 136.895C286.29 136.789 286.268 136.684 286.225 136.587C286.183 136.49 286.121 136.402 286.043 136.33C285.879 136.234 285.693 136.182 285.503 136.18C279.733 135.6 274.003 137.18 268.353 138.5C262.703 139.82 256.653 140.67 251.203 138.7" fill="#404041"/>
</g>
<path d="M258.953 127.26C258.366 127.581 257.873 128.05 257.523 128.62C256.863 129.68 256.903 131.48 256.953 133.42C257.063 137.31 257.703 140.42 257.553 140.42C257.262 139.787 257.069 139.112 256.983 138.42C256.667 136.771 256.483 135.099 256.433 133.42C256.397 132.49 256.417 131.558 256.493 130.63C256.549 129.846 256.796 129.087 257.213 128.42C257.499 127.969 257.903 127.605 258.383 127.37C258.733 127.23 258.943 127.23 258.953 127.26Z" fill="#404041"/>
<path d="M269.973 138.69C269.985 136.566 269.885 134.443 269.673 132.33C269.193 128.84 268.033 126.19 268.193 126.13C268.572 126.64 268.86 127.212 269.043 127.82C269.589 129.25 269.975 130.735 270.193 132.25C270.409 133.767 270.453 135.303 270.323 136.83C270.313 137.465 270.195 138.094 269.973 138.69Z" fill="#404041"/>
<path d="M283.403 125.02C283.774 125.474 284.043 126.003 284.193 126.57C284.644 127.911 284.831 129.328 284.743 130.74C284.648 132.156 284.274 133.539 283.643 134.81C283.419 135.354 283.078 135.843 282.643 136.24C283.549 134.527 284.084 132.643 284.213 130.71C284.342 128.777 284.063 126.838 283.393 125.02H283.403Z" fill="#404041"/>
<path d="M224.923 149.49C224.923 149.49 210.703 159.01 206.923 176.21C203.983 189.73 195.923 261.15 195.923 261.15L181.833 288.57L191.033 310.45C198.912 311.007 206.736 308.773 213.133 304.14L219.323 299.64L230.673 282.81L224.923 149.49Z" fill="#EBEBEB"/>
<path d="M249.023 136.87L224.923 149.49L219.233 168.18L214.163 222.37L223.703 285.9L206.963 339.13L235.833 339.34L236.523 308.14L239.403 207.14L242.233 142.8L249.023 136.87Z" fill="#EBEBEB"/>
<path d="M237.353 221.07C237.183 220.829 237.033 220.575 236.903 220.31L235.703 218.1C235.203 217.1 234.703 215.88 234.093 214.46C233.803 213.74 233.553 212.95 233.263 212.12C232.973 211.29 232.653 210.41 232.403 209.47C230.133 201.98 228.633 191.17 228.953 179.25C228.953 178.33 229.023 177.42 229.083 176.51V176.35L229.233 176.29L233.453 174.51L233.393 174.95L229.173 171.56L229.083 171.49V171.39C229.042 167.294 229.691 163.221 231.003 159.34C232.063 155.81 233.223 152.77 234.243 150.27C235.263 147.77 236.153 145.82 236.783 144.5C237.103 143.83 237.353 143.32 237.523 142.99C237.605 142.812 237.702 142.642 237.813 142.48C237.765 142.668 237.694 142.849 237.603 143.02L236.933 144.57C236.353 145.91 235.513 147.88 234.533 150.39C233.553 152.9 232.433 155.94 231.413 159.46C230.151 163.295 229.533 167.313 229.583 171.35L229.483 171.18L233.713 174.55L234.043 174.82L233.653 174.99L229.433 176.77L229.593 176.55C229.533 177.44 229.493 178.35 229.463 179.27C229.153 191.14 230.583 201.9 232.753 209.36C232.983 210.31 233.293 211.18 233.563 212.01C233.833 212.84 234.073 213.64 234.363 214.36C234.953 215.78 235.363 217.03 235.883 218.01L236.983 220.26C237.125 220.522 237.248 220.792 237.353 221.07Z" fill="#404041"/>
<path d="M218.433 259.01C218.343 258.755 218.266 258.494 218.203 258.23C218.063 257.663 217.873 256.903 217.633 255.95C217.383 254.95 217.103 253.75 216.823 252.34C216.543 250.93 216.173 249.34 215.893 247.51C215.613 245.68 215.233 243.75 214.963 241.63C214.693 239.51 214.423 237.23 214.173 234.84C213.733 230.04 213.443 224.75 213.443 219.19C213.443 213.63 213.773 208.34 214.223 203.55C214.493 201.16 214.723 198.88 215.053 196.76C215.383 194.64 215.673 192.67 215.993 190.88C216.313 189.09 216.653 187.48 216.993 186.06C217.333 184.64 217.573 183.43 217.823 182.45C218.073 181.47 218.253 180.74 218.403 180.18C218.461 179.912 218.538 179.648 218.633 179.39C218.614 179.663 218.571 179.935 218.503 180.2L218.023 182.49C217.803 183.49 217.533 184.7 217.283 186.12C217.033 187.54 216.673 189.12 216.403 190.95C216.133 192.78 215.783 194.7 215.533 196.82C215.283 198.94 215.003 201.21 214.753 203.59C214.333 208.38 214.033 213.65 214.013 219.2C213.993 224.75 214.293 230.01 214.693 234.8C214.943 237.18 215.143 239.46 215.443 241.57C215.743 243.68 216.013 245.66 216.303 247.45C216.593 249.24 216.903 250.86 217.153 252.28C217.403 253.7 217.663 254.92 217.883 255.91C218.103 256.9 218.243 257.63 218.353 258.2C218.409 258.467 218.436 258.738 218.433 259.01Z" fill="#404041"/>
<path d="M224.953 307.79C224.672 308.648 224.278 309.465 223.783 310.22C222.703 312.102 221.469 313.892 220.093 315.57C218.72 317.251 217.208 318.813 215.573 320.24C214.927 320.871 214.205 321.418 213.423 321.87C214.012 321.193 214.646 320.558 215.323 319.97C216.866 318.475 218.325 316.896 219.693 315.24C221.05 313.575 222.312 311.836 223.473 310.03C223.914 309.25 224.409 308.501 224.953 307.79Z" fill="#404041"/>
<path d="M335.733 147.94C340.797 149.908 345.3 153.089 348.846 157.204C352.393 161.319 354.875 166.242 356.073 171.54C363.963 206.3 377.453 252.54 377.673 267.47C377.933 286.47 369.673 299.47 358.783 301.87C350.203 303.77 272.463 299.51 272.463 299.51L268.823 270.51L331.823 261.24L323.203 213.16L331.733 146.44L335.733 147.94Z" fill="#EBEBEB"/>
<path d="M331.733 146.39L314.323 139.28L295.973 128.52L295.863 131.67C298.116 135.517 298.901 140.049 298.073 144.43L282.773 224.09L286.233 282.3L293.343 339.3H348.553L323.203 279.65L332.153 199.26L331.733 146.39Z" fill="#EBEBEB"/>
<path d="M347.863 302.36L347.483 302.41L346.373 302.52C345.373 302.62 343.943 302.61 342.063 302.66C338.323 302.66 332.883 302.58 326.113 302.36C312.583 301.91 293.753 301 272.483 299.77H272.273V299.55C271.843 296.1 271.383 292.46 270.923 288.77C270.133 282.52 269.373 276.42 268.643 270.59V270.34H268.883L316.963 263.34L331.083 261.34L334.873 260.83L335.873 260.7H336.213L335.883 260.77L334.883 260.94L331.103 261.54L317.013 263.69L269.013 270.86L269.223 270.57C269.963 276.41 270.733 282.5 271.513 288.75C271.983 292.45 272.433 296.09 272.863 299.54L272.623 299.32C293.883 300.56 312.723 301.53 326.243 302.08C333.003 302.34 338.433 302.49 342.173 302.54C344.043 302.54 345.503 302.54 346.473 302.48L347.583 302.42L347.863 302.36Z" fill="#404041"/>
<path d="M322.693 208.24C322.764 208.413 322.811 208.595 322.833 208.78C322.913 209.19 323.013 209.69 323.133 210.32C323.393 211.73 323.743 213.66 324.133 216.01C324.983 220.89 326.133 227.5 327.413 234.81C328.693 242.12 329.733 248.75 330.553 253.64C330.923 256 331.223 257.93 331.443 259.35C331.533 259.98 331.603 260.5 331.663 260.91C331.685 261.093 331.685 261.278 331.663 261.46C331.588 261.292 331.537 261.113 331.513 260.93C331.433 260.52 331.333 260.01 331.203 259.39C330.943 257.97 330.583 256.05 330.143 253.7C329.273 248.89 328.143 242.25 326.863 234.9C325.583 227.55 324.503 220.9 323.733 216.07C323.373 213.71 323.073 211.77 322.853 210.35C322.773 209.724 322.703 209.204 322.643 208.79C322.64 208.606 322.656 208.421 322.693 208.24Z" fill="#404041"/>
<path d="M303.983 134.16C303.983 134.16 303.983 134.23 304.053 134.36L304.213 134.94C304.343 135.46 304.563 136.21 304.773 137.21C305.383 140.038 305.824 142.9 306.093 145.78C306.501 150.128 306.611 154.498 306.423 158.86C306.253 163.86 305.733 169.33 304.983 175.16V175.34H304.803L299.073 176.4L299.263 176.05C299.593 176.93 299.923 177.87 300.183 178.84C301.759 185.213 301.534 191.898 299.533 198.15C297.949 203.223 295.703 208.065 292.853 212.55C290.473 216.41 288.333 219.37 286.853 221.42L285.123 223.76C284.943 224.01 284.783 224.2 284.663 224.36C284.618 224.436 284.56 224.503 284.493 224.56C284.493 224.56 284.493 224.48 284.623 224.33L285.043 223.7C285.443 223.12 286.043 222.32 286.683 221.3C288.113 219.22 290.213 216.23 292.533 212.36C295.317 207.879 297.515 203.06 299.073 198.02C300.723 192.35 301.503 185.61 299.683 179.02C299.43 178.092 299.129 177.178 298.783 176.28L298.673 175.99L298.983 175.93L304.673 174.88L304.463 175.1C305.223 169.29 305.773 163.81 305.963 158.85C306.174 154.517 306.104 150.174 305.753 145.85C305.518 142.974 305.128 140.114 304.583 137.28C304.403 136.28 304.203 135.52 304.113 135C304.063 134.76 304.023 134.57 303.993 134.41C303.974 134.328 303.971 134.243 303.983 134.16Z" fill="#404041"/>
<path d="M303.983 215.85V203.16C303.983 203.16 304.143 200.03 301.503 200.69C298.863 201.35 299.353 206.3 299.353 206.3C299.353 206.3 298.863 225.61 300.013 225.45C301.163 225.29 301.613 223.8 301.613 223.8V216.37L303.983 215.85Z" fill="#EE1C25"/>
<path d="M314.963 216.64C312.703 216.903 310.427 216.99 308.153 216.9C305.88 216.99 303.603 216.903 301.343 216.64C303.604 216.383 305.88 216.296 308.153 216.38C310.427 216.296 312.703 216.383 314.963 216.64Z" fill="#404041"/>
<path d="M340.073 155.48C339.615 155.695 339.14 155.872 338.653 156.01C337.36 156.472 336.097 157.017 334.873 157.64C330.84 159.716 327.342 162.697 324.653 166.35C323.892 167.379 323.223 168.474 322.653 169.62C322.16 170.705 321.758 171.828 321.453 172.98C320.936 174.945 320.602 176.954 320.453 178.98C320.313 180.71 320.283 182.13 320.273 183.1C320.303 183.606 320.303 184.114 320.273 184.62C320.148 184.143 320.081 183.653 320.073 183.16C319.994 181.778 319.994 180.392 320.073 179.01C320.172 176.952 320.477 174.908 320.983 172.91C321.285 171.724 321.69 170.566 322.193 169.45C322.776 168.272 323.462 167.147 324.243 166.09C326.971 162.368 330.569 159.37 334.723 157.36C335.971 156.758 337.265 156.257 338.593 155.86C339.072 155.683 339.568 155.556 340.073 155.48Z" fill="#404041"/>
<path d="M116.013 261.15L206.963 294.83L283.633 306.55L192.473 262.11L116.013 261.15Z" fill="#404041"/>
<path d="M154.933 297.47C154.203 292.61 152.553 287.933 150.073 283.69C149.538 282.891 149.12 282.019 148.833 281.1C148.69 280.641 148.662 280.154 148.751 279.682C148.84 279.209 149.043 278.766 149.343 278.39C150.513 277.12 152.643 277.68 154.083 278.64C156.998 280.763 159.146 283.773 160.203 287.22C161.245 290.642 161.916 294.165 162.203 297.73" fill="#FFBE9D"/>
<path d="M190.383 288.81H185.863C184.754 287.711 183.374 286.924 181.863 286.53C181.304 286.436 180.73 286.495 180.202 286.701C179.674 286.907 179.211 287.253 178.863 287.7C180.863 284.37 183.063 280.7 183.483 279.7C184.293 277.75 182.483 276.29 179.573 276.29C176.663 276.29 163.783 294.52 163.783 294.52C163.783 294.52 171.783 279.85 172.553 277.61C174.493 272.01 168.363 271.61 166.143 274.3C163.383 277.65 152.233 294.52 152.233 294.52C152.233 294.52 150.113 297.94 151.573 301.19C153.033 304.44 157.273 303.19 157.273 303.19C157.336 304.14 157.646 305.056 158.172 305.849C158.698 306.642 159.423 307.284 160.273 307.71C163.533 309.53 167.833 307.42 167.833 307.42L184.503 311.16L190.503 310.56C194.598 310.15 198.439 308.385 201.417 305.545C204.395 302.704 206.34 298.951 206.943 294.88L190.383 288.81Z" fill="#FFBE9D"/>
<path d="M179.173 287.44C179.363 287.56 177.173 291.04 174.273 295.22C172.833 297.31 171.503 299.22 170.513 300.52C170.026 301.275 169.463 301.979 168.833 302.62C169.215 301.806 169.678 301.033 170.213 300.31C171.123 298.92 172.403 297.01 173.843 294.92C175.283 292.83 176.603 290.92 177.563 289.6L178.723 288.01C178.856 287.807 179.006 287.616 179.173 287.44Z" fill="#EB996E"/>
<path d="M178.173 306C178.58 305.049 179.076 304.138 179.653 303.28C180.653 301.64 182.033 299.41 183.573 296.93C184.343 295.7 185.083 294.52 185.683 293.43C185.946 292.965 186.113 292.452 186.177 291.922C186.24 291.392 186.198 290.854 186.053 290.34C185.759 289.372 185.277 288.471 184.633 287.69C184.633 287.69 184.903 287.83 185.273 288.23C185.795 288.804 186.181 289.487 186.403 290.23C186.589 290.788 186.659 291.379 186.61 291.965C186.56 292.551 186.391 293.121 186.113 293.64C185.513 294.77 184.783 295.96 184.023 297.2C182.473 299.68 181.023 301.88 179.963 303.47C179.427 304.355 178.829 305.2 178.173 306Z" fill="#EB996E"/>
<path d="M186.923 307.66C187.09 306.758 187.39 305.885 187.813 305.07L189.003 302.35C189.499 301.268 189.907 300.148 190.223 299C190.374 298.452 190.405 297.878 190.314 297.317C190.222 296.756 190.011 296.222 189.693 295.75C189.371 295.375 188.962 295.084 188.503 294.9C188.117 294.703 187.695 294.584 187.263 294.55C186.632 294.644 186.024 294.858 185.473 295.18C185.264 295.312 185.034 295.407 184.793 295.46C184.793 295.46 184.983 295.27 185.373 295C185.615 294.837 185.865 294.687 186.123 294.55C186.474 294.35 186.862 294.224 187.263 294.18C187.753 294.191 188.236 294.3 188.683 294.5C189.214 294.693 189.689 295.016 190.063 295.44C190.442 295.963 190.698 296.564 190.813 297.2C190.927 297.835 190.896 298.488 190.723 299.11C190.404 300.296 189.972 301.448 189.433 302.55C188.963 303.55 188.513 304.46 188.143 305.22C187.78 306.055 187.372 306.869 186.923 307.66Z" fill="#EB996E"/>
<path d="M189.993 291.92C190.239 291.941 190.477 292.012 190.693 292.13C191.312 292.391 191.896 292.727 192.433 293.13C194.249 294.487 195.519 296.449 196.013 298.662C196.506 300.874 196.191 303.19 195.123 305.19C194.817 305.791 194.438 306.352 193.993 306.86C193.673 307.21 193.463 307.37 193.443 307.35C193.423 307.33 194.103 306.53 194.793 305.03C195.722 303.084 195.972 300.883 195.502 298.778C195.033 296.673 193.871 294.787 192.203 293.42C191.495 292.88 190.757 292.379 189.993 291.92Z" fill="#EB996E"/>
<path d="M160.693 282.35C159.584 284.439 158.324 286.444 156.923 288.35C155.673 290.388 154.273 292.33 152.733 294.16C153.837 292.07 155.094 290.065 156.493 288.16C157.749 286.123 159.153 284.181 160.693 282.35Z" fill="#EB996E"/>
<path d="M268.593 271.63L258.193 269.28L248.193 259.87C246.976 258.729 245.398 258.05 243.733 257.95L225.563 256.95C223.745 256.837 221.953 257.432 220.563 258.61L207.563 269.61L264.273 297.16L272.053 297.85L268.593 271.63Z" fill="#FFBE9D"/>
<path d="M237.783 266.78C237.783 266.86 236.443 266.62 234.283 266.34C232.123 266.06 229.043 265.81 226.053 267.2C224.661 267.872 223.347 268.693 222.133 269.65C220.983 270.51 219.953 271.31 219.043 271.92C218.329 272.416 217.577 272.854 216.793 273.23C216.514 273.383 216.215 273.494 215.903 273.56C215.903 273.48 217.093 272.93 218.833 271.62C219.703 270.98 220.703 270.15 221.833 269.26C223.065 268.263 224.407 267.41 225.833 266.72C227.296 266.075 228.875 265.735 230.473 265.72C231.763 265.7 233.052 265.8 234.323 266.02C235.413 266.19 236.323 266.39 236.863 266.54C237.181 266.567 237.493 266.648 237.783 266.78Z" fill="#EB996E"/>
<path d="M241.513 276.9C241.513 276.98 240.773 276.65 239.513 276.53C237.927 276.385 236.329 276.607 234.843 277.18C233.347 277.765 231.913 278.499 230.563 279.37C230.013 279.77 229.419 280.105 228.793 280.37C229.25 279.866 229.775 279.429 230.353 279.07C231.677 278.092 233.127 277.294 234.663 276.7C236.222 276.098 237.911 275.916 239.563 276.17C240.269 276.222 240.946 276.476 241.513 276.9Z" fill="#EB996E"/>
<path d="M264.903 278.58C264.773 278.66 263.313 276.48 261.383 273.9C259.453 271.32 257.793 269.29 257.903 269.19C259.38 270.487 260.687 271.966 261.793 273.59C263.04 275.113 264.085 276.79 264.903 278.58Z" fill="#EB996E"/>
<path d="M236.283 257.98L259.283 236.53C259.518 236.312 259.702 236.046 259.823 235.749C259.944 235.452 259.999 235.133 259.984 234.813C259.969 234.493 259.884 234.18 259.735 233.896C259.586 233.613 259.377 233.365 259.123 233.17C258.715 232.858 258.211 232.697 257.698 232.718C257.185 232.738 256.695 232.937 256.313 233.28L229.313 257.5" fill="#EE1C25"/>
<g opacity="0.3">
<path d="M236.283 257.98L259.283 236.53C259.518 236.312 259.702 236.046 259.823 235.749C259.944 235.452 259.999 235.133 259.984 234.813C259.969 234.493 259.884 234.18 259.735 233.896C259.586 233.613 259.377 233.365 259.123 233.17C258.715 232.858 258.211 232.697 257.698 232.718C257.185 232.738 256.695 232.937 256.313 233.28L229.313 257.5" fill="#404041"/>
</g>
<path d="M424.513 51.2402C424.153 51.1002 410.203 47.4402 411.043 61.5502C411.883 75.6602 425.873 71.9002 425.883 71.4902C425.893 71.0802 424.513 51.2402 424.513 51.2402Z" fill="#B78876"/>
<path d="M421.253 66.4103C421.183 66.3603 421.013 66.5903 420.613 66.8103C420.042 67.096 419.381 67.1463 418.773 66.9503C417.253 66.5003 415.853 64.2103 415.633 61.6703C415.524 60.4822 415.674 59.2846 416.073 58.1603C416.179 57.7105 416.392 57.2933 416.696 56.9448C416.999 56.5963 417.382 56.327 417.813 56.1603C418.091 56.0685 418.393 56.0773 418.665 56.1851C418.938 56.2929 419.163 56.4929 419.303 56.7503C419.513 57.1303 419.443 57.4203 419.513 57.4403C419.583 57.4603 419.803 57.1803 419.653 56.6103C419.557 56.2637 419.341 55.9625 419.043 55.7603C418.843 55.6243 418.618 55.5295 418.381 55.4814C418.144 55.4333 417.9 55.433 417.663 55.4803C417.092 55.6297 416.568 55.9233 416.143 56.333C415.717 56.7427 415.404 57.2548 415.233 57.8203C414.696 59.0811 414.483 60.4561 414.613 61.8203C414.873 64.6603 416.493 67.2303 418.563 67.7003C418.949 67.7879 419.35 67.7876 419.736 67.6994C420.122 67.6111 420.484 67.4371 420.793 67.1903C421.243 66.7503 421.303 66.4303 421.253 66.4103Z" fill="#AA6550"/>
<path d="M459.733 0.850342C466.903 0.850342 474.203 0.850337 483.173 5.54034C488.833 8.54034 492.353 13.1703 495.303 18.8303C497.656 23.432 498.805 28.5546 498.643 33.7203C498.383 38.6003 498.363 42.0103 496.413 46.4903" fill="#404041"/>
<path d="M456.864 1.96036C461.903 1.60127 466.964 2.25076 471.749 3.87084C476.535 5.49091 480.949 8.04903 484.735 11.3956C488.52 14.7421 491.599 18.8099 493.794 23.3609C495.988 27.9119 497.253 32.8548 497.514 37.9004C498.434 55.5704 499.244 74.6804 499.054 84.3004C498.634 104.96 477.944 108.01 477.944 108.01C477.944 108.01 478.404 114.13 478.944 121.73C479.184 125.361 478.695 129.003 477.503 132.441C476.312 135.879 474.444 139.044 472.009 141.747C469.574 144.451 466.621 146.639 463.326 148.182C460.031 149.725 456.46 150.591 452.824 150.73C449.251 150.867 445.687 150.298 442.334 149.055C438.982 147.813 435.907 145.922 433.286 143.491C430.665 141.059 428.549 138.135 427.059 134.885C425.57 131.635 424.735 128.123 424.604 124.55L421.534 41.2904C421.159 31.4226 424.641 21.7967 431.242 14.4516C437.842 7.10656 447.042 2.61931 456.894 1.94035L456.864 1.96036Z" fill="#B78876"/>
<path d="M477.943 108.01C477.943 108.01 465.243 108.67 451.443 99.8403C451.443 99.8403 457.693 114.84 478.313 113.18L477.943 108.01Z" fill="#AA6550"/>
<path d="M489.593 49.3903C489.61 50.1667 489.318 50.9179 488.782 51.48C488.246 52.0421 487.51 52.3693 486.733 52.3903C486.359 52.416 485.984 52.3666 485.629 52.2451C485.275 52.1235 484.948 51.9322 484.669 51.6825C484.389 51.4328 484.162 51.1296 484.002 50.7909C483.841 50.4522 483.75 50.0848 483.733 49.7103C483.733 48.9383 484.029 48.1957 484.562 47.637C485.095 47.0782 485.822 46.7463 486.593 46.7103C486.967 46.686 487.342 46.7363 487.696 46.8584C488.05 46.9805 488.376 47.1718 488.655 47.4213C488.935 47.6708 489.161 47.9734 489.322 48.3114C489.483 48.6495 489.576 49.0162 489.593 49.3903Z" fill="#404041"/>
<path d="M492.463 45.2103C492.093 45.5903 489.873 43.9203 486.693 43.9003C483.513 43.8803 481.183 45.4603 480.843 45.0703C480.673 44.8903 481.053 44.2003 482.073 43.4703C483.452 42.5251 485.092 42.0356 486.763 42.0703C488.414 42.0718 490.02 42.6047 491.343 43.5903C492.313 44.3403 492.643 45.0403 492.463 45.2103Z" fill="#404041"/>
<path d="M458.463 49.3904C458.479 50.1685 458.186 50.9212 457.648 51.4836C457.11 52.046 456.371 52.372 455.593 52.3904C455.22 52.4147 454.845 52.3644 454.491 52.2423C454.137 52.1202 453.811 51.9289 453.531 51.6794C453.252 51.4299 453.025 51.1273 452.864 50.7893C452.703 50.4512 452.611 50.0845 452.593 49.7104C452.593 48.9368 452.891 48.1928 453.426 47.6338C453.96 47.0747 454.69 46.7439 455.463 46.7104C455.837 46.6875 456.211 46.7387 456.564 46.8613C456.918 46.9839 457.243 47.1753 457.522 47.4246C457.801 47.6738 458.028 47.9759 458.19 48.3133C458.351 48.6507 458.444 49.0168 458.463 49.3904Z" fill="#404041"/>
<path d="M461.254 45.5604C460.884 45.9404 458.654 44.2704 455.484 44.2504C452.314 44.2304 449.974 45.8004 449.624 45.4104C449.464 45.2404 449.834 44.5404 450.864 43.8104C452.245 42.8706 453.883 42.3816 455.554 42.4104C457.202 42.4216 458.805 42.9536 460.134 43.9304C461.074 44.6904 461.434 45.3804 461.254 45.5604Z" fill="#404041"/>
<path d="M472.584 69.1603C472.584 68.9803 474.584 68.6603 477.744 68.2703C478.554 68.1903 479.324 68.0403 479.464 67.4903C479.544 66.6525 479.363 65.8103 478.944 65.0803C478.204 63.0803 477.414 61.0803 476.594 58.8903C473.334 50.0703 470.984 42.8303 471.344 42.7003C471.704 42.5703 474.634 49.6103 477.884 58.4303C478.674 60.6003 479.424 62.6703 480.134 64.6603C480.636 65.6404 480.778 66.7662 480.534 67.8403C480.41 68.1248 480.225 68.3783 479.992 68.5824C479.758 68.7865 479.482 68.9361 479.184 69.0203C478.735 69.1315 478.276 69.1919 477.814 69.2003C474.594 69.3703 472.594 69.3703 472.584 69.1603Z" fill="#404041"/>
<path d="M463.223 71.3104C463.743 71.3104 463.713 74.7304 466.643 77.2004C469.573 79.6704 473.253 79.3204 473.273 79.8004C473.273 80.0204 472.443 80.4704 470.893 80.5004C468.872 80.5042 466.914 79.7962 465.363 78.5004C463.877 77.2562 462.928 75.4868 462.713 73.5604C462.593 72.1604 462.983 71.2904 463.223 71.3104Z" fill="#404041"/>
<path d="M462.163 33.1602C461.843 34.0202 458.683 33.5902 454.953 34.0102C451.223 34.4302 448.203 35.4202 447.713 34.6402C447.503 34.2702 448.033 33.4602 449.253 32.6402C450.882 31.6316 452.718 31.0066 454.624 30.8125C456.53 30.6185 458.455 30.8605 460.253 31.5202C461.623 32.0302 462.303 32.7102 462.163 33.1602Z" fill="#404041"/>
<path d="M492.014 33.9102C491.454 34.6302 489.274 33.8602 486.644 33.8102C484.014 33.7602 481.784 34.2503 481.274 33.4903C481.054 33.1203 481.404 32.4003 482.384 31.7303C483.698 30.9203 485.223 30.5201 486.766 30.5807C488.308 30.6412 489.797 31.1598 491.044 32.0703C491.964 32.8203 492.264 33.5602 492.014 33.9102Z" fill="#404041"/>
<path d="M421.743 47.7603C421.743 47.7603 422.643 52.5403 422.883 54.6903C422.973 55.4803 422.883 64.2303 424.993 64.6903C426.823 65.0703 430.453 63.4003 432.073 59.7803C433.693 56.1603 436.773 47.4703 436.433 43.5203C435.983 38.1403 435.733 32.6603 436.813 27.3603C437.893 22.0603 440.423 16.9003 444.673 13.5603C448.923 10.2203 455.073 9.07032 459.913 11.4903C462.913 12.9903 465.123 15.6403 467.913 17.4903C470.388 19.2432 473.419 20.0294 476.433 19.7003C477.929 19.5125 479.341 18.9059 480.507 17.9506C481.673 16.9952 482.545 15.7298 483.023 14.3003C483.903 11.1503 482.283 7.70032 479.753 5.61032C477.223 3.52032 473.973 2.56032 470.753 1.92032C461.815 0.000985742 452.516 0.652812 443.933 3.80032C435.463 7.09032 427.933 13.4103 424.333 21.7403C420.153 31.3703 420.633 37.2803 421.743 47.7403" fill="#404041"/>
<path d="M468.963 49.5204C468.864 48.3757 468.684 47.2395 468.423 46.1204C467.622 43.0822 465.822 40.4018 463.313 38.5104C461.597 37.2123 459.6 36.3355 457.483 35.9504C455.052 35.5061 452.546 35.7166 450.223 36.5604C448.973 37.0066 447.799 37.6442 446.743 38.4504C445.616 39.2608 444.63 40.2506 443.823 41.3804C442.089 43.7419 441.154 46.5954 441.154 49.5254C441.154 52.4554 442.089 55.3089 443.823 57.6704C444.635 58.7957 445.621 59.7847 446.743 60.6004C447.799 61.4036 448.973 62.0378 450.223 62.4804C452.546 63.3271 455.051 63.541 457.483 63.1004C459.602 62.7138 461.599 61.8333 463.313 60.5304C465.824 58.6432 467.628 55.9664 468.433 52.9304C468.689 51.8073 468.866 50.6679 468.963 49.5204C468.978 49.5964 468.978 49.6744 468.963 49.7504V50.4204C468.968 50.7858 468.938 51.1508 468.873 51.5104C468.826 52.0033 468.739 52.4915 468.613 52.9704C467.869 56.097 466.072 58.8723 463.523 60.8304C461.636 62.2848 459.412 63.2397 457.057 63.6067C454.703 63.9738 452.294 63.7412 450.053 62.9304C448.754 62.4797 447.532 61.8285 446.433 61.0004C445.28 60.1661 444.268 59.1534 443.433 58.0004C441.627 55.5533 440.653 52.5918 440.653 49.5504C440.653 46.509 441.627 43.5475 443.433 41.1004C445.111 38.8166 447.424 37.0775 450.083 36.1004C452.484 35.2435 455.069 35.0398 457.573 35.5104C459.758 35.9254 461.814 36.8505 463.573 38.2104C466.12 40.166 467.917 42.9375 468.663 46.0604C468.789 46.5427 468.876 47.0342 468.923 47.5304C468.988 47.8867 469.018 48.2483 469.013 48.6104V49.2804C468.983 49.4504 468.973 49.5204 468.963 49.5204Z" fill="#404041"/>
<path d="M505.334 49.5204C505.228 48.3765 505.048 47.2408 504.794 46.1204C503.99 43.0808 502.186 40.4002 499.674 38.5104C497.959 37.2107 495.961 36.3337 493.844 35.9504C491.416 35.5059 488.913 35.7165 486.594 36.5604C484.033 37.5036 481.807 39.18 480.194 41.3804C478.453 43.7394 477.514 46.5939 477.514 49.5254C477.514 52.4569 478.453 55.3114 480.194 57.6704C481.002 58.7953 481.984 59.7844 483.104 60.6004C484.162 61.4058 485.339 62.0401 486.594 62.4804C488.912 63.3272 491.415 63.5412 493.844 63.1004C495.962 62.7138 497.959 61.8333 499.674 60.5304C502.185 58.6432 503.988 55.9664 504.794 52.9304C505.048 51.8068 505.229 50.6677 505.334 49.5204C505.338 49.597 505.338 49.6738 505.334 49.7504C505.334 49.9304 505.334 50.1504 505.334 50.4204C505.337 50.7853 505.311 51.1499 505.254 51.5104C505.202 52.0035 505.112 52.4917 504.984 52.9704C504.247 56.1003 502.448 58.878 499.894 60.8304C498.134 62.1884 496.078 63.1102 493.894 63.5204C491.386 64.0011 488.795 63.7973 486.394 62.9304C483.73 61.9661 481.417 60.2242 479.754 57.9304C477.942 55.4858 476.963 52.5234 476.963 49.4804C476.963 46.4374 477.942 43.475 479.754 41.0304C480.587 39.8764 481.6 38.8636 482.754 38.0304C483.854 37.203 485.075 36.5488 486.374 36.0904C488.777 35.2331 491.366 35.0295 493.874 35.5004C496.059 35.9139 498.115 36.8392 499.874 38.2004C502.426 40.1509 504.224 42.9245 504.964 46.0504C505.092 46.5325 505.183 47.0241 505.234 47.5204C505.291 47.8775 505.317 48.2388 505.314 48.6004C505.314 48.8704 505.314 49.0904 505.314 49.2704C505.326 49.3532 505.333 49.4367 505.334 49.5204Z" fill="#404041"/>
<path d="M477.584 48.0203C477.584 48.1003 477.074 47.8403 476.284 47.5803C475.251 47.233 474.161 47.0903 473.074 47.1603C471.999 47.2401 470.948 47.5181 469.974 47.9803C469.224 48.3503 468.804 48.6703 468.754 48.6003C468.704 48.5303 469.054 48.1303 469.754 47.6603C470.739 47.0664 471.852 46.7166 473 46.64C474.148 46.5635 475.298 46.7624 476.354 47.2203C477.224 47.6003 477.624 47.9803 477.584 48.0203Z" fill="#404041"/>
<path d="M483.214 13.1604C483.424 12.0904 483.064 11.4904 483.674 11.0504C484.284 10.6104 485.674 11.8704 486.134 12.3904C486.294 12.5604 486.774 11.9004 486.964 11.7804C487.172 11.3516 487.294 10.8862 487.324 10.4104C487.234 9.66042 486.064 9.41042 485.514 8.95042C484.946 8.45175 484.282 8.07406 483.564 7.84042C483.271 7.69555 482.945 7.6295 482.619 7.64879C482.293 7.66808 481.977 7.77204 481.704 7.95042C481.541 8.1424 481.42 8.3658 481.348 8.60667C481.275 8.84755 481.254 9.10073 481.284 9.35042C481.281 9.85071 481.376 10.3467 481.564 10.8104C481.752 11.2769 482.109 11.6554 482.564 11.8704" fill="#404041"/>
<path d="M420.973 36.7802C420.973 36.7802 431.103 40.4902 436.373 42.7302L436.073 37.5502L421.343 31.7202C421.343 31.7202 420.963 35.5702 420.973 36.7802Z" fill="#EBEBEB"/>
<path d="M421.923 28.7302C424.371 29.4883 426.766 30.407 429.093 31.4802C431.497 32.3963 433.836 33.4755 436.093 34.7102C433.645 33.9521 431.25 33.0335 428.923 31.9602C426.519 31.0442 424.18 29.965 421.923 28.7302Z" fill="#EBEBEB"/>
<path d="M424.974 137.85L424.194 113.34C424.194 113.34 429.064 135.77 454.574 135.48C478.944 135.2 478.504 115.72 478.504 115.72L479.374 125.6V165.51L463.474 230.62L443.164 233.16L420.724 144.16L424.974 137.85Z" fill="#EE1C25"/>
<path d="M476.233 130.01C476.158 130.195 476.06 130.369 475.943 130.53C475.638 131.023 475.304 131.497 474.943 131.95C473.661 133.638 472.13 135.121 470.403 136.35C467.841 138.184 464.968 139.539 461.923 140.35C458.194 141.351 454.305 141.619 450.473 141.14C446.657 140.615 442.946 139.498 439.473 137.83C436.655 136.482 433.976 134.861 431.473 132.99C429.78 131.748 428.158 130.413 426.613 128.99C426.063 128.49 425.663 128.07 425.383 127.79C425.234 127.659 425.1 127.511 424.983 127.35C425.153 127.456 425.311 127.58 425.453 127.72L426.753 128.84C427.873 129.84 429.533 131.17 431.693 132.72C434.208 134.532 436.886 136.106 439.693 137.42C443.125 139.039 446.784 140.125 450.543 140.64C454.306 141.113 458.124 140.865 461.793 139.91C464.793 139.131 467.635 137.839 470.193 136.09C471.912 134.903 473.456 133.483 474.783 131.87C475.743 130.67 476.193 129.98 476.233 130.01Z" fill="#404041"/>
<path d="M458.533 339.27L458.163 223.57L425.304 139.16L424.203 113.75L404.203 128.89C404.203 128.89 375.074 229.16 374.584 225.7C374.094 222.24 374.584 339.27 374.584 339.27H458.533Z" fill="#EBEBEB"/>
<path d="M457.743 338.95C457.603 338.95 457.483 312.88 457.483 280.72C457.483 248.56 457.603 222.49 457.743 222.49C457.883 222.49 458.003 248.56 458.003 280.72C458.003 312.88 457.883 338.95 457.743 338.95Z" fill="#404041"/>
<path d="M404.474 145.37L408.534 148.45L405.684 167.17L453.644 217.41L410.084 160.2L413.794 145.37H404.474Z" fill="#E0E0E0"/>
<path d="M460.333 280L386.723 258.42L384.283 202.51L404.473 128.85C404.473 128.85 356.353 152.86 353.073 168.16C349.793 183.46 341.903 220.58 341.073 247.43C340.323 271.43 340.213 287.43 345.693 295.14C361.393 317.08 464.833 321 506.153 295.14" fill="#EBEBEB"/>
<path d="M454.573 218.62C454.573 218.62 454.483 218.54 454.333 218.35C454.183 218.16 453.943 217.87 453.673 217.53L451.173 214.33C448.993 211.51 445.883 207.47 442.053 202.49L412.123 163.32L409.873 160.32L409.793 160.22V160.1C411.073 154.98 412.323 150.01 413.513 145.27L413.753 145.59H404.433H404.193V145.35C404.193 139.35 404.193 133.75 404.193 128.83V128.73L404.273 128.67L418.743 117.67L422.743 114.67L423.743 113.9C423.857 113.806 423.981 113.726 424.113 113.66L423.783 113.95L422.783 114.76L418.873 117.82L404.513 128.96L404.593 128.8C404.593 133.72 404.593 139.27 404.593 145.32L404.353 145.09H413.673H414.073L413.993 145.41L410.293 160.24L410.243 160.02L412.503 162.97L442.303 202.24L451.303 214.17C452.303 215.57 453.153 216.66 453.723 217.43C453.983 217.79 454.183 218.08 454.343 218.29L454.573 218.62Z" fill="#404041"/>
<path d="M487.383 124.49C481.513 114.23 478.463 115.29 478.463 115.29L478.773 118.95V126.64L475.983 159.64L458.153 231.33L458.523 339.27H525.933L534.323 207.51L533.563 150.74L487.383 124.49Z" fill="#EBEBEB"/>
<path d="M533.574 150.74C533.574 150.74 551.024 163.62 552.574 184.35C553.804 201.18 556.574 247.27 557.124 257.3C557.924 272.92 545.754 309.51 514.074 299.15C495.074 292.93 424.894 269.08 424.894 269.08L429.564 239.27L512.864 244.27L514.524 174.79L533.574 150.74Z" fill="#EBEBEB"/>
<path d="M428.574 242.7C428.574 242.7 404.994 240.15 399.574 241.47C394.324 242.74 386.854 249.16 386.854 249.16L386.964 258.47L424.894 269.08L428.574 242.7Z" fill="#B78876"/>
<path d="M458.164 220.55C458.189 220.44 458.226 220.333 458.274 220.23C458.354 220 458.474 219.69 458.624 219.31C458.954 218.47 459.434 217.31 460.034 215.79L465.314 202.87L473.194 183.73C473.944 181.94 474.684 180.07 475.614 178.24C476.544 176.41 477.554 174.58 478.614 172.75C480.912 169.019 483.409 165.414 486.094 161.95C487.454 160.2 488.824 158.49 490.244 156.85V157.12L487.304 149.65L487.204 149.4L487.454 149.31L499.724 145.16L499.594 145.5C493.894 135.98 489.084 127.94 485.664 122.24C483.984 119.42 482.544 117.16 481.014 116.24C480.438 115.893 479.81 115.64 479.154 115.49C478.921 115.447 478.69 115.39 478.464 115.32C478.699 115.336 478.932 115.366 479.164 115.41C479.843 115.533 480.496 115.773 481.094 116.12C482.021 116.723 482.823 117.501 483.454 118.41C484.337 119.591 485.155 120.82 485.904 122.09L500.004 145.27L500.154 145.52L499.874 145.61L487.604 149.82L487.754 149.49L490.704 156.96L490.764 157.1L490.654 157.22C489.254 158.84 487.884 160.55 486.534 162.3C483.859 165.739 481.369 169.318 479.074 173.02C478.004 174.84 476.954 176.63 476.074 178.46C475.194 180.29 474.414 182.11 473.664 183.91C470.664 191.09 467.944 197.56 465.664 203.01C463.384 208.46 461.524 212.8 460.234 215.86C459.594 217.35 459.084 218.52 458.734 219.35C458.564 219.73 458.434 220.02 458.324 220.25C458.284 220.357 458.23 220.458 458.164 220.55Z" fill="#404041"/>
<path d="M543.144 293.35C543.059 293.464 542.961 293.568 542.854 293.66L541.954 294.53C540.77 295.614 539.487 296.584 538.124 297.43C535.95 298.753 533.59 299.744 531.124 300.37C527.855 301.179 524.468 301.396 521.124 301.01C519.173 300.783 517.248 300.375 515.374 299.79C513.374 299.17 511.454 298.4 509.374 297.68C505.264 296.18 500.844 294.68 496.204 293C486.904 289.74 476.654 286.26 465.854 282.71C444.254 275.62 424.554 269.64 410.274 265.37L393.354 260.37L388.754 259L387.564 258.64C387.426 258.603 387.292 258.552 387.164 258.49L387.584 258.58L388.784 258.9L393.414 260.17C397.414 261.29 403.224 262.94 410.414 265.02C424.714 269.19 444.414 275.12 466.044 282.22C476.854 285.76 487.104 289.22 496.394 292.54C501.034 294.19 505.444 295.76 509.554 297.27C511.614 298.01 513.554 298.79 515.554 299.41C517.401 299.997 519.299 300.408 521.224 300.64C524.537 301.047 527.896 300.86 531.144 300.09C533.601 299.488 535.958 298.535 538.144 297.26C539.507 296.434 540.798 295.494 542.004 294.45L542.934 293.62C542.997 293.525 543.067 293.435 543.144 293.35Z" fill="#404041"/>
<path d="M386.923 258.64C386.923 258.75 385.593 258.46 383.483 258.55C382.25 258.601 381.028 258.803 379.843 259.15C378.398 259.584 377.018 260.213 375.743 261.02C373.44 262.54 371.492 264.539 370.033 266.88C368.923 268.68 368.433 269.88 368.343 269.88C368.397 269.573 368.491 269.273 368.623 268.99C368.926 268.195 369.294 267.425 369.723 266.69C371.125 264.227 373.092 262.133 375.463 260.58C376.781 259.748 378.213 259.112 379.713 258.69C380.939 258.359 382.203 258.187 383.473 258.18C384.326 258.169 385.177 258.246 386.013 258.41C386.326 258.445 386.632 258.522 386.923 258.64Z" fill="#404041"/>
<path d="M363.733 251.34C363.733 251.34 363.733 251.24 363.823 251.07C363.943 250.832 364.098 250.612 364.283 250.42C364.997 249.721 365.915 249.266 366.903 249.12C368.334 248.885 369.793 248.885 371.223 249.12C372.973 249.351 374.693 249.77 376.353 250.37C379.39 251.437 382.162 253.142 384.483 255.37C385.175 256.052 385.808 256.791 386.373 257.58C386.593 257.86 386.778 258.166 386.923 258.49C386.833 258.56 386.013 257.28 384.233 255.64C381.886 253.541 379.147 251.927 376.173 250.89C374.551 250.309 372.877 249.884 371.173 249.62C369.787 249.37 368.372 249.33 366.973 249.5C366.043 249.607 365.164 249.982 364.443 250.58C363.943 251.01 363.773 251.36 363.733 251.34Z" fill="#404041"/>
<path d="M391.213 187.16C391.051 186.669 390.937 186.164 390.873 185.65C390.723 185.17 390.513 184.6 390.283 183.94C390.053 183.28 389.653 182.56 389.193 181.8C388.117 180.01 386.861 178.335 385.443 176.8C383.69 174.937 381.764 173.243 379.693 171.74C375.934 168.992 371.658 167.03 367.123 165.97C365.743 165.678 364.342 165.497 362.933 165.43C362.414 165.433 361.896 165.393 361.383 165.31C361.9 165.237 362.422 165.21 362.943 165.23C364.369 165.214 365.793 165.342 367.193 165.61C371.82 166.575 376.185 168.522 379.993 171.32C382.098 172.834 384.041 174.56 385.793 176.47C387.219 178.041 388.467 179.765 389.513 181.61C389.963 182.4 390.253 183.17 390.513 183.82C390.773 184.47 390.913 185.1 391.033 185.59C391.132 186.108 391.193 186.633 391.213 187.16Z" fill="#404041"/>
<path d="M530.964 272.62C530.951 272.501 530.951 272.38 530.964 272.26V271.21C530.964 270.29 530.894 268.94 530.764 267.21C530.401 262.296 529.392 257.451 527.764 252.8C527.274 251.26 526.602 249.783 525.764 248.4C524.828 246.928 523.468 245.774 521.864 245.09C518.514 243.65 514.484 243.84 510.384 243.61L483.544 242.48C461.364 241.48 441.634 240.68 429.234 240.02L429.404 239.88C428.654 244.44 428.054 248.05 427.644 250.56C427.434 251.77 427.274 252.71 427.154 253.38C427.104 253.68 427.054 253.92 427.024 254.11L426.964 254.35C426.955 254.267 426.955 254.184 426.964 254.1L427.064 253.37C427.154 252.7 427.294 251.75 427.464 250.53C427.844 248.02 428.384 244.4 429.074 239.83V239.69H429.224L483.534 241.95L510.374 243.16C512.434 243.26 514.444 243.31 516.374 243.47C518.297 243.577 520.19 244.003 521.974 244.73C523.654 245.436 525.083 246.631 526.074 248.16C526.92 249.574 527.592 251.085 528.074 252.66C529.68 257.341 530.636 262.22 530.914 267.16C531.024 268.9 531.024 270.26 531.014 271.16C531.014 271.6 531.014 271.95 531.014 272.21C530.974 272.49 530.964 272.62 530.964 272.62Z" fill="#404041"/>
<path d="M515.073 207.4C515.213 207.4 515.333 215.47 515.333 225.4C515.333 235.33 515.213 243.4 515.073 243.4C514.933 243.4 514.813 235.33 514.813 225.4C514.813 215.47 514.933 207.4 515.073 207.4Z" fill="#404041"/>
<path d="M353.653 166.33C353.653 166.33 353.594 166.56 353.454 166.99C353.314 167.42 353.063 168.07 352.853 168.99C352.363 170.72 351.744 173.3 351.054 176.67C349.664 183.41 347.954 193.27 346.054 205.61C345.104 211.79 344.054 218.61 343.054 225.92C342.544 229.59 342.224 233.41 341.964 237.37C341.704 241.33 341.494 245.37 341.334 249.61C341.034 258.02 340.853 266.9 341.093 276.15C341.173 278.46 341.253 280.8 341.443 283.15C341.503 284.33 341.703 285.49 341.843 286.66C342.057 287.83 342.341 288.985 342.693 290.12C343.405 292.415 344.53 294.56 346.014 296.45C347.501 298.372 349.457 299.88 351.693 300.83C356.454 303.165 361.418 305.06 366.524 306.49C371.694 308.04 377.034 309.29 382.454 310.4C394.247 312.835 406.221 314.293 418.253 314.76C423.954 314.907 429.658 314.76 435.343 314.32C440.913 313.93 446.343 313.32 451.593 312.57C461.493 311.168 471.25 308.899 480.753 305.79C488.891 303.103 496.78 299.717 504.334 295.67V296L472.074 284.53L463.364 281.42L461.114 280.6C460.604 280.41 460.354 280.3 460.354 280.3L461.123 280.55L463.394 281.32L472.133 284.32L504.533 295.62L504.924 295.75L504.563 295.95C496.996 300.029 489.09 303.445 480.933 306.16C471.41 309.298 461.629 311.59 451.704 313.01C446.444 313.8 441.004 314.39 435.424 314.78C429.722 315.227 424.001 315.38 418.283 315.24C406.22 314.78 394.216 313.321 382.394 310.88C376.954 309.76 371.604 308.51 366.394 306.96C361.258 305.511 356.264 303.6 351.473 301.25C349.143 300.27 347.104 298.707 345.554 296.71C344.037 294.768 342.888 292.565 342.163 290.21C341.801 289.056 341.51 287.881 341.293 286.69C341.143 285.49 340.954 284.31 340.894 283.13C340.704 280.77 340.624 278.42 340.554 276.13C340.314 266.85 340.554 257.97 340.834 249.55C340.994 245.35 341.21 241.267 341.484 237.3C341.754 233.3 342.083 229.5 342.603 225.83C343.603 218.48 344.663 211.69 345.603 205.52C347.603 193.18 349.343 183.33 350.793 176.6C351.513 173.23 352.154 170.65 352.674 168.92C352.894 168.05 353.173 167.41 353.313 166.98C353.453 166.55 353.653 166.33 353.653 166.33Z" fill="#404041"/>
<path d="M386.813 251.73C399.123 238.1 398.583 213.87 391.513 196.68C390.863 215.3 388.663 231.82 386.983 249.92" fill="#E0E0E0"/>
<path d="M391.544 200.16C391.565 200.36 391.565 200.561 391.544 200.76C391.544 201.21 391.483 201.76 391.433 202.46C391.313 204.01 391.154 206.13 390.944 208.71C390.504 214.05 389.944 221.3 389.254 229.32L387.634 249.94C387.444 252.52 387.284 254.64 387.164 256.19L387.014 257.88C387.002 258.079 386.975 258.276 386.933 258.47C386.904 258.275 386.904 258.076 386.933 257.88C386.933 257.43 386.934 256.88 386.984 256.17C387.034 254.69 387.144 252.55 387.284 249.91C387.594 244.63 388.094 237.33 388.754 229.28C389.414 221.23 390.074 213.95 390.604 208.68C390.874 206.1 391.094 203.99 391.254 202.44C391.344 201.75 391.414 201.19 391.464 200.75C391.463 200.551 391.49 200.353 391.544 200.16Z" fill="#404041"/>
<path d="M421.884 175.54C422.147 179.057 422.234 182.585 422.144 186.11C422.234 189.636 422.147 193.163 421.884 196.68C421.744 196.68 421.624 191.94 421.624 186.11C421.624 180.28 421.744 175.54 421.884 175.54Z" fill="#404041"/>
<path d="M413.863 210.65C414.073 212.695 414.86 214.637 416.133 216.25C417.293 217.76 419.643 219.25 421.533 219.12C422.957 219.193 424.376 218.895 425.65 218.255C426.924 217.615 428.011 216.656 428.803 215.47C431.103 211.81 431.673 204.18 429.803 199.67C428.533 196.57 425.683 193.67 422.333 193.6C417.933 193.5 415.173 196.68 414.233 199.9" fill="#E0E0E0"/>
<path d="M414.253 199.9C414.399 199.14 414.673 198.409 415.063 197.74C415.499 196.937 416.055 196.205 416.713 195.57C417.595 194.726 418.664 194.102 419.833 193.75C420.511 193.543 421.214 193.428 421.923 193.41C422.699 193.368 423.475 193.47 424.213 193.71C425.824 194.28 427.239 195.296 428.293 196.64C429.483 198.092 430.309 199.806 430.703 201.64C431.118 203.588 431.266 205.583 431.143 207.57C430.943 210.7 430.323 213.82 428.593 216.2C427.733 217.319 426.586 218.183 425.273 218.7C424.08 219.179 422.797 219.394 421.513 219.33C420.576 219.339 419.651 219.112 418.823 218.67C418.095 218.29 417.422 217.812 416.823 217.25C415.882 216.312 415.134 215.198 414.623 213.97C414.281 213.196 414.045 212.378 413.923 211.54C413.889 211.322 413.869 211.101 413.863 210.88C413.85 210.804 413.85 210.727 413.863 210.65C414.067 211.76 414.403 212.841 414.863 213.87C415.398 215.045 416.151 216.108 417.083 217C417.687 217.529 418.36 217.973 419.083 218.32C419.856 218.719 420.714 218.922 421.583 218.91C422.85 218.973 424.114 218.734 425.27 218.213C426.426 217.691 427.442 216.902 428.233 215.91C429.843 213.68 430.463 210.61 430.653 207.55C430.873 203.55 430.203 199.61 427.953 196.95C426.947 195.675 425.603 194.708 424.073 194.16C423.381 193.931 422.653 193.826 421.923 193.85C421.247 193.858 420.574 193.955 419.923 194.14C418.805 194.463 417.778 195.041 416.923 195.83C416.269 196.429 415.707 197.119 415.253 197.88C414.882 198.534 414.548 199.209 414.253 199.9Z" fill="#404041"/>
<path d="M411.523 210.85C411.735 212.894 412.522 214.836 413.793 216.45C414.943 217.96 417.303 219.45 419.193 219.32C420.617 219.392 422.035 219.093 423.31 218.454C424.584 217.814 425.67 216.855 426.463 215.67C428.763 212 429.333 204.38 427.463 199.87C426.193 196.76 423.343 193.87 419.993 193.8C418.132 193.784 416.321 194.397 414.851 195.538C413.381 196.68 412.339 198.283 411.893 200.09" fill="#E0E0E0"/>
<path d="M411.913 200.09C412.06 199.333 412.334 198.606 412.723 197.94C413.159 197.137 413.715 196.405 414.373 195.77C415.776 194.419 417.637 193.648 419.583 193.61C420.359 193.569 421.135 193.671 421.873 193.91C423.484 194.48 424.899 195.496 425.953 196.84C427.144 198.29 427.967 200.005 428.353 201.84C428.777 203.787 428.928 205.782 428.803 207.77C428.603 210.9 427.983 214.01 426.253 216.4C425.393 217.519 424.246 218.383 422.933 218.9C421.74 219.379 420.458 219.594 419.173 219.53C418.235 219.536 417.31 219.305 416.483 218.86C415.754 218.487 415.08 218.012 414.483 217.45C413.536 216.513 412.788 215.394 412.283 214.16C411.941 213.389 411.706 212.575 411.583 211.74C411.583 211.45 411.523 211.23 411.513 211.08C411.503 211.004 411.503 210.927 411.513 210.85C411.718 211.956 412.054 213.034 412.513 214.06C413.041 215.242 413.795 216.309 414.733 217.2C415.337 217.729 416.01 218.173 416.733 218.52C417.507 218.914 418.365 219.117 419.233 219.11C420.499 219.172 421.76 218.932 422.915 218.41C424.069 217.889 425.083 217.1 425.873 216.11C427.493 213.87 428.113 210.81 428.303 207.75C428.523 203.75 427.853 199.81 425.603 197.15C424.613 195.864 423.278 194.886 421.753 194.33C421.064 194.101 420.34 193.996 419.613 194.02C417.757 194.049 415.977 194.761 414.613 196.02C413.96 196.618 413.397 197.309 412.943 198.07C412.558 198.721 412.214 199.396 411.913 200.09Z" fill="#404041"/>
<path d="M415.774 198.97C414.664 198.829 413.539 199.055 412.569 199.613C411.6 200.171 410.839 201.03 410.404 202.06C409.573 204.158 409.573 206.493 410.404 208.59C410.747 209.677 411.317 210.678 412.074 211.53C412.845 212.388 413.922 212.909 415.074 212.98C415.907 212.933 416.717 212.687 417.435 212.263C418.154 211.838 418.76 211.248 419.204 210.54C419.977 209.439 420.504 208.183 420.747 206.859C420.991 205.536 420.945 204.175 420.614 202.87C420.154 201.13 418.874 199.36 417.084 199.31" fill="#E0E0E0"/>
<path d="M417.074 199.31C417.074 199.31 417.214 199.31 417.474 199.31C417.859 199.354 418.231 199.481 418.564 199.68C419.153 200.073 419.659 200.58 420.05 201.171C420.442 201.761 420.711 202.424 420.844 203.12C421.332 205.172 421.113 207.328 420.224 209.24C419.725 210.386 418.956 211.395 417.984 212.18C417.461 212.631 416.838 212.951 416.166 213.113C415.495 213.274 414.795 213.273 414.124 213.11C412.814 212.693 411.712 211.792 411.044 210.59C410.43 209.515 409.998 208.346 409.764 207.13C409.514 206.115 409.473 205.059 409.645 204.027C409.817 202.995 410.198 202.01 410.764 201.13C411.169 200.549 411.685 200.054 412.282 199.673C412.879 199.292 413.546 199.033 414.244 198.91C414.625 198.854 415.012 198.854 415.394 198.91C415.644 198.96 415.774 199 415.774 199.02C415.275 199.003 414.776 199.033 414.284 199.11C412.965 199.416 411.814 200.214 411.064 201.34C410.546 202.19 410.205 203.136 410.062 204.12C409.92 205.105 409.978 206.109 410.234 207.07C410.467 208.228 410.889 209.34 411.484 210.36C412.087 211.446 413.081 212.261 414.264 212.64C414.856 212.785 415.475 212.786 416.068 212.643C416.661 212.501 417.212 212.219 417.674 211.82C418.581 211.082 419.306 210.144 419.794 209.08C420.659 207.262 420.902 205.21 420.484 203.24C420.273 201.908 419.557 200.708 418.484 199.89C418.054 199.611 417.575 199.415 417.074 199.31Z" fill="#404041"/>
<path d="M420.813 215.41C420.733 215.41 420.623 215.09 420.283 214.69C419.825 214.176 419.233 213.798 418.573 213.6C417.89 213.404 417.184 213.293 416.473 213.27C415.923 213.27 415.563 213.18 415.563 213.11C415.563 213.04 415.903 212.96 416.473 212.9C417.233 212.819 418 212.887 418.733 213.1C419.497 213.32 420.155 213.811 420.583 214.48C420.893 215 420.873 215.4 420.813 215.41Z" fill="#404041"/>
<path d="M421.603 197.61C421.603 197.61 421.443 197.96 420.983 198.33C420.365 198.803 419.641 199.119 418.873 199.25C418.108 199.39 417.32 199.349 416.573 199.13C416.013 198.94 415.713 198.72 415.743 198.66C416.736 198.815 417.744 198.842 418.743 198.74C419.74 198.483 420.7 198.103 421.603 197.61Z" fill="#404041"/>
<path d="M490.313 125.98C490.313 125.98 490.433 125.98 490.643 126.1C490.949 126.236 491.246 126.39 491.533 126.56C492.606 127.167 493.611 127.884 494.533 128.7C497.608 131.409 499.843 134.941 500.973 138.88C502.157 142.749 502.977 146.719 503.423 150.74C503.603 152.28 503.693 153.53 503.753 154.39C503.804 154.839 503.804 155.292 503.753 155.74C503.641 155.304 503.567 154.859 503.533 154.41C503.403 153.46 503.233 152.24 503.043 150.79C502.49 146.808 501.624 142.876 500.453 139.03C499.341 135.18 497.205 131.703 494.273 128.97C493.029 127.877 491.706 126.878 490.313 125.98Z" fill="#404041"/>
<path d="M477.853 236.05C480.753 235.94 483.073 233.05 485.973 233.21C486.499 233.255 487.01 233.403 487.478 233.645C487.946 233.887 488.362 234.219 488.702 234.622C489.042 235.025 489.299 235.491 489.459 235.994C489.619 236.496 489.678 237.025 489.633 237.55C489.589 238.076 489.441 238.587 489.199 239.055C488.957 239.523 488.624 239.939 488.221 240.279C487.818 240.619 487.352 240.876 486.85 241.036C486.348 241.196 485.819 241.255 485.293 241.21C482.243 240.86 480.463 237.29 477.483 236.61" fill="#404041"/>
<path d="M502.434 238.52C501.526 238.519 500.62 238.445 499.724 238.3L499.884 237.3C503.464 237.87 506.474 237.3 508.824 235.55C511.824 233.38 513.694 229.49 514.494 223.99V223.78C514.824 221.6 515.274 178.83 515.274 170.71C515.274 158.02 504.144 156.29 503.664 156.22C503.184 156.15 493.094 154.45 487.724 168.3C482.104 182.81 473.114 210.77 472.524 214.05C472.444 214.45 472.334 214.95 472.214 215.52C471.274 219.72 469.334 228.45 475.154 233.47C481.644 239.08 486.764 236.91 486.974 236.82L487.384 237.73C487.144 237.83 481.504 240.28 474.504 234.23C468.224 228.81 470.254 219.69 471.234 215.3C471.364 214.74 471.464 214.3 471.534 213.87C472.134 210.57 481.154 182.49 486.794 167.94C492.434 153.39 503.714 155.21 503.794 155.24C503.874 155.27 516.234 157.14 516.234 170.71C516.234 177.4 515.794 221.61 515.444 223.93V224.13C514.604 229.91 512.564 234.02 509.374 236.36C507.354 237.811 504.92 238.569 502.434 238.52Z" fill="#404041"/>
<path d="M515.804 178.9C515.36 177.14 514.66 175.455 513.724 173.9C512.66 172.26 511.324 170.812 509.774 169.62C507.865 168.179 505.674 167.157 503.344 166.62C499.064 165.678 494.589 166.262 490.694 168.27C489.103 169.14 487.622 170.197 486.284 171.42C486.347 171.311 486.424 171.21 486.514 171.12C486.742 170.834 486.993 170.567 487.264 170.32C488.236 169.388 489.329 168.591 490.514 167.95C494.465 165.788 499.067 165.134 503.464 166.11C505.865 166.677 508.116 167.755 510.064 169.27C511.657 170.505 513.013 172.02 514.064 173.74C514.767 174.893 515.287 176.148 515.604 177.46C515.698 177.815 515.768 178.176 515.814 178.54C515.814 178.76 515.824 178.9 515.804 178.9Z" fill="#404041"/>
<path d="M541.273 258.84C540.904 257.393 540.443 255.97 539.893 254.58C538.472 251.266 536.116 248.437 533.113 246.44C531.432 245.413 529.562 244.732 527.613 244.44C526.006 244.19 524.388 244.024 522.763 243.94L519.473 243.71C519.069 243.699 518.667 243.646 518.273 243.55C518.675 243.501 519.082 243.501 519.483 243.55L522.783 243.61C524.423 243.647 526.059 243.78 527.683 244.01C529.705 244.274 531.649 244.955 533.393 246.01C536.484 248.057 538.872 251.003 540.233 254.45C540.65 255.479 540.958 256.548 541.153 257.64C541.246 258.033 541.287 258.437 541.273 258.84Z" fill="#404041"/>
<path d="M490.823 242.16C490.823 242.16 500.663 227.27 503.173 225.32C505.683 223.37 527.173 213.67 529.663 215.23C532.153 216.79 530.663 220.17 530.663 220.17C530.663 220.17 539.743 216.99 540.713 218.24C541.235 218.992 541.515 219.885 541.515 220.8C541.515 221.715 541.235 222.609 540.713 223.36C540.713 223.36 545.713 222.59 545.713 224.14C545.693 225.181 545.418 226.201 544.913 227.111C544.407 228.021 543.686 228.793 542.813 229.36C540.493 231.1 525.403 241.14 524.193 243.92L519.303 243.62L490.823 242.16Z" fill="#B78876"/>
<path d="M519.124 237.89C519.234 237.56 519.386 237.244 519.574 236.95C520.053 236.136 520.594 235.36 521.194 234.63C523.205 232.232 525.617 230.202 528.324 228.63C531.016 227.055 533.84 225.717 536.764 224.63C537.874 224.2 538.764 223.88 539.414 223.63C539.735 223.498 540.07 223.404 540.414 223.35C540.127 223.549 539.814 223.707 539.484 223.82L536.894 224.93C534.038 226.099 531.265 227.458 528.594 229C525.936 230.551 523.534 232.504 521.474 234.79C519.914 236.64 519.214 237.94 519.124 237.89Z" fill="#AA6550"/>
<path d="M506.653 237.65C506.77 237.269 506.931 236.903 507.133 236.56C507.473 235.87 507.963 234.88 508.643 233.68C509.428 232.27 510.335 230.932 511.353 229.68C511.958 228.919 512.649 228.231 513.413 227.63C514.243 227.07 515.113 226.55 516.023 226.01C519.098 224.178 522.308 222.58 525.623 221.23C526.628 220.833 527.657 220.499 528.703 220.23C529.088 220.119 529.484 220.049 529.883 220.02C529.883 220.11 528.253 220.49 525.763 221.61C522.51 223.052 519.344 224.685 516.283 226.5C515.383 227.03 514.513 227.56 513.703 228.09C512.967 228.657 512.296 229.305 511.703 230.02C510.678 231.243 509.755 232.547 508.943 233.92L507.283 236.7C507.108 237.039 506.897 237.357 506.653 237.65Z" fill="#AA6550"/>
<path d="M673.953 339.42C673.953 339.56 523.083 339.68 337.013 339.68C150.943 339.68 0.0131836 339.56 0.0131836 339.42C0.0131836 339.28 150.853 339.16 337.013 339.16C523.173 339.16 673.953 339.28 673.953 339.42Z" fill="#404041"/>
</svg>
