<svg width="490" height="291" viewBox="0 0 490 291" fill="none" xmlns="http://www.w3.org/2000/svg">
<path d="M265.66 138.24L249.83 120.24C245.55 115.96 244.08 113.9 244.94 113.15C246.08 112.15 245.59 112.48 254.48 119.15C254.48 119.15 241.88 109.52 246.25 109.46C247.02 109.46 249.16 110.7 251.45 112.2C248.33 109.55 247.45 107.76 248.06 106.91C249.06 105.43 256.78 110.78 260.33 113.35C257.43 111.19 251.9 107 250.93 105.68C249.59 103.88 252.3 104.03 254.5 104.78C256.97 105.62 270.62 112.59 274.66 114.39C274.984 114.584 275.346 114.704 275.721 114.744C276.096 114.784 276.475 114.742 276.833 114.622C277.19 114.501 277.517 114.304 277.791 114.045C278.065 113.786 278.28 113.47 278.42 113.12C279.91 106.86 284.42 102.79 286.14 102.26C287.86 101.73 289.19 103.93 287.96 105.53C286.803 107.392 285.908 109.404 285.3 111.51C284.743 113.162 284.469 114.897 284.49 116.64C284.49 118.64 284.63 120.37 284.76 121.82L299.23 141.67L275.03 155.67L265.66 138.24Z" fill="#B78876"/>
<path d="M260 121.95C259.84 122.17 257 120.24 253.72 117.63C250.44 115.02 247.88 112.72 248.07 112.51C248.26 112.3 251.07 114.24 254.35 116.83C257.63 119.42 260.14 121.72 260 121.95Z" fill="#AA6550"/>
<path d="M263.06 118.79C262.9 119.02 259.79 117.12 256.11 114.56C252.43 112 249.57 109.73 249.73 109.51C249.89 109.29 253 111.17 256.68 113.73C260.36 116.29 263.22 118.56 263.06 118.79Z" fill="#AA6550"/>
<path d="M265.3 115.43C265.14 115.66 262.16 113.92 258.65 111.54C255.14 109.16 252.42 107.05 252.57 106.81C252.72 106.57 255.7 108.32 259.22 110.7C262.74 113.08 265.45 115.2 265.3 115.43Z" fill="#AA6550"/>
<path d="M286.11 124.51L343.79 197.65L330.58 228.4C330.58 228.4 314.76 224.9 309.96 218.24C305.16 211.58 265.66 138.24 265.66 138.24L286.11 124.51Z" fill="#B78876"/>
<path d="M432.53 22.1904C436.68 25.7904 436.67 32.1304 436.19 37.6004C435.71 43.0704 435.34 49.3004 439.13 53.2804C442.26 56.5604 447.93 57.9904 448.65 62.4604C448.821 63.5107 448.662 64.588 448.195 65.5443C447.728 66.5005 446.977 67.2888 446.044 67.8007C445.111 68.3126 444.043 68.523 442.986 68.403C441.928 68.2829 440.934 67.8384 440.14 67.1304C441.36 70.6604 440.52 75.0704 437.46 77.2104C434.4 79.3504 429.27 78.0304 428.32 74.4204C428.475 75.0231 428.505 75.6514 428.407 76.266C428.309 76.8807 428.085 77.4685 427.75 77.9928C427.414 78.5171 426.974 78.9667 426.458 79.3136C425.941 79.6604 425.358 79.8969 424.746 80.0085C424.133 80.1201 423.505 80.1043 422.899 79.9621C422.293 79.8199 421.723 79.5543 421.224 79.182C420.725 78.8097 420.308 78.3386 420 77.7981C419.691 77.2575 419.497 76.6592 419.43 76.0404" fill="#263238"/>
<path d="M373.1 59.1102C372.542 60.4495 371.474 61.5123 370.132 62.0645C368.791 62.6168 367.284 62.6135 365.945 62.0552C364.606 61.4969 363.543 60.4294 362.991 59.0876C362.438 57.7458 362.442 56.2395 363 54.9002C363.95 52.8202 366.2 51.3202 366.42 49.0402C366.68 46.2902 363.87 44.3202 361.42 43.1202C358.97 41.9202 356.01 40.3602 355.74 37.6002C355.47 34.8402 357.86 32.8702 359.85 31.0902C361.84 29.3102 363.85 26.5502 362.58 24.1802C361.95 22.9602 360.64 22.2702 359.79 21.1802C357.92 18.8002 358.9 15.0102 361.29 13.1802C363.68 11.3502 366.98 11.0602 369.96 11.5902C372.94 12.1202 375.74 13.3602 378.64 14.2302C383.447 15.6281 388.492 16.0139 393.456 15.3633C398.42 14.7127 403.195 13.0398 407.48 10.4502" fill="#263238"/>
<path d="M390.81 123.6C395.976 124.643 401.345 123.612 405.759 120.731C410.172 117.85 413.276 113.349 414.4 108.2L428.59 43.14C429.476 39.3832 429.599 35.487 428.953 31.6817C428.307 27.8764 426.904 24.2393 424.828 20.9855C422.751 17.7317 420.044 14.9273 416.865 12.7381C413.686 10.5489 410.1 9.01942 406.32 8.24002L404.84 8.02002C397.611 6.95731 390.247 8.65695 384.214 12.7804C378.182 16.9038 373.925 23.1483 372.29 30.27C369.13 44 365.82 59.21 364.82 66.68C362.75 82.15 377.82 86.81 377.82 86.81L375.11 99.81C374.573 102.4 374.552 105.071 375.05 107.669C375.548 110.267 376.555 112.741 378.012 114.949C379.469 117.157 381.348 119.055 383.541 120.534C385.734 122.014 388.197 123.046 390.79 123.57L390.81 123.6Z" fill="#B78876"/>
<path d="M375.07 40.51C374.982 41.0841 375.121 41.6699 375.457 42.1438C375.792 42.6177 376.299 42.9426 376.87 43.05C377.147 43.113 377.433 43.1202 377.712 43.071C377.992 43.0218 378.259 42.9173 378.497 42.7636C378.736 42.6099 378.941 42.4101 379.101 42.1759C379.261 41.9418 379.373 41.678 379.43 41.4C379.523 40.8266 379.388 40.2395 379.053 39.7646C378.719 39.2898 378.211 38.965 377.64 38.86C377.363 38.7969 377.076 38.7897 376.796 38.8388C376.516 38.8878 376.248 38.9922 376.009 39.1458C375.77 39.2994 375.563 39.4992 375.402 39.7334C375.241 39.9677 375.128 40.2317 375.07 40.51Z" fill="#263238"/>
<path d="M374.5 38.3097C374.73 38.6397 376.58 37.6397 378.96 37.9997C381.34 38.3597 382.89 39.7897 383.19 39.5397C383.34 39.4297 383.13 38.8697 382.46 38.2097C381.537 37.3479 380.371 36.7925 379.12 36.6197C377.887 36.4335 376.626 36.6436 375.52 37.2197C374.71 37.6797 374.39 38.1597 374.5 38.3097Z" fill="#263238"/>
<path d="M398.26 44.3098C398.17 44.8843 398.307 45.4713 398.643 45.9458C398.98 46.4203 399.488 46.7447 400.06 46.8498C400.337 46.9127 400.624 46.9194 400.904 46.8696C401.184 46.8198 401.452 46.7144 401.69 46.5597C401.929 46.405 402.134 46.2041 402.294 45.9688C402.453 45.7335 402.564 45.4686 402.62 45.1898C402.71 44.6165 402.572 44.0306 402.236 43.5577C401.899 43.0849 401.391 42.7625 400.82 42.6598C400.543 42.5953 400.257 42.5871 399.977 42.6357C399.697 42.6843 399.429 42.7886 399.191 42.9426C398.952 43.0965 398.746 43.2968 398.586 43.5317C398.427 43.7666 398.316 44.0312 398.26 44.3098Z" fill="#263238"/>
<path d="M397.76 42.1701C397.99 42.4901 399.84 41.5001 402.21 41.8601C404.58 42.2201 406.15 43.6501 406.45 43.4001C406.59 43.2901 406.39 42.7301 405.71 42.0701C404.787 41.2082 403.621 40.6529 402.37 40.4801C401.137 40.2939 399.876 40.504 398.77 41.0801C398 41.5101 397.64 42.0201 397.76 42.1701Z" fill="#263238"/>
<path d="M386.57 58.5104C386.57 58.3704 385.16 57.9004 382.82 57.2504C382.22 57.1004 381.67 56.8904 381.63 56.4604C381.671 55.8305 381.901 55.2276 382.29 54.7304C383.083 53.3504 383.907 51.9004 384.76 50.3804C388.21 44.1704 390.76 39.0404 390.55 38.9004C390.34 38.7604 387.3 43.6804 383.85 49.9004L381.45 54.2804C380.965 54.9602 380.732 55.7874 380.79 56.6204C380.851 56.8413 380.961 57.0458 381.112 57.2188C381.262 57.3918 381.45 57.529 381.66 57.6204C381.98 57.7576 382.316 57.855 382.66 57.9104C383.933 58.2719 385.247 58.4735 386.57 58.5104Z" fill="#263238"/>
<path d="M398.5 32.7798C398.64 33.4598 401.06 33.4998 403.79 34.2398C406.52 34.9798 408.66 36.0698 409.12 35.5498C409.32 35.2998 409.02 34.6298 408.21 33.8798C407.111 32.9357 405.811 32.2549 404.409 31.8892C403.007 31.5236 401.54 31.4827 400.12 31.7698C399 32.0298 398.45 32.5098 398.5 32.7798Z" fill="#263238"/>
<path d="M376.38 31.5704C376.72 32.1704 378.38 31.8504 380.38 32.1104C382.38 32.3704 383.96 33.0104 384.38 32.5004C384.59 32.2504 384.38 31.6704 383.76 31.0504C382.872 30.296 381.78 29.8228 380.623 29.691C379.465 29.5592 378.295 29.7749 377.26 30.3104C376.54 30.7604 376.23 31.2804 376.38 31.5704Z" fill="#263238"/>
<path d="M414.31 23.75L414.38 23.83C416.559 26.1293 417.763 29.1826 417.74 32.35V32.66C417.74 37.16 416.93 41.66 416.94 46.11C416.95 50.56 417.81 55.3 420.62 58.8C421.77 60.25 424.01 61.45 425.32 60.15C425.781 59.597 426.076 58.9242 426.17 58.21C428.55 47.7 432.83 38.7 434.44 27.58C434.663 26.0914 434.528 24.5711 434.047 23.145C433.565 21.719 432.75 20.4283 431.67 19.38C429.59 17.38 427 15.22 424.23 16.07C421.46 16.92 417.41 21.27 415.1 23.07" fill="#263238"/>
<path d="M422.36 49.36C422.64 49.28 433.43 47.77 431.54 58.28C429.65 68.79 419.54 64.73 419.54 64.42C419.54 64.11 422.36 49.36 422.36 49.36Z" fill="#B78876"/>
<path d="M423.46 61.02C423.46 61.02 423.62 61.18 423.9 61.37C424.303 61.637 424.794 61.7373 425.27 61.65C426.45 61.44 427.7 59.85 428.09 57.96C428.291 57.0679 428.291 56.1421 428.09 55.25C428.049 54.9043 427.924 54.5736 427.727 54.2863C427.531 53.9991 427.267 53.7636 426.96 53.6C426.76 53.5056 426.532 53.4849 426.318 53.5416C426.104 53.5983 425.917 53.7288 425.79 53.91C425.6 54.17 425.63 54.4 425.57 54.4C425.51 54.4 425.38 54.19 425.57 53.77C425.674 53.5209 425.861 53.3158 426.1 53.19C426.428 53.0227 426.808 52.9904 427.16 53.1C427.579 53.2666 427.948 53.5381 428.231 53.8883C428.515 54.2385 428.704 54.6558 428.78 55.1C429.057 56.0766 429.095 57.1057 428.89 58.1C428.44 60.21 427 61.99 425.41 62.16C425.112 62.1915 424.811 62.1558 424.529 62.0554C424.247 61.955 423.991 61.7925 423.78 61.58C423.43 61.27 423.42 61.03 423.46 61.02Z" fill="#AA6550"/>
<path d="M424.35 17.7601C427.57 13.9101 421.35 6.8101 416.35 4.4001C411.35 1.9901 404.15 3.53009 398.71 4.49009C395.28 5.10009 391.8 6.14009 388.38 5.49009C386.11 4.92213 383.939 4.01527 381.94 2.80009C379.935 1.60675 377.711 0.828037 375.4 0.510096C374.237 0.367087 373.058 0.543854 371.988 1.02137C370.919 1.49889 370 2.25908 369.33 3.2201C368.14 5.2201 368.97 8.3501 371.21 9.0001C370.535 8.48763 369.746 8.14656 368.91 8.00616C368.074 7.86576 367.216 7.93022 366.411 8.19401C365.605 8.4578 364.876 8.91304 364.285 9.52069C363.694 10.1283 363.259 10.8702 363.018 11.6828C362.777 12.4953 362.737 13.3542 362.9 14.1859C363.064 15.0175 363.427 15.797 363.958 16.4575C364.489 17.118 365.173 17.6398 365.95 17.9781C366.727 18.3165 367.575 18.4613 368.42 18.4001C367.09 17.0401 364.51 18.5901 364.42 20.4901C364.33 22.3901 365.83 24.0001 367.42 25.0101C371.53 27.5901 376.75 27.7201 381.53 26.8601C386.31 26.0001 390.89 24.2201 395.65 23.2401C400.41 22.2601 408.4 20.4001 412.7 22.6701C415.86 24.3301 417.6 28.6701 419.61 28.0801C420.562 27.7295 421.419 27.1619 422.113 26.4225C422.807 25.6831 423.32 24.792 423.61 23.8201C424.152 21.8686 424.378 19.843 424.28 17.8201" fill="#263238"/>
<path d="M444.92 66.5097C445.117 66.4646 445.303 66.3832 445.47 66.2697C445.964 65.952 446.36 65.5015 446.61 64.9697C446.998 64.1188 447.116 63.1698 446.95 62.2497C446.69 61.0396 446.028 59.9536 445.07 59.1697C443.934 58.2342 442.654 57.488 441.28 56.9597C439.736 56.3961 438.251 55.6792 436.85 54.8197C435.381 53.7878 434.262 52.3333 433.64 50.6497C432.957 48.8367 432.641 46.906 432.71 44.9697C432.81 40.9697 433.92 37.2197 434.19 33.6897C434.46 30.1597 434.01 26.8497 432.51 24.5597C431.382 22.718 429.594 21.3766 427.51 20.8097C426.951 20.669 426.375 20.6117 425.8 20.6397C425.6 20.6429 425.402 20.6732 425.21 20.7297C425.969 20.7247 426.725 20.8188 427.46 21.0097C429.441 21.636 431.122 22.9713 432.18 24.7597C433.57 26.9797 434.05 30.1997 433.7 33.6497C433.35 37.0997 432.28 40.8497 432.16 44.9597C432.096 46.9669 432.436 48.9664 433.16 50.8397C433.829 52.6185 435.026 54.1503 436.59 55.2297C438.025 56.0914 439.543 56.8083 441.12 57.3697C442.457 57.8657 443.709 58.5675 444.83 59.4497C445.744 60.1725 446.391 61.1786 446.67 62.3097C446.852 63.1709 446.769 64.0672 446.43 64.8797C446.121 65.5751 445.59 66.1484 444.92 66.5097Z" fill="#455A64"/>
<path d="M370.87 8.74975C370.73 8.64457 370.575 8.56035 370.41 8.49975C370.223 8.40764 370.029 8.33071 369.83 8.26974C369.553 8.17502 369.269 8.10476 368.98 8.05975C368.032 7.91013 367.062 7.97823 366.143 8.25889C365.225 8.53956 364.383 9.02543 363.68 9.67974C362.968 10.5469 362.435 11.5468 362.113 12.6213C361.79 13.6959 361.684 14.8238 361.8 15.9397C361.934 17.3258 362.345 18.6709 363.008 19.8956C363.671 21.1202 364.573 22.1995 365.66 23.0697C368.159 25.0832 371.202 26.3053 374.4 26.5798C377.872 26.8784 381.369 26.6661 384.78 25.9497C390.188 24.8902 395.367 22.8863 400.08 20.0298C402.1 18.7802 404.213 17.687 406.4 16.7597C408.308 15.9856 410.342 15.5686 412.4 15.5298C415.395 15.4649 418.359 16.1526 421.02 17.5298C421.982 18.0681 422.913 18.6589 423.81 19.2997C423.009 18.5131 422.104 17.8401 421.12 17.2997C418.452 15.8132 415.444 15.0448 412.39 15.0697C410.281 15.0859 408.193 15.4892 406.23 16.2597C404.02 17.1859 401.884 18.279 399.84 19.5298C395.16 22.3271 390.031 24.2928 384.68 25.3397C381.32 26.0515 377.873 26.2704 374.45 25.9897C371.35 25.7326 368.396 24.5635 365.96 22.6297C364.912 21.8014 364.04 20.7726 363.394 19.6033C362.749 18.434 362.343 17.1478 362.2 15.8197C362.078 14.7557 362.167 13.6779 362.462 12.6483C362.757 11.6187 363.253 10.6575 363.92 9.81974C364.587 9.18334 365.387 8.70331 366.262 8.41446C367.137 8.1256 368.066 8.03518 368.98 8.14975C369.627 8.29142 370.26 8.49227 370.87 8.74975Z" fill="#455A64"/>
<path d="M376.72 0C376.684 0.803515 376.81 1.60609 377.09 2.36C377.87 4.4438 379.328 6.2048 381.23 7.36C382.508 8.19254 383.928 8.78239 385.42 9.09999C387.131 9.44469 388.883 9.53567 390.62 9.37C394.29 9.1 398.13 7.83999 402.16 6.79999C406.19 5.75999 410.22 5.21 413.7 6.14C416.789 6.95831 419.535 8.74159 421.54 11.23C422.919 12.8828 423.94 14.8031 424.54 16.87C424.94 18.34 424.99 19.2 425.06 19.19C425.073 18.9835 425.073 18.7764 425.06 18.57C425.005 17.9805 424.908 17.3957 424.77 16.82C424.236 14.6878 423.243 12.698 421.86 10.99C419.836 8.39945 417.03 6.53037 413.86 5.65999C410.26 4.65999 406.12 5.23 402.07 6.28C398.02 7.33 394.21 8.58999 390.62 8.87999C388.929 9.05498 387.221 8.98426 385.55 8.67C384.105 8.37592 382.723 7.82738 381.47 7.04999C379.616 5.95673 378.164 4.29438 377.33 2.31C377.062 1.55844 376.858 0.785728 376.72 0Z" fill="#455A64"/>
<path d="M381.83 66.3602C381.962 67.3926 382.234 68.402 382.64 69.3602C382.852 69.8337 383.163 70.2568 383.55 70.6015C383.938 70.9463 384.395 71.2049 384.89 71.3602C385.426 71.471 385.982 71.4458 386.506 71.2868C387.03 71.1279 387.506 70.8403 387.89 70.4502C388.657 69.6423 389.15 68.6138 389.3 67.5102C389.46 66.5102 389.3 65.2602 388.3 64.9402C387.896 64.8402 387.474 64.8402 387.07 64.9402L381.53 65.9402" fill="#AA6550"/>
<path d="M382.8 70.5598C383.681 70.8987 384.616 71.0749 385.56 71.0798C386.537 71.0224 387.458 70.6015 388.14 69.8998C388.543 69.4707 388.85 68.9608 389.042 68.404C389.233 67.8472 389.304 67.2561 389.25 66.6698C389.22 66.3694 389.153 66.0737 389.05 65.7898C388.92 65.5198 388.96 65.5398 388.73 65.5098C388.5 65.4798 388.14 65.5098 387.84 65.5598L386.91 65.6298C385.71 65.7198 384.63 65.7898 383.72 65.8398C382.723 65.9786 381.711 65.9583 380.72 65.7798C381.655 65.4385 382.636 65.2363 383.63 65.1798C384.53 65.0498 385.63 64.9198 386.8 64.7798L387.72 64.6798C388.051 64.6313 388.385 64.6012 388.72 64.5898C388.985 64.597 389.24 64.688 389.45 64.8498C389.636 65.0149 389.778 65.2249 389.86 65.4598C389.996 65.82 390.083 66.1966 390.12 66.5798C390.186 67.2998 390.092 68.0253 389.844 68.7047C389.597 69.3841 389.203 70.0004 388.69 70.5098C387.837 71.3214 386.697 71.7634 385.52 71.7398C384.751 71.743 383.996 71.5317 383.34 71.1298C383 70.8498 382.77 70.5998 382.8 70.5598Z" fill="#263238"/>
<path d="M377.84 86.8096C377.84 86.8096 387.92 90.6296 397.73 87.8096C397.73 87.8096 390.33 94.0196 376.83 91.6396L377.84 86.8096Z" fill="#AA6550"/>
<path d="M393.22 230.18C392.734 229.862 392.273 229.507 391.84 229.12C391.41 228.77 390.84 228.34 390.23 227.88C389.62 227.42 388.88 226.88 388.03 226.33C387.18 225.78 386.3 225.18 385.27 224.61C384.24 224.04 383.15 223.44 381.98 222.84C376.85 220.315 371.334 218.666 365.66 217.96C364.35 217.82 363.11 217.66 361.94 217.63C360.77 217.6 359.68 217.55 358.69 217.56C357.7 217.57 356.79 217.62 356 217.65C355.21 217.68 354.53 217.74 354 217.8C353.428 217.887 352.849 217.927 352.27 217.92C352.832 217.775 353.404 217.669 353.98 217.6C354.642 217.486 355.31 217.406 355.98 217.36C356.77 217.3 357.67 217.19 358.68 217.19C359.69 217.19 360.78 217.13 361.96 217.19C363.14 217.25 364.4 217.35 365.72 217.47C368.581 217.826 371.41 218.408 374.18 219.21C376.929 220.054 379.604 221.121 382.18 222.4C383.35 223.02 384.48 223.59 385.47 224.23C386.46 224.87 387.4 225.44 388.22 226.02C389.04 226.6 389.76 227.16 390.39 227.64C391.02 228.12 391.54 228.58 391.95 228.96C392.407 229.33 392.831 229.738 393.22 230.18Z" fill="#FAFAFA"/>
<path d="M334.45 178.82L342.65 143.29C345.79 129.93 349.51 117.09 355.76 115.57V119.7L353.08 221.21C353.08 221.21 336.37 240.21 315.08 229.67C308.42 226.36 296.27 203.11 296.27 203.11C296.27 203.11 268 152.67 269.18 150.38C270.36 148.09 287.63 125.83 289.39 124.72L334.45 178.82Z" fill="#EE1C25"/>
<path d="M418.83 105.51C435.13 108.63 453.48 118.14 461.93 142.51C465.01 151.41 487.45 217.02 487.45 217.02L449.18 216.22L443 202.71L446 224.66L448.59 255.96L351.95 257.59L352.63 210.43L353.56 116.63C353.56 116.63 354.64 115.21 371.31 106.02C381.65 100.31 418.83 105.51 418.83 105.51Z" fill="#EE1C25"/>
<g opacity="0.2">
<path d="M428.47 168.25C430.06 188.05 431.88 194.17 433.47 213.97C433.508 215.845 433.845 217.702 434.47 219.47C434.804 220.349 435.34 221.138 436.035 221.772C436.73 222.406 437.564 222.868 438.47 223.12C441.29 223.69 444.95 225.73 445.74 222.97L443.07 203.9C442.496 201.126 441.61 198.425 440.43 195.85C434.5 182.68 432.31 181.91 428.43 168.25" fill="black"/>
</g>
<path d="M371.3 116.17L371.62 114.11L374.71 94.35C374.799 93.7756 375.102 93.2563 375.559 92.8964C376.015 92.5365 376.591 92.3627 377.17 92.41L415.22 95.59C416.369 95.6844 417.435 96.2294 418.184 97.106C418.933 97.9827 419.306 99.12 419.22 100.27L418.37 111.75L406.49 127.25L389.38 129.92" fill="#EE1C25"/>
<path d="M352.19 153.32C352.34 153.32 352.45 168.8 352.45 187.89C352.45 206.98 352.34 222.46 352.19 222.46C352.04 222.46 351.93 206.98 351.93 187.89C351.93 168.8 352.05 153.32 352.19 153.32Z" fill="#263238"/>
<path d="M450 219.4C450 219.4 450 219.33 449.88 219.18C449.76 219.03 449.69 218.78 449.56 218.5L448.4 215.87L444.23 206.16L430.64 174.05C428 167.77 425.49 161.79 423.21 156.34C422.057 153.787 421.231 151.099 420.75 148.34C420.328 145.929 420.107 143.487 420.09 141.04C419.963 137.493 420.478 133.953 421.61 130.59L421.92 129.76L422.27 129.06C422.434 128.687 422.635 128.332 422.87 128L423.29 127.38C423.338 127.309 423.392 127.242 423.45 127.18C422.792 128.285 422.24 129.451 421.8 130.66C420.753 134.015 420.3 137.528 420.46 141.04C420.477 146.255 421.563 151.411 423.65 156.19L431.12 173.88L444.57 206.05L448.57 215.82L449.64 218.49L449.91 219.19C449.947 219.257 449.977 219.327 450 219.4Z" fill="#263238"/>
<path d="M430.69 109C430.34 109.355 429.97 109.689 429.58 110C428.456 110.857 427.23 111.573 425.93 112.13C423.871 112.989 421.715 113.594 419.51 113.93C416.595 114.383 413.657 114.673 410.71 114.8C407.43 114.94 403.85 114.88 400.01 114.95C395.931 114.943 391.867 115.44 387.91 116.43C383.526 117.466 379.559 119.805 376.53 123.14C375.021 124.956 373.941 127.089 373.37 129.38C372.76 131.73 372.801 134.202 373.49 136.53C373.872 137.679 374.436 138.759 375.16 139.73C375.889 140.672 376.809 141.449 377.86 142.01C378.88 142.568 380.042 142.812 381.2 142.71C382.333 142.594 383.381 142.059 384.14 141.21C384.816 140.317 385.297 139.293 385.552 138.202C385.807 137.112 385.83 135.98 385.62 134.88C385.454 133.794 385.116 132.741 384.62 131.76C384.127 130.803 383.533 129.902 382.85 129.07C380.177 125.989 376.577 123.859 372.59 123C369.136 122.185 365.535 122.226 362.1 123.12C359.275 123.851 356.577 125.007 354.1 126.55C352.214 127.726 350.434 129.065 348.78 130.55C347.41 131.75 346.44 132.79 345.78 133.47L345.04 134.27C344.959 134.366 344.869 134.453 344.77 134.53C345.947 133.042 347.252 131.66 348.67 130.4C350.307 128.885 352.081 127.526 353.97 126.34C356.471 124.749 359.203 123.555 362.07 122.8C365.561 121.864 369.229 121.802 372.75 122.62C376.84 123.483 380.537 125.656 383.28 128.81C383.979 129.644 384.589 130.549 385.1 131.51C385.604 132.54 385.942 133.644 386.1 134.78C386.275 135.939 386.255 137.118 386.04 138.27C385.824 139.469 385.297 140.59 384.51 141.52C383.669 142.463 382.507 143.059 381.25 143.19C379.989 143.31 378.721 143.049 377.61 142.44C376.494 141.844 375.516 141.019 374.74 140.02C373.977 139.002 373.382 137.867 372.98 136.66C372.261 134.241 372.22 131.671 372.86 129.23C373.443 126.859 374.562 124.652 376.13 122.78C379.232 119.377 383.289 116.99 387.77 115.93C391.772 114.952 395.88 114.475 400 114.51C403.85 114.45 407.43 114.51 410.69 114.42C413.626 114.318 416.553 114.054 419.46 113.63C421.652 113.315 423.8 112.745 425.86 111.93C427.152 111.405 428.38 110.734 429.52 109.93C429.92 109.66 430.19 109.41 430.39 109.27C430.481 109.171 430.581 109.08 430.69 109Z" fill="#FAFAFA"/>
<path d="M463.76 150.62C463.62 150.659 463.476 150.683 463.33 150.69C463.05 150.69 462.64 150.76 462.1 150.78C460.589 150.829 459.077 150.793 457.57 150.67C455.66 150.53 453.4 150.24 450.9 149.89C448.4 149.54 445.66 149.17 442.76 149.02C440.048 148.872 437.329 149.077 434.67 149.63C432.496 150.072 430.408 150.865 428.49 151.98C426.752 153.042 425.21 154.395 423.93 155.98C423.984 155.846 424.058 155.721 424.15 155.61C424.361 155.256 424.602 154.922 424.87 154.61C425.839 153.426 426.998 152.412 428.3 151.61C430.231 150.43 432.347 149.585 434.56 149.11C437.261 148.52 440.029 148.298 442.79 148.45C445.72 148.6 448.47 149 450.97 149.37C453.47 149.74 455.71 150.07 457.6 150.25C459.49 150.43 461.04 150.51 462.1 150.52C462.655 150.519 463.209 150.552 463.76 150.62Z" fill="#FAFAFA"/>
<path d="M439.73 195.45C437.85 195.013 435.917 194.848 433.99 194.96C431.73 195.113 429.493 195.512 427.32 196.15C424.77 196.84 421.92 197.85 418.72 198.84C415.245 200.018 411.609 200.649 407.94 200.71C403.715 200.709 399.536 199.841 395.66 198.16C391.353 196.34 387.521 193.555 384.46 190.02C382.804 188.173 381.454 186.073 380.46 183.8C379.403 181.447 379.005 178.851 379.31 176.29C379.658 173.708 380.917 171.336 382.86 169.6C383.825 168.759 384.982 168.168 386.23 167.88C387.451 167.622 388.715 167.656 389.92 167.981C391.125 168.307 392.235 168.913 393.16 169.75C394.064 170.579 394.692 171.664 394.96 172.86C395.219 174.031 395.125 175.252 394.69 176.37C394.269 177.445 393.633 178.421 392.82 179.24C391.269 180.793 389.395 181.985 387.33 182.73C386.358 183.099 385.354 183.377 384.33 183.56C383.83 183.65 383.33 183.76 382.84 183.83L381.35 184.01C377.696 184.372 374.007 184.112 370.44 183.24C367.498 182.54 364.663 181.45 362.01 180C360.003 178.916 358.122 177.615 356.4 176.12L355.4 175.25L354.58 174.42C354.138 174.001 353.723 173.554 353.34 173.08L352.62 172.22C352.538 172.127 352.464 172.027 352.4 171.92C352.497 172.003 352.587 172.093 352.67 172.19L353.42 173.01C353.816 173.469 354.241 173.903 354.69 174.31L355.52 175.12L356.52 175.97C358.25 177.424 360.13 178.688 362.13 179.74C364.77 181.151 367.584 182.206 370.5 182.88C374.031 183.721 377.68 183.958 381.29 183.58L382.75 183.4C383.24 183.32 383.75 183.21 384.23 183.12C385.23 182.939 386.211 182.665 387.16 182.3C389.157 181.573 390.97 180.415 392.47 178.91C393.235 178.136 393.834 177.214 394.23 176.2C394.622 175.17 394.709 174.048 394.48 172.97C394.183 171.869 393.592 170.869 392.769 170.08C391.946 169.29 390.923 168.741 389.81 168.49C388.67 168.161 387.466 168.127 386.31 168.391C385.154 168.656 384.084 169.209 383.2 170C381.348 171.65 380.152 173.911 379.83 176.37C379.543 178.835 379.923 181.332 380.93 183.6C381.898 185.82 383.207 187.875 384.81 189.69C387.819 193.16 391.582 195.896 395.81 197.69C399.625 199.355 403.738 200.226 407.9 200.25C411.532 200.205 415.134 199.598 418.58 198.45C421.77 197.45 424.58 196.51 427.21 195.84C429.406 195.223 431.663 194.851 433.94 194.73C434.769 194.678 435.601 194.678 436.43 194.73C437.14 194.84 437.75 194.89 438.23 195L439.32 195.27C439.464 195.311 439.602 195.371 439.73 195.45Z" fill="#FAFAFA"/>
<path d="M351.86 184.78C351.77 184.78 351.31 183.78 350.34 182.1C347.801 177.837 344.1 174.385 339.67 172.15C337.97 171.29 336.85 170.91 336.88 170.82C337.161 170.845 337.437 170.909 337.7 171.01C338.428 171.227 339.139 171.494 339.83 171.81C342.121 172.855 344.228 174.263 346.07 175.98C347.915 177.696 349.466 179.702 350.66 181.92C351.038 182.584 351.372 183.272 351.66 183.98C351.762 184.237 351.829 184.506 351.86 184.78Z" fill="#FAFAFA"/>
<path d="M313.06 227.58C313.06 227.58 312.99 227.5 312.9 227.33C312.81 227.16 312.66 226.89 312.49 226.58C312.13 225.92 311.61 224.93 310.97 223.65C309.112 220.037 307.58 216.265 306.39 212.38C305.595 209.681 305.115 206.899 304.96 204.09C304.88 202.521 304.944 200.948 305.15 199.39C305.398 197.742 305.793 196.118 306.33 194.54C307.497 191.128 309.518 188.071 312.2 185.66C313.632 184.346 315.317 183.336 317.151 182.691C318.985 182.047 320.93 181.781 322.87 181.91C324.886 182.061 326.768 182.977 328.13 184.47C328.778 185.208 329.249 186.085 329.507 187.033C329.765 187.981 329.804 188.975 329.62 189.94C329.404 190.887 328.909 191.747 328.2 192.41C327.507 193.045 326.669 193.501 325.76 193.74C324 194.198 322.131 193.973 320.53 193.11C319.044 192.308 317.746 191.2 316.72 189.86C315.736 188.619 314.926 187.249 314.31 185.79C313.228 183.172 312.779 180.335 313 177.51C313.202 175.179 313.883 172.915 315 170.86C315.828 169.309 316.887 167.893 318.14 166.66C318.924 165.878 319.785 165.178 320.71 164.57C321.02 164.36 321.28 164.23 321.45 164.13L321.71 164C321.71 164 321.39 164.23 320.77 164.66C319.877 165.297 319.044 166.013 318.28 166.8C317.082 168.044 316.071 169.455 315.28 170.99C314.217 173.02 313.581 175.245 313.41 177.53C313.217 180.3 313.683 183.075 314.77 185.63C315.377 187.046 316.171 188.374 317.13 189.58C318.125 190.863 319.379 191.923 320.81 192.69C322.304 193.494 324.049 193.702 325.69 193.27C326.532 193.073 327.303 192.648 327.919 192.041C328.534 191.434 328.971 190.669 329.18 189.83C329.339 188.946 329.297 188.039 329.058 187.173C328.819 186.308 328.389 185.507 327.8 184.83C326.524 183.438 324.764 182.586 322.88 182.45C321.011 182.327 319.137 182.583 317.371 183.203C315.604 183.824 313.981 184.795 312.6 186.06C309.982 188.414 308.004 191.394 306.85 194.72C306.311 196.264 305.912 197.854 305.66 199.47C305.452 201.001 305.382 202.547 305.45 204.09C305.59 206.869 306.046 209.624 306.81 212.3C307.962 216.175 309.434 219.948 311.21 223.58L312.64 226.58C312.79 226.9 312.91 227.16 313.01 227.36C313.11 227.56 313.06 227.58 313.06 227.58Z" fill="#FAFAFA"/>
<path d="M300.71 139.3C300.71 139.3 300.76 139.44 300.8 139.71C300.87 140.114 300.921 140.521 300.95 140.93C301.082 142.424 301.082 143.926 300.95 145.42C300.546 150.394 298.845 155.175 296.016 159.286C293.188 163.397 289.331 166.695 284.83 168.85C283.483 169.508 282.081 170.046 280.64 170.46C280.14 170.62 279.73 170.69 279.46 170.76C279.19 170.83 279.04 170.84 279.04 170.82C279.541 170.604 280.055 170.42 280.58 170.27C281.983 169.783 283.35 169.199 284.67 168.52C289.051 166.307 292.805 163.028 295.587 158.984C298.369 154.941 300.089 150.262 300.59 145.38C300.748 143.905 300.805 142.422 300.76 140.94C300.708 140.395 300.691 139.847 300.71 139.3Z" fill="#FAFAFA"/>
<path d="M472.51 182.66C471.022 183.592 469.715 184.784 468.65 186.18C467.65 187.47 466.65 189.18 465.52 190.98C464.281 192.995 462.851 194.887 461.25 196.63C458.322 199.792 454.851 202.404 451 204.34C449.841 204.926 448.645 205.438 447.42 205.87C446.973 206.045 446.511 206.179 446.04 206.27C446.454 206.033 446.889 205.835 447.34 205.68C448.18 205.31 449.4 204.79 450.83 204.01C454.566 202.001 457.945 199.39 460.83 196.28C462.414 194.564 463.837 192.706 465.08 190.73C466.074 189.077 467.159 187.482 468.33 185.95C469.143 184.923 470.112 184.029 471.2 183.3C471.495 183.104 471.806 182.933 472.13 182.79C472.39 182.69 472.51 182.64 472.51 182.66Z" fill="#FAFAFA"/>
<path d="M418.47 106.71C418.324 106.773 418.168 106.814 418.01 106.83L416.68 107.07C415.52 107.26 413.84 107.51 411.77 107.79C407.61 108.35 401.85 109.01 395.46 109.48C392.468 109.754 389.464 109.86 386.46 109.8C383.982 109.74 381.526 109.319 379.17 108.55C377.579 108.035 376.078 107.276 374.72 106.3C374.349 106.039 373.995 105.755 373.66 105.45C373.44 105.23 373.33 105.12 373.34 105.1C373.35 105.08 373.86 105.5 374.83 106.1C376.211 106.988 377.709 107.682 379.28 108.16C381.615 108.871 384.039 109.248 386.48 109.28C389.484 109.312 392.488 109.192 395.48 108.92C401.85 108.45 407.61 107.86 411.77 107.39L416.7 106.83C417.286 106.749 417.878 106.709 418.47 106.71Z" fill="#263238"/>
<path d="M487 224.1C487.753 227.969 487.645 231.956 486.685 235.778C485.725 239.601 483.935 243.165 481.444 246.219C478.952 249.272 475.819 251.74 472.267 253.448C468.715 255.156 464.831 256.061 460.89 256.1L385.14 255.26L387.14 230.73L452 220.99" fill="#B78876"/>
<path d="M391.78 231.8C391.43 231.91 387.06 229.95 383.14 228.14C378.982 226.213 374.417 225.328 369.84 225.56L351.78 226.48C351.78 226.48 352.89 229.48 354.78 230.48C356.67 231.48 368 231.8 368 231.8L367.42 232.39C365.051 234.83 361.82 236.244 358.42 236.33H356.69C355.409 236.228 354.144 235.98 352.92 235.59L348.47 233.79C347.12 233.19 345.7 233.28 345.11 234.64C344.52 236 344.97 237.56 348.65 239.41C350.7 240.41 358.32 243.08 358.32 243.08C358.372 244.164 358.523 245.242 358.77 246.3C359.1 247.41 362.09 248.52 362.09 248.52C362.867 250.165 363.756 251.756 364.75 253.28C365.1 253.68 367.81 254.53 370.7 255.34C375.359 256.644 380.292 256.606 384.93 255.23L391.81 253.17V232.17" fill="#B78876"/>
<path d="M367.08 245.51C363.898 245.429 360.779 244.608 357.97 243.11C357.97 242.99 359.97 243.75 362.5 244.4C365.03 245.05 367.09 245.36 367.08 245.51Z" fill="#AA6550"/>
<path d="M366.44 249.72C365.592 249.896 364.712 249.83 363.9 249.53C363.051 249.374 362.262 248.986 361.62 248.41C362.438 248.573 363.24 248.804 364.02 249.1C364.841 249.244 365.65 249.452 366.44 249.72Z" fill="#AA6550"/>
<path d="M369.74 230.17C369.345 230.726 368.877 231.227 368.35 231.66C367.152 232.803 365.831 233.81 364.41 234.66C362.978 235.496 361.422 236.097 359.8 236.44C359.148 236.614 358.474 236.688 357.8 236.66C360.035 236.146 362.193 235.343 364.22 234.27C365.609 233.432 366.93 232.486 368.17 231.44C368.655 230.971 369.18 230.546 369.74 230.17Z" fill="#AA6550"/>
<path d="M393.62 228.51L391.78 256.25H463.13C467.974 256.253 472.728 254.936 476.88 252.44C481.579 249.616 485.294 245.413 487.52 240.404C489.746 235.394 490.374 229.82 489.32 224.44C488.294 219.172 486.753 214.017 484.72 209.05L448.84 214.96L449.99 219.42L393.62 228.51Z" fill="#EE1C25"/>
<path d="M466.52 217.09C466.284 217.158 466.043 217.211 465.8 217.25L463.71 217.63L456 218.91L430.64 222.91L405.25 226.8L397.55 227.92L395.45 228.2C395.205 228.234 394.958 228.254 394.71 228.26C394.947 228.177 395.191 228.12 395.44 228.09L397.52 227.72L405.2 226.43L430.56 222.43L456 218.51L463.7 217.39L465.8 217.11C466.039 217.077 466.28 217.071 466.52 217.09Z" fill="#263238"/>
<path d="M430 256.27C429.87 256.27 430.43 254.27 430.5 251C430.515 250.112 430.479 249.224 430.39 248.34C430.304 247.332 430.157 246.33 429.95 245.34C429.455 243.058 428.675 240.848 427.63 238.76C426.56 236.682 425.251 234.735 423.73 232.96L422.73 231.79C422.39 231.41 422.02 231.08 421.68 230.74C421.01 230.05 420.3 229.5 419.68 228.97C417.13 226.97 415.32 225.97 415.38 225.88C415.822 226.057 416.248 226.275 416.65 226.53C417.148 226.79 417.629 227.08 418.09 227.4C418.62 227.78 419.28 228.15 419.91 228.69C420.63 229.229 421.318 229.81 421.97 230.43C422.32 230.77 422.71 231.09 423.06 231.43L424.15 232.61C425.716 234.397 427.059 236.368 428.15 238.48C429.209 240.611 429.988 242.87 430.47 245.2C430.675 246.219 430.809 247.252 430.87 248.29C430.934 249.189 430.934 250.091 430.87 250.99C430.851 251.737 430.784 252.482 430.67 253.22C430.615 253.776 430.518 254.328 430.38 254.87C430.294 255.347 430.167 255.815 430 256.27Z" fill="#FAFAFA"/>
<path d="M473.44 254.18C472.326 254.173 471.215 254.042 470.13 253.79C468.851 253.496 467.609 253.057 466.43 252.48C464.867 251.702 463.455 250.653 462.26 249.38C460.81 247.819 459.757 245.933 459.19 243.88C458.874 242.738 458.696 241.563 458.66 240.38C458.588 239.128 458.689 237.873 458.96 236.65C459.227 235.347 459.729 234.103 460.44 232.98C461.182 231.788 462.214 230.804 463.44 230.12C464.708 229.38 466.165 229.032 467.63 229.12C468.383 229.172 469.118 229.376 469.79 229.72C470.462 230.063 471.057 230.54 471.54 231.12C472.04 231.692 472.415 232.361 472.642 233.086C472.87 233.811 472.944 234.575 472.86 235.33C472.737 236.062 472.453 236.758 472.027 237.367C471.602 237.976 471.046 238.482 470.4 238.85C467.98 240.117 465.192 240.499 462.52 239.93C458.727 239.339 455.26 237.439 452.719 234.561C450.179 231.683 448.725 228.007 448.61 224.17C448.546 223.055 448.64 221.938 448.89 220.85C448.798 221.95 448.771 223.056 448.81 224.16C448.996 227.169 449.98 230.075 451.66 232.58C452.912 234.418 454.526 235.981 456.404 237.173C458.282 238.364 460.384 239.16 462.58 239.51C465.133 240.058 467.798 239.705 470.12 238.51C470.7 238.182 471.2 237.729 471.584 237.184C471.968 236.64 472.226 236.016 472.34 235.36C472.399 234.675 472.322 233.986 472.114 233.331C471.906 232.677 471.571 232.069 471.128 231.544C470.685 231.02 470.142 230.587 469.532 230.272C468.921 229.958 468.255 229.766 467.57 229.71C466.214 229.617 464.861 229.927 463.68 230.6C462.569 231.264 461.614 232.159 460.881 233.226C460.147 234.292 459.652 235.504 459.43 236.78C459.159 237.966 459.055 239.184 459.12 240.4C459.148 241.545 459.312 242.683 459.61 243.79C460.137 245.788 461.139 247.631 462.53 249.16C463.673 250.414 465.027 251.46 466.53 252.25C467.683 252.838 468.897 253.298 470.15 253.62C472.25 254.09 473.45 254.11 473.44 254.18Z" fill="#FAFAFA"/>
<path d="M110.838 50.6481C109.708 53.5781 111.648 56.7681 113.838 59.0281C116.028 61.2881 118.648 63.4281 119.338 66.4881C119.908 69.0581 118.958 71.7281 119.188 74.3481C119.418 76.9681 120.868 79.4381 121.688 81.9981C123.178 86.6381 122.578 91.7081 121.248 96.3981C120.289 100.295 118.456 103.924 115.888 107.008C114.595 108.536 112.992 109.772 111.185 110.633C109.378 111.495 107.409 111.964 105.408 112.008C104.842 112.044 104.275 111.963 103.742 111.77C103.209 111.577 102.721 111.277 102.308 110.888C101.747 110.079 101.438 109.122 101.418 108.138C99.1281 88.003 99.1281 67.6732 101.418 47.5381" fill="#263238"/>
<path d="M108.728 115.538C117.428 115.158 125.468 123.488 124.778 132.168C133.588 134.318 139.778 144.008 138.088 152.908C137.518 155.848 136.208 158.648 136.028 161.628C135.828 164.888 137.028 168.058 137.618 171.258C138.75 177.09 138.145 183.126 135.878 188.618C134.508 191.928 131.948 195.348 128.368 195.448C127.155 195.397 125.973 195.048 124.927 194.432C123.881 193.817 123.002 192.953 122.368 191.918C121.122 189.822 120.299 187.501 119.948 185.088C118.398 177.268 117.948 169.238 115.788 161.568C113.628 153.898 109.428 146.338 102.498 142.448C98.6681 140.288 94.0681 139.268 91.0181 136.098C89.4838 134.368 88.4609 132.245 88.0636 129.967C87.6662 127.689 87.9102 125.345 88.7681 123.198C89.667 121.07 91.0044 119.155 92.6929 117.578C94.3815 116.002 96.3834 114.799 98.5681 114.048" fill="#263238"/>
<path d="M48.5081 57.818C48.4081 54.098 51.8381 51.228 55.2981 49.818C58.7581 48.408 62.6081 47.938 65.6881 45.818C68.4281 43.978 70.2581 41.108 72.5681 38.818C75.4205 35.9253 78.9914 33.844 82.9141 32.7875C86.8368 31.7311 90.97 31.7376 94.8894 32.8066C98.8087 33.8755 102.373 35.9682 105.216 38.8699C108.059 41.7716 110.079 45.3777 111.068 49.318C112.398 54.608 111.488 60.868 107.318 64.388C102.478 68.468 95.3181 67.558 89.0881 66.288C82.8581 65.018 75.8581 63.768 70.6781 67.418C67.5581 69.608 65.7581 73.188 63.8481 76.498C61.9381 79.808 59.5481 83.178 55.9381 84.428C52.3281 85.678 47.4181 83.518 47.2781 79.708" fill="#263238"/>
<path d="M63.1681 58.5777C61.6197 58.7451 60.1905 59.4872 59.1629 60.6574C58.1353 61.8276 57.584 63.3407 57.6181 64.8977L61.3281 148.898C61.4881 158.818 75.9881 164.388 86.6081 164.138C97.3381 163.888 97.6781 158.628 97.8181 149.188C98.0381 133.428 98.0181 127.508 98.0281 127.598C98.0381 127.688 111.578 125.318 114.348 107.598C115.718 98.8077 115.248 84.3877 114.478 72.5977C113.788 61.9877 106.728 48.9877 96.1581 50.1277L63.1681 58.5777Z" fill="#FFBE9D"/>
<path d="M111.428 83.7384C111.434 84.3287 111.209 84.8979 110.802 85.3254C110.395 85.7529 109.838 86.0051 109.248 86.0284C108.963 86.053 108.675 86.0206 108.403 85.933C108.13 85.8454 107.877 85.7045 107.659 85.5184C107.442 85.3323 107.263 85.1047 107.134 84.8489C107.005 84.5931 106.928 84.3142 106.908 84.0284C106.9 83.4375 107.124 82.8668 107.531 82.4388C107.939 82.0107 108.497 81.7593 109.088 81.7384C109.374 81.7139 109.661 81.7463 109.934 81.8339C110.206 81.9214 110.459 82.0624 110.677 82.2485C110.895 82.4346 111.073 82.6622 111.202 82.918C111.331 83.1738 111.408 83.4527 111.428 83.7384Z" fill="#263238"/>
<path d="M111.368 80.1378C111.088 80.4378 109.368 79.1378 106.928 79.1378C104.488 79.1378 102.698 80.3778 102.428 80.0778C102.298 79.9478 102.588 79.4078 103.368 78.8378C104.421 78.1047 105.675 77.7168 106.958 77.7278C108.228 77.7203 109.467 78.116 110.498 78.8578C111.248 79.4478 111.508 80.0078 111.368 80.1378Z" fill="#263238"/>
<path d="M87.9781 83.7384C87.9838 84.3287 87.7593 84.8979 87.3523 85.3254C86.9454 85.7529 86.3879 86.0051 85.7981 86.0284C85.5127 86.053 85.2252 86.0206 84.9525 85.933C84.6797 85.8454 84.4271 85.7045 84.2094 85.5184C83.9916 85.3323 83.813 85.1047 83.684 84.8489C83.5551 84.5931 83.4783 84.3142 83.4581 84.0284C83.4499 83.4375 83.6735 82.8668 84.081 82.4388C84.4885 82.0107 85.0475 81.7593 85.6381 81.7384C85.9235 81.7139 86.211 81.7463 86.4837 81.8339C86.7565 81.9214 87.0091 82.0624 87.2269 82.2485C87.4446 82.4346 87.6232 82.6622 87.7522 82.918C87.8811 83.1738 87.9579 83.4527 87.9781 83.7384Z" fill="#263238"/>
<path d="M87.4281 80.6476C87.1481 80.9476 85.4281 79.6476 82.9881 79.6476C80.5481 79.6476 78.7581 80.8876 78.4981 80.5876C78.3681 80.4576 78.6481 79.9176 79.4281 79.3476C80.4805 78.6128 81.7345 78.2216 83.0181 78.2276C84.289 78.2231 85.5286 78.6223 86.5581 79.3676C87.2581 79.9776 87.5181 80.5176 87.4281 80.6476Z" fill="#263238"/>
<path d="M96.2781 98.7279C96.2781 98.5879 97.7781 98.3279 100.278 98.0079C100.898 97.9379 101.488 97.8079 101.598 97.3879C101.644 96.7432 101.498 96.0995 101.178 95.5379L99.3181 90.7979C96.7481 84.0479 94.8781 78.4979 95.1581 78.3979C95.4381 78.2979 97.7381 83.6879 100.308 90.3979L102.088 95.1679C102.476 95.9189 102.592 96.7808 102.418 97.6079C102.33 97.8259 102.195 98.0217 102.022 98.1808C101.849 98.34 101.643 98.4586 101.418 98.5279C101.092 98.6177 100.756 98.6647 100.418 98.6679C97.8181 98.8479 96.2881 98.8679 96.2781 98.7279Z" fill="#263238"/>
<path d="M98.0281 127.608C89.7 127.752 81.4955 125.581 74.3281 121.338C74.3281 121.338 80.0981 133.478 97.7981 131.778L98.0281 127.608Z" fill="#EB996E"/>
<path d="M95.2581 104.608C94.7873 104.016 94.1717 103.556 93.4709 103.272C92.7701 102.988 92.0079 102.89 91.2581 102.988C90.7197 103.036 90.1966 103.193 89.7205 103.449C89.2444 103.705 88.8252 104.055 88.4881 104.478C88.1629 104.886 87.9712 105.384 87.939 105.904C87.9068 106.425 88.0357 106.943 88.3081 107.388C88.6995 107.827 89.2141 108.138 89.7848 108.281C90.3556 108.423 90.956 108.391 91.5081 108.188C92.6593 107.778 93.7168 107.143 94.6181 106.318C94.895 106.124 95.1326 105.88 95.3181 105.598C95.4092 105.463 95.458 105.305 95.458 105.143C95.458 104.98 95.4092 104.822 95.3181 104.688" fill="#EB996E"/>
<path d="M89.0981 100.448C89.4981 100.448 89.5081 103.078 91.7781 104.948C94.0481 106.818 96.8681 106.528 96.8881 106.948C96.8881 107.118 96.2581 107.468 95.0681 107.498C93.516 107.526 92.0039 107.006 90.7981 106.028C89.6441 105.084 88.9019 103.729 88.7281 102.248C88.6181 101.078 88.9181 100.448 89.0981 100.448Z" fill="#263238"/>
<path d="M88.4281 76.3678C88.1881 77.0378 85.7481 76.7278 82.8881 77.0778C80.0281 77.4278 77.7081 78.2178 77.3281 77.6178C77.1581 77.3378 77.5581 76.7078 78.4881 76.0678C79.7297 75.2697 81.1369 74.7649 82.6027 74.5916C84.0685 74.4184 85.5546 74.5812 86.9481 75.0678C88.0381 75.5378 88.5681 76.0578 88.4281 76.3678Z" fill="#263238"/>
<path d="M110.428 73.078C109.998 73.628 108.318 73.078 106.288 73.078C104.258 73.078 102.558 73.458 102.168 72.878C101.988 72.598 102.258 72.048 103.008 71.518C104.012 70.8901 105.179 70.5731 106.362 70.6069C107.545 70.6407 108.692 71.0238 109.658 71.708C110.428 72.238 110.638 72.808 110.428 73.078Z" fill="#263238"/>
<path d="M50.8181 116.758C53.2564 117.251 55.7769 117.157 58.1718 116.484C60.5666 115.811 62.7672 114.579 64.5918 112.888C66.4165 111.197 67.8129 109.097 68.666 106.76C69.5191 104.423 69.8043 101.917 69.4981 99.4482C68.9481 95.0982 66.6081 90.6882 68.1181 86.5682C70.1181 81.1382 77.7281 79.4682 79.7481 74.0382C80.9181 70.8882 79.8681 67.1982 81.1981 64.1082C82.4481 61.2082 85.5081 59.5382 88.4881 58.4582C91.4681 57.3782 94.6481 56.6382 97.1481 54.6982C99.6481 52.7582 101.198 49.0982 99.5881 46.3682C86.3809 47.9528 73.4095 51.105 60.9481 55.7582C58.0581 56.8382 55.0281 58.1382 53.3181 60.6982C51.5181 63.4182 51.6081 66.9182 51.7581 70.1782C52.4981 86.0582 50.0781 100.928 50.8181 116.808" fill="#263238"/>
<path d="M46.6081 111.778C46.5074 111.763 46.4096 111.732 46.3181 111.688C46.0326 111.588 45.7606 111.454 45.5081 111.288C44.5339 110.658 43.7683 109.753 43.3081 108.688C42.5513 107.004 42.3482 105.124 42.7281 103.318C43.3302 100.971 44.4244 98.7795 45.9381 96.8879C47.4881 94.7279 49.4581 92.5379 50.7981 89.7479C51.5126 88.3301 51.9117 86.7745 51.9681 85.1879C51.9103 83.5037 51.5723 81.841 50.9681 80.2679C50.2941 78.5672 49.9382 76.7571 49.9181 74.9279C50.0149 72.9706 50.5896 71.0668 51.5919 69.3829C52.5942 67.699 53.9937 66.2861 55.6681 65.2679C57.4638 64.2881 59.4555 63.721 61.4981 63.6079C63.4746 63.5109 65.4322 63.1752 67.3281 62.6079C69.1081 61.9339 70.5709 60.6173 71.4281 58.9179C72.2449 57.2459 72.8947 55.4975 73.3681 53.6979C73.874 51.9713 74.5437 50.297 75.3681 48.6979C76.8716 45.666 79.1612 43.0932 81.9981 41.2479C84.5029 39.6731 87.4335 38.9116 90.3881 39.0679C92.8352 39.1944 95.1664 40.1502 96.9981 41.7779C98.3635 43.0055 99.3811 44.5715 99.9481 46.3179C100.316 47.4111 100.456 48.5684 100.358 49.7179C100.338 50.1177 100.271 50.5137 100.158 50.8979C100.158 50.8979 100.228 50.4879 100.258 49.7079C100.306 48.5761 100.136 47.4456 99.7581 46.3779C99.0696 44.4127 97.806 42.7 96.1314 41.4624C94.4568 40.2247 92.4488 39.5194 90.3681 39.4379C87.4952 39.3113 84.6531 40.0725 82.2281 41.6179C79.4676 43.4319 77.2437 45.9527 75.7881 48.9179C74.9803 50.5175 74.3305 52.1921 73.8481 53.9179C73.3597 55.75 72.6897 57.5288 71.8481 59.2279C71.3844 60.1071 70.7798 60.9044 70.0581 61.5879C69.3119 62.2788 68.4346 62.8127 67.4781 63.1579C65.5297 63.7584 63.5143 64.1144 61.4781 64.2179C59.5095 64.3216 57.5892 64.8649 55.8581 65.8079C54.2575 66.7789 52.9186 68.1267 51.9583 69.7337C50.9979 71.3407 50.4451 73.1583 50.3481 75.0279C50.3659 76.8008 50.7047 78.5558 51.3481 80.2079C51.9845 81.8291 52.3396 83.5471 52.3981 85.2879C52.3306 86.9387 51.9077 88.5555 51.1581 90.0279C49.7581 92.8879 47.7681 95.0279 46.2081 97.1979C44.7024 99.036 43.6048 101.173 42.9881 103.468C42.5896 105.214 42.7541 107.041 43.4581 108.688C43.8906 109.737 44.6118 110.642 45.5381 111.298C46.2081 111.638 46.6181 111.738 46.6081 111.778Z" fill="#455A64"/>
<path d="M97.9981 34.668C98.2408 34.6859 98.4765 34.7576 98.6881 34.878C99.2883 35.1326 99.8503 35.4691 100.358 35.878C102.1 37.2298 103.254 39.2012 103.58 41.3822C103.906 43.5631 103.379 45.7858 102.108 47.588C101.739 48.125 101.302 48.6124 100.808 49.038C100.448 49.338 100.228 49.468 100.208 49.438C100.772 48.799 101.303 48.1314 101.798 47.438C102.925 45.6807 103.377 43.5745 103.07 41.5097C102.763 39.4448 101.718 37.5612 100.128 36.208C99.4484 35.654 98.7372 35.1398 97.9981 34.668Z" fill="#455A64"/>
<path d="M137.178 156.038C137.389 155.423 137.559 154.795 137.688 154.158C137.922 152.413 137.619 150.637 136.818 149.068C135.584 146.765 133.622 144.937 131.238 143.868C129.843 143.208 128.386 142.689 126.888 142.318C125.328 141.918 123.678 141.588 122.028 141.048C120.368 140.596 118.837 139.76 117.558 138.608C116.413 137.462 115.672 135.973 115.448 134.368C115.178 132.878 115.088 131.468 114.758 130.208C114.462 129.042 113.913 127.957 113.148 127.028C112.03 125.668 110.544 124.658 108.868 124.118C107.678 123.758 106.968 123.758 106.968 123.698C107.138 123.681 107.309 123.681 107.478 123.698C107.967 123.732 108.452 123.809 108.928 123.928C110.682 124.412 112.25 125.412 113.428 126.798C114.252 127.757 114.85 128.888 115.178 130.108C115.538 131.418 115.648 132.848 115.928 134.288C116.134 135.806 116.837 137.213 117.928 138.288C119.154 139.377 120.616 140.168 122.198 140.598C123.808 141.118 125.458 141.458 127.028 141.868C128.546 142.24 130.021 142.769 131.428 143.448C133.891 144.576 135.9 146.504 137.128 148.918C137.929 150.559 138.188 152.411 137.868 154.208C137.773 154.687 137.622 155.154 137.418 155.598C137.354 155.753 137.273 155.9 137.178 156.038Z" fill="#455A64"/>
<path d="M60.2581 124.718C51.2581 122.318 43.5581 113.548 40.4181 104.818C37.2781 96.0884 37.2781 86.5584 38.0881 77.3184C38.6681 70.6284 39.8481 63.5484 44.2881 58.5084C50.9881 50.9084 58.2881 47.0284 68.3681 47.3484" fill="#263238"/>
<path d="M112.558 144.218L104.208 142.118C105.118 141.492 105.782 140.568 106.085 139.506C106.388 138.444 106.311 137.309 105.868 136.298C105.339 135.001 104.465 133.874 103.34 133.04C102.215 132.206 100.883 131.696 99.4881 131.568L61.4281 127.268C60.7627 127.179 60.0868 127.316 59.5085 127.657C58.9301 127.997 58.4828 128.522 58.2381 129.148C56.5514 133.441 56.4948 136.974 58.0681 139.748H57.8881L50.5481 141.208L38.1081 250.948L119.588 247.138L112.558 144.218Z" fill="#F5F5F5"/>
<path d="M100.578 142.538C100.078 142.684 99.5661 142.784 99.0481 142.838C98.0481 142.998 96.6181 143.168 94.8381 143.348C85.5227 144.213 76.1314 143.745 66.9481 141.958C65.1881 141.608 63.7781 141.288 62.8081 141.028C62.2985 140.929 61.7996 140.782 61.3181 140.588C61.8345 140.626 62.3465 140.709 62.8481 140.838C63.8481 141.028 65.2581 141.298 67.0181 141.598C76.1919 143.176 85.523 143.64 94.8081 142.978C96.5881 142.858 98.0281 142.728 99.0281 142.628C99.5416 142.557 100.06 142.527 100.578 142.538Z" fill="#263238"/>
<path d="M63.7481 159.978C64.5497 158.313 65.5038 156.727 66.5981 155.238C67.5533 153.655 68.6548 152.165 69.8881 150.788C69.0851 152.454 68.1276 154.041 67.0281 155.528C66.0782 157.112 64.9799 158.602 63.7481 159.978Z" fill="#E0E0E0"/>
<path d="M90.0081 161.838C87.4664 159.228 85.1793 156.382 83.1781 153.338C84.5104 154.585 85.7224 155.954 86.7981 157.428C88.0081 158.791 89.0832 160.268 90.0081 161.838Z" fill="#E0E0E0"/>
<path d="M77.8081 175.788C77.2332 174.009 76.8215 172.182 76.5781 170.328C76.1619 168.506 75.9241 166.647 75.8681 164.778C76.4445 166.557 76.8562 168.384 77.0981 170.238C77.503 172.063 77.7406 173.921 77.8081 175.788Z" fill="#E0E0E0"/>
<path d="M97.8581 176.648C96.4463 178.404 94.9018 180.049 93.2381 181.568C91.693 183.214 90.0212 184.735 88.2381 186.118C89.6496 184.362 91.1942 182.717 92.8581 181.198C94.4096 179.56 96.0809 178.039 97.8581 176.648Z" fill="#E0E0E0"/>
<path d="M70.9681 195.348C67.2832 193.146 64.2818 189.964 62.2981 186.158C62.4381 186.068 63.9681 188.468 66.3781 190.998C68.7881 193.528 71.0681 195.218 70.9681 195.348Z" fill="#E0E0E0"/>
<path d="M79.6081 209.788C79.6081 209.938 77.3281 210.668 74.6881 212.078C72.0481 213.488 70.1181 214.968 70.0181 214.838C71.2767 213.49 72.7801 212.394 74.4481 211.608C76.0343 210.674 77.7866 210.055 79.6081 209.788Z" fill="#E0E0E0"/>
<path d="M93.6581 210.718C93.062 210.213 92.5283 209.639 92.0681 209.008C91.1481 207.908 89.9181 206.338 88.6381 204.548C87.3581 202.758 86.2781 201.088 85.5281 199.848C85.0818 199.207 84.7126 198.516 84.4281 197.788C84.96 198.359 85.4325 198.982 85.8381 199.648L89.0681 204.248L92.3581 208.788C92.8584 209.384 93.2942 210.031 93.6581 210.718Z" fill="#E0E0E0"/>
<path d="M95.0681 223.038C93.1244 223.72 91.1127 224.189 89.0681 224.438C87.0457 224.86 84.984 225.064 82.9181 225.048C84.9155 224.546 86.943 224.172 88.9881 223.928C90.9953 223.511 93.0256 223.214 95.0681 223.038Z" fill="#E0E0E0"/>
<path d="M72.3181 140.988C72.2481 140.988 72.7281 140.388 73.1381 139.328C73.6459 137.941 73.7971 136.449 73.5781 134.988C73.3299 133.516 72.8964 132.081 72.2881 130.718C71.9934 130.16 71.7652 129.569 71.6081 128.958C72.0257 129.437 72.3634 129.981 72.6081 130.568C73.3355 131.923 73.8323 133.39 74.0781 134.908C74.32 136.458 74.1082 138.045 73.4681 139.478C73.2446 140.085 72.844 140.611 72.3181 140.988Z" fill="#E0E0E0"/>
<path d="M87.5381 132.768C88.2511 133.749 88.7608 134.864 89.0373 136.045C89.3138 137.227 89.3514 138.451 89.1481 139.648C88.9981 139.648 88.9781 138.058 88.5281 136.168C88.0781 134.278 87.4281 132.848 87.5381 132.768Z" fill="#E0E0E0"/>
<path d="M156.188 210.958L194.088 144.388L198.658 132.838C198.658 132.838 210.478 107.438 211.298 104.838C212.248 101.838 213.918 101.598 214.998 102.018C216.678 102.688 217.218 105.188 216.478 107.778C216.218 108.668 211.628 122.628 211.628 122.628C212.862 121.564 214.172 120.591 215.548 119.718C218.458 117.718 223.788 117.818 228.728 119.578C233.668 121.338 234.888 122.268 234.298 124.208C234.168 124.572 233.957 124.902 233.682 125.174C233.407 125.446 233.074 125.652 232.708 125.778C231.545 126.264 230.241 126.292 229.058 125.858C221.118 123.158 217.598 126.738 217.598 126.738L217.008 128.248C217.008 128.248 223.008 126.338 226.368 129.038C226.87 129.434 227.291 129.923 227.608 130.478C228.695 130.833 229.671 131.466 230.439 132.314C231.206 133.162 231.739 134.196 231.985 135.313C232.23 136.43 232.18 137.592 231.838 138.684C231.497 139.776 230.876 140.76 230.038 141.538C229.674 141.953 229.192 142.248 228.656 142.384C228.121 142.52 227.556 142.49 227.038 142.298C226.553 141.968 226.164 141.516 225.908 140.988C225.745 140.724 225.561 140.473 225.358 140.238L223.098 144.238C223.098 144.238 217.528 152.938 215.528 157.008L189.428 226.538C188.57 228.827 187.264 230.922 185.588 232.701C183.911 234.479 181.897 235.906 179.662 236.897C177.428 237.889 175.018 238.425 172.574 238.475C170.13 238.525 167.701 238.087 165.428 237.188C162.975 236.22 160.759 234.736 158.93 232.837C157.1 230.938 155.7 228.668 154.824 226.181C153.948 223.694 153.616 221.048 153.852 218.421C154.087 215.795 154.884 213.25 156.188 210.958Z" fill="#FFBE9D"/>
<path d="M196.698 144.158C198.038 145.038 199.888 144.438 201.088 143.398C202.288 142.358 203.088 140.928 204.248 139.798C207.618 136.428 213.248 136.108 216.478 132.578C216.928 132.088 217.328 131.338 216.938 130.798C216.548 130.258 215.828 130.358 215.228 130.478L199.718 133.548" fill="#FFBE9D"/>
<path d="M199.718 133.548C200.241 133.311 200.792 133.143 201.358 133.048C202.428 132.778 203.988 132.428 205.908 132.048L212.668 130.618L214.668 130.208C215.439 129.926 216.288 129.955 217.038 130.288C217.252 130.447 217.414 130.666 217.503 130.917C217.592 131.168 217.604 131.44 217.538 131.698C217.435 132.122 217.229 132.513 216.938 132.838C216.415 133.417 215.828 133.933 215.188 134.378C212.608 136.168 209.778 136.898 207.518 138.088C206.44 138.598 205.448 139.272 204.578 140.088C203.778 140.858 203.148 141.738 202.488 142.488C202.013 143.15 201.399 143.699 200.689 144.099C199.979 144.498 199.19 144.736 198.378 144.798C197.188 144.798 196.698 144.208 196.738 144.198C197.259 144.377 197.808 144.461 198.358 144.448C199.096 144.326 199.8 144.052 200.426 143.645C201.053 143.237 201.588 142.703 201.998 142.078C202.639 141.204 203.323 140.363 204.048 139.558C204.954 138.66 205.997 137.91 207.138 137.338C209.468 136.078 212.288 135.338 214.668 133.638C215.242 133.231 215.771 132.765 216.248 132.248C216.688 131.758 216.838 131.168 216.528 130.998C216.218 130.828 215.528 130.908 214.838 131.048L212.838 131.418L206.038 132.668C204.098 133.008 202.528 133.268 201.438 133.428C200.875 133.558 200.294 133.599 199.718 133.548Z" fill="#EB996E"/>
<path d="M216.798 128.268C217.195 127.34 217.805 126.517 218.578 125.868C219.444 125.219 220.496 124.868 221.578 124.868C222.938 124.876 224.288 125.099 225.578 125.528C226.896 125.973 228.257 126.281 229.638 126.448C230.798 126.581 231.971 126.401 233.038 125.928C233.405 125.759 233.727 125.506 233.979 125.19C234.231 124.874 234.405 124.503 234.488 124.108C234.564 123.83 234.564 123.536 234.488 123.258C234.428 123.258 234.428 123.558 234.278 124.058C234.168 124.395 233.986 124.704 233.744 124.963C233.502 125.222 233.207 125.425 232.878 125.558C231.86 125.936 230.765 126.06 229.688 125.918C228.347 125.707 227.028 125.372 225.748 124.918C224.413 124.478 223.014 124.262 221.608 124.278C220.428 124.305 219.29 124.728 218.378 125.478C217.773 125.981 217.308 126.632 217.028 127.368C216.778 127.958 216.758 128.258 216.798 128.268Z" fill="#EB996E"/>
<path d="M216.748 106.778C216.356 107.673 216.041 108.6 215.808 109.548C215.218 111.468 214.518 113.748 213.738 116.268C212.958 118.788 212.188 121.048 211.568 122.958C211.206 123.864 210.928 124.802 210.738 125.758C211.235 124.916 211.644 124.025 211.958 123.098C212.618 121.418 213.458 119.098 214.298 116.448C215.138 113.798 215.788 111.448 216.208 109.658C216.489 108.72 216.67 107.755 216.748 106.778Z" fill="#EB996E"/>
<path d="M218.938 132.448C219.243 132.492 219.553 132.492 219.858 132.448C220.242 132.382 220.635 132.4 221.011 132.5C221.388 132.6 221.738 132.78 222.038 133.028C222.212 133.211 222.335 133.437 222.397 133.682C222.458 133.927 222.455 134.184 222.388 134.428C222.226 135.042 221.988 135.633 221.678 136.188C221.277 136.883 221.146 137.702 221.308 138.488C221.445 138.904 221.677 139.283 221.986 139.594C222.295 139.905 222.672 140.139 223.088 140.278C223.498 140.408 223.931 140.453 224.359 140.41C224.787 140.367 225.202 140.237 225.578 140.028C226.278 139.67 226.853 139.109 227.228 138.418C227.769 137.278 228.14 136.065 228.328 134.818C228.474 133.981 228.474 133.125 228.328 132.288C228.297 131.973 228.175 131.675 227.978 131.428C227.928 131.428 228.058 131.748 228.108 132.318C228.151 133.134 228.08 133.951 227.898 134.748C227.661 135.93 227.271 137.076 226.738 138.158C226.412 138.767 225.895 139.251 225.265 139.535C224.636 139.819 223.93 139.887 223.258 139.728C222.929 139.621 222.629 139.439 222.382 139.196C222.136 138.953 221.949 138.656 221.838 138.328C221.708 137.675 221.818 136.996 222.148 136.418C222.459 135.812 222.694 135.171 222.848 134.508C222.915 134.19 222.9 133.861 222.804 133.551C222.707 133.241 222.533 132.961 222.298 132.738C221.951 132.463 221.544 132.272 221.11 132.182C220.676 132.092 220.227 132.104 219.798 132.218C219.501 132.247 219.21 132.325 218.938 132.448Z" fill="#EB996E"/>
<path d="M225.478 139.448C225.478 139.448 225.288 139.708 225.308 140.268C225.336 140.661 225.456 141.042 225.657 141.38C225.859 141.719 226.136 142.006 226.468 142.218C226.981 142.513 227.562 142.668 228.153 142.668C228.744 142.668 229.325 142.513 229.838 142.218C231.072 141.507 231.982 140.345 232.378 138.978C232.814 137.639 232.814 136.197 232.378 134.858C232.023 133.776 231.384 132.809 230.528 132.058C229.964 131.553 229.309 131.159 228.598 130.898C228.345 130.777 228.068 130.715 227.788 130.718C228.679 131.149 229.507 131.701 230.248 132.358C231.087 133.176 231.68 134.214 231.959 135.352C232.238 136.49 232.193 137.684 231.828 138.798C231.471 140.027 230.669 141.078 229.578 141.748C229.142 142.004 228.649 142.145 228.143 142.159C227.638 142.173 227.138 142.059 226.688 141.828C226.39 141.654 226.133 141.419 225.933 141.138C225.733 140.857 225.595 140.536 225.528 140.198C225.428 139.758 225.528 139.448 225.478 139.448Z" fill="#EB996E"/>
<path d="M212.858 145.728C212.462 145.461 211.996 145.318 211.518 145.318C210.298 145.199 209.073 145.492 208.038 146.148L208.468 146.438C208.603 145.778 208.697 145.11 208.748 144.438C209.098 140.578 207.868 137.598 207.748 137.678C208.133 139.893 208.277 142.143 208.178 144.388C208.129 145.029 208.046 145.667 207.928 146.298L207.808 146.948L208.358 146.578C209.295 145.967 210.389 145.64 211.508 145.638C212.338 145.658 212.838 145.798 212.858 145.728Z" fill="#EB996E"/>
<path d="M220.748 122.008C220.588 122.008 220.808 123.208 221.868 124.128C222.928 125.048 224.118 125.128 224.118 124.958C224.118 124.788 223.168 124.498 222.258 123.688C221.348 122.878 220.908 121.948 220.748 122.008Z" fill="#EB996E"/>
<path d="M102.428 266.198L142.078 266.588L135.428 237.818L137.658 243.248C139.714 248.262 143.214 252.55 147.714 255.569C152.214 258.587 157.51 260.198 162.928 260.198C175.468 260.198 184.138 250.868 189.438 239.508C201.838 212.948 213.788 170.178 213.788 170.178L189.618 148.938C172.118 182.038 155.678 210.778 155.678 210.778C155.678 210.778 150.928 196.348 147.258 183.468C143.588 170.588 143.618 163.828 137.988 157.408C129.318 147.528 116.988 145.078 105.508 142.118L105.078 195.558L102.428 266.198Z" fill="#EE1C25"/>
<path d="M57.0581 226.448L129.258 240.448L132.768 268.188H22.0681C19.0378 268.226 16.0331 267.631 13.2457 266.442C10.4583 265.252 7.94939 263.495 5.87922 261.282C3.80905 259.069 2.22306 256.448 1.2225 253.588C0.221928 250.727 -0.17124 247.689 0.0680914 244.668C1.65809 224.448 3.38809 199.548 4.70809 189.018C5.70809 180.808 9.00809 172.318 12.8781 165.018C18.4681 154.498 37.0981 141.018 53.4281 140.318L56.5181 209.088" fill="#EE1C25"/>
<g opacity="0.4">
<path d="M102.428 266.198L142.078 266.588L135.428 237.818L137.658 243.248C139.714 248.262 143.214 252.55 147.714 255.569C152.214 258.587 157.51 260.198 162.928 260.198C175.468 260.198 184.138 250.868 189.438 239.508C201.838 212.948 213.788 170.178 213.788 170.178L189.618 148.938C172.118 182.038 155.678 210.778 155.678 210.778C155.678 210.778 150.928 196.348 147.258 183.468C143.588 170.588 143.618 163.828 137.988 157.408C129.318 147.528 116.988 145.078 105.508 142.118L105.078 195.558L102.428 266.198Z" fill="black"/>
<path d="M57.0581 226.448L122.178 238.388C123.505 238.634 124.729 239.267 125.696 240.209C126.662 241.151 127.328 242.358 127.608 243.678L132.768 268.248H22.0681C19.0378 268.285 16.0331 267.69 13.2457 266.501C10.4583 265.312 7.94939 263.555 5.87922 261.341C3.80905 259.128 2.22306 256.508 1.2225 253.647C0.221928 250.787 -0.17124 247.749 0.0680914 244.728C1.65809 224.508 3.38809 199.608 4.70809 189.078C5.70809 180.868 9.00809 172.378 12.8781 165.078C18.4681 154.558 37.0981 141.078 53.4281 140.378L56.5181 209.148" fill="black"/>
</g>
<path d="M43.3081 224.388C43.2823 224.169 43.2823 223.947 43.3081 223.728C43.3081 223.238 43.3081 222.608 43.3081 221.838C43.3081 220.128 43.3081 217.768 43.3081 214.838C43.3081 208.968 43.1981 200.838 42.7481 191.908C42.5181 187.428 42.2281 183.168 41.9181 179.308C41.773 175.882 41.2873 172.478 40.4681 169.148C39.8962 166.925 38.8065 164.869 37.2881 163.148C36.7001 162.548 36.0791 161.98 35.4281 161.448C36.1916 161.841 36.8844 162.358 37.4781 162.978C39.097 164.687 40.2625 166.774 40.8681 169.048C41.7414 172.405 42.2642 175.844 42.4281 179.308C42.7681 183.178 43.0681 187.438 43.2981 191.918C43.7581 200.918 43.8081 209.008 43.7081 214.918C43.6481 217.858 43.5681 220.238 43.4981 221.918L43.3881 223.808C43.3842 224.004 43.3574 224.199 43.3081 224.388Z" fill="#263238"/>
<path d="M127.858 242.448C127.097 241.606 126.209 240.888 125.228 240.318C124.061 239.682 122.822 239.188 121.538 238.848C120.048 238.418 118.298 238.088 116.368 237.698C108.648 236.118 97.9981 233.928 86.1981 231.698C74.3981 229.468 63.6581 227.698 55.8881 226.458L46.6781 224.988L44.1781 224.568C43.8837 224.532 43.5927 224.471 43.3081 224.388C43.6032 224.389 43.8976 224.416 44.1881 224.468L46.7081 224.788C48.8881 225.078 52.0481 225.518 55.9381 226.098C63.7281 227.258 74.4781 228.978 86.2881 231.188C98.0981 233.398 108.748 235.638 116.438 237.298C118.368 237.718 120.118 238.078 121.618 238.538C122.917 238.905 124.163 239.436 125.328 240.118C126.076 240.54 126.752 241.08 127.328 241.718C127.482 241.876 127.622 242.046 127.748 242.228C127.818 242.348 127.868 242.448 127.858 242.448Z" fill="#263238"/>
<path d="M43.5281 224.388C43.5281 224.478 42.1981 224.788 40.1381 225.628C38.9355 226.125 37.7663 226.699 36.6381 227.348C35.2739 228.161 33.9734 229.077 32.7481 230.088C31.5565 231.12 30.4466 232.244 29.4281 233.448C28.5901 234.44 27.8217 235.489 27.1281 236.588C25.9481 238.478 25.4081 239.758 25.3181 239.718C25.3803 239.395 25.4845 239.083 25.6281 238.788C25.9688 237.966 26.363 237.168 26.8081 236.398C27.4758 235.256 28.2279 234.167 29.0581 233.138C31.1109 230.619 33.6218 228.512 36.4581 226.928C37.607 226.279 38.8078 225.727 40.0481 225.278C40.8823 224.966 41.7378 224.716 42.6081 224.528C42.9067 224.438 43.2164 224.391 43.5281 224.388Z" fill="#263238"/>
<path d="M136.758 241.668C136.689 241.443 136.639 241.212 136.608 240.978C136.528 240.478 136.418 239.818 136.288 238.978C136.008 237.248 135.638 234.748 135.218 231.648C134.378 225.458 133.358 216.878 132.498 207.378C131.638 197.878 131.128 189.258 130.848 183.008C130.708 179.888 130.628 177.358 130.588 175.608C130.588 174.775 130.588 174.108 130.588 173.608C130.566 173.375 130.566 173.141 130.588 172.908C130.642 173.138 130.669 173.373 130.668 173.608L130.798 175.608C130.908 177.408 131.048 179.918 131.228 182.988C131.598 189.228 132.178 197.838 133.028 207.328C133.878 216.818 134.848 225.398 135.598 231.598C135.968 234.658 136.278 237.148 136.498 238.948C136.588 239.778 136.668 240.438 136.728 240.948C136.768 241.186 136.779 241.428 136.758 241.668Z" fill="#263238"/>
<path d="M160.698 230.918C160.698 230.918 160.468 230.698 160.118 230.258C159.633 229.62 159.189 228.952 158.788 228.258C156.105 223.678 154.867 218.393 155.238 213.098C155.288 212.301 155.395 211.509 155.558 210.728C155.594 210.436 155.668 210.15 155.778 209.878C155.868 209.878 155.678 211.118 155.608 213.118C155.441 218.338 156.648 223.511 159.108 228.118C160.048 229.848 160.778 230.858 160.698 230.918Z" fill="#263238"/>
<path d="M43.0181 187.228C43.0181 187.228 42.8881 187.278 42.6481 187.308C42.2872 187.366 41.9232 187.402 41.5581 187.418C40.2167 187.474 38.8734 187.366 37.5581 187.098C35.6044 186.705 33.6973 186.108 31.8681 185.318C29.7981 184.458 27.5981 183.318 25.2981 182.208C23.145 181.126 20.9157 180.204 18.6281 179.448C16.7717 178.824 14.8422 178.444 12.8881 178.318C11.0779 178.259 9.26887 178.464 7.51807 178.928C7.62553 178.856 7.74368 178.802 7.86807 178.768C8.19209 178.626 8.52638 178.509 8.86807 178.418C10.1715 178.068 11.5194 177.913 12.8681 177.958C14.8646 178.02 16.8431 178.357 18.7481 178.958C21.0653 179.703 23.3191 180.633 25.4881 181.738C27.7981 182.878 29.9781 183.998 32.0181 184.868C33.814 185.665 35.6826 186.288 37.5981 186.728C39.381 187.092 41.1985 187.26 43.0181 187.228Z" fill="#FAFAFA"/>
<path d="M55.4281 184.798C53.5071 185.383 51.5401 185.804 49.5481 186.058C47.5747 186.488 45.5666 186.739 43.5481 186.808C45.4691 186.223 47.4361 185.802 49.4281 185.548C51.4014 185.118 53.4096 184.867 55.4281 184.798Z" fill="#FAFAFA"/>
<path d="M42.5681 206.258C42.1079 206.517 41.622 206.729 41.1181 206.888C40.1681 207.258 38.7781 207.758 37.0481 208.318C32.5242 209.769 27.9069 210.912 23.2281 211.738C20.4881 212.218 17.8581 212.568 15.4581 212.808C13.3295 213.083 11.1783 213.14 9.03812 212.978C7.58634 212.86 6.17232 212.456 4.87811 211.788C4.52623 211.605 4.19154 211.391 3.87811 211.148C3.76269 211.069 3.65843 210.975 3.56812 210.868C3.56812 210.868 4.04811 211.178 4.95811 211.608C6.25427 212.193 7.64797 212.532 9.06812 212.608C11.1822 212.717 13.3019 212.624 15.3981 212.328C17.7881 212.058 20.3981 211.698 23.1281 211.218C27.785 210.392 32.3921 209.307 36.9281 207.968C38.6681 207.448 40.0681 206.968 41.0381 206.698C41.5366 206.514 42.0479 206.366 42.5681 206.258Z" fill="#FAFAFA"/>
<path d="M55.0981 211.528C53.2963 211.814 51.4717 211.932 49.6481 211.878C47.8301 211.993 46.0054 211.936 44.1981 211.708C45.9999 211.422 47.8245 211.305 49.6481 211.358C51.4661 211.244 53.2908 211.301 55.0981 211.528Z" fill="#FAFAFA"/>
<path d="M3.63806 257.088C3.64963 256.903 3.68665 256.722 3.74806 256.548C3.84806 256.148 3.98806 255.658 4.14806 255.048L4.44806 253.968C4.57806 253.578 4.74805 253.168 4.90805 252.718C5.26764 251.696 5.68157 250.695 6.14806 249.718L6.95805 248.008C7.24805 247.408 7.61805 246.828 7.95805 246.208C8.71224 244.896 9.53333 243.625 10.4181 242.398C14.5034 236.75 19.83 232.114 25.9881 228.848C27.3273 228.14 28.7025 227.502 30.108 226.938C30.778 226.688 31.3981 226.398 32.0281 226.198L33.8381 225.628C34.875 225.297 35.9301 225.027 36.9981 224.818C37.4681 224.718 37.898 224.608 38.298 224.538L39.4181 224.388L40.9581 224.198C41.1371 224.171 41.319 224.171 41.4981 224.198C41.3275 224.263 41.1494 224.307 40.968 224.328L39.4481 224.618L38.3481 224.808L37.0581 225.128C36.1381 225.378 35.0581 225.588 33.9481 226.008L32.1681 226.608C31.5481 226.818 30.9281 227.108 30.2781 227.368C28.8931 227.942 27.5381 228.586 26.218 229.298C23.2109 230.961 20.3798 232.924 17.7681 235.158C15.1883 237.434 12.8432 239.963 10.7681 242.708C9.86805 244.008 8.97805 245.228 8.29805 246.458C7.94805 247.068 7.57805 247.638 7.29805 248.228L6.45805 249.908C5.88805 250.968 5.53805 251.988 5.15805 252.908C4.98805 253.348 4.80806 253.758 4.66806 254.138L4.31805 255.198L3.82805 256.668C3.78017 256.814 3.71647 256.955 3.63806 257.088Z" fill="#FAFAFA"/>
<path d="M53.7881 226.368C52.1155 227.821 50.7255 229.57 49.6881 231.528C48.5974 233.668 47.8227 235.956 47.3881 238.318C46.8709 241.224 46.5369 244.16 46.3881 247.108C46.2635 250.078 45.9294 253.035 45.3881 255.958C44.8983 258.354 44.0522 260.663 42.8781 262.808C42.0939 264.246 41.0807 265.546 39.8781 266.658C39.5505 266.962 39.1994 267.24 38.8281 267.488C38.5781 267.658 38.4381 267.748 38.4281 267.728C40.131 266.307 41.5493 264.577 42.6081 262.628C43.7161 260.5 44.5109 258.223 44.9681 255.868C45.5004 252.964 45.8346 250.027 45.9681 247.078C46.098 244.105 46.4321 241.145 46.9681 238.218C47.4338 235.822 48.2562 233.51 49.4081 231.358C50.1941 229.907 51.2068 228.59 52.4081 227.458C52.7228 227.157 53.0568 226.876 53.4081 226.618C53.5236 226.519 53.6513 226.435 53.7881 226.368Z" fill="#FAFAFA"/>
<path d="M70.8581 268.358C70.7181 268.358 70.8581 259.738 71.2281 249.118C71.5981 238.498 71.9781 229.888 72.1181 229.888C72.2581 229.888 72.1181 238.508 71.7481 249.138C71.3781 259.768 70.9981 268.368 70.8581 268.358Z" fill="#FAFAFA"/>
<path d="M97.9981 266.878C97.8099 266.477 97.6624 266.059 97.5581 265.628C97.3958 265.136 97.259 264.635 97.1481 264.128C97.0181 263.538 96.8381 262.868 96.7281 262.128C96.4171 260.364 96.2399 258.579 96.1981 256.788C96.0998 252.388 96.7768 248.004 98.1981 243.838C98.7774 242.141 99.4827 240.49 100.308 238.898C100.638 238.208 101.008 237.628 101.308 237.108C101.562 236.656 101.843 236.218 102.148 235.798C102.371 235.417 102.636 235.061 102.938 234.738C103.028 234.788 101.938 236.338 100.628 239.068C99.8508 240.661 99.1826 242.305 98.6281 243.988C97.2583 248.112 96.5824 252.434 96.6281 256.778C96.6508 258.549 96.7877 260.316 97.0381 262.068C97.5381 265.048 98.0981 266.848 97.9981 266.878Z" fill="#FAFAFA"/>
<path d="M51.9081 156.358C51.9081 156.438 50.3281 155.748 47.7281 154.908C40.956 152.722 33.779 152.086 26.7281 153.048C24.0281 153.418 22.3781 153.838 22.3581 153.748C22.7166 153.575 23.0967 153.451 23.4881 153.378C24.5343 153.089 25.596 152.859 26.6681 152.688C33.7725 151.508 41.0604 152.151 47.8481 154.558C48.868 154.918 49.8692 155.329 50.8481 155.788C51.2236 155.934 51.5796 156.125 51.9081 156.358Z" fill="#FAFAFA"/>
<path d="M130.908 198.448C129.672 198.512 128.432 198.492 127.198 198.388C124.908 198.298 121.748 198.178 118.258 198.098C114.768 198.018 111.608 197.968 109.318 197.948C108.08 197.987 106.84 197.944 105.608 197.818C105.936 197.74 106.271 197.7 106.608 197.698C107.248 197.698 108.178 197.608 109.328 197.578C111.618 197.508 114.778 197.488 118.278 197.578C121.778 197.668 124.938 197.848 127.278 198.038C128.418 198.128 129.338 198.208 129.978 198.288C130.293 198.308 130.605 198.361 130.908 198.448Z" fill="#FAFAFA"/>
<path d="M150.648 194.658C150.648 194.748 149.398 195.178 147.448 196.138C142.347 198.648 138.026 202.499 134.948 207.278C133.768 209.108 133.198 210.328 133.118 210.278C133.174 209.962 133.282 209.658 133.438 209.378C133.788 208.583 134.189 207.812 134.638 207.068C136.105 204.596 137.947 202.366 140.098 200.458C142.243 198.545 144.668 196.97 147.288 195.788C148.079 195.432 148.89 195.125 149.718 194.868C150.018 194.758 150.33 194.687 150.648 194.658Z" fill="#FAFAFA"/>
<path d="M140.908 162.608C139.186 162.549 137.468 162.79 135.828 163.318C134.058 163.936 132.343 164.699 130.698 165.598C128.668 166.724 126.547 167.677 124.358 168.448C120.312 169.745 116.008 170.023 111.828 169.258C110.572 169.03 109.337 168.696 108.138 168.258C107.689 168.118 107.257 167.93 106.848 167.698C106.848 167.598 108.728 168.388 111.848 168.898C115.97 169.542 120.184 169.217 124.158 167.948C126.322 167.183 128.425 166.253 130.448 165.168C132.122 164.28 133.872 163.544 135.678 162.968C136.906 162.578 138.19 162.393 139.478 162.418C139.813 162.428 140.148 162.462 140.478 162.518C140.788 162.558 140.918 162.588 140.908 162.608Z" fill="#FAFAFA"/>
<path d="M135.918 229.628C135.556 229.858 135.166 230.043 134.758 230.178C134.378 230.338 133.908 230.528 133.348 230.708C132.788 230.888 132.158 231.128 131.448 231.308C129.774 231.774 128.07 232.129 126.348 232.368C124.24 232.641 122.113 232.751 119.988 232.698C117.863 232.619 115.748 232.381 113.658 231.988C111.962 231.645 110.292 231.187 108.658 230.618C107.948 230.398 107.338 230.128 106.798 229.908C106.258 229.688 105.798 229.478 105.418 229.298C105.02 229.132 104.641 228.924 104.288 228.678C104.288 228.588 105.978 229.388 108.778 230.268C110.418 230.784 112.087 231.198 113.778 231.508C117.914 232.274 122.143 232.402 126.318 231.888C128.022 231.678 129.712 231.364 131.378 230.948C134.198 230.228 135.888 229.538 135.918 229.628Z" fill="#FAFAFA"/>
<path d="M158.898 259.228C158.755 259.138 158.624 259.031 158.508 258.908C158.278 258.678 157.898 258.368 157.508 257.908C156.301 256.617 155.241 255.195 154.348 253.668C151.462 248.555 149.927 242.79 149.888 236.918C149.895 231.088 150.658 225.283 152.158 219.648C152.698 217.488 153.158 215.748 153.528 214.558C153.698 214.008 153.838 213.558 153.948 213.188C154.058 212.818 154.108 212.708 154.128 212.718C154.126 212.885 154.099 213.05 154.048 213.208C153.968 213.588 153.858 214.048 153.728 214.608C153.428 215.898 153.018 217.608 152.518 219.738C151.138 225.354 150.436 231.115 150.428 236.898C150.46 242.676 151.906 248.358 154.638 253.448C155.495 254.973 156.5 256.41 157.638 257.738C158.428 258.698 158.928 259.188 158.898 259.228Z" fill="#FAFAFA"/>
<path d="M195.288 225.268C193.69 224.001 191.906 222.989 189.998 222.268C187.911 221.546 185.772 220.988 183.598 220.598C180.898 220.143 178.227 219.532 175.598 218.768C170.85 217.224 166.517 214.618 162.928 211.148C161.845 210.101 160.843 208.975 159.928 207.778C159.598 207.358 159.378 207.008 159.218 206.778C159.058 206.548 158.988 206.418 159.008 206.408C159.395 206.798 159.755 207.212 160.088 207.648C161.048 208.79 162.08 209.869 163.178 210.878C166.783 214.223 171.072 216.745 175.748 218.268C178.35 219.027 180.99 219.648 183.658 220.128C185.85 220.549 188.004 221.147 190.098 221.918C191.513 222.453 192.841 223.194 194.038 224.118C194.365 224.364 194.673 224.635 194.958 224.928C195.208 225.148 195.308 225.258 195.288 225.268Z" fill="#FAFAFA"/>
<path d="M206.728 191.898C206.343 191.623 205.984 191.311 205.658 190.968C205.328 190.658 204.928 190.278 204.428 189.858C203.928 189.438 203.428 188.938 202.748 188.458C201.271 187.267 199.721 186.168 198.108 185.168C194.151 182.721 189.85 180.881 185.348 179.708C183.508 179.235 181.641 178.871 179.758 178.618C178.958 178.488 178.228 178.438 177.588 178.378C176.948 178.318 176.388 178.268 175.938 178.248C175.465 178.246 174.993 178.203 174.528 178.118C174.994 178.046 175.467 178.023 175.938 178.048C176.494 178.02 177.052 178.02 177.608 178.048C178.248 178.048 178.998 178.098 179.808 178.208C181.711 178.416 183.599 178.751 185.458 179.208C187.736 179.792 189.969 180.541 192.138 181.448C194.29 182.386 196.369 183.483 198.358 184.728C199.976 185.76 201.523 186.9 202.988 188.138C203.628 188.648 204.148 189.138 204.628 189.618C205.038 189.991 205.429 190.385 205.798 190.798C206.147 191.131 206.458 191.499 206.728 191.898Z" fill="#FAFAFA"/>
<path d="M119.228 145.998C118.641 146.39 118.001 146.696 117.328 146.908C115.751 147.527 114.129 148.028 112.478 148.408C110.833 148.796 109.162 149.063 107.478 149.208C106.782 149.314 106.074 149.314 105.378 149.208C105.378 149.048 108.548 148.788 112.378 147.878C116.208 146.968 119.168 145.848 119.228 145.998Z" fill="#FAFAFA"/>
<path d="M154.698 286.838C154.828 287.284 154.844 287.756 154.745 288.21C154.646 288.664 154.434 289.086 154.13 289.437C153.825 289.788 153.438 290.057 153.003 290.22C152.567 290.383 152.098 290.434 151.638 290.368C151.105 290.293 150.605 290.063 150.2 289.708C149.795 289.353 149.503 288.887 149.358 288.368L148.508 285.228H148.638C148.725 285.682 148.702 286.149 148.573 286.592C148.443 287.035 148.21 287.441 147.892 287.776C147.575 288.111 147.182 288.366 146.747 288.519C146.311 288.673 145.846 288.72 145.388 288.658C144.078 288.658 142.948 286.748 142.568 285.738C141.579 285.834 140.583 285.657 139.688 285.227C138.792 284.797 138.031 284.13 137.488 283.298L131.618 274.138L120.748 266.188L127.328 242.698L150.718 257.838C151.638 258.558 151.778 258.838 153.238 260.208L168.338 274.098C166.628 275.098 165.178 275.048 162.798 274.098C160.418 273.148 149.998 266.098 149.998 266.098L154.698 286.748" fill="#FFBE9D"/>
<path d="M134.688 267.518C134.688 267.518 134.958 267.638 135.378 267.928L136.158 268.468C136.529 268.7 136.865 268.983 137.158 269.308C137.504 269.705 137.775 270.163 137.958 270.658C138.138 271.188 138.328 271.728 138.528 272.298L139.808 276.058C140.698 278.738 141.478 281.158 142.018 282.928C142.36 283.866 142.617 284.833 142.788 285.818C142.334 284.925 141.959 283.995 141.668 283.038C141.038 281.298 140.198 278.898 139.308 276.228C138.878 274.898 138.458 273.628 138.068 272.458C137.888 271.878 137.718 271.328 137.548 270.808C137.398 270.349 137.172 269.92 136.878 269.538C136.625 269.225 136.336 268.943 136.018 268.698L135.298 268.088C134.868 267.748 134.668 267.548 134.688 267.518Z" fill="#EB996E"/>
<path d="M148.758 285.768C148.609 285.449 148.498 285.113 148.428 284.768L147.678 282.088C147.038 279.828 146.188 276.698 145.098 273.288C144.008 269.878 142.868 266.838 141.498 264.958C140.987 264.207 140.339 263.559 139.588 263.048C139.038 262.708 138.688 262.608 138.698 262.548C138.791 262.546 138.883 262.563 138.968 262.598C139.217 262.662 139.459 262.752 139.688 262.868C140.518 263.331 141.238 263.969 141.798 264.738C143.288 266.638 144.488 269.738 145.588 273.128C146.688 276.518 147.488 279.708 148.028 281.998C148.298 283.138 148.498 284.068 148.628 284.718C148.724 285.059 148.768 285.413 148.758 285.768Z" fill="#EB996E"/>
<path d="M154.798 287.188C154.618 286.857 154.48 286.504 154.388 286.138C154.138 285.338 153.828 284.368 153.458 283.218C152.698 280.748 151.688 277.328 150.598 273.548C149.508 269.768 148.598 266.448 147.848 263.848C147.59 262.884 147.029 262.029 146.248 261.408C145.932 261.204 145.597 261.03 145.248 260.888C145.347 260.864 145.449 260.864 145.548 260.888C145.829 260.951 146.096 261.063 146.338 261.218C147.211 261.818 147.856 262.695 148.168 263.708C148.988 266.178 149.958 269.598 151.068 273.378C152.178 277.158 153.118 280.608 153.788 283.098C154.088 284.258 154.348 285.248 154.548 286.098C154.669 286.452 154.753 286.817 154.798 287.188Z" fill="#EB996E"/>
</svg>
