<svg width="432" height="432" viewBox="0 0 432 432" fill="none" xmlns="http://www.w3.org/2000/svg">
<path d="M403.243 242.83C403.243 242.83 393.533 236.14 381.093 259.43C368.653 282.72 363.833 296.21 363.833 296.21C363.833 296.21 360.573 301.08 357.243 297.79C353.913 294.5 349.463 285.27 343.673 286.79C337.673 288.38 335.573 295 336.523 304.79C337.473 314.58 338.763 336.18 338.873 338.13C338.983 340.08 337.873 342.84 335.203 340.97C332.533 339.1 317.623 321.76 309.823 329.35C302.023 336.94 309.153 363.85 309.883 366.8C310.613 369.75 310.003 371 308.593 371.7C307.183 372.4 302.703 366.1 298.243 361.35C293.783 356.6 287.783 351.86 283.653 356.62C279.523 361.38 277.843 381.43 296.313 414.4L305.873 429.12L323.483 428.48C361.103 424.83 376.603 412 378.153 405.89C379.703 399.78 372.393 397.56 365.943 396.61C359.493 395.66 351.763 395.61 351.533 394.02C351.303 392.43 351.983 391.26 354.823 390.17C357.663 389.08 383.823 379.58 385.603 368.84C387.383 358.1 364.603 355.71 361.603 354.63C358.603 353.55 360.203 351 361.843 350C363.483 349 381.953 337.72 390.553 332.89C399.153 328.06 403.393 322.57 401.273 316.73C399.223 311.11 389.103 312.73 384.503 311.86C379.903 310.99 382.043 305.55 382.043 305.55C382.043 305.55 390.363 293.91 402.383 270.39C414.403 246.87 403.073 242.67 403.073 242.67" fill="#F5F5F5"/>
<path d="M306.843 425.6C315.733 408.36 328.223 384.6 342.113 358.5C356.003 332.4 368.533 308.69 377.513 291.5L388.133 271.13L391.023 265.59L391.783 264.15C391.963 263.83 392.063 263.67 392.063 263.67C392.063 263.67 391.993 263.85 391.833 264.18C391.673 264.51 391.423 265.01 391.123 265.64C390.473 266.94 389.523 268.81 388.323 271.22C385.883 276.07 382.323 283.06 377.853 291.67C368.963 308.91 356.473 332.62 342.593 358.76C328.713 384.9 316.163 408.59 307.183 425.76" fill="#E0E0E0"/>
<path d="M349.393 300C349.577 300.383 349.718 300.786 349.813 301.2C350.053 301.98 350.363 303.12 350.743 304.53C351.483 307.35 352.403 311.27 353.343 315.62C354.283 319.97 355.083 323.78 355.713 326.75C356.003 328.09 356.253 329.21 356.453 330.12C356.572 330.527 356.646 330.947 356.673 331.37C356.483 330.988 356.338 330.586 356.243 330.17C356.003 329.39 355.693 328.25 355.333 326.84C354.623 324.01 353.753 320.08 352.813 315.73C351.873 311.38 351.013 307.58 350.363 304.62C350.063 303.28 349.813 302.16 349.613 301.25C349.488 300.844 349.414 300.424 349.393 300Z" fill="#E0E0E0"/>
<path d="M358.273 331.68C358.273 331.54 366.273 329.28 376.143 326.68C386.013 324.08 394.143 322.01 394.143 322.15C394.143 322.29 386.143 324.56 376.273 327.2C366.403 329.84 358.313 331.83 358.273 331.68Z" fill="#E0E0E0"/>
<path d="M335.153 370.87C335.582 370.819 336.015 370.819 336.443 370.87L339.973 370.95C342.973 371.01 347.043 371.08 351.583 370.95C356.123 370.82 360.213 370.66 363.183 370.48L366.693 370.27C367.125 370.222 367.561 370.222 367.993 370.27C367.577 370.396 367.147 370.473 366.713 370.5C365.893 370.6 364.713 370.74 363.213 370.88C360.213 371.15 356.133 371.43 351.593 371.51C347.053 371.59 342.923 371.46 339.953 371.3C338.463 371.21 337.263 371.13 336.433 371.05C336.001 371.039 335.572 370.979 335.153 370.87Z" fill="#E0E0E0"/>
<path d="M320.803 344C321.067 344.305 321.292 344.64 321.473 345L323.113 347.81C324.483 350.2 326.343 353.51 328.363 357.19C330.383 360.87 332.183 364.19 333.463 366.64C334.053 367.78 334.553 368.74 334.953 369.53C335.16 369.874 335.322 370.244 335.433 370.63C335.178 370.321 334.957 369.986 334.773 369.63L333.123 366.82C331.763 364.44 329.903 361.12 327.883 357.45C325.863 353.78 324.063 350.45 322.773 348C322.193 346.86 321.693 345.89 321.283 345.1C321.084 344.752 320.923 344.383 320.803 344Z" fill="#E0E0E0"/>
<path d="M295.993 376C296.311 376.401 296.592 376.829 296.833 377.28C297.383 378.22 298.103 379.42 298.953 380.87C300.723 383.92 303.133 388.15 305.773 392.87C308.413 397.59 310.773 401.82 312.443 404.87C313.243 406.35 313.903 407.59 314.443 408.54C314.706 408.982 314.927 409.447 315.103 409.93C314.785 409.529 314.504 409.101 314.263 408.65L312.113 405C310.343 402 307.933 397.73 305.293 393C302.653 388.27 300.293 384.06 298.623 381C297.823 379.52 297.163 378.28 296.623 377.32C296.373 376.9 296.162 376.458 295.993 376Z" fill="#E0E0E0"/>
<path d="M314.843 409C315.386 408.921 315.935 408.894 316.483 408.92L320.953 408.86C324.723 408.8 329.953 408.71 335.683 408.44C341.413 408.17 346.633 407.81 350.393 407.52L354.843 407.17C355.387 407.097 355.936 407.077 356.483 407.11C355.954 407.242 355.416 407.332 354.873 407.38C353.823 407.52 352.303 407.71 350.423 407.9C346.673 408.29 341.423 408.73 335.703 408.98C329.983 409.23 324.703 409.29 320.953 409.24C319.063 409.24 317.543 409.18 316.483 409.13C315.934 409.134 315.385 409.091 314.843 409Z" fill="#E0E0E0"/>
<path d="M131.513 31.6201C130.159 32.5661 128.707 33.364 127.183 34.0001C125.752 34.7808 124.244 35.4109 122.683 35.8801C124.023 34.9476 125.457 34.1599 126.963 33.5301C128.406 32.7306 129.932 32.0902 131.513 31.6201Z" fill="#E0E0E0"/>
<path d="M156.783 86.6602C155.764 87.4381 154.644 88.0739 153.453 88.5502C152.338 89.179 151.144 89.6565 149.903 89.9702C152.036 88.5601 154.351 87.4466 156.783 86.6602Z" fill="#E0E0E0"/>
<path d="M159.083 90.8203C158.061 91.5941 156.942 92.2295 155.753 92.7103C154.636 93.3418 153.439 93.8195 152.193 94.1303C153.213 93.3523 154.333 92.7165 155.523 92.2403C156.638 91.6037 157.836 91.1257 159.083 90.8203Z" fill="#E0E0E0"/>
<path d="M161.713 95.6904C160.211 96.7942 158.515 97.605 156.713 98.0804C158.215 96.9767 159.911 96.1658 161.713 95.6904Z" fill="#E0E0E0"/>
<path d="M164.603 109.4C164.594 109.719 164.54 110.036 164.443 110.34C164.342 110.714 164.187 111.071 163.983 111.4C163.696 111.858 163.252 112.196 162.733 112.35C162.41 112.464 162.057 112.464 161.733 112.35C161.403 112.211 161.117 111.987 160.903 111.7C160.493 111.089 160.12 110.454 159.783 109.8C159.033 108.42 158.193 106.9 157.303 105.26L157.753 105.16C157.673 107.45 157.583 109.95 157.493 112.57C157.493 113.2 157.443 113.81 157.423 114.42V115.42L156.973 114.49C155.603 111.68 154.333 109.05 153.213 106.76H153.633C153.003 109.04 152.683 111.395 152.683 113.76C152.683 115.47 152.793 116.44 152.683 116.45C152.61 116.223 152.563 115.988 152.543 115.75C152.453 115.087 152.396 114.419 152.373 113.75C152.284 111.361 152.547 108.972 153.153 106.66L153.303 106.08L153.563 106.62C154.703 108.9 155.993 111.51 157.383 114.31L156.893 114.41C156.893 113.8 156.943 113.19 156.963 112.56C157.073 109.94 157.173 107.44 157.263 105.15V104.25L157.683 105.04C158.563 106.69 159.373 108.23 160.103 109.61C160.403 110.257 160.737 110.888 161.103 111.5C161.251 111.74 161.47 111.929 161.73 112.038C161.99 112.147 162.278 112.173 162.553 112.11C162.952 111.971 163.31 111.736 163.596 111.425C163.882 111.115 164.087 110.739 164.193 110.33C164.309 110.011 164.446 109.7 164.603 109.4Z" fill="#E0E0E0"/>
<path d="M169.573 106.53C167.434 108.703 165.178 110.756 162.813 112.68C160.556 114.732 158.186 116.655 155.713 118.44C157.848 116.264 160.105 114.211 162.473 112.29C164.725 110.233 167.096 108.31 169.573 106.53Z" fill="#E0E0E0"/>
<path d="M71.7333 418.15C94.2633 406.73 102.683 380.8 105.253 356.78C105.683 352.78 106.713 348.63 105.313 344.86C103.913 341.09 99.8233 338.07 96.0133 339.25C92.8533 340.25 91.0733 343.49 89.0133 346.1C86.2615 349.588 82.5799 352.226 78.3933 353.71C75.6633 354.71 72.3933 355.03 70.0933 353.29C66.9233 350.91 67.1933 346.1 67.7733 342.13C68.8733 334.71 69.9666 327.334 71.0533 320C71.6433 316 72.2333 312 71.5233 308.05C70.8133 304.1 68.5933 300.22 64.9733 298.63C61.3533 297.04 56.3733 298.55 55.0233 302.33C54.4633 303.9 54.5533 305.62 54.2133 307.25C53.8733 308.88 52.8433 310.6 51.2133 310.83C49.5833 311.06 48.1333 309.72 47.1133 308.4C43.5833 303.81 41.5333 298.25 39.6633 292.75C37.7933 287.25 36.0133 281.64 32.9233 276.75C29.8333 271.86 25.1733 267.62 19.5133 266.49C13.8533 265.36 7.32331 268.01 5.10331 273.39C2.88331 278.77 5.32331 284.92 8.23331 289.95C12.5644 297.417 17.9536 304.218 24.2333 310.14C25.3533 311.2 26.5733 312.36 26.8433 313.89C27.3333 316.66 24.4533 318.89 21.7133 319.43C18.6233 320 15.4533 319.24 12.3133 319.16C9.17331 319.08 5.62331 319.98 4.03331 322.74C1.83331 326.56 4.62331 331.3 7.56331 334.55C13.4558 341.072 20.4235 346.535 28.1633 350.7C30.9333 352.18 33.8733 353.55 35.9333 355.93C37.9933 358.31 38.9333 362.09 37.1033 364.68C35.2733 367.27 31.5033 367.68 28.5233 366.68C25.5433 365.68 23.0433 363.68 20.2933 362.12C15.1233 359.29 8.03331 358.67 3.87331 362.89C1.13331 365.66 0.323314 369.95 0.963314 373.8C1.60331 377.65 3.50332 381.18 5.59332 384.46C12.8733 395.96 22.8933 405.79 34.9233 411.97C46.9533 418.15 58.5033 420.97 71.7333 418.18" fill="#F5F5F5"/>
<path d="M69.8333 430.48C70.3133 420.89 69.5133 414.85 67.6833 402.29C65.5563 388.705 62.6549 375.254 58.9933 362C58.0333 358.48 57.0933 355 56.1733 351.56C55.2333 348.14 54.3133 344.74 53.1733 341.48C51.0228 335.212 48.5325 329.067 45.7133 323.07C43.0533 317.33 40.3233 311.99 37.7133 307C35.1033 302.01 32.5933 297.43 30.1333 293.34C26.2696 286.865 21.8993 280.705 17.0633 274.92C15.3633 272.87 13.9833 271.33 13.0633 270.3L11.9833 269.13C11.8656 268.991 11.735 268.864 11.5933 268.75C11.6893 268.904 11.7998 269.048 11.9233 269.18L12.9233 270.4C13.8333 271.46 15.1733 273.04 16.8433 275.11C21.5791 280.947 25.871 287.131 29.6833 293.61C32.1133 297.71 34.5933 302.31 37.1633 307.29C39.7333 312.27 42.4333 317.63 45.0633 323.37C47.8847 329.344 50.3718 335.47 52.5133 341.72C53.6133 344.97 54.5133 348.34 55.5133 351.72C56.5133 355.1 57.3733 358.64 58.3233 362.16C61.9879 375.382 64.9058 388.8 67.0633 402.35C68.9233 414.86 69.7733 420.85 69.3633 430.41" fill="#E0E0E0"/>
<path d="M52.9932 341.43C53.2617 340.908 53.4729 340.358 53.6232 339.79C53.9832 338.72 54.4632 337.16 55.0232 335.22C56.1432 331.35 57.5032 325.95 59.0232 320C60.5432 314.05 61.9432 308.67 63.1232 304.83C63.7032 302.9 64.1932 301.35 64.5432 300.28C64.7643 299.736 64.922 299.169 65.0132 298.59C64.7068 299.09 64.4586 299.623 64.2732 300.18C63.8432 301.18 63.2732 302.76 62.6332 304.67C61.3232 308.48 59.7932 313.85 58.3132 319.81L54.5132 335.09C54.0532 336.92 53.6632 338.47 53.3432 339.71C53.1638 340.269 53.0464 340.845 52.9932 341.43Z" fill="#E0E0E0"/>
<path d="M3.32324 324.67C3.97408 324.902 4.64304 325.079 5.32324 325.2C6.62324 325.5 8.49324 325.93 10.7932 326.53C15.3932 327.69 21.6932 329.53 28.5532 331.86C35.4132 334.19 41.5532 336.58 45.9032 338.43C48.1032 339.34 49.9032 340.12 51.0732 340.66C51.6889 340.973 52.3315 341.231 52.9932 341.43C52.4248 341.043 51.8224 340.708 51.1932 340.43C50.0132 339.82 48.2832 338.96 46.1132 337.98C41.7732 335.98 35.6632 333.54 28.7832 331.19C22.9215 329.148 16.9567 327.416 10.9132 326C8.59324 325.46 6.69324 325.11 5.38324 324.89C4.70466 324.754 4.01516 324.681 3.32324 324.67Z" fill="#E0E0E0"/>
<path d="M67.1831 401.27C67.1831 401.27 67.3531 401.08 67.6231 400.69L68.7631 398.97C69.7631 397.47 71.0931 395.26 72.7631 392.52C76.0531 387.02 80.3631 379.29 84.9931 370.69C89.6231 362.09 93.8631 354.32 96.9931 348.76L100.763 342.19L101.763 340.4C101.892 340.197 101.996 339.978 102.073 339.75C102.073 339.75 101.903 339.93 101.633 340.32L100.513 342C99.5131 343.5 98.1731 345.71 96.5131 348.46C93.2231 353.95 88.9131 361.69 84.2831 370.29C79.6531 378.89 75.4231 386.65 72.2831 392.21C70.7231 394.91 69.4531 397.13 68.5031 398.78C68.1031 399.5 67.7631 400.09 67.5031 400.57C67.3642 400.787 67.2564 401.023 67.1831 401.27Z" fill="#E0E0E0"/>
<path d="M2.51318 369.811C2.70488 369.971 2.92094 370.099 3.15318 370.191L5.02318 371.131L11.9532 374.511C17.8032 377.361 25.8332 381.401 34.7032 385.871C43.5732 390.341 51.7032 394.321 57.5632 397.051C60.5632 398.421 62.9132 399.501 64.5632 400.221L66.5132 401.001C66.732 401.11 66.9639 401.19 67.2032 401.241C67.0112 401.086 66.7993 400.958 66.5732 400.861L64.6932 399.931L57.7732 396.541C51.9232 393.691 43.8932 389.651 35.0232 385.181C26.1532 380.711 18.0532 376.771 12.1432 374.001C9.14318 372.631 6.79318 371.551 5.14318 370.831L3.21318 370.021C2.98983 369.921 2.75456 369.85 2.51318 369.811Z" fill="#E0E0E0"/>
<path d="M431.613 429.83C431.613 429.97 335.153 430.09 216.193 430.09C97.2329 430.09 0.75293 430 0.75293 429.83C0.75293 429.66 97.1929 429.57 216.193 429.57C335.193 429.57 431.613 429.69 431.613 429.83Z" fill="#263238"/>
<path d="M158.163 301.439C158.163 301.439 129.723 320.759 128.163 365.859C127.643 380.989 135.073 429.159 135.073 429.159L301.403 429.829L270.293 300.719L217.963 288.719L158.163 301.439Z" fill="#EE1C25"/>
<path d="M221.703 334.92L199.043 429.45L255.683 429.83L221.703 334.92Z" fill="#263238"/>
<path d="M220.843 314.45C221.022 315.471 221.122 316.504 221.143 317.54C221.273 319.62 221.433 322.18 221.613 325.02C221.793 327.86 221.893 330.59 221.933 332.5C222.001 333.536 221.977 334.577 221.863 335.61C221.684 334.589 221.584 333.556 221.563 332.52C221.433 330.45 221.273 327.88 221.093 325.05C220.913 322.22 220.813 319.48 220.783 317.56C220.71 316.523 220.73 315.482 220.843 314.45Z" fill="#263238"/>
<path d="M231.103 324.87C231.103 324.92 230.733 325 230.103 325.35C229.277 325.845 228.619 326.577 228.213 327.45C227.899 328.077 227.752 328.775 227.787 329.476C227.822 330.177 228.038 330.857 228.413 331.45C228.842 332.192 229.487 332.788 230.262 333.156C231.037 333.525 231.906 333.65 232.753 333.514C233.6 333.379 234.387 332.989 235.008 332.398C235.629 331.806 236.056 331.039 236.233 330.2C236.41 329.527 236.411 328.821 236.235 328.149C236.06 327.476 235.715 326.86 235.233 326.36C234.576 325.654 233.723 325.163 232.783 324.95C232.123 324.8 231.783 324.84 231.723 324.79C231.663 324.74 231.823 324.79 232.003 324.73C232.275 324.691 232.551 324.691 232.823 324.73C233.836 324.877 234.773 325.351 235.493 326.08C236.001 326.581 236.39 327.189 236.633 327.86C236.901 328.646 236.94 329.492 236.743 330.3C236.548 331.236 236.074 332.09 235.382 332.75C234.69 333.41 233.814 333.843 232.869 333.993C231.925 334.143 230.958 334.002 230.096 333.588C229.234 333.175 228.518 332.509 228.043 331.68C227.607 330.974 227.382 330.159 227.393 329.33C227.422 328.632 227.603 327.95 227.923 327.33C228.381 326.412 229.125 325.668 230.043 325.21C230.285 325.083 230.545 324.992 230.813 324.94C231.003 324.86 231.093 324.85 231.103 324.87Z" fill="#263238"/>
<path d="M249.233 376.479C249.233 376.479 248.863 376.619 248.233 376.959C247.411 377.456 246.756 378.187 246.353 379.059C246.039 379.687 245.892 380.385 245.927 381.086C245.962 381.787 246.178 382.467 246.553 383.059C246.983 383.802 247.628 384.397 248.403 384.766C249.177 385.135 250.046 385.26 250.893 385.124C251.741 384.989 252.527 384.599 253.148 384.007C253.77 383.416 254.197 382.649 254.373 381.809C254.549 381.137 254.55 380.431 254.374 379.759C254.199 379.087 253.855 378.47 253.373 377.969C252.72 377.265 251.87 376.774 250.933 376.559C250.263 376.409 249.873 376.449 249.873 376.399C249.962 376.36 250.057 376.34 250.153 376.339C250.422 376.306 250.694 376.306 250.963 376.339C251.981 376.489 252.922 376.967 253.643 377.699C254.15 378.196 254.537 378.801 254.773 379.469C255.052 380.254 255.09 381.103 254.883 381.909C254.696 382.85 254.226 383.71 253.535 384.375C252.844 385.039 251.966 385.476 251.019 385.626C250.072 385.777 249.102 385.633 248.239 385.216C247.376 384.798 246.662 384.126 246.193 383.289C245.749 382.588 245.522 381.77 245.543 380.939C245.568 380.242 245.749 379.558 246.073 378.939C246.531 378.022 247.275 377.278 248.193 376.819C248.437 376.696 248.696 376.605 248.963 376.549C249.05 376.514 249.141 376.49 249.233 376.479Z" fill="#263238"/>
<path d="M190.423 339C190.319 339.158 190.198 339.306 190.063 339.44C189.823 339.72 189.463 340.13 188.973 340.64C187.57 342.071 186.074 343.407 184.493 344.64C179.229 348.675 173.158 351.529 166.693 353.01C163.143 353.861 159.483 354.158 155.843 353.89C152.841 353.672 149.956 352.635 147.503 350.89C145.865 349.693 144.549 348.109 143.673 346.28C143.453 345.781 143.272 345.266 143.133 344.74C143.077 344.558 143.046 344.369 143.043 344.18C143.093 344.18 143.243 344.94 143.863 346.18C144.781 347.93 146.105 349.435 147.723 350.57C150.14 352.231 152.957 353.215 155.883 353.42C159.476 353.647 163.082 353.337 166.583 352.5C172.981 351.033 179.005 348.254 184.273 344.34C185.86 343.149 187.379 341.87 188.823 340.51L189.993 339.38C190.263 339.11 190.403 339 190.423 339Z" fill="#263238"/>
<path d="M190.423 348.36C190.319 348.519 190.198 348.666 190.063 348.8C189.823 349.08 189.463 349.5 188.973 350.01C182.891 356.186 175.154 360.475 166.693 362.36C163.144 363.214 159.484 363.515 155.843 363.25C152.842 363.028 149.958 361.991 147.503 360.25C145.864 359.059 144.547 357.478 143.673 355.65C143.451 355.149 143.27 354.63 143.133 354.1C143.076 353.918 143.045 353.73 143.043 353.54C143.093 353.54 143.243 354.3 143.863 355.54C144.781 357.293 146.104 358.801 147.723 359.94C150.141 361.598 152.958 362.578 155.883 362.78C159.476 363.013 163.083 362.702 166.583 361.86C172.979 360.392 179.001 357.617 184.273 353.71C185.861 352.516 187.38 351.234 188.823 349.87L189.993 348.74C190.121 348.597 190.265 348.469 190.423 348.36Z" fill="#263238"/>
<path d="M191.893 345.53C191.929 345.66 191.952 345.794 191.963 345.93C191.963 346.22 192.033 346.62 192.093 347.12C192.213 348.2 192.383 349.74 192.593 351.71C193.013 355.71 193.813 361.44 194.173 368.61C194.379 372.52 194.295 376.441 193.923 380.34C193.514 384.83 192.505 389.246 190.923 393.47C189.18 398.166 186.417 402.418 182.833 405.92C180.931 407.761 178.792 409.342 176.473 410.62C174.074 411.926 171.481 412.841 168.793 413.33C163.433 414.201 157.936 413.183 153.243 410.45C148.867 407.969 145.178 404.436 142.513 400.17C140.163 396.314 138.473 392.092 137.513 387.68C136.659 383.843 136.196 379.93 136.133 376C136.112 370.334 136.513 364.675 137.333 359.07C137.623 357.07 137.843 355.57 137.993 354.5C138.073 354 138.143 353.61 138.183 353.31C138.202 353.174 138.232 353.04 138.273 352.91C138.286 353.046 138.286 353.183 138.273 353.32C138.273 353.62 138.193 354.01 138.133 354.51C138.003 355.59 137.813 357.13 137.563 359.09C136.832 364.692 136.498 370.34 136.563 375.99C136.647 379.884 137.123 383.76 137.983 387.56C138.958 391.914 140.648 396.077 142.983 399.88C145.595 404.077 149.215 407.556 153.513 410C158.104 412.672 163.481 413.665 168.723 412.81C171.357 412.34 173.897 411.445 176.243 410.16C178.525 408.907 180.63 407.357 182.503 405.55C186.041 402.106 188.773 397.923 190.503 393.3C192.076 389.119 193.085 384.747 193.503 380.3C193.893 376.422 193.997 372.522 193.813 368.63C193.503 361.48 192.813 355.72 192.403 351.73C192.203 349.73 192.073 348.18 191.993 347.13C191.993 346.63 191.933 346.23 191.913 345.93C191.893 345.63 191.893 345.53 191.893 345.53Z" fill="#263238"/>
<g opacity="0.2">
<path d="M139.853 395.06C141.653 401.16 142.423 402.74 145.793 407.61C148.905 412.225 153.459 415.678 158.743 417.43C162.521 418.733 166.569 419.05 170.503 418.35C174.437 417.65 178.127 415.956 181.223 413.43C187.333 408.32 189.493 400.43 190.553 395.08C187.893 398.66 185.063 403.75 181.713 406.7C178.363 409.65 173.933 412.23 169.513 413C163.513 414 156.363 412.2 151.233 408.94C146.103 405.68 143.003 399.84 139.823 395.07" fill="black"/>
</g>
<g opacity="0.2">
<path d="M144.133 356.27C145.274 358.813 147.016 361.04 149.209 362.759C151.403 364.479 153.982 365.639 156.723 366.14C162.133 367.14 169.143 365.43 172.523 360.35C160.623 364.53 148.793 364.63 144.133 356.27Z" fill="black"/>
</g>
<path d="M241.923 341.52C241.668 341.564 241.408 341.564 241.153 341.52C240.476 341.426 239.807 341.279 239.153 341.08C234.697 339.758 230.875 336.857 228.403 332.92C228.026 332.331 227.692 331.716 227.403 331.08C227.213 330.62 227.123 330.37 227.163 330.35C227.203 330.33 227.703 331.29 228.683 332.72C229.974 334.563 231.538 336.199 233.323 337.57C235.121 338.923 237.118 339.989 239.243 340.73C240.873 341.24 241.933 341.43 241.923 341.52Z" fill="#263238"/>
<g opacity="0.2">
<path d="M228.083 331C229.313 335.18 233.953 339.08 238.083 340.45C238.891 340.751 239.753 340.877 240.613 340.82C241.043 340.79 241.461 340.666 241.838 340.457C242.214 340.248 242.54 339.959 242.793 339.609C243.663 338.279 242.913 336.39 241.633 335.45C240.271 334.619 238.753 334.078 237.173 333.859C233.983 333.119 231.103 334.729 228.463 332.049" fill="black"/>
</g>
<g opacity="0.2">
<path d="M139.643 323.26C147.103 329.78 157.643 330.06 167.133 327.26C176.623 324.46 184.893 319.19 192.953 313.43C184.163 315.18 176.663 319.19 167.793 320.5C159.323 321.75 150.513 321.88 142.183 319.05" fill="black"/>
</g>
<path d="M282.703 423.42C282.648 423.468 282.583 423.505 282.513 423.53C282.323 423.632 282.125 423.722 281.923 423.8C281.146 424.114 280.328 424.316 279.493 424.4C276.4 424.656 273.314 423.829 270.763 422.06C267.443 419.95 264.423 416.4 261.193 412.46C257.728 408.136 254.615 403.541 251.883 398.72C246.926 389.948 243.131 380.57 240.593 370.82C239.593 367.08 239.013 364.02 238.643 361.89C238.483 360.89 238.353 360.04 238.253 359.44C238.204 359.155 238.17 358.868 238.153 358.58C238.25 358.852 238.32 359.134 238.363 359.42L238.843 361.85C239.273 363.96 239.943 367.01 240.943 370.72C243.578 380.402 247.404 389.72 252.333 398.46C255.056 403.257 258.145 407.838 261.573 412.16C264.763 416.1 267.743 419.65 270.963 421.75C273.451 423.516 276.467 424.38 279.513 424.2C280.607 424.086 281.68 423.823 282.703 423.42Z" fill="#263238"/>
<g opacity="0.2">
<path d="M246.743 386.52C246.743 386.52 261.503 405.08 272.273 409.63C275.923 411.18 279.943 412.44 282.433 415.52C283.055 416.225 283.516 417.057 283.784 417.959C284.052 418.86 284.12 419.809 283.983 420.74C283.942 420.96 283.875 421.175 283.783 421.38C282.233 425.33 274.783 424.78 271.373 422.28C269.883 421.19 270.763 421.89 269.563 420.99C266.113 418.39 247.643 397 246.743 386.52Z" fill="black"/>
</g>
<path d="M181.583 136.02L191.003 134.15L237.593 134.7L261.263 139.9L270.293 272.08L165.643 276.97L181.583 136.02Z" fill="#E0E0E0"/>
<path d="M249.353 266L251.583 205.88L247.873 136.17C262.593 139.96 282.723 144.17 293.873 156.88C301.103 165.13 308.193 175.68 310.873 192.67C313.953 212.67 318.013 250.92 320.553 272.32" fill="#EE1C25"/>
<path d="M264.153 256.14L191.803 267.89L189.243 223.21L185.243 134.88C164.243 135.74 140.343 153.09 133.173 166.61C128.173 175.99 123.983 186.89 122.673 197.44C120.163 217.44 115.913 251.71 113.373 273.12C112.605 279.626 113.296 286.223 115.396 292.429C117.496 298.635 120.952 304.296 125.513 309C136.013 319.83 152.453 323.58 167.233 320.52L277.393 289.52L264.153 256.14Z" fill="#EE1C25"/>
<path d="M256.513 255.34C256.519 255.254 256.536 255.17 256.563 255.09C256.623 254.91 256.693 254.67 256.773 254.37C256.983 253.7 257.263 252.77 257.633 251.58C258.413 249.12 259.523 245.58 260.903 241.2L272.253 205.76L272.403 206.07L260.673 201.22L260.213 201.03L260.623 200.76L263.333 198.98L272.183 193.2L272.083 193.48C267.583 177.86 263.623 164.08 260.773 154.17C259.383 149.25 258.263 145.29 257.473 142.53C257.113 141.18 256.823 140.13 256.613 139.38C256.527 139.053 256.457 138.783 256.403 138.57C256.371 138.479 256.351 138.385 256.343 138.29C256.343 138.29 256.343 138.37 256.443 138.55L256.703 139.36C256.933 140.1 257.253 141.14 257.653 142.48L261.103 154.07L272.573 193.34L272.623 193.52L272.463 193.63L263.623 199.42L260.913 201.19V200.73L272.633 205.6L272.853 205.69L272.783 205.91C268.163 220.1 264.133 232.45 261.253 241.3C259.803 245.68 258.653 249.19 257.843 251.63C257.443 252.81 257.123 253.74 256.903 254.4C256.803 254.69 256.713 254.92 256.653 255.11C256.616 255.191 256.569 255.269 256.513 255.34Z" fill="#263238"/>
<g opacity="0.2">
<path d="M272.513 193.56C271.923 195.728 270.646 197.647 268.873 199.03C267.493 199.82 268.283 200.87 269.423 201.97C270.793 203.29 272.993 203.65 274.003 205.25C275.013 206.85 274.443 208.68 273.923 210.36C268.914 226.298 262.833 241.88 255.723 257L272.513 205.83L260.803 201L272.513 193.56Z" fill="black"/>
</g>
<path d="M185.783 256.579C185.734 256.515 185.693 256.445 185.663 256.369C185.593 256.209 185.493 256.009 185.383 255.749L184.303 253.309C183.363 251.149 182.023 248.04 180.303 244.16L166.813 212.539L166.733 212.359L166.903 212.24L176.153 205.619V205.999L170.023 201.139L167.303 198.999L165.953 197.999L165.623 197.729C165.554 197.68 165.49 197.623 165.433 197.559C165.369 197.476 165.321 197.381 165.293 197.279C165.219 196.982 165.183 196.676 165.183 196.369C165.245 194.132 165.452 191.9 165.803 189.689C166.413 185.359 167.133 181.2 167.803 177.24C169.223 169.33 170.633 162.24 171.803 156.24C172.973 150.24 174.023 145.469 174.733 142.149C175.093 140.509 175.383 139.23 175.583 138.32L175.813 137.32C175.83 137.205 175.864 137.094 175.913 136.99C175.908 137.107 175.891 137.225 175.863 137.339C175.863 137.589 175.753 137.919 175.683 138.339C175.503 139.253 175.253 140.533 174.933 142.179C174.273 145.539 173.333 150.359 172.173 156.299C171.013 162.239 169.653 169.369 168.253 177.299C167.563 181.249 166.853 185.409 166.253 189.729C165.908 191.914 165.705 194.119 165.643 196.329C165.641 196.586 165.671 196.841 165.733 197.089C165.733 197.209 166.023 197.39 166.233 197.57L167.573 198.63L170.283 200.779L176.403 205.63L176.673 205.85L176.393 206.049L167.133 212.649L167.213 212.339L180.623 243.999C182.253 247.909 183.553 250.999 184.453 253.209C184.883 254.259 185.223 255.079 185.453 255.679L185.693 256.32C185.73 256.403 185.761 256.49 185.783 256.579Z" fill="#263238"/>
<path d="M273.261 213.193L200.364 201.947C199.048 201.744 197.817 202.646 197.614 203.961L181.892 305.876C181.689 307.191 182.591 308.422 183.906 308.625L256.804 319.871C258.119 320.074 259.35 319.172 259.553 317.857L275.276 215.942C275.479 214.627 274.577 213.396 273.261 213.193Z" fill="#EE1C25"/>
<g opacity="0.2">
<path d="M273.261 213.193L200.364 201.947C199.048 201.744 197.817 202.646 197.614 203.961L181.892 305.876C181.689 307.191 182.591 308.422 183.906 308.625L256.804 319.871C258.119 320.074 259.35 319.172 259.553 317.857L275.276 215.942C275.479 214.627 274.577 213.396 273.261 213.193Z" fill="black"/>
</g>
<path d="M270.96 215.159L201.966 204.515L186.646 303.821L255.64 314.464L270.96 215.159Z" fill="#EBEBEB"/>
<path d="M250.233 213.53C249.744 212.019 248.844 210.673 247.635 209.644C246.425 208.614 244.953 207.941 243.383 207.7L243.963 203.45C244.199 201.91 243.814 200.34 242.894 199.084C241.973 197.828 240.592 196.989 239.053 196.75C237.512 196.511 235.94 196.894 234.682 197.815C233.423 198.736 232.582 200.119 232.343 201.66L231.663 206.06L230.183 205.86C228.631 205.644 227.049 205.86 225.611 206.485C224.173 207.109 222.935 208.118 222.033 209.4L220.883 211L250.883 215.64L250.233 213.53ZM237.833 205.77C237.215 205.675 236.639 205.4 236.178 204.977C235.716 204.555 235.391 204.006 235.242 203.399C235.093 202.792 235.127 202.154 235.341 201.566C235.554 200.978 235.938 200.467 236.442 200.098C236.946 199.728 237.549 199.516 238.173 199.489C238.798 199.462 239.417 199.62 239.951 199.945C240.486 200.27 240.912 200.746 241.175 201.312C241.439 201.879 241.529 202.512 241.433 203.13C241.303 203.956 240.851 204.696 240.177 205.191C239.503 205.685 238.66 205.893 237.833 205.77Z" fill="#263238"/>
<path d="M225.343 222.55C222.19 222.332 219.052 221.938 215.943 221.37C212.812 220.97 209.704 220.403 206.633 219.67C209.783 219.888 212.918 220.282 216.023 220.85C219.158 221.249 222.269 221.816 225.343 222.55Z" fill="#263238"/>
<path d="M215.163 224.21C213.634 224.243 212.107 224.095 210.613 223.77C209.092 223.623 207.592 223.304 206.143 222.82C207.671 222.798 209.197 222.946 210.693 223.26C212.214 223.406 213.714 223.725 215.163 224.21Z" fill="#263238"/>
<path d="M257.753 239.79C257.753 239.93 246.053 238.24 231.683 236.03C217.313 233.82 205.683 231.89 205.683 231.75C205.683 231.61 217.373 233.29 231.753 235.51C246.133 237.73 257.773 239.64 257.753 239.79Z" fill="#263238"/>
<path d="M256.983 244.75C256.983 244.89 245.293 243.21 230.913 240.99C216.533 238.77 204.913 236.86 204.913 236.72C204.913 236.58 216.603 238.26 230.983 240.48C245.363 242.7 257.003 244.61 256.983 244.75Z" fill="#263238"/>
<path d="M256.223 249.72C256.223 249.86 244.523 248.17 230.153 245.96C215.783 243.75 204.153 241.82 204.153 241.68C204.153 241.54 215.853 243.22 230.233 245.44C244.613 247.66 256.243 249.57 256.223 249.72Z" fill="#263238"/>
<path d="M255.453 254.68C255.453 254.82 243.763 253.14 229.383 250.92C215.003 248.7 203.383 246.79 203.383 246.64C203.383 246.49 215.073 248.19 229.453 250.41C243.833 252.63 255.513 254.54 255.453 254.68Z" fill="#263238"/>
<path d="M254.683 259.639C254.683 259.789 242.993 258.099 228.613 255.879C214.233 253.659 202.613 251.749 202.613 251.609C202.613 251.469 214.303 253.149 228.683 255.369C243.063 257.589 254.713 259.499 254.683 259.639Z" fill="#263238"/>
<path d="M253.923 264.61C253.923 264.75 242.223 263.07 227.853 260.85C213.483 258.63 201.853 256.72 201.853 256.57C201.853 256.42 213.543 258.11 227.923 260.33C242.303 262.55 253.943 264.47 253.923 264.61Z" fill="#263238"/>
<path d="M227.203 265.069C226.868 265.087 226.533 265.066 226.203 265.009C225.533 264.939 224.583 264.819 223.403 264.659C221.033 264.339 217.773 263.869 214.183 263.319C210.593 262.769 207.343 262.229 204.993 261.819C203.813 261.619 202.873 261.439 202.213 261.309C201.869 261.269 201.533 261.181 201.213 261.049C201.547 261.027 201.884 261.047 202.213 261.109C202.883 261.179 203.833 261.299 205.013 261.459C207.383 261.769 210.643 262.249 214.233 262.799C217.823 263.349 221.073 263.889 223.423 264.299C224.603 264.499 225.543 264.679 226.203 264.809C226.547 264.85 226.883 264.938 227.203 265.069Z" fill="#263238"/>
<path d="M261.923 227.74C260.509 227.783 259.095 227.652 257.713 227.35C256.304 227.222 254.917 226.92 253.583 226.45C256.405 226.538 259.206 226.971 261.923 227.74Z" fill="#263238"/>
<path d="M213.693 274.059C211.41 273.968 209.137 273.704 206.893 273.269C204.623 273.008 202.377 272.574 200.173 271.969C202.457 272.061 204.73 272.325 206.973 272.759C209.243 273.024 211.489 273.458 213.693 274.059Z" fill="#263238"/>
<path d="M213.453 278.64C211.13 278.541 208.817 278.27 206.533 277.829C204.226 277.568 201.942 277.127 199.703 276.51C202.023 276.608 204.333 276.879 206.613 277.32C208.924 277.58 211.211 278.022 213.453 278.64Z" fill="#263238"/>
<path d="M253.013 279.44C250.798 279.447 248.594 279.11 246.483 278.44C247.592 278.352 248.708 278.433 249.793 278.68C250.9 278.757 251.988 279.013 253.013 279.44Z" fill="#263238"/>
<path d="M252.613 283.53C250.398 283.537 248.195 283.2 246.083 282.53C248.298 282.522 250.501 282.859 252.613 283.53Z" fill="#263238"/>
<path d="M206.413 282.4C205.341 282.488 204.261 282.411 203.213 282.17C202.143 282.09 201.092 281.836 200.103 281.42C201.172 281.325 202.249 281.402 203.293 281.65C204.367 281.726 205.421 281.98 206.413 282.4Z" fill="#263238"/>
<path d="M252.113 288.299C251.311 288.431 250.49 288.393 249.703 288.189C248.891 288.149 248.097 287.938 247.373 287.569C248.174 287.426 248.997 287.46 249.783 287.669C250.596 287.71 251.39 287.925 252.113 288.299Z" fill="#263238"/>
<path d="M198.033 292.05C198.426 292.015 198.821 292.015 199.213 292.05L202.533 292.15L214.393 292.62H214.663L214.603 292.88C214.306 294.165 213.571 295.307 212.523 296.11C211.968 296.553 211.32 296.865 210.627 297.023C209.935 297.181 209.215 297.179 208.523 297.02C207.784 296.848 207.098 296.499 206.525 296.002C205.952 295.506 205.508 294.877 205.233 294.17C204.981 293.41 204.963 292.592 205.18 291.822C205.398 291.052 205.841 290.365 206.453 289.85C206.902 289.444 207.445 289.155 208.033 289.01C208.181 288.972 208.331 288.948 208.483 288.94C208.646 288.919 208.81 288.919 208.973 288.94C209.082 288.957 209.186 289.001 209.275 289.067C209.363 289.133 209.435 289.22 209.483 289.32C209.549 289.491 209.57 289.677 209.543 289.86C209.412 290.979 209.04 292.057 208.453 293.02C207.883 293.941 207.131 294.737 206.243 295.36C205.378 296.009 204.325 296.36 203.243 296.36C202.722 296.323 202.221 296.142 201.797 295.836C201.373 295.53 201.043 295.113 200.843 294.63C200.461 293.75 200.39 292.765 200.643 291.84C201.235 290.297 202.197 288.924 203.443 287.84L203.713 287.57V287.95C203.873 289.329 203.608 290.725 202.953 291.95C202.466 292.875 201.784 293.684 200.953 294.32C200.436 294.72 199.859 295.038 199.243 295.26C199.032 295.344 198.81 295.398 198.583 295.42C199.396 295.123 200.156 294.698 200.833 294.16C201.605 293.516 202.235 292.719 202.683 291.82C203.285 290.635 203.512 289.296 203.333 287.98L203.653 288.08C202.47 289.141 201.561 290.472 201.003 291.96C200.785 292.788 200.856 293.666 201.203 294.45C201.37 294.852 201.645 295.2 201.998 295.454C202.352 295.709 202.769 295.859 203.203 295.89C204.158 295.88 205.085 295.56 205.843 294.98C206.689 294.388 207.399 293.624 207.929 292.738C208.458 291.852 208.793 290.864 208.913 289.84C208.936 289.751 208.936 289.658 208.913 289.57C208.913 289.52 208.913 289.5 208.773 289.48C208.531 289.466 208.288 289.49 208.053 289.55C207.549 289.678 207.083 289.924 206.693 290.27C206.164 290.721 205.781 291.319 205.59 291.988C205.4 292.657 205.411 293.367 205.623 294.03C205.864 294.639 206.245 295.184 206.734 295.619C207.224 296.054 207.81 296.368 208.443 296.536C209.077 296.703 209.741 296.719 210.382 296.583C211.023 296.446 211.623 296.161 212.133 295.75C213.1 295.025 213.783 293.985 214.063 292.81L214.273 293.08L202.513 292.39L199.193 292.17C198.804 292.154 198.417 292.114 198.033 292.05Z" fill="#263238"/>
<path d="M247.453 299.5C247.294 299.727 247.102 299.929 246.883 300.1C246.627 300.319 246.341 300.501 246.033 300.64C245.601 300.831 245.113 300.856 244.663 300.71C244.38 300.622 244.133 300.443 243.963 300.2C243.795 299.936 243.698 299.632 243.683 299.32C243.692 298.681 243.738 298.043 243.823 297.41C243.953 296.05 244.103 294.56 244.263 292.95L244.693 293.12L240.873 298.29L239.923 299.57L239.303 300.41L239.453 299.41C239.863 296.74 240.233 294.25 240.563 292.06L240.933 292.26C239.373 293.574 237.992 295.087 236.823 296.76C235.983 297.97 235.583 298.76 235.533 298.7C235.582 298.5 235.66 298.308 235.763 298.13C236.02 297.612 236.304 297.108 236.613 296.62C237.711 294.866 239.058 293.283 240.613 291.92L241.063 291.53L240.973 292.13C240.673 294.31 240.313 296.81 239.973 299.49L239.503 299.29L240.503 298.01C241.863 296.19 243.153 294.45 244.353 292.86L244.883 292.14L244.783 293.03C244.593 294.64 244.423 296.13 244.263 297.48C244.17 298.093 244.11 298.71 244.083 299.33C244.067 299.57 244.128 299.809 244.258 300.013C244.387 300.216 244.578 300.373 244.803 300.46C245.149 300.553 245.512 300.56 245.861 300.48C246.21 300.399 246.533 300.235 246.803 300C247.006 299.815 247.223 299.648 247.453 299.5Z" fill="#263238"/>
<path d="M249.213 296.78C245.949 297.022 242.674 297.092 239.403 296.99C236.133 297.062 232.862 296.962 229.603 296.69C232.863 296.441 236.135 296.367 239.403 296.47C242.676 296.397 245.951 296.501 249.213 296.78Z" fill="#263238"/>
<path d="M252.403 299.89C249.817 300.428 247.198 300.799 244.563 301C241.949 301.368 239.313 301.568 236.673 301.6C239.258 301.047 241.877 300.673 244.513 300.48C247.127 300.105 249.763 299.908 252.403 299.89Z" fill="#263238"/>
<g opacity="0.2">
<path d="M165.443 196.93C165.323 199.93 166.133 202.99 168.633 204.68C165.503 206.2 163.833 209.84 163.733 213.32C163.633 216.8 164.843 220.18 166.153 223.41C170.203 233.34 178.843 247.32 185.433 255.78C185.433 255.78 182.093 246.78 181.133 244.67C176.793 235.18 172.963 225.67 168.613 216.15C168.133 215.15 167.273 212.23 167.273 212.23C167.747 211.996 168.185 211.697 168.573 211.34C171.013 209.34 176.303 205.83 176.303 205.83C176.303 205.83 165.443 197.23 165.443 196.93Z" fill="black"/>
</g>
<path d="M165.293 217.33C165.433 217.33 165.183 228.88 164.723 243.11C164.263 257.34 163.783 268.88 163.643 268.87C163.503 268.86 163.743 257.33 164.203 243.09C164.663 228.85 165.143 217.32 165.293 217.33Z" fill="#263238"/>
<path d="M182.513 187H181.513C181.513 186.62 182.963 148.79 184.093 133.73C184.13 132.673 184.382 131.634 184.835 130.678C185.287 129.722 185.929 128.869 186.723 128.17C189.843 125.5 194.513 125.85 194.723 125.86L194.643 126.86C194.593 126.86 190.183 126.54 187.383 128.93C186.692 129.546 186.132 130.296 185.739 131.135C185.345 131.974 185.126 132.884 185.093 133.81C183.993 148.76 182.563 186.58 182.513 187Z" fill="#263238"/>
<path d="M191.883 250.28H190.113V248.28H191.883C193.74 248.28 195.52 247.542 196.833 246.229C198.146 244.917 198.883 243.136 198.883 241.28V220.1H200.883V241.28C200.883 243.667 199.935 245.956 198.247 247.644C196.559 249.331 194.27 250.28 191.883 250.28Z" fill="#455A64"/>
<path d="M192.603 249.52C192.562 249.943 192.395 250.344 192.126 250.673C191.856 251.002 191.495 251.243 191.088 251.367C190.681 251.49 190.247 251.49 189.84 251.367C189.433 251.244 189.072 251.003 188.802 250.674C188.532 250.345 188.366 249.944 188.324 249.521C188.282 249.098 188.367 248.672 188.567 248.297C188.767 247.922 189.074 247.614 189.449 247.414C189.824 247.213 190.25 247.128 190.673 247.17C191.24 247.228 191.76 247.507 192.122 247.947C192.483 248.388 192.656 248.953 192.603 249.52Z" fill="#263238"/>
<path d="M174.583 250.23H172.813C170.426 250.23 168.137 249.281 166.449 247.594C164.761 245.906 163.813 243.617 163.813 241.23L163.893 220.05H165.893L165.813 241.23C165.813 243.086 166.55 244.867 167.863 246.179C169.176 247.492 170.956 248.23 172.813 248.23H174.583V250.23Z" fill="#455A64"/>
<path d="M172.103 249.46C172.144 249.881 172.31 250.28 172.578 250.607C172.846 250.934 173.204 251.174 173.609 251.297C174.013 251.421 174.445 251.421 174.85 251.299C175.255 251.177 175.615 250.938 175.884 250.612C176.153 250.286 176.319 249.887 176.362 249.467C176.405 249.046 176.322 248.622 176.124 248.248C175.926 247.875 175.621 247.568 175.249 247.367C174.877 247.166 174.454 247.08 174.033 247.12C173.752 247.146 173.48 247.227 173.231 247.359C172.982 247.491 172.761 247.671 172.582 247.889C172.403 248.106 172.268 248.357 172.186 248.626C172.104 248.896 172.075 249.179 172.103 249.46Z" fill="#263238"/>
<path d="M163.303 222.489L163.053 207.389C162.863 195.879 171.273 186.389 181.803 186.199C184.368 186.177 186.908 186.694 189.26 187.717C191.612 188.74 193.722 190.247 195.453 192.139C199.132 196.12 201.197 201.329 201.243 206.749L201.493 221.859L198.493 221.909L198.243 206.799C198.207 202.12 196.423 197.623 193.243 194.189C191.802 192.597 190.04 191.329 188.074 190.467C186.107 189.605 183.98 189.17 181.833 189.189C172.953 189.339 165.833 197.469 166.033 207.329L166.283 222.429L163.303 222.489Z" fill="#263238"/>
<path d="M248.723 187.56C248.723 187.16 244.133 147.85 242.813 135.25L242.723 134.33C242.313 130.05 241.833 125.21 237.103 123.93L237.363 122.93C242.763 124.39 243.293 129.83 243.723 134.2L243.813 135.11C245.123 147.71 249.673 187.02 249.713 187.42L248.723 187.56Z" fill="#263238"/>
<path d="M256.814 188.41C261.004 184.219 261.004 177.426 256.814 173.235C252.624 169.045 245.83 169.045 241.639 173.235C237.449 177.426 237.449 184.219 241.64 188.41C245.83 192.6 252.624 192.6 256.814 188.41Z" fill="#263238"/>
<path d="M254.403 180.82C254.403 181.847 254.098 182.85 253.528 183.704C252.957 184.558 252.146 185.223 251.197 185.616C250.248 186.008 249.204 186.11 248.197 185.909C247.19 185.708 246.265 185.213 245.54 184.486C244.814 183.759 244.321 182.833 244.121 181.826C243.922 180.819 244.027 179.775 244.421 178.827C244.815 177.878 245.482 177.069 246.337 176.499C247.192 175.93 248.196 175.628 249.223 175.63C249.904 175.63 250.578 175.764 251.208 176.025C251.837 176.286 252.408 176.668 252.889 177.15C253.37 177.632 253.752 178.205 254.012 178.834C254.271 179.464 254.404 180.139 254.403 180.82Z" fill="#455A64"/>
<path d="M185.783 256.58L172.313 289.71L279.763 319.5C284.675 320.868 289.83 321.129 294.855 320.265C299.88 319.4 304.651 317.431 308.823 314.5C320.063 306.57 322.823 292.7 321.453 278.97L319.513 264.37L185.783 256.58Z" fill="#EE1C25"/>
<path d="M299.623 292.54C299.513 292.54 299.283 290.28 298.173 286.79C297.888 285.836 297.554 284.899 297.173 283.98C296.793 282.98 296.263 281.98 295.733 280.86C294.5 278.544 293.05 276.351 291.403 274.31C289.726 272.294 287.865 270.439 285.843 268.77C284.843 268.04 283.983 267.31 283.073 266.77C282.251 266.203 281.399 265.679 280.523 265.2C277.323 263.43 275.133 262.75 275.173 262.64C275.697 262.747 276.209 262.904 276.703 263.11C277.3 263.303 277.884 263.534 278.453 263.8C279.123 264.11 279.903 264.42 280.703 264.88C281.601 265.34 282.473 265.85 283.313 266.41C284.243 266.97 285.163 267.7 286.143 268.41C288.211 270.08 290.11 271.949 291.813 273.99C293.477 276.06 294.931 278.291 296.153 280.65C296.683 281.76 297.203 282.8 297.573 283.83C297.961 284.763 298.295 285.718 298.573 286.69C298.824 287.483 299.028 288.292 299.183 289.11C299.342 289.73 299.452 290.362 299.513 291C299.596 291.509 299.633 292.024 299.623 292.54Z" fill="#263238"/>
<g opacity="0.2">
<path d="M169.913 270.68C161.713 271.36 155.383 272.11 146.913 273.15C141.623 273.8 136.133 273.43 134.403 268.4C132.673 263.37 133.773 257.61 136.613 253.1C139.453 248.59 143.913 238.1 167.793 246.1L169.913 270.68Z" fill="black"/>
</g>
<path d="M180.973 269.23L181.033 269.01L181.263 268.35L182.163 265.83L185.613 256.52L185.663 256.39H185.793L222.343 259.7L257.703 263.06L268.413 264.13L271.323 264.45L272.073 264.55C272.162 264.552 272.25 264.569 272.333 264.6H272.073H271.313L268.393 264.38L257.663 263.46L222.293 260.26L185.763 256.79L185.943 256.67L182.343 265.93L181.343 268.41L181.073 269.05C181.023 269.17 180.983 269.24 180.973 269.23Z" fill="#263238"/>
<g opacity="0.2">
<path d="M225.183 303.4C240.443 307.49 249.723 305.12 263.583 297.54C266.422 295.875 269.148 294.024 271.743 292C273.719 290.384 275.477 288.518 276.973 286.45C259.123 293.28 244.293 298.45 225.893 303.59" fill="black"/>
</g>
<path d="M181.023 268.87L184.513 259.12L176.403 246.44C175.701 245.341 174.782 244.397 173.702 243.666C172.622 242.935 171.404 242.433 170.123 242.19L140.283 236.56C139.912 237.677 139.964 238.891 140.428 239.973C140.893 241.055 141.738 241.929 142.803 242.43C146.713 244.66 164.303 248.75 164.303 248.75L137.213 248.29C137.213 248.29 136.373 252.2 139.443 253.6C142.513 255 161.813 255.71 161.813 255.71L137.103 259.19C137.103 259.19 136.963 263.11 142.613 263.19C148.178 263.123 153.735 262.773 159.263 262.14C159.492 262.108 159.724 262.166 159.911 262.302C160.098 262.438 160.224 262.642 160.263 262.87C160.297 263.09 160.247 263.315 160.123 263.5C159.999 263.685 159.81 263.817 159.593 263.87L143.163 267.75C142.69 267.856 142.265 268.116 141.955 268.49C141.645 268.863 141.467 269.328 141.448 269.813C141.43 270.298 141.573 270.775 141.854 271.171C142.135 271.566 142.539 271.858 143.003 272C143.301 272.071 143.609 272.092 143.913 272.06C146.713 271.78 163.433 269.66 163.433 269.66L164.303 271.61L181.023 268.89" fill="#B78876"/>
<path d="M168.753 265.86C168.526 265.321 168.215 264.822 167.833 264.38C167.391 263.928 166.85 263.586 166.253 263.38C165.515 263.154 164.742 263.069 163.973 263.13C162.313 263.25 160.813 263.73 159.693 263.87C159.088 264.016 158.458 264.016 157.853 263.87C158.435 263.705 159.026 263.575 159.623 263.48C161.036 263.062 162.481 262.761 163.943 262.58C164.783 262.514 165.627 262.623 166.423 262.9C167.071 263.15 167.647 263.556 168.103 264.08C168.343 264.305 168.526 264.583 168.639 264.893C168.752 265.202 168.791 265.533 168.753 265.86Z" fill="#AA6550"/>
<path d="M171.453 258.429C171.403 258.429 171.373 258.159 171.153 257.729C170.828 257.133 170.334 256.646 169.733 256.329C168.223 255.449 165.673 255.739 162.993 255.919C160.313 256.099 157.853 256.499 156.083 256.729C155.133 256.909 154.17 257.006 153.203 257.019C154.119 256.71 155.064 256.492 156.023 256.369C158.312 255.92 160.621 255.586 162.943 255.369C164.226 255.253 165.515 255.203 166.803 255.219C167.889 255.193 168.962 255.456 169.913 255.979C170.557 256.352 171.057 256.929 171.333 257.619C171.458 257.87 171.5 258.154 171.453 258.429Z" fill="#AA6550"/>
<path d="M173.513 254.11C173.49 253.316 173.274 252.541 172.883 251.85C172.437 251.126 171.819 250.525 171.083 250.1C170.151 249.612 169.131 249.313 168.083 249.22C165.843 249.01 163.743 249.22 162.213 249.1C161.382 249.099 160.563 248.9 159.823 248.52C159.823 248.44 160.743 248.71 162.233 248.74C163.723 248.77 165.793 248.49 168.143 248.74C169.261 248.832 170.344 249.174 171.313 249.74C172.109 250.224 172.759 250.915 173.193 251.74C173.495 252.284 173.65 252.897 173.643 253.52C173.623 253.89 173.513 254.11 173.513 254.11Z" fill="#AA6550"/>
<path d="M270.383 254.079C270.385 253.536 270.436 252.994 270.533 252.459C270.663 251.459 270.913 249.919 271.263 248.079C271.953 244.399 273.173 239.369 274.463 233.819C275.604 229.093 276.475 224.305 277.073 219.479C277.193 218.549 277.243 217.709 277.313 216.969C277.383 216.229 277.423 215.599 277.443 215.069C277.438 214.526 277.485 213.984 277.583 213.449C277.648 213.99 277.668 214.535 277.643 215.079C277.643 215.599 277.643 216.249 277.643 216.989C277.643 217.729 277.583 218.579 277.473 219.509C276.987 224.37 276.165 229.192 275.013 233.939C273.713 239.499 272.443 244.499 271.663 248.159C271.273 249.979 270.963 251.469 270.773 252.489C270.687 253.029 270.556 253.561 270.383 254.079Z" fill="#263238"/>
<path d="M280.753 319.68C280.553 319.676 280.354 319.642 280.163 319.579L278.503 319.21L272.423 317.71C267.293 316.42 260.223 314.55 252.423 312.39C244.623 310.23 237.633 308.159 232.583 306.609L226.583 304.75L224.963 304.21C224.806 304.156 224.655 304.086 224.513 304C224.711 304.013 224.906 304.053 225.093 304.12L226.743 304.56L232.743 306.27L252.623 311.9L272.513 317.359L278.513 319.01L280.153 319.48C280.36 319.525 280.561 319.592 280.753 319.68Z" fill="#263238"/>
<path d="M177.813 29.6296C180.013 22.8396 191.283 16.7096 197.463 13.1496C206.713 7.83958 215.283 8.89957 220.563 13.6296C230.103 5.62957 242.673 -2.07042 254.723 1.07958C266.773 4.22958 276.563 16.5696 274.363 28.8396C273.073 36.0696 268.063 42.5496 268.363 49.8396C268.563 54.8396 271.213 59.3596 273.363 63.8996C275.513 68.4396 277.093 73.7196 275.213 78.3596C273.463 82.6696 269.093 85.3596 266.743 89.3596C264.823 92.6396 264.383 96.5396 263.153 100.13C258.613 113.43 242.913 120.89 229.053 118.55C215.193 116.21 203.643 105.78 197.053 93.3396C190.463 80.8996 188.343 66.6196 187.583 52.5896" fill="#263238"/>
<path d="M188.023 38.9996L190.793 149.9C191.793 162.61 203.503 171.9 217.103 170.72C230.833 169.54 241.323 158.17 240.533 145.31C239.703 131.82 239.083 117.59 239.083 117.59C239.083 117.59 256.273 113.59 258.413 90.6696C259.503 78.9296 257.603 59.6696 255.613 44.4096C255.223 41.3673 254.221 38.4353 252.668 35.7901C251.115 33.1449 249.044 30.8412 246.577 29.0176C244.111 27.194 241.301 25.8882 238.317 25.1788C235.333 24.4694 232.236 24.371 229.213 24.8896" fill="#B78876"/>
<path d="M250.513 60.7996C250.572 61.5564 250.331 62.3061 249.843 62.8875C249.355 63.469 248.659 63.836 247.903 63.9096C247.535 63.9644 247.16 63.9448 246.8 63.8521C246.44 63.7593 246.102 63.5953 245.807 63.3696C245.511 63.144 245.264 62.8613 245.079 62.5384C244.895 62.2155 244.777 61.8588 244.733 61.4896C244.677 60.7323 244.918 59.9828 245.405 59.4004C245.893 58.8179 246.588 58.4482 247.343 58.3696C247.711 58.3163 248.087 58.3372 248.447 58.4311C248.807 58.5251 249.145 58.6901 249.44 58.9165C249.736 59.143 249.983 59.4262 250.167 59.7496C250.351 60.073 250.469 60.43 250.513 60.7996Z" fill="#263238"/>
<path d="M253.403 57.8395C253.063 58.2395 250.753 56.7495 247.623 56.9595C244.493 57.1695 242.303 58.8795 241.943 58.5195C241.763 58.3595 242.083 57.6595 243.033 56.8595C244.329 55.8317 245.911 55.2307 247.563 55.1395C249.188 55.0325 250.805 55.442 252.183 56.3095C253.193 56.9995 253.563 57.6495 253.403 57.8395Z" fill="#263238"/>
<path d="M220.513 63.9395C220.574 64.698 220.335 65.4502 219.847 66.0338C219.359 66.6175 218.66 66.9859 217.903 67.0595C217.535 67.1128 217.159 67.0919 216.799 66.998C216.439 66.904 216.101 66.739 215.806 66.5126C215.511 66.2861 215.263 66.0029 215.079 65.6795C214.895 65.3561 214.777 64.9991 214.733 64.6295C214.677 63.8721 214.918 63.1227 215.405 62.5403C215.893 61.9578 216.588 61.588 217.343 61.5095C217.711 61.4562 218.087 61.4771 218.447 61.571C218.807 61.665 219.145 61.83 219.44 62.0564C219.736 62.2829 219.983 62.5661 220.167 62.8895C220.351 63.2129 220.469 63.5699 220.513 63.9395Z" fill="#263238"/>
<path d="M222.673 60.4096C222.333 60.8096 220.023 59.3196 216.893 59.5296C213.763 59.7396 211.573 61.4496 211.213 61.0896C211.033 60.9296 211.353 60.2296 212.313 59.4296C213.606 58.4036 215.185 57.8029 216.833 57.7096C218.458 57.6026 220.075 58.0121 221.453 58.8796C222.513 59.5596 222.833 60.2196 222.673 60.4096Z" fill="#263238"/>
<path d="M235.513 82.8797C235.513 82.7097 237.403 82.2497 240.513 81.6397C241.303 81.5097 242.053 81.2997 242.153 80.7397C242.167 79.9107 241.926 79.0974 241.463 78.4097C240.593 76.5197 239.673 74.5497 238.713 72.4797C234.873 64.0197 232.033 57.0497 232.373 56.8997C232.713 56.7497 236.103 63.4797 239.953 71.8997C240.873 73.9797 241.763 75.9697 242.603 77.8997C243.175 78.8291 243.394 79.9322 243.223 81.0097C243.126 81.2988 242.963 81.5618 242.748 81.7785C242.533 81.9951 242.272 82.1597 241.983 82.2597C241.551 82.4106 241.1 82.5014 240.643 82.5297C237.513 82.9197 235.513 83.0597 235.513 82.8797Z" fill="#263238"/>
<path d="M239.093 117.55C228.424 118.403 217.726 116.277 208.193 111.41C208.193 111.41 216.783 126.68 239.343 123.09L239.093 117.55Z" fill="#AA6550"/>
<path d="M222.693 48.0895C222.433 48.9595 219.283 48.7595 215.643 49.4395C212.003 50.1195 209.093 51.3095 208.553 50.5795C208.313 50.2295 208.783 49.3895 209.923 48.4895C211.446 47.3624 213.214 46.6119 215.083 46.2995C216.95 45.9555 218.872 46.0549 220.693 46.5895C222.073 47.0495 222.793 47.6795 222.693 48.0895Z" fill="#263238"/>
<path d="M251.663 48.8496C251.163 49.5996 248.953 48.9996 246.363 49.1296C243.773 49.2596 241.603 49.9196 241.053 49.2096C240.803 48.8596 241.053 48.1296 242.053 47.3896C243.29 46.5003 244.763 45.9988 246.285 45.9489C247.808 45.8991 249.311 46.3031 250.603 47.1096C251.513 47.7796 251.883 48.4896 251.663 48.8496Z" fill="#263238"/>
<path d="M230.673 88.7695C233.123 88.7695 234.343 89.4895 236.423 90.7695C237.05 91.0996 237.564 91.6075 237.903 92.2295C238.063 92.6764 238.118 93.154 238.065 93.6256C238.011 94.0972 237.849 94.5501 237.593 94.9495C237.082 95.8577 236.322 96.6009 235.402 97.0916C234.483 97.5824 233.442 97.8002 232.403 97.7195C231.367 97.6107 230.391 97.1812 229.612 96.491C228.832 95.8008 228.287 94.8843 228.053 93.8695C227.859 92.8463 228.012 91.7878 228.486 90.8608C228.96 89.9337 229.73 89.191 230.673 88.7495" fill="#AA6550"/>
<path d="M238.983 93.9995C238.983 94.2395 238.203 94.5995 236.833 94.5195C235.101 94.3587 233.427 93.812 231.933 92.9195C230.427 92.0812 229.093 90.9648 228.003 89.6295C227.193 88.6295 226.943 87.7495 227.153 87.6295C227.563 87.3595 229.623 89.5195 232.863 91.2995C234.203 92.0728 235.613 92.719 237.073 93.2295C238.193 93.6095 238.953 93.7395 238.983 93.9995Z" fill="#263238"/>
<path d="M223.533 74.4796C223.992 74.4796 224.363 74.108 224.363 73.6496C224.363 73.1912 223.992 72.8196 223.533 72.8196C223.075 72.8196 222.703 73.1912 222.703 73.6496C222.703 74.108 223.075 74.4796 223.533 74.4796Z" fill="#AA6550"/>
<path d="M247.863 69.5795C247.863 69.7437 247.814 69.9041 247.723 70.0406C247.632 70.1771 247.502 70.2835 247.351 70.3463C247.199 70.4091 247.032 70.4256 246.871 70.3936C246.71 70.3615 246.562 70.2825 246.446 70.1664C246.33 70.0503 246.251 69.9024 246.219 69.7414C246.187 69.5804 246.203 69.4135 246.266 69.2619C246.329 69.1102 246.435 68.9806 246.572 68.8894C246.708 68.7982 246.869 68.7495 247.033 68.7495C247.253 68.7495 247.464 68.837 247.62 68.9926C247.776 69.1483 247.863 69.3594 247.863 69.5795Z" fill="#AA6550"/>
<path d="M252.453 71.7397C252.466 71.857 252.454 71.9757 252.418 72.0881C252.382 72.2005 252.323 72.304 252.244 72.3919C252.165 72.4798 252.069 72.5501 251.961 72.5982C251.853 72.6463 251.736 72.6712 251.618 72.6712C251.5 72.6712 251.384 72.6463 251.276 72.5982C251.168 72.5501 251.072 72.4798 250.993 72.3919C250.914 72.304 250.855 72.2005 250.819 72.0881C250.782 71.9757 250.77 71.857 250.783 71.7397C250.806 71.534 250.904 71.3438 251.058 71.2057C251.212 71.0676 251.411 70.9912 251.618 70.9912C251.825 70.9912 252.025 71.0676 252.179 71.2057C252.333 71.3438 252.431 71.534 252.453 71.7397Z" fill="#AA6550"/>
<path d="M253.843 68.2694C253.843 68.4336 253.794 68.5941 253.703 68.7306C253.612 68.8671 253.482 68.9734 253.331 69.0363C253.179 69.0991 253.012 69.1155 252.851 69.0835C252.69 69.0515 252.542 68.9724 252.426 68.8563C252.31 68.7403 252.231 68.5924 252.199 68.4314C252.167 68.2704 252.183 68.1035 252.246 67.9518C252.309 67.8002 252.415 67.6705 252.552 67.5793C252.688 67.4881 252.849 67.4395 253.013 67.4395C253.233 67.4395 253.444 67.5269 253.6 67.6825C253.756 67.8382 253.843 68.0493 253.843 68.2694Z" fill="#AA6550"/>
<path d="M220.563 77.3195C220.565 77.4861 220.518 77.6494 220.427 77.7889C220.335 77.9283 220.205 78.0375 220.052 78.1027C219.898 78.1678 219.729 78.1858 219.566 78.1546C219.402 78.1233 219.251 78.0441 219.133 77.927C219.014 77.8099 218.933 77.6603 218.9 77.4971C218.867 77.3339 218.883 77.1645 218.946 77.0104C219.01 76.8563 219.117 76.7245 219.256 76.6318C219.394 76.539 219.557 76.4895 219.723 76.4895C219.944 76.4895 220.156 76.5766 220.314 76.732C220.471 76.8874 220.561 77.0985 220.563 77.3195Z" fill="#AA6550"/>
<path d="M217.443 73.9997C217.443 74.1638 217.395 74.3243 217.303 74.4608C217.212 74.5973 217.082 74.7037 216.931 74.7665C216.779 74.8293 216.612 74.8458 216.451 74.8137C216.29 74.7817 216.142 74.7027 216.026 74.5866C215.91 74.4705 215.831 74.3226 215.799 74.1616C215.767 74.0006 215.784 73.8337 215.846 73.6821C215.909 73.5304 216.016 73.4008 216.152 73.3096C216.289 73.2184 216.449 73.1697 216.613 73.1697C216.833 73.1697 217.044 73.2571 217.2 73.4128C217.356 73.5684 217.443 73.7795 217.443 73.9997Z" fill="#AA6550"/>
<path d="M231.043 63.9397C230.951 62.7606 230.767 61.5904 230.493 60.4397C229.671 57.3122 227.818 54.5535 225.233 52.6097C223.469 51.2696 221.413 50.365 219.233 49.9697C216.735 49.5125 214.16 49.73 211.773 50.5997C210.487 51.0586 209.28 51.713 208.193 52.5397C207.043 53.3766 206.03 54.3889 205.193 55.5397C203.407 57.9704 202.444 60.9081 202.444 63.9247C202.444 66.9412 203.407 69.8789 205.193 72.3097C206.85 74.5843 209.138 76.3227 211.773 77.3097C214.16 78.1794 216.735 78.3969 219.233 77.9397C221.413 77.5443 223.469 76.6398 225.233 75.2997C227.815 73.3573 229.667 70.6029 230.493 67.4797C230.765 66.3286 230.949 65.1586 231.043 63.9797C231.058 64.0556 231.058 64.1337 231.043 64.2097V64.8997C231.043 65.2748 231.013 65.6493 230.953 66.0197C230.902 66.5259 230.812 67.0274 230.683 67.5197C230.368 68.8925 229.842 70.2081 229.123 71.4197C227.406 74.3591 224.712 76.6034 221.511 77.7618C218.31 78.9202 214.804 78.9195 211.603 77.7597C210.269 77.285 209.015 76.6106 207.883 75.7597C206.686 74.8973 205.636 73.8471 204.773 72.6497C202.91 70.1374 201.904 67.0925 201.904 63.9647C201.904 60.8369 202.91 57.792 204.773 55.2797C205.636 54.0823 206.686 53.0321 207.883 52.1697C209.015 51.3187 210.269 50.6444 211.603 50.1697C214.07 49.2845 216.729 49.0773 219.303 49.5697C221.339 49.9641 223.267 50.7868 224.96 51.9833C226.653 53.1799 228.072 54.7228 229.123 56.5097C229.84 57.722 230.366 59.0374 230.683 60.4097C230.813 60.9051 230.903 61.41 230.953 61.9197C231.013 62.2867 231.043 62.6579 231.043 63.0297V63.7197C231.056 63.7925 231.056 63.8669 231.043 63.9397Z" fill="white"/>
<path d="M237.313 59.5695C236.2 59.2633 235.047 59.1284 233.893 59.1695C232.755 59.3754 231.654 59.7459 230.623 60.2695C230.623 60.2695 230.833 59.8895 231.393 59.5095C232.128 59.0353 232.964 58.7407 233.833 58.6495C234.708 58.5504 235.594 58.6671 236.413 58.9895C237.033 59.2395 237.343 59.5095 237.313 59.5695Z" fill="white"/>
<path d="M228.173 21.6495C226.173 39.7195 212.733 55.9895 195.393 61.4695C200.983 69.5295 197.463 84.8695 197.603 97.6695C197.743 109.57 197.733 112.97 190.023 119.04C183.653 120.57 180.023 103.12 175.243 98.2395C170.463 93.3595 165.973 87.3495 166.323 80.5695C166.493 77.3895 167.733 74.3495 167.903 71.1795C168.103 67.6595 166.973 64.1795 166.353 60.7495C163.593 45.3995 171.513 28.8895 184.923 20.8595C198.333 12.8295 216.143 13.3695 229.413 21.5795" fill="#263238"/>
<path d="M189.903 95.9397C188.241 90.1024 185.384 84.6743 181.513 79.9997L181.803 80.6197C180.607 77.8926 178.807 75.4734 176.538 73.545C174.269 71.6167 171.591 70.2299 168.707 69.4895C165.822 68.7491 162.807 68.6746 159.89 69.2716C156.973 69.8686 154.23 71.1215 151.868 72.9354C149.507 74.7493 147.589 77.0767 146.26 79.7414C144.931 82.406 144.225 85.3382 144.197 88.3158C144.168 91.2934 144.818 94.2384 146.096 96.928C147.374 99.6175 149.247 101.981 151.573 103.84C149.323 103.34 147.043 105.28 146.573 107.53C146.399 108.674 146.459 109.842 146.749 110.963C147.04 112.084 147.555 113.134 148.263 114.05C152.953 120.91 163.583 122.72 170.263 117.8C175.563 121.39 183.393 119.3 187.323 114.25C191.253 109.2 191.713 102.08 189.903 95.9397Z" fill="#263238"/>
<path d="M168.433 69.4696C168.225 69.2733 168.034 69.0592 167.863 68.8296C167.398 68.1601 167.059 67.4111 166.863 66.6196C166.253 64.5496 166.543 61.2796 168.183 57.8196C169.075 55.9252 170.301 54.2076 171.803 52.7496C173.449 51.0191 175.272 49.4672 177.243 48.1196C179.424 46.6172 181.804 45.4257 184.313 44.5796C186.903 43.6896 189.653 42.9996 192.453 42.2996C195.253 41.5996 197.993 40.9096 200.553 40.0096C203.021 39.159 205.419 38.1158 207.723 36.8896C211.622 34.814 215.246 32.261 218.513 29.2896C220.716 27.2762 222.749 25.0855 224.593 22.7396C225.253 21.9096 225.733 21.2396 226.063 20.7396C226.219 20.5037 226.397 20.2828 226.593 20.0796C226.463 20.3295 226.316 20.57 226.153 20.7996C225.843 21.2696 225.393 21.9596 224.753 22.7996C222.96 25.2097 220.952 27.4523 218.753 29.4996C215.483 32.5346 211.841 35.1421 207.913 37.2596C205.59 38.5044 203.173 39.5643 200.683 40.4296C198.093 41.3396 195.343 42.0396 192.543 42.7496C189.743 43.4596 187.003 44.1296 184.433 44.9996C181.953 45.8246 179.598 46.9854 177.433 48.4496C175.485 49.7777 173.676 51.2987 172.033 52.9896C170.57 54.4356 169.378 56.1325 168.513 57.9996C166.863 61.3696 166.513 64.5596 167.063 66.5896C167.318 67.6332 167.784 68.6134 168.433 69.4696Z" fill="#455A64"/>
<path d="M226.573 20.1296C226.43 20.3302 226.273 20.5206 226.103 20.6996C225.783 21.0696 225.293 21.5896 224.663 22.2596C222.849 24.1262 220.922 25.8795 218.893 27.5096C215.893 29.9765 212.551 31.9973 208.973 33.5096C206.825 34.3035 204.609 34.9026 202.353 35.2996C200.023 35.7696 197.593 36.1296 195.113 36.5096C190.441 37.0681 185.827 38.0352 181.323 39.3996C177.669 40.5923 174.276 42.4689 171.323 44.9296C169.338 46.5938 167.701 48.6326 166.503 50.9296C166.191 51.5607 165.914 52.2083 165.673 52.8696C165.603 53.1065 165.505 53.3346 165.383 53.5496C165.43 53.3088 165.493 53.0716 165.573 52.8396C165.773 52.1551 166.024 51.4866 166.323 50.8396C167.467 48.4738 169.088 46.3699 171.083 44.6596C174.038 42.1242 177.459 40.1882 181.153 38.9596C185.674 37.5472 190.313 36.5432 195.013 35.9596C197.503 35.5896 199.923 35.2196 202.233 34.7696C204.464 34.3835 206.655 33.8012 208.783 33.0296C212.327 31.5573 215.646 29.5948 218.643 27.1996C220.689 25.6088 222.649 23.9097 224.513 22.1096L226.023 20.6296C226.189 20.4449 226.374 20.2774 226.573 20.1296Z" fill="#455A64"/>
<path d="M251.963 0.349567C251.963 0.459567 250.013 0.529567 246.963 1.34957C246.136 1.56484 245.321 1.82523 244.523 2.12957C243.653 2.41957 242.773 2.84957 241.823 3.26957C237.779 5.22264 234.219 8.05095 231.403 11.5496C230.783 12.3796 230.163 13.1396 229.683 13.9296C229.205 14.6338 228.767 15.365 228.373 16.1196C226.903 18.8796 226.373 20.7796 226.293 20.7396C226.359 20.2888 226.473 19.8463 226.633 19.4196C226.777 18.9008 226.957 18.3929 227.173 17.8996C227.427 17.2161 227.72 16.5483 228.053 15.8996C228.426 15.1191 228.85 14.3641 229.323 13.6396C229.793 12.8396 230.403 12.0496 231.023 11.1996C232.454 9.42635 234.066 7.80755 235.833 6.36957C237.63 4.97376 239.571 3.77364 241.623 2.78957C242.521 2.36738 243.443 1.99677 244.383 1.67957C245.871 1.15763 247.404 0.77597 248.963 0.539569C249.491 0.437208 250.026 0.373702 250.563 0.349567C251.028 0.294936 251.498 0.294936 251.963 0.349567Z" fill="#455A64"/>
<path d="M268.073 86.6896C268.073 86.6896 268.073 86.6195 268.223 86.4895L268.693 85.9396C269.113 85.4496 269.743 84.7395 270.453 83.7495C271.347 82.5829 272.024 81.2654 272.453 79.8596C272.697 78.985 272.768 78.0713 272.663 77.1695C272.521 76.1628 272.181 75.1941 271.663 74.3195C270.583 72.4495 268.813 70.8196 267.193 68.7996C263.55 64.2413 261.211 58.7812 260.423 52.9995C260.101 49.76 260.021 46.501 260.183 43.2495C260.344 40.0268 260.044 36.7976 259.293 33.6596C258.494 30.9228 257.111 28.3918 255.239 26.2408C253.368 24.0897 251.053 22.3699 248.453 21.1996C246.297 20.2333 243.974 19.6966 241.613 19.6195C237.219 19.4422 232.889 20.718 229.293 23.2496L228.693 23.6695C228.563 23.7595 228.493 23.8095 228.483 23.7995C229.418 22.9377 230.464 22.2045 231.593 21.6195C234.663 19.972 238.11 19.155 241.593 19.2496C244.004 19.3089 246.382 19.8353 248.593 20.7995C251.268 21.9809 253.652 23.7321 255.58 25.931C257.508 28.1298 258.932 30.7231 259.753 33.5295C260.518 36.713 260.824 39.9894 260.663 43.2596C260.502 46.4875 260.579 49.7229 260.893 52.9396C261.654 58.6381 263.941 64.0248 267.513 68.5295C269.093 70.5295 270.873 72.1895 271.973 74.1395C272.506 75.0616 272.846 76.0822 272.973 77.1395C273.073 78.0842 272.984 79.0393 272.713 79.9495C272.253 81.3803 271.53 82.7129 270.583 83.8795C270.011 84.6274 269.397 85.3419 268.743 86.0195L268.223 86.5396C268.179 86.5955 268.129 86.6459 268.073 86.6896Z" fill="#455A64"/>
<path d="M265.753 60.4095C265.659 59.2305 265.476 58.0604 265.203 56.9095C264.381 53.782 262.527 51.0233 259.943 49.0795C258.044 47.6509 255.818 46.7197 253.467 46.3704C251.116 46.0211 248.716 46.2649 246.483 47.0795C243.848 48.0664 241.56 49.8049 239.903 52.0795C238.116 54.5081 237.152 57.4443 237.152 60.4595C237.152 63.4747 238.116 66.4109 239.903 68.8395C240.735 69.9944 241.748 71.0074 242.903 71.8395C243.992 72.6595 245.199 73.3102 246.483 73.7695C248.354 74.4491 250.345 74.7308 252.331 74.5965C254.317 74.4623 256.252 73.915 258.014 72.9897C259.776 72.0645 261.326 70.7816 262.564 69.2232C263.802 67.6648 264.701 65.8652 265.203 63.9395C265.476 62.7886 265.659 61.6185 265.753 60.4395C265.768 60.5188 265.768 60.6002 265.753 60.6795C265.753 60.8595 265.753 61.0895 265.753 61.3595C265.753 61.7346 265.723 62.1092 265.663 62.4795C265.611 62.9889 265.521 63.4937 265.393 63.9895C265.076 65.3618 264.55 66.6771 263.833 67.8895C262.887 69.5011 261.641 70.9166 260.163 72.0595C258.223 73.5558 255.936 74.5383 253.515 74.9159C251.094 75.2935 248.617 75.0539 246.313 74.2195C244.977 73.75 243.722 73.0753 242.593 72.2195C241.398 71.3501 240.349 70.2971 239.483 69.0995C237.619 66.5894 236.613 63.5459 236.613 60.4195C236.613 57.293 237.619 54.2496 239.483 51.7395C240.345 50.5421 241.396 49.4919 242.593 48.6295C243.725 47.7785 244.979 47.1042 246.313 46.6295C248.779 45.7415 251.438 45.5308 254.013 46.0195C256.054 46.4183 257.987 47.2493 259.681 48.4566C261.374 49.664 262.79 51.2197 263.833 53.0195C264.551 54.2276 265.077 55.5399 265.393 56.9095C265.521 57.4053 265.611 57.91 265.663 58.4195C265.723 58.7898 265.753 59.1643 265.753 59.5395C265.753 59.8095 265.753 60.0395 265.753 60.2295C265.762 60.2892 265.762 60.3498 265.753 60.4095Z" fill="white"/>
<path d="M189.883 119.41C189.706 119.322 189.541 119.211 189.393 119.08C189.083 118.85 188.643 118.5 188.063 118.08C186.446 116.785 184.929 115.371 183.523 113.85C181.353 111.605 179.869 108.788 179.243 105.73C179.036 103.924 178.955 102.106 179.003 100.29C179.037 98.3863 178.493 96.5174 177.443 94.9296C176.266 93.4046 174.958 91.9859 173.533 90.6897C172.212 89.4101 171.122 87.9112 170.313 86.2597C169.597 84.7651 169.073 83.1859 168.753 81.5597C168.452 80.1501 168.315 78.7107 168.343 77.2697C168.343 75.9397 168.653 74.7797 168.773 73.7597C168.89 72.8879 168.91 72.0058 168.833 71.1297C168.663 69.6897 168.383 68.9197 168.433 68.8997C168.525 69.0749 168.599 69.2592 168.653 69.4497C168.82 69.9896 168.947 70.5411 169.033 71.0997C169.141 71.9931 169.141 72.8962 169.033 73.7897C168.943 74.7897 168.703 75.9897 168.673 77.2797C168.688 80.3143 169.371 83.3085 170.673 86.0497C171.469 87.647 172.534 89.095 173.823 90.3297C175.284 91.6386 176.623 93.0779 177.823 94.6297C178.404 95.465 178.834 96.3958 179.093 97.3797C179.322 98.3264 179.446 99.2956 179.463 100.27C179.414 102.066 179.484 103.863 179.673 105.65C180.253 108.645 181.664 111.417 183.743 113.65C185.116 115.182 186.589 116.622 188.153 117.96L189.513 119C189.649 119.124 189.773 119.261 189.883 119.41Z" fill="#455A64"/>
<path d="M178.513 96.1196C178.531 96.2557 178.531 96.3935 178.513 96.5296C178.513 96.7996 178.513 97.1896 178.433 97.6996C178.264 99.137 177.929 100.55 177.433 101.91C175.853 106.474 172.716 110.336 168.572 112.817C164.428 115.299 159.543 116.241 154.773 115.48C153.345 115.264 151.945 114.885 150.603 114.35C150.123 114.17 149.773 113.97 149.533 113.86C149.293 113.75 149.173 113.67 149.183 113.65C151.01 114.324 152.899 114.817 154.823 115.12C156.914 115.39 159.033 115.352 161.113 115.01C166.265 114.22 170.902 111.446 174.033 107.28C175.315 105.609 176.346 103.759 177.093 101.79C177.745 99.949 178.221 98.0504 178.513 96.1196Z" fill="#455A64"/>
<path d="M174.663 91.4197C174.622 91.8863 174.524 92.3462 174.373 92.7897C174.019 94.0157 173.546 95.2045 172.963 96.3397C171.017 100.109 168.069 103.268 164.443 105.47C160.809 107.647 156.678 108.858 152.443 108.99C151.17 109.029 149.895 108.962 148.633 108.79C148.168 108.748 147.708 108.654 147.263 108.51C148.984 108.633 150.709 108.67 152.433 108.62C156.584 108.39 160.616 107.155 164.183 105.02C167.73 102.858 170.648 99.8028 172.643 96.1597C173.42 94.6256 174.094 93.0422 174.663 91.4197Z" fill="#455A64"/>
<path d="M145.413 81.4596C145.688 81.2455 145.991 81.0705 146.313 80.9396C146.671 80.7467 147.042 80.5796 147.423 80.4396C147.922 80.2304 148.433 80.0501 148.953 79.8996C150.3 79.4953 151.683 79.2273 153.083 79.0996C154.798 78.9499 156.525 78.9834 158.233 79.1996C159.939 79.4403 161.615 79.8593 163.233 80.4496C164.547 80.9542 165.807 81.5908 166.993 82.3496C167.448 82.636 167.886 82.9499 168.303 83.2896C168.634 83.5269 168.945 83.7911 169.233 84.0796C169.5 84.3032 169.738 84.5584 169.943 84.8396C169.873 84.9196 168.823 83.8396 166.793 82.6596C165.606 81.9602 164.358 81.3711 163.063 80.8996C161.47 80.3546 159.83 79.9595 158.163 79.7196C156.505 79.5112 154.831 79.461 153.163 79.5696C151.788 79.6764 150.426 79.9073 149.093 80.2596C146.773 80.8596 145.513 81.5496 145.413 81.4596Z" fill="#455A64"/>
<path d="M168.433 79.6095C168.343 79.7195 162.033 74.3595 154.353 67.6095C146.673 60.8595 140.513 55.3695 140.603 55.2595C140.693 55.1495 147.003 60.5195 154.693 67.2595C162.383 73.9995 168.513 79.5095 168.433 79.6095Z" fill="#EE1C25"/>
<path d="M197.243 68.6596C197.721 67.7232 198.43 66.9245 199.303 66.3396C200.065 65.6133 201.002 65.0965 202.023 64.8396C201.278 65.5388 200.475 66.1744 199.623 66.7396C198.881 67.44 198.085 68.0819 197.243 68.6596Z" fill="white"/>
<path d="M169.163 74.2896C169.114 74.2273 169.07 74.1603 169.033 74.0896C168.943 73.9196 168.833 73.7196 168.693 73.4796C168.305 72.6706 168.042 71.8074 167.913 70.9196C167.544 67.5937 168.491 64.2553 170.553 61.6196C171.204 60.7357 171.952 59.9273 172.783 59.2096C173.694 58.4466 174.679 57.7766 175.723 57.2096C178.041 55.9954 180.529 55.139 183.103 54.6696C188.513 53.5396 194.603 53.8096 200.803 52.8896C203.837 52.4883 206.782 51.579 209.513 50.1996C212.009 48.8428 214.266 47.0862 216.193 44.9996C219.465 41.4455 222.085 37.3428 223.933 32.8796C225.573 29.0896 226.603 25.8796 227.353 23.7196L228.203 21.1896L228.433 20.5396C228.457 20.4637 228.487 20.3901 228.523 20.3196C228.523 20.3196 228.523 20.3996 228.523 20.5496L228.343 21.2196L227.513 23.8196C226.587 26.9552 225.496 30.0395 224.243 33.0596C222.423 37.5919 219.805 41.7612 216.513 45.3696C214.547 47.494 212.242 49.2781 209.693 50.6496C206.924 52.0641 203.935 52.9974 200.853 53.4096C194.573 54.3496 188.513 54.0496 183.163 55.1496C177.813 56.2496 173.223 58.4796 170.813 61.8396C168.79 64.3821 167.817 67.6023 168.093 70.8396C168.266 72.0388 168.627 73.2032 169.163 74.2896Z" fill="#FAFAFA"/>
<path d="M175.513 114C175.304 115.383 174.9 116.73 174.313 118C173.637 119.527 172.76 120.956 171.703 122.25C170.302 123.978 168.585 125.423 166.643 126.51C164.265 127.798 161.608 128.485 158.903 128.51C155.781 128.581 152.714 127.684 150.123 125.94C147.274 123.968 145.212 121.053 144.303 117.71C143.817 115.949 143.715 114.104 144.003 112.3C144.32 110.443 145.033 108.676 146.093 107.12C147.822 104.496 150.474 102.619 153.523 101.86V102.36C150.43 101.881 147.492 100.686 144.943 98.8697C142.58 97.2028 140.697 94.944 139.483 92.3197C138.415 89.9611 137.957 87.3715 138.153 84.7897C138.318 82.5588 139.067 80.4104 140.323 78.5597C141.38 77.0576 142.743 75.7966 144.323 74.8597C145.497 74.1665 146.778 73.6731 148.113 73.3997C148.949 73.2338 149.802 73.17 150.653 73.2097L151.303 73.2797C151.376 73.2687 151.45 73.2687 151.523 73.2797C150.39 73.221 149.254 73.3084 148.143 73.5397C146.842 73.8372 145.598 74.3474 144.463 75.0497C142.948 75.9892 141.647 77.236 140.643 78.7097C139.441 80.5191 138.734 82.612 138.593 84.7797C138.426 87.2898 138.886 89.802 139.933 92.0897C141.127 94.6314 142.964 96.817 145.263 98.4297C147.759 100.188 150.627 101.347 153.643 101.82L154.933 102.02L153.663 102.32C150.738 103.052 148.196 104.858 146.543 107.38C145.524 108.883 144.842 110.588 144.543 112.38C144.269 114.113 144.365 115.885 144.823 117.58C145.69 120.825 147.677 123.659 150.433 125.58C152.939 127.277 155.907 128.161 158.933 128.11C161.574 128.1 164.173 127.444 166.503 126.2C168.414 125.157 170.11 123.762 171.503 122.09C172.564 120.826 173.459 119.432 174.163 117.94C174.6 116.993 174.971 116.018 175.273 115.02C175.363 114.7 175.433 114.44 175.483 114.23L175.513 114Z" fill="#263238"/>
<path d="M169.623 70.7496C169.538 70.7247 169.457 70.6876 169.383 70.6396L168.683 70.2696C167.808 69.7684 166.975 69.1965 166.193 68.5596C163.288 66.1869 161.071 63.0792 159.773 59.5596C158.267 55.3878 158.134 50.8436 159.393 46.5907C160.652 42.3378 163.238 38.5988 166.773 35.9196C169.602 33.8351 172.782 32.2769 176.163 31.3196C179.543 30.3653 183.011 29.7522 186.513 29.4896C189.873 29.1696 193.113 29.0196 196.193 28.8096C199.108 28.6262 202.012 28.2924 204.893 27.8096C207.395 27.3796 209.85 26.7098 212.223 25.8096C215.669 24.5385 218.81 22.5593 221.443 19.9996C222.137 19.2799 222.781 18.5149 223.373 17.7096L223.833 17.0796C223.881 17.0027 223.938 16.9321 224.003 16.8696C223.345 18.062 222.531 19.1617 221.583 20.1396C218.97 22.7892 215.809 24.8368 212.323 26.1396C209.933 27.0688 207.458 27.7621 204.933 28.2096C202.039 28.6969 199.122 29.0307 196.193 29.2096C190.043 29.6996 183.193 29.7496 176.343 31.7796C173.025 32.722 169.9 34.2456 167.113 36.2796C163.649 38.8957 161.104 42.5441 159.846 46.6991C158.588 50.8541 158.682 55.3012 160.113 59.3996C161.368 62.8623 163.505 65.9371 166.313 68.3196C167.075 68.9715 167.884 69.5664 168.733 70.0996L169.393 70.5096C169.48 70.5789 169.558 70.6596 169.623 70.7496Z" fill="#263238"/>
<path d="M281.063 55.9996C280.949 56.1365 280.807 56.2481 280.647 56.3272C280.486 56.4064 280.312 56.4515 280.133 56.4596C279.614 56.4698 279.104 56.3236 278.669 56.0401C278.233 55.7565 277.894 55.3487 277.693 54.8696C277.539 54.5219 277.471 54.142 277.496 53.7624C277.52 53.3829 277.636 53.0148 277.833 52.6896C278.295 51.9209 278.998 51.3266 279.833 50.9996C280.852 50.6311 281.949 50.5295 283.018 50.7045C284.088 50.8796 285.095 51.3254 285.943 51.9996C286.966 52.7378 287.754 53.7551 288.213 54.9296C288.699 56.2062 288.796 57.5978 288.493 58.9296C288.187 60.3732 287.405 61.6724 286.273 62.6196C285.075 63.6128 283.611 64.2318 282.063 64.3996C280.412 64.5194 278.756 64.2671 277.215 63.6613C275.675 63.0556 274.29 62.1118 273.163 60.8996C271.921 59.6711 270.95 58.1961 270.313 56.5696C269.662 54.879 269.489 53.042 269.813 51.2596C270.159 49.5169 270.703 47.8192 271.433 46.1996C272.103 44.5996 272.723 43.0196 273.243 41.4396C274.283 38.4043 274.954 35.255 275.243 32.0596C275.511 29.1766 275.336 26.2695 274.723 23.4396C274.178 20.9614 273.214 18.5942 271.873 16.4396C269.942 13.3056 267.17 10.7764 263.873 9.13962C262.972 8.73087 262.039 8.39642 261.083 8.13962L260.323 7.94962C260.236 7.93215 260.152 7.90182 260.073 7.85962H260.333L261.103 7.99962C262.085 8.22288 263.043 8.54104 263.963 8.94962C267.334 10.5509 270.176 13.0841 272.153 16.2496C273.544 18.3952 274.559 20.7625 275.153 23.2496C275.797 26.1223 275.993 29.0772 275.733 32.0096C275.452 35.2453 274.78 38.4351 273.733 41.5096C273.213 43.1096 272.583 44.7096 271.913 46.2996C271.204 47.903 270.674 49.5798 270.333 51.2996C270.035 52.9789 270.201 54.7078 270.813 56.2996C271.417 57.8644 272.348 59.2826 273.543 60.4596C274.613 61.6202 275.929 62.5269 277.394 63.1135C278.86 63.7 280.438 63.9515 282.013 63.8496C283.48 63.6999 284.871 63.1227 286.013 62.1896C287.077 61.3134 287.817 60.1057 288.113 58.7596C288.406 57.5041 288.326 56.1903 287.883 54.9796C287.452 53.8692 286.718 52.9024 285.763 52.1896C284.966 51.5422 284.016 51.1102 283.004 50.9351C281.992 50.76 280.952 50.8477 279.983 51.1896C279.2 51.4788 278.535 52.0206 278.093 52.7296C277.903 53.0232 277.787 53.3588 277.755 53.7073C277.724 54.0558 277.778 54.4068 277.913 54.7296C278.095 55.181 278.405 55.5694 278.805 55.8466C279.204 56.1239 279.677 56.2779 280.163 56.2896C280.484 56.2749 280.794 56.1748 281.063 55.9996Z" fill="#263238"/>
<g opacity="0.2">
<path d="M274.683 282.32C279.543 280.95 284.583 285.32 289.513 284.19C292.513 283.49 294.773 280.81 296.133 278C297.493 275.19 298.223 272.089 299.663 269.309C301.103 266.529 303.503 263.979 306.603 263.549C309.443 263.169 312.813 264.499 314.923 262.549C316.553 261.049 316.333 258.27 315.033 256.48C313.733 254.69 311.673 253.64 309.683 252.66C307.5 251.467 305.18 250.547 302.773 249.92C300.342 249.301 297.768 249.6 295.543 250.76C291.383 253.18 290.543 258.669 289.333 263.329C288.595 266.608 287.207 269.706 285.253 272.44C283.269 275.181 280.329 277.079 277.013 277.76C275.737 277.806 274.485 278.126 273.343 278.7C272.293 279.42 271.883 281.22 272.973 281.89" fill="black"/>
</g>
<path d="M249.353 264.35L267.573 258L283.903 232.47C284.7 231.224 285.742 230.155 286.966 229.326C288.19 228.497 289.571 227.927 291.023 227.65L320.313 222.12C320.685 223.236 320.635 224.449 320.172 225.531C319.71 226.613 318.867 227.487 317.803 227.99C313.893 230.22 296.303 234.32 296.303 234.32L323.393 233.86C323.393 233.86 324.223 237.77 321.153 239.17C318.083 240.57 298.783 241.27 298.783 241.27L323.513 244.79C323.513 244.79 323.653 248.72 318.003 248.79C312.44 248.739 306.882 248.405 301.353 247.79C301.124 247.755 300.89 247.812 300.703 247.949C300.516 248.086 300.39 248.291 300.353 248.52C300.317 248.74 300.366 248.966 300.49 249.152C300.615 249.338 300.805 249.469 301.023 249.52L317.453 253.4C317.927 253.505 318.353 253.764 318.664 254.137C318.975 254.509 319.154 254.974 319.174 255.459C319.193 255.944 319.051 256.422 318.771 256.818C318.491 257.214 318.087 257.507 317.623 257.65C317.323 257.726 317.011 257.746 316.703 257.71C313.913 257.43 297.183 255.31 297.183 255.31C297.183 255.31 291.283 275.99 287.463 277.66C283.643 279.33 275.633 279.79 275.633 279.79L258.633 286.52L249.353 264.35Z" fill="#B78876"/>
<path d="M321.513 233.78C321.046 233.878 320.57 233.925 320.093 233.92L316.213 234.11C312.943 234.25 308.413 234.41 303.423 234.54L296.373 234.72C294.476 234.64 292.581 234.912 290.783 235.52C289.599 235.985 288.594 236.815 287.913 237.89C287.694 238.303 287.504 238.73 287.343 239.17C287.323 239.047 287.323 238.922 287.343 238.8C287.42 238.452 287.541 238.116 287.703 237.8C288.355 236.629 289.379 235.71 290.613 235.19C292.442 234.511 294.384 234.192 296.333 234.25L303.333 234.03C308.333 233.9 312.863 233.8 316.133 233.75H320.013C320.513 233.718 321.015 233.728 321.513 233.78Z" fill="#AA6550"/>
<path d="M321.923 244.86C321.484 244.877 321.045 244.847 320.613 244.77L317.073 244.32C314.073 243.93 309.953 243.32 305.403 242.66C303.133 242.34 300.963 241.93 299.003 241.76C297.284 241.552 295.542 241.866 294.003 242.66C292.977 243.23 292.092 244.022 291.413 244.98C290.933 245.66 290.743 246.09 290.703 246.07C290.719 245.955 290.753 245.844 290.803 245.74C290.925 245.434 291.072 245.14 291.243 244.86C291.887 243.823 292.772 242.959 293.823 242.34C295.411 241.454 297.235 241.083 299.043 241.28C301.043 241.43 303.213 241.83 305.493 242.14C310.043 242.82 314.163 243.47 317.133 243.96L320.653 244.57C321.085 244.625 321.51 244.722 321.923 244.86Z" fill="#AA6550"/>
<path d="M308.173 251.15C307.206 251.013 306.25 250.806 305.313 250.53C303.553 250.1 301.133 249.46 298.453 248.91C297.815 248.76 297.167 248.663 296.513 248.62C295.928 248.643 295.357 248.811 294.853 249.11C293.958 249.605 293.204 250.321 292.663 251.19C292.215 252.038 291.921 252.959 291.793 253.91C291.71 253.652 291.689 253.377 291.733 253.11C291.785 252.376 291.99 251.661 292.333 251.01C292.87 250.045 293.658 249.244 294.613 248.69C295.187 248.347 295.836 248.148 296.503 248.11C297.193 248.147 297.879 248.24 298.553 248.39C301.273 248.96 303.673 249.65 305.403 250.17C306.357 250.404 307.285 250.732 308.173 251.15Z" fill="#AA6550"/>
<path d="M114.103 278.08L168.753 271.36L264.603 255.78L276.973 286.87C240.973 299.35 204.033 310.61 167.793 320.51C164.831 321.1 161.812 321.355 158.793 321.27C146.693 321.32 116.853 316.46 114.103 278.08Z" fill="#EE1C25"/>
<path d="M276.973 286.87C276.88 286.691 276.797 286.507 276.723 286.32C276.553 285.93 276.333 285.39 276.033 284.69C275.443 283.23 274.583 281.13 273.493 278.45L264.403 255.85L264.633 255.98L218.063 263.76C207.063 265.65 196.513 266.88 186.953 268.15C182.163 268.78 177.623 269.41 173.393 270.15C171.273 270.49 169.233 270.823 167.273 271.15C165.395 271.451 163.535 271.858 161.703 272.37C156.185 274.108 151.536 277.885 148.703 282.93C147.927 284.286 147.287 285.717 146.793 287.2C146.623 287.71 146.513 288.11 146.443 288.37C146.409 288.507 146.362 288.641 146.303 288.77C146.396 288.228 146.527 287.693 146.693 287.17C147.149 285.663 147.762 284.208 148.523 282.83C149.726 280.64 151.272 278.658 153.103 276.96C155.554 274.719 158.461 273.033 161.623 272.02C163.469 271.494 165.341 271.07 167.233 270.75C169.233 270.39 171.233 270.02 173.353 269.67C177.593 268.97 182.133 268.31 186.913 267.67C196.483 266.38 207.023 265.14 218.003 263.24L264.593 255.57H264.763L264.823 255.73C268.543 265.17 271.603 272.95 273.743 278.39L276.183 284.67C276.453 285.38 276.653 285.93 276.813 286.32C276.973 286.71 276.973 286.87 276.973 286.87Z" fill="#263238"/>
<path d="M143.513 319.62C143.662 319.635 143.81 319.665 143.953 319.71L145.223 320.02C146.343 320.26 147.993 320.64 150.153 320.9C156.255 321.652 162.441 321.354 168.443 320.02C170.343 319.62 172.303 319.08 174.353 318.5L180.733 316.7L194.733 312.7C204.623 309.82 215.473 306.59 226.823 303.06C245.823 297.16 263.283 291.38 276.823 286.71L276.703 286.98C272.963 277.48 269.893 269.71 267.763 264.28C266.713 261.59 265.903 259.48 265.333 258.02C265.063 257.32 264.863 256.78 264.713 256.38C264.563 255.98 264.523 255.82 264.523 255.82C264.523 255.82 264.613 256 264.773 256.36C264.933 256.72 265.153 257.29 265.443 257.98L267.973 264.19L277.083 286.83L277.163 287.03L276.963 287.1C263.403 291.84 245.963 297.65 226.963 303.56C215.613 307.09 204.753 310.31 194.853 313.17L180.773 317.17L174.383 318.93C172.383 319.5 170.383 320.04 168.453 320.43C162.409 321.739 156.182 321.986 150.053 321.16C147.829 320.858 145.639 320.342 143.513 319.62Z" fill="#263238"/>
<path d="M164.693 271.359C164.245 271.478 163.786 271.548 163.323 271.569L159.573 271.939L147.213 273.149L134.853 274.469L131.103 274.859C130.648 274.937 130.185 274.964 129.723 274.939C130.168 274.808 130.623 274.715 131.083 274.659C131.963 274.519 133.233 274.329 134.813 274.109C137.963 273.669 142.323 273.109 147.153 272.639C151.983 272.169 156.373 271.789 159.543 271.579C161.133 271.469 162.423 271.399 163.313 271.359C163.772 271.32 164.234 271.32 164.693 271.359Z" fill="#263238"/>
<path d="M69.2032 371.61C66.4432 375.56 61.0632 374.25 58.5732 371.84C56.0832 369.43 55.0332 365.94 54.0732 362.61C51.8832 355 49.6732 347.02 51.3032 339.27C51.7017 336.918 52.7395 334.721 54.3032 332.92C55.0919 332.032 56.1006 331.368 57.2276 330.994C58.3546 330.62 59.5603 330.55 60.7232 330.79C63.4332 331.5 65.1132 334.15 66.3332 336.68C69.919 344.132 71.798 352.29 71.8332 360.56C71.8332 364.4 71.3932 368.44 69.2232 371.61" fill="#EE1C25"/>
<g opacity="0.2">
<path d="M69.2032 371.61C66.4432 375.56 61.0632 374.25 58.5732 371.84C56.0832 369.43 55.0332 365.94 54.0732 362.61C51.8832 355 49.6732 347.02 51.3032 339.27C51.7017 336.918 52.7395 334.721 54.3032 332.92C55.0919 332.032 56.1006 331.368 57.2276 330.994C58.3546 330.62 59.5603 330.55 60.7232 330.79C63.4332 331.5 65.1132 334.15 66.3332 336.68C69.919 344.132 71.798 352.29 71.8332 360.56C71.8332 364.4 71.3932 368.44 69.2232 371.61" fill="black"/>
</g>
<path d="M58.8431 391.6C54.3231 389.27 49.0031 388.97 43.9831 389.8C41.2931 390.24 38.4731 391.05 36.6431 393.08C34.8131 395.11 34.4631 398.67 36.5631 400.41C37.9244 401.324 39.5609 401.738 41.1931 401.58C45.1231 401.53 49.4831 400.84 52.6231 403.21C54.4131 404.55 55.6231 406.8 57.7431 407.46C58.8128 407.71 59.9347 407.605 60.9396 407.162C61.9444 406.718 62.7776 405.959 63.3131 405C64.3346 403.033 64.5602 400.749 63.9431 398.62C63.6934 397.135 63.1029 395.729 62.2181 394.511C61.3332 393.293 60.178 392.296 58.8431 391.6Z" fill="#EE1C25"/>
<path d="M76.793 377.28C73.793 373.71 73.223 368.52 74.563 364.06C75.903 359.6 78.913 355.8 82.383 352.7C86.469 349.061 91.224 346.252 96.383 344.43C98.3791 343.616 100.53 343.25 102.683 343.36C103.759 343.42 104.804 343.743 105.727 344.301C106.649 344.859 107.42 345.635 107.973 346.56C109.453 349.37 108.033 352.79 106.503 355.56C103.808 360.463 100.728 365.144 97.293 369.56C94.533 373.12 91.373 376.63 87.173 378.24C82.973 379.85 78.593 379.66 76.363 376.74" fill="#EE1C25"/>
<path d="M69.3929 431.16C69.2436 430.574 69.1598 429.974 69.1429 429.37C69.0129 428.07 68.8529 426.43 68.6629 424.48C68.4176 422.066 68.0505 419.667 67.5629 417.29C66.9215 414.401 66.0487 411.569 64.9529 408.82C63.8782 406.072 62.4204 403.49 60.6229 401.15C59.1588 399.247 57.2905 397.693 55.1529 396.6C53.6924 395.879 52.1259 395.396 50.5129 395.17C49.9122 395.144 49.3158 395.057 48.7329 394.91C49.3345 394.845 49.9413 394.845 50.5429 394.91C52.208 395.036 53.8369 395.46 55.3529 396.16C57.6042 397.225 59.579 398.796 61.1229 400.75C62.9988 403.12 64.512 405.755 65.6129 408.57C66.7191 411.365 67.5856 414.248 68.2029 417.19C68.6831 419.591 69.0171 422.019 69.2029 424.46C69.3629 426.54 69.4229 428.22 69.4429 429.38C69.489 429.973 69.4722 430.57 69.3929 431.16Z" fill="#263238"/>
<path d="M69.0531 427.4C69.0024 427.126 68.9856 426.848 69.0031 426.57C69.0031 425.94 69.0031 425.15 69.0031 424.18C69.0031 422.12 69.0031 419.13 68.8931 415.44C68.7131 408.06 68.0731 397.86 66.8931 386.66C65.7131 375.46 63.9831 365.38 62.5131 358.15C62.1531 356.33 61.8031 354.7 61.5131 353.27C61.2231 351.84 60.9231 350.61 60.6631 349.61C60.4031 348.61 60.2531 347.9 60.1031 347.29C60.0247 347.023 59.9744 346.748 59.9531 346.47C60.083 346.716 60.1805 346.979 60.2431 347.25C60.4331 347.85 60.6531 348.61 60.9431 349.53C61.2331 350.45 61.5631 351.75 61.9431 353.18C62.3231 354.61 62.7131 356.23 63.1031 358.04C65.1416 367.465 66.6738 376.991 67.6931 386.58C68.9231 397.81 69.4831 408.03 69.5331 415.43C69.5331 419.13 69.5331 422.13 69.4031 424.19C69.3431 425.19 69.2931 425.95 69.2531 426.57C69.2228 426.854 69.1556 427.133 69.0531 427.4Z" fill="#263238"/>
<path d="M69.0031 407.68C68.9397 406.855 68.9397 406.025 69.0031 405.2C69.0931 403.6 69.3131 401.29 69.7631 398.46C70.3073 395.151 71.0385 391.876 71.9531 388.65C73.0452 384.685 74.4152 380.802 76.0531 377.03C78.905 370.096 82.9912 363.736 88.1131 358.26C88.9986 357.323 89.944 356.445 90.9431 355.63C91.3831 355.26 91.7631 354.89 92.1531 354.63L93.2531 353.87C93.9196 353.373 94.6214 352.925 95.3531 352.53C95.4731 352.7 92.3531 354.53 88.4931 358.66C83.5372 364.178 79.56 370.503 76.7331 377.36C75.1063 381.098 73.73 384.94 72.6131 388.86C71.6709 392.059 70.8899 395.303 70.2731 398.58C69.7631 401.38 69.4631 403.67 69.2731 405.25C69.2491 406.066 69.1588 406.879 69.0031 407.68Z" fill="#263238"/>
</svg>
