<svg width="608" height="453" viewBox="0 0 608 453" fill="none" xmlns="http://www.w3.org/2000/svg">
<path d="M0 397.715H607.383V398.019H0V397.715Z" fill="#EBEBEB"/>
<path d="M60.8597 417.26H101.093V417.564H60.8597V417.26Z" fill="#EBEBEB"/>
<path d="M205.028 420.564H215.584V420.868H205.028V420.564Z" fill="#EBEBEB"/>
<path d="M102.307 405.987H125.619V406.291H102.307V405.987Z" fill="#EBEBEB"/>
<path d="M491.191 408.027H543.656V408.331H491.191V408.027Z" fill="#EBEBEB"/>
<path d="M472.678 408.027H480.367V408.331H472.678V408.027Z" fill="#EBEBEB"/>
<path d="M333.879 413.154H447.678V413.458H333.879V413.154Z" fill="#EBEBEB"/>
<path d="M319.484 343.536H554.043C555.88 343.532 557.641 342.8 558.939 341.5C560.238 340.199 560.967 338.437 560.967 336.599V6.87557C560.951 5.0486 560.215 3.30171 558.918 2.01435C557.622 0.726986 555.87 0.00312971 554.043 0H319.484C317.644 0 315.88 0.730788 314.579 2.0316C313.278 3.33241 312.547 5.09669 312.547 6.93631V336.599C312.547 338.439 313.278 340.203 314.579 341.504C315.88 342.805 317.644 343.536 319.484 343.536ZM554.043 0.242954C555.8 0.246172 557.484 0.946382 558.725 2.18989C559.966 3.4334 560.663 5.1186 560.663 6.87557V336.599C560.663 338.356 559.966 340.042 558.725 341.285C557.484 342.529 555.8 343.229 554.043 343.232H319.484C317.725 343.229 316.04 342.529 314.797 341.286C313.554 340.043 312.854 338.358 312.851 336.599V6.87557C312.854 5.11748 313.554 3.43231 314.797 2.18915C316.04 0.945987 317.725 0.246165 319.484 0.242954H554.043Z" fill="#EBEBEB"/>
<path d="M56.717 343.536H291.288C293.127 343.533 294.889 342.801 296.189 341.501C297.49 340.2 298.221 338.438 298.225 336.599V6.87557C298.205 5.04749 297.467 3.30061 296.168 2.01359C294.87 0.726562 293.116 0.00309558 291.288 0H56.717C54.8921 0.00632224 53.1432 0.731592 51.8493 2.01861C50.5555 3.30563 49.821 5.05069 49.805 6.87557V336.599C49.805 338.435 50.5325 340.195 51.828 341.496C53.1236 342.796 54.8816 343.529 56.717 343.536ZM291.288 0.242954C293.046 0.246165 294.732 0.945987 295.975 2.18915C297.218 3.43231 297.918 5.11748 297.921 6.87557V336.599C297.918 338.358 297.218 340.043 295.975 341.286C294.732 342.529 293.046 343.229 291.288 343.232H56.717C54.959 343.229 53.2738 342.529 52.0306 341.286C50.7875 340.043 50.0877 338.358 50.0844 336.599V6.87557C50.0877 5.11748 50.7875 3.43231 52.0306 2.18915C53.2738 0.945987 54.959 0.246165 56.717 0.242954H291.288Z" fill="#EBEBEB"/>
<path d="M80.8792 74.0769H526.504V337.037H80.8792V74.0769Z" fill="#EBEBEB"/>
<path d="M87.4634 80.1377H521.135V330.379H87.4634V80.1377Z" fill="#FAFAFA"/>
<path d="M521.135 255.064V330.38H87.4634V245.346H99.6111V219.836H106.9V202.829H116.618V177.319H119.047V202.829H128.765V219.836H136.054V245.346H149.416V252.635H155.49V280.574H156.705V240.487H160.349V265.997H163.994V205.259H166.423V230.769H176.141V222.265H179.786V187.037H181.948H187.074V151.809H189.504V156.668H239.309V142.091H247.812V86.2117H251.457V142.091H263.604V156.668H268.464V229.554H293.974V207.688H285.47V204.044H293.974V197.97H318.269V142.091H324.343V133.588H353.497V142.091H357.141V219.836H370.504V255.064H377.792V227.124H383.866V219.836H397.229V194.326H404.517V177.319H413.021V151.809H416.665V177.319H425.168V194.326H432.457V219.836H445.819V227.124H451.893V255.064H460.396V180.963H464.041V206.473H474.974V255.064H479.833V161.527H483.477V126.299H487.121V138.945L508.987 149.173V161.527H518.705V255.064H521.135Z" fill="#F0F0F0"/>
<path d="M217.273 160.483H220.711V163.921H217.273V160.483Z" fill="#F5F5F5"/>
<path d="M217.273 166.253H220.711V169.691H217.273V166.253Z" fill="#F5F5F5"/>
<path d="M217.273 189.334H220.711V192.772H217.273V189.334Z" fill="#F5F5F5"/>
<path d="M217.273 195.104H220.711V198.542H217.273V195.104Z" fill="#F5F5F5"/>
<path d="M217.273 200.874H220.711V204.312H217.273V200.874Z" fill="#F5F5F5"/>
<path d="M217.273 218.185H220.711V221.622H217.273V218.185Z" fill="#F5F5F5"/>
<path d="M217.273 223.955H220.711V227.392H217.273V223.955Z" fill="#F5F5F5"/>
<path d="M222.739 183.564H226.177V187.002H222.739V183.564Z" fill="#F5F5F5"/>
<path d="M222.739 189.334H226.177V192.772H222.739V189.334Z" fill="#F5F5F5"/>
<path d="M222.739 195.104H226.177V198.542H222.739V195.104Z" fill="#F5F5F5"/>
<path d="M222.739 200.874H226.177V204.312H222.739V200.874Z" fill="#F5F5F5"/>
<path d="M222.739 206.644H226.177V210.082H222.739V206.644Z" fill="#F5F5F5"/>
<path d="M222.739 218.185H226.177V221.622H222.739V218.185Z" fill="#F5F5F5"/>
<path d="M222.739 223.955H226.177V227.392H222.739V223.955Z" fill="#F5F5F5"/>
<path d="M228.206 160.483H231.644V163.921H228.206V160.483Z" fill="#F5F5F5"/>
<path d="M228.206 166.253H231.644V169.691H228.206V166.253Z" fill="#F5F5F5"/>
<path d="M228.206 172.023H231.644V175.461H228.206V172.023Z" fill="#F5F5F5"/>
<path d="M228.206 177.793H231.644V181.231H228.206V177.793Z" fill="#F5F5F5"/>
<path d="M228.206 183.564H231.644V187.002H228.206V183.564Z" fill="#F5F5F5"/>
<path d="M228.206 189.334H231.644V192.772H228.206V189.334Z" fill="#F5F5F5"/>
<path d="M228.206 195.104H231.644V198.542H228.206V195.104Z" fill="#F5F5F5"/>
<path d="M228.206 200.874H231.644V204.312H228.206V200.874Z" fill="#F5F5F5"/>
<path d="M228.206 206.644H231.644V210.082H228.206V206.644Z" fill="#F5F5F5"/>
<path d="M228.206 212.414H231.644V215.852H228.206V212.414Z" fill="#F5F5F5"/>
<path d="M228.206 223.955H231.644V227.392H228.206V223.955Z" fill="#F5F5F5"/>
<path d="M233.673 160.483H237.11V163.921H233.673V160.483Z" fill="#F5F5F5"/>
<path d="M233.673 166.253H237.11V169.691H233.673V166.253Z" fill="#F5F5F5"/>
<path d="M233.673 172.023H237.11V175.461H233.673V172.023Z" fill="#F5F5F5"/>
<path d="M233.673 177.793H237.11V181.231H233.673V177.793Z" fill="#F5F5F5"/>
<path d="M233.673 183.564H237.11V187.002H233.673V183.564Z" fill="#F5F5F5"/>
<path d="M233.673 189.334H237.11V192.772H233.673V189.334Z" fill="#F5F5F5"/>
<path d="M233.673 195.104H237.11V198.542H233.673V195.104Z" fill="#F5F5F5"/>
<path d="M233.673 247.035H237.11V250.473H233.673V247.035Z" fill="#F5F5F5"/>
<path d="M239.139 160.483H242.577V163.921H239.139V160.483Z" fill="#F5F5F5"/>
<path d="M239.139 166.253H242.577V169.691H239.139V166.253Z" fill="#F5F5F5"/>
<path d="M239.139 172.023H242.577V175.461H239.139V172.023Z" fill="#F5F5F5"/>
<path d="M239.139 177.793H242.577V181.231H239.139V177.793Z" fill="#F5F5F5"/>
<path d="M239.139 183.564H242.577V187.002H239.139V183.564Z" fill="#F5F5F5"/>
<path d="M239.139 189.334H242.577V192.772H239.139V189.334Z" fill="#F5F5F5"/>
<path d="M239.139 195.104H242.577V198.542H239.139V195.104Z" fill="#F5F5F5"/>
<path d="M239.139 200.874H242.577V204.312H239.139V200.874Z" fill="#F5F5F5"/>
<path d="M239.139 235.495H242.577V238.933H239.139V235.495Z" fill="#F5F5F5"/>
<path d="M239.139 241.265H242.577V244.703H239.139V241.265Z" fill="#F5F5F5"/>
<path d="M239.139 247.035H242.577V250.473H239.139V247.035Z" fill="#F5F5F5"/>
<path d="M239.139 252.805H242.577V256.243H239.139V252.805Z" fill="#F5F5F5"/>
<path d="M239.139 275.886H242.577V279.324H239.139V275.886Z" fill="#F5F5F5"/>
<path d="M244.605 160.483H248.043V163.921H244.605V160.483Z" fill="#F5F5F5"/>
<path d="M244.605 166.253H248.043V169.691H244.605V166.253Z" fill="#F5F5F5"/>
<path d="M244.605 172.023H248.043V175.461H244.605V172.023Z" fill="#F5F5F5"/>
<path d="M244.605 177.793H248.043V181.231H244.605V177.793Z" fill="#F5F5F5"/>
<path d="M244.605 183.564H248.043V187.002H244.605V183.564Z" fill="#F5F5F5"/>
<path d="M244.605 189.334H248.043V192.772H244.605V189.334Z" fill="#F5F5F5"/>
<path d="M244.605 195.104H248.043V198.542H244.605V195.104Z" fill="#F5F5F5"/>
<path d="M244.605 200.874H248.043V204.312H244.605V200.874Z" fill="#F5F5F5"/>
<path d="M244.605 206.644H248.043V210.082H244.605V206.644Z" fill="#F5F5F5"/>
<path d="M244.605 212.414H248.043V215.852H244.605V212.414Z" fill="#F5F5F5"/>
<path d="M244.605 229.725H248.043V233.162H244.605V229.725Z" fill="#F5F5F5"/>
<path d="M244.605 235.495H248.043V238.933H244.605V235.495Z" fill="#F5F5F5"/>
<path d="M244.605 241.265H248.043V244.703H244.605V241.265Z" fill="#F5F5F5"/>
<path d="M244.605 247.035H248.043V250.473H244.605V247.035Z" fill="#F5F5F5"/>
<path d="M244.605 252.805H248.043V256.243H244.605V252.805Z" fill="#F5F5F5"/>
<path d="M244.605 275.886H248.043V279.324H244.605V275.886Z" fill="#F5F5F5"/>
<path d="M250.072 160.483H253.51V163.921H250.072V160.483Z" fill="#F5F5F5"/>
<path d="M250.072 166.253H253.51V169.691H250.072V166.253Z" fill="#F5F5F5"/>
<path d="M250.072 172.023H253.51V175.461H250.072V172.023Z" fill="#F5F5F5"/>
<path d="M250.072 177.793H253.51V181.231H250.072V177.793Z" fill="#F5F5F5"/>
<path d="M250.072 183.564H253.51V187.002H250.072V183.564Z" fill="#F5F5F5"/>
<path d="M250.072 189.334H253.51V192.772H250.072V189.334Z" fill="#F5F5F5"/>
<path d="M250.072 195.104H253.51V198.542H250.072V195.104Z" fill="#F5F5F5"/>
<path d="M250.072 200.874H253.51V204.312H250.072V200.874Z" fill="#F5F5F5"/>
<path d="M250.072 206.644H253.51V210.082H250.072V206.644Z" fill="#F5F5F5"/>
<path d="M250.072 212.414H253.51V215.852H250.072V212.414Z" fill="#F5F5F5"/>
<path d="M250.072 218.185H253.51V221.622H250.072V218.185Z" fill="#F5F5F5"/>
<path d="M250.072 223.955H253.51V227.392H250.072V223.955Z" fill="#F5F5F5"/>
<path d="M250.072 229.725H253.51V233.162H250.072V229.725Z" fill="#F5F5F5"/>
<path d="M250.072 235.495H253.51V238.933H250.072V235.495Z" fill="#F5F5F5"/>
<path d="M250.072 241.265H253.51V244.703H250.072V241.265Z" fill="#F5F5F5"/>
<path d="M250.072 247.035H253.51V250.473H250.072V247.035Z" fill="#F5F5F5"/>
<path d="M250.072 252.805H253.51V256.243H250.072V252.805Z" fill="#F5F5F5"/>
<path d="M250.072 258.575H253.51V262.013H250.072V258.575Z" fill="#F5F5F5"/>
<path d="M255.538 160.483H258.976V163.921H255.538V160.483Z" fill="#F5F5F5"/>
<path d="M255.538 166.253H258.976V169.691H255.538V166.253Z" fill="#F5F5F5"/>
<path d="M255.538 172.023H258.976V175.461H255.538V172.023Z" fill="#F5F5F5"/>
<path d="M255.538 177.793H258.976V181.231H255.538V177.793Z" fill="#F5F5F5"/>
<path d="M255.538 183.564H258.976V187.002H255.538V183.564Z" fill="#F5F5F5"/>
<path d="M255.538 189.334H258.976V192.772H255.538V189.334Z" fill="#F5F5F5"/>
<path d="M255.538 195.104H258.976V198.542H255.538V195.104Z" fill="#F5F5F5"/>
<path d="M255.538 200.874H258.976V204.312H255.538V200.874Z" fill="#F5F5F5"/>
<path d="M255.538 206.644H258.976V210.082H255.538V206.644Z" fill="#F5F5F5"/>
<path d="M255.538 212.414H258.976V215.852H255.538V212.414Z" fill="#F5F5F5"/>
<path d="M255.538 229.725H258.976V233.162H255.538V229.725Z" fill="#F5F5F5"/>
<path d="M255.538 235.495H258.976V238.933H255.538V235.495Z" fill="#F5F5F5"/>
<path d="M255.538 241.265H258.976V244.703H255.538V241.265Z" fill="#F5F5F5"/>
<path d="M255.538 247.035H258.976V250.473H255.538V247.035Z" fill="#F5F5F5"/>
<path d="M261.005 160.483H264.442V163.921H261.005V160.483Z" fill="#F5F5F5"/>
<path d="M261.005 166.253H264.442V169.691H261.005V166.253Z" fill="#F5F5F5"/>
<path d="M261.005 172.023H264.442V175.461H261.005V172.023Z" fill="#F5F5F5"/>
<path d="M261.005 177.793H264.442V181.231H261.005V177.793Z" fill="#F5F5F5"/>
<path d="M261.005 183.564H264.442V187.002H261.005V183.564Z" fill="#F5F5F5"/>
<path d="M261.005 189.334H264.442V192.772H261.005V189.334Z" fill="#F5F5F5"/>
<path d="M261.005 195.104H264.442V198.542H261.005V195.104Z" fill="#F5F5F5"/>
<path d="M261.005 200.874H264.442V204.312H261.005V200.874Z" fill="#F5F5F5"/>
<path d="M261.005 206.644H264.442V210.082H261.005V206.644Z" fill="#F5F5F5"/>
<path d="M261.005 212.414H264.442V215.852H261.005V212.414Z" fill="#F5F5F5"/>
<path d="M261.005 229.725H264.442V233.162H261.005V229.725Z" fill="#F5F5F5"/>
<path d="M261.005 235.495H264.442V238.933H261.005V235.495Z" fill="#F5F5F5"/>
<path d="M261.005 241.265H264.442V244.703H261.005V241.265Z" fill="#F5F5F5"/>
<path d="M322.545 145.492H325.982V148.93H322.545V145.492Z" fill="#F5F5F5"/>
<path d="M322.545 151.262H325.982V154.7H322.545V151.262Z" fill="#F5F5F5"/>
<path d="M322.545 157.032H325.982V160.47H322.545V157.032Z" fill="#F5F5F5"/>
<path d="M322.545 162.802H325.982V166.24H322.545V162.802Z" fill="#F5F5F5"/>
<path d="M322.545 168.573H325.982V172.01H322.545V168.573Z" fill="#F5F5F5"/>
<path d="M322.545 174.343H325.982V177.78H322.545V174.343Z" fill="#F5F5F5"/>
<path d="M322.545 180.113H325.982V183.55H322.545V180.113Z" fill="#F5F5F5"/>
<path d="M322.545 185.883H325.982V189.321H322.545V185.883Z" fill="#F5F5F5"/>
<path d="M322.545 203.193H325.982V206.631H322.545V203.193Z" fill="#F5F5F5"/>
<path d="M322.545 208.963H325.982V212.401H322.545V208.963Z" fill="#F5F5F5"/>
<path d="M328.011 145.492H331.449V148.93H328.011V145.492Z" fill="#F5F5F5"/>
<path d="M328.011 151.262H331.449V154.7H328.011V151.262Z" fill="#F5F5F5"/>
<path d="M328.011 157.032H331.449V160.47H328.011V157.032Z" fill="#F5F5F5"/>
<path d="M328.011 162.802H331.449V166.24H328.011V162.802Z" fill="#F5F5F5"/>
<path d="M328.011 168.573H331.449V172.01H328.011V168.573Z" fill="#F5F5F5"/>
<path d="M328.011 174.343H331.449V177.78H328.011V174.343Z" fill="#F5F5F5"/>
<path d="M328.011 180.113H331.449V183.55H328.011V180.113Z" fill="#F5F5F5"/>
<path d="M328.011 185.883H331.449V189.321H328.011V185.883Z" fill="#F5F5F5"/>
<path d="M328.011 208.963H331.449V212.401H328.011V208.963Z" fill="#F5F5F5"/>
<path d="M333.477 145.492H336.915V148.93H333.477V145.492Z" fill="#F5F5F5"/>
<path d="M333.477 151.262H336.915V154.7H333.477V151.262Z" fill="#F5F5F5"/>
<path d="M333.477 157.032H336.915V160.47H333.477V157.032Z" fill="#F5F5F5"/>
<path d="M333.477 162.802H336.915V166.24H333.477V162.802Z" fill="#F5F5F5"/>
<path d="M333.477 168.573H336.915V172.01H333.477V168.573Z" fill="#F5F5F5"/>
<path d="M333.477 174.343H336.915V177.78H333.477V174.343Z" fill="#F5F5F5"/>
<path d="M333.477 180.113H336.915V183.55H333.477V180.113Z" fill="#F5F5F5"/>
<path d="M333.477 185.883H336.915V189.321H333.477V185.883Z" fill="#F5F5F5"/>
<path d="M338.944 145.492H342.382V148.93H338.944V145.492Z" fill="#F5F5F5"/>
<path d="M338.944 151.262H342.382V154.7H338.944V151.262Z" fill="#F5F5F5"/>
<path d="M338.944 157.032H342.382V160.47H338.944V157.032Z" fill="#F5F5F5"/>
<path d="M338.944 162.802H342.382V166.24H338.944V162.802Z" fill="#F5F5F5"/>
<path d="M338.944 168.573H342.382V172.01H338.944V168.573Z" fill="#F5F5F5"/>
<path d="M338.944 174.343H342.382V177.78H338.944V174.343Z" fill="#F5F5F5"/>
<path d="M338.944 185.883H342.382V189.321H338.944V185.883Z" fill="#F5F5F5"/>
<path d="M338.944 191.653H342.382V195.091H338.944V191.653Z" fill="#F5F5F5"/>
<path d="M338.944 208.963H342.382V212.401H338.944V208.963Z" fill="#F5F5F5"/>
<path d="M338.944 214.734H342.382V218.171H338.944V214.734Z" fill="#F5F5F5"/>
<path d="M338.944 220.504H342.382V223.941H338.944V220.504Z" fill="#F5F5F5"/>
<path d="M338.944 226.274H342.382V229.711H338.944V226.274Z" fill="#F5F5F5"/>
<path d="M338.944 232.044H342.382V235.482H338.944V232.044Z" fill="#F5F5F5"/>
<path d="M338.944 237.814H342.382V241.252H338.944V237.814Z" fill="#F5F5F5"/>
<path d="M338.944 243.584H342.382V247.022H338.944V243.584Z" fill="#F5F5F5"/>
<path d="M344.411 145.492H347.849V148.93H344.411V145.492Z" fill="#F5F5F5"/>
<path d="M344.411 151.262H347.849V154.7H344.411V151.262Z" fill="#F5F5F5"/>
<path d="M344.411 157.032H347.849V160.47H344.411V157.032Z" fill="#F5F5F5"/>
<path d="M344.411 162.802H347.849V166.24H344.411V162.802Z" fill="#F5F5F5"/>
<path d="M344.411 168.573H347.849V172.01H344.411V168.573Z" fill="#F5F5F5"/>
<path d="M344.411 174.343H347.849V177.78H344.411V174.343Z" fill="#F5F5F5"/>
<path d="M344.411 191.653H347.849V195.091H344.411V191.653Z" fill="#F5F5F5"/>
<path d="M344.411 197.423H347.849V200.861H344.411V197.423Z" fill="#F5F5F5"/>
<path d="M344.411 203.193H347.849V206.631H344.411V203.193Z" fill="#F5F5F5"/>
<path d="M344.411 208.963H347.849V212.401H344.411V208.963Z" fill="#F5F5F5"/>
<path d="M344.411 214.734H347.849V218.171H344.411V214.734Z" fill="#F5F5F5"/>
<path d="M344.411 220.504H347.849V223.941H344.411V220.504Z" fill="#F5F5F5"/>
<path d="M344.411 226.274H347.849V229.711H344.411V226.274Z" fill="#F5F5F5"/>
<path d="M344.411 232.044H347.849V235.482H344.411V232.044Z" fill="#F5F5F5"/>
<path d="M344.411 237.814H347.849V241.252H344.411V237.814Z" fill="#F5F5F5"/>
<path d="M344.411 243.584H347.849V247.022H344.411V243.584Z" fill="#F5F5F5"/>
<path d="M344.411 249.354H347.849V252.792H344.411V249.354Z" fill="#F5F5F5"/>
<path d="M344.411 260.895H347.849V264.332H344.411V260.895Z" fill="#F5F5F5"/>
<path d="M349.877 145.492H353.314V148.93H349.877V145.492Z" fill="#F5F5F5"/>
<path d="M349.877 151.262H353.314V154.7H349.877V151.262Z" fill="#F5F5F5"/>
<path d="M349.877 157.032H353.314V160.47H349.877V157.032Z" fill="#F5F5F5"/>
<path d="M349.877 162.802H353.314V166.24H349.877V162.802Z" fill="#F5F5F5"/>
<path d="M349.877 168.573H353.314V172.01H349.877V168.573Z" fill="#F5F5F5"/>
<path d="M349.877 174.343H353.314V177.78H349.877V174.343Z" fill="#F5F5F5"/>
<path d="M349.877 191.653H353.314V195.091H349.877V191.653Z" fill="#F5F5F5"/>
<path d="M349.877 197.423H353.314V200.861H349.877V197.423Z" fill="#F5F5F5"/>
<path d="M349.877 203.193H353.314V206.631H349.877V203.193Z" fill="#F5F5F5"/>
<path d="M349.877 208.963H353.314V212.401H349.877V208.963Z" fill="#F5F5F5"/>
<path d="M349.877 226.274H353.314V229.711H349.877V226.274Z" fill="#F5F5F5"/>
<path d="M349.877 232.044H353.314V235.482H349.877V232.044Z" fill="#F5F5F5"/>
<path d="M349.877 237.814H353.314V241.252H349.877V237.814Z" fill="#F5F5F5"/>
<path d="M349.877 243.584H353.314V247.022H349.877V243.584Z" fill="#F5F5F5"/>
<path d="M349.877 249.354H353.314V252.792H349.877V249.354Z" fill="#F5F5F5"/>
<path d="M349.877 260.895H353.314V264.332H349.877V260.895Z" fill="#F5F5F5"/>
<path d="M349.877 266.665H353.314V270.103H349.877V266.665Z" fill="#F5F5F5"/>
<path d="M399.488 199.149H402.926V202.587H399.488V199.149Z" fill="#F5F5F5"/>
<path d="M399.488 204.919H402.926V208.357H399.488V204.919Z" fill="#F5F5F5"/>
<path d="M399.488 210.689H402.926V214.127H399.488V210.689Z" fill="#F5F5F5"/>
<path d="M399.488 216.46H402.926V219.898H399.488V216.46Z" fill="#F5F5F5"/>
<path d="M399.488 222.23H402.926V225.668H399.488V222.23Z" fill="#F5F5F5"/>
<path d="M399.488 228H402.926V231.438H399.488V228Z" fill="#F5F5F5"/>
<path d="M399.488 233.77H402.926V237.208H399.488V233.77Z" fill="#F5F5F5"/>
<path d="M399.488 251.08H402.926V254.518H399.488V251.08Z" fill="#F5F5F5"/>
<path d="M399.488 256.851H402.926V260.288H399.488V256.851Z" fill="#F5F5F5"/>
<path d="M399.488 262.621H402.926V266.059H399.488V262.621Z" fill="#F5F5F5"/>
<path d="M404.955 199.149H408.393V202.587H404.955V199.149Z" fill="#F5F5F5"/>
<path d="M404.955 204.919H408.393V208.357H404.955V204.919Z" fill="#F5F5F5"/>
<path d="M404.955 210.689H408.393V214.127H404.955V210.689Z" fill="#F5F5F5"/>
<path d="M404.955 216.46H408.393V219.898H404.955V216.46Z" fill="#F5F5F5"/>
<path d="M404.955 222.23H408.393V225.668H404.955V222.23Z" fill="#F5F5F5"/>
<path d="M404.955 228H408.393V231.438H404.955V228Z" fill="#F5F5F5"/>
<path d="M404.955 233.77H408.393V237.208H404.955V233.77Z" fill="#F5F5F5"/>
<path d="M410.421 199.149H413.858V202.587H410.421V199.149Z" fill="#F5F5F5"/>
<path d="M410.421 204.919H413.858V208.357H410.421V204.919Z" fill="#F5F5F5"/>
<path d="M410.421 210.689H413.858V214.127H410.421V210.689Z" fill="#F5F5F5"/>
<path d="M410.421 216.46H413.858V219.898H410.421V216.46Z" fill="#F5F5F5"/>
<path d="M410.421 222.23H413.858V225.668H410.421V222.23Z" fill="#F5F5F5"/>
<path d="M410.421 228H413.858V231.438H410.421V228Z" fill="#F5F5F5"/>
<path d="M410.421 233.77H413.858V237.208H410.421V233.77Z" fill="#F5F5F5"/>
<path d="M415.887 199.149H419.325V202.587H415.887V199.149Z" fill="#F5F5F5"/>
<path d="M415.887 204.919H419.325V208.357H415.887V204.919Z" fill="#F5F5F5"/>
<path d="M415.887 210.689H419.325V214.127H415.887V210.689Z" fill="#F5F5F5"/>
<path d="M415.887 216.46H419.325V219.898H415.887V216.46Z" fill="#F5F5F5"/>
<path d="M415.887 222.23H419.325V225.668H415.887V222.23Z" fill="#F5F5F5"/>
<path d="M415.887 228H419.325V231.438H415.887V228Z" fill="#F5F5F5"/>
<path d="M415.887 233.77H419.325V237.208H415.887V233.77Z" fill="#F5F5F5"/>
<path d="M415.887 239.54H419.325V242.978H415.887V239.54Z" fill="#F5F5F5"/>
<path d="M415.887 245.31H419.325V248.748H415.887V245.31Z" fill="#F5F5F5"/>
<path d="M415.887 251.08H419.325V254.518H415.887V251.08Z" fill="#F5F5F5"/>
<path d="M415.887 256.851H419.325V260.288H415.887V256.851Z" fill="#F5F5F5"/>
<path d="M421.353 199.149H424.791V202.587H421.353V199.149Z" fill="#F5F5F5"/>
<path d="M421.353 204.919H424.791V208.357H421.353V204.919Z" fill="#F5F5F5"/>
<path d="M421.353 210.689H424.791V214.127H421.353V210.689Z" fill="#F5F5F5"/>
<path d="M421.353 216.46H424.791V219.898H421.353V216.46Z" fill="#F5F5F5"/>
<path d="M421.353 222.23H424.791V225.668H421.353V222.23Z" fill="#F5F5F5"/>
<path d="M421.353 228H424.791V231.438H421.353V228Z" fill="#F5F5F5"/>
<path d="M421.353 233.77H424.791V237.208H421.353V233.77Z" fill="#F5F5F5"/>
<path d="M421.353 239.54H424.791V242.978H421.353V239.54Z" fill="#F5F5F5"/>
<path d="M421.353 245.31H424.791V248.748H421.353V245.31Z" fill="#F5F5F5"/>
<path d="M421.353 251.08H424.791V254.518H421.353V251.08Z" fill="#F5F5F5"/>
<path d="M421.353 256.851H424.791V260.288H421.353V256.851Z" fill="#F5F5F5"/>
<path d="M421.353 262.621H424.791V266.059H421.353V262.621Z" fill="#F5F5F5"/>
<path d="M421.353 279.931H424.791V283.369H421.353V279.931Z" fill="#F5F5F5"/>
<path d="M421.353 285.701H424.791V289.139H421.353V285.701Z" fill="#F5F5F5"/>
<path d="M426.82 199.149H430.258V202.587H426.82V199.149Z" fill="#F5F5F5"/>
<path d="M426.82 204.919H430.258V208.357H426.82V204.919Z" fill="#F5F5F5"/>
<path d="M426.82 210.689H430.258V214.127H426.82V210.689Z" fill="#F5F5F5"/>
<path d="M426.82 228H430.258V231.438H426.82V228Z" fill="#F5F5F5"/>
<path d="M426.82 233.77H430.258V237.208H426.82V233.77Z" fill="#F5F5F5"/>
<path d="M426.82 239.54H430.258V242.978H426.82V239.54Z" fill="#F5F5F5"/>
<path d="M426.82 245.31H430.258V248.748H426.82V245.31Z" fill="#F5F5F5"/>
<path d="M426.82 251.08H430.258V254.518H426.82V251.08Z" fill="#F5F5F5"/>
<path d="M426.82 256.851H430.258V260.288H426.82V256.851Z" fill="#F5F5F5"/>
<path d="M426.82 262.621H430.258V266.059H426.82V262.621Z" fill="#F5F5F5"/>
<path d="M426.82 279.931H430.258V283.369H426.82V279.931Z" fill="#F5F5F5"/>
<path d="M426.82 285.701H430.258V289.139H426.82V285.701Z" fill="#F5F5F5"/>
<path d="M426.82 291.471H430.258V294.909H426.82V291.471Z" fill="#F5F5F5"/>
<path d="M484.109 164.528H487.547V167.966H484.109V164.528Z" fill="#F5F5F5"/>
<path d="M484.109 170.299H487.547V173.736H484.109V170.299Z" fill="#F5F5F5"/>
<path d="M484.109 176.069H487.547V179.506H484.109V176.069Z" fill="#F5F5F5"/>
<path d="M484.109 181.839H487.547V185.276H484.109V181.839Z" fill="#F5F5F5"/>
<path d="M484.109 187.609H487.547V191.047H484.109V187.609Z" fill="#F5F5F5"/>
<path d="M484.109 193.379H487.547V196.817H484.109V193.379Z" fill="#F5F5F5"/>
<path d="M484.109 199.149H487.547V202.587H484.109V199.149Z" fill="#F5F5F5"/>
<path d="M484.109 204.919H487.547V208.357H484.109V204.919Z" fill="#F5F5F5"/>
<path d="M484.109 210.689H487.547V214.127H484.109V210.689Z" fill="#F5F5F5"/>
<path d="M484.109 216.46H487.547V219.898H484.109V216.46Z" fill="#F5F5F5"/>
<path d="M484.109 222.23H487.547V225.668H484.109V222.23Z" fill="#F5F5F5"/>
<path d="M484.109 228H487.547V231.438H484.109V228Z" fill="#F5F5F5"/>
<path d="M484.109 233.77H487.547V237.208H484.109V233.77Z" fill="#F5F5F5"/>
<path d="M484.109 239.54H487.547V242.978H484.109V239.54Z" fill="#F5F5F5"/>
<path d="M484.109 245.31H487.547V248.748H484.109V245.31Z" fill="#F5F5F5"/>
<path d="M484.109 251.08H487.547V254.518H484.109V251.08Z" fill="#F5F5F5"/>
<path d="M484.109 256.851H487.547V260.288H484.109V256.851Z" fill="#F5F5F5"/>
<path d="M484.109 262.621H487.547V266.059H484.109V262.621Z" fill="#F5F5F5"/>
<path d="M484.109 268.391H487.547V271.829H484.109V268.391Z" fill="#F5F5F5"/>
<path d="M484.109 274.161H487.547V277.599H484.109V274.161Z" fill="#F5F5F5"/>
<path d="M484.109 279.931H487.547V283.369H484.109V279.931Z" fill="#F5F5F5"/>
<path d="M484.109 285.701H487.547V289.139H484.109V285.701Z" fill="#F5F5F5"/>
<path d="M484.109 291.471H487.547V294.909H484.109V291.471Z" fill="#F5F5F5"/>
<path d="M489.575 164.528H493.013V167.966H489.575V164.528Z" fill="#F5F5F5"/>
<path d="M489.575 170.299H493.013V173.736H489.575V170.299Z" fill="#F5F5F5"/>
<path d="M489.575 176.069H493.013V179.506H489.575V176.069Z" fill="#F5F5F5"/>
<path d="M489.575 181.839H493.013V185.276H489.575V181.839Z" fill="#F5F5F5"/>
<path d="M489.575 187.609H493.013V191.047H489.575V187.609Z" fill="#F5F5F5"/>
<path d="M489.575 193.379H493.013V196.817H489.575V193.379Z" fill="#F5F5F5"/>
<path d="M489.575 199.149H493.013V202.587H489.575V199.149Z" fill="#F5F5F5"/>
<path d="M489.575 204.919H493.013V208.357H489.575V204.919Z" fill="#F5F5F5"/>
<path d="M489.575 210.689H493.013V214.127H489.575V210.689Z" fill="#F5F5F5"/>
<path d="M489.575 216.46H493.013V219.898H489.575V216.46Z" fill="#F5F5F5"/>
<path d="M489.575 222.23H493.013V225.668H489.575V222.23Z" fill="#F5F5F5"/>
<path d="M489.575 228H493.013V231.438H489.575V228Z" fill="#F5F5F5"/>
<path d="M489.575 233.77H493.013V237.208H489.575V233.77Z" fill="#F5F5F5"/>
<path d="M489.575 239.54H493.013V242.978H489.575V239.54Z" fill="#F5F5F5"/>
<path d="M489.575 245.31H493.013V248.748H489.575V245.31Z" fill="#F5F5F5"/>
<path d="M489.575 251.08H493.013V254.518H489.575V251.08Z" fill="#F5F5F5"/>
<path d="M489.575 256.851H493.013V260.288H489.575V256.851Z" fill="#F5F5F5"/>
<path d="M489.575 262.621H493.013V266.059H489.575V262.621Z" fill="#F5F5F5"/>
<path d="M489.575 268.391H493.013V271.829H489.575V268.391Z" fill="#F5F5F5"/>
<path d="M495.042 164.528H498.479V167.966H495.042V164.528Z" fill="#F5F5F5"/>
<path d="M495.042 170.299H498.479V173.736H495.042V170.299Z" fill="#F5F5F5"/>
<path d="M495.042 176.069H498.479V179.506H495.042V176.069Z" fill="#F5F5F5"/>
<path d="M495.042 181.839H498.479V185.276H495.042V181.839Z" fill="#F5F5F5"/>
<path d="M495.042 187.609H498.479V191.047H495.042V187.609Z" fill="#F5F5F5"/>
<path d="M495.042 193.379H498.479V196.817H495.042V193.379Z" fill="#F5F5F5"/>
<path d="M495.042 199.149H498.479V202.587H495.042V199.149Z" fill="#F5F5F5"/>
<path d="M495.042 204.919H498.479V208.357H495.042V204.919Z" fill="#F5F5F5"/>
<path d="M495.042 210.689H498.479V214.127H495.042V210.689Z" fill="#F5F5F5"/>
<path d="M495.042 216.46H498.479V219.898H495.042V216.46Z" fill="#F5F5F5"/>
<path d="M495.042 222.23H498.479V225.668H495.042V222.23Z" fill="#F5F5F5"/>
<path d="M495.042 228H498.479V231.438H495.042V228Z" fill="#F5F5F5"/>
<path d="M495.042 233.77H498.479V237.208H495.042V233.77Z" fill="#F5F5F5"/>
<path d="M495.042 239.54H498.479V242.978H495.042V239.54Z" fill="#F5F5F5"/>
<path d="M495.042 245.31H498.479V248.748H495.042V245.31Z" fill="#F5F5F5"/>
<path d="M495.042 251.08H498.479V254.518H495.042V251.08Z" fill="#F5F5F5"/>
<path d="M495.042 256.851H498.479V260.288H495.042V256.851Z" fill="#F5F5F5"/>
<path d="M495.042 262.621H498.479V266.059H495.042V262.621Z" fill="#F5F5F5"/>
<path d="M495.042 268.391H498.479V271.829H495.042V268.391Z" fill="#F5F5F5"/>
<path d="M500.509 164.528H503.946V167.966H500.509V164.528Z" fill="#F5F5F5"/>
<path d="M500.509 170.299H503.946V173.736H500.509V170.299Z" fill="#F5F5F5"/>
<path d="M500.509 176.069H503.946V179.506H500.509V176.069Z" fill="#F5F5F5"/>
<path d="M500.509 181.839H503.946V185.276H500.509V181.839Z" fill="#F5F5F5"/>
<path d="M500.509 187.609H503.946V191.047H500.509V187.609Z" fill="#F5F5F5"/>
<path d="M500.509 193.379H503.946V196.817H500.509V193.379Z" fill="#F5F5F5"/>
<path d="M500.509 199.149H503.946V202.587H500.509V199.149Z" fill="#F5F5F5"/>
<path d="M500.509 204.919H503.946V208.357H500.509V204.919Z" fill="#F5F5F5"/>
<path d="M500.509 210.689H503.946V214.127H500.509V210.689Z" fill="#F5F5F5"/>
<path d="M500.509 216.46H503.946V219.898H500.509V216.46Z" fill="#F5F5F5"/>
<path d="M500.509 222.23H503.946V225.668H500.509V222.23Z" fill="#F5F5F5"/>
<path d="M500.509 228H503.946V231.438H500.509V228Z" fill="#F5F5F5"/>
<path d="M500.509 233.77H503.946V237.208H500.509V233.77Z" fill="#F5F5F5"/>
<path d="M500.509 239.54H503.946V242.978H500.509V239.54Z" fill="#F5F5F5"/>
<path d="M500.509 245.31H503.946V248.748H500.509V245.31Z" fill="#F5F5F5"/>
<path d="M505.974 164.528H509.412V167.966H505.974V164.528Z" fill="#F5F5F5"/>
<path d="M505.974 170.299H509.412V173.736H505.974V170.299Z" fill="#F5F5F5"/>
<path d="M505.974 176.069H509.412V179.506H505.974V176.069Z" fill="#F5F5F5"/>
<path d="M505.974 181.839H509.412V185.276H505.974V181.839Z" fill="#F5F5F5"/>
<path d="M505.974 187.609H509.412V191.047H505.974V187.609Z" fill="#F5F5F5"/>
<path d="M505.974 193.379H509.412V196.817H505.974V193.379Z" fill="#F5F5F5"/>
<path d="M505.974 199.149H509.412V202.587H505.974V199.149Z" fill="#F5F5F5"/>
<path d="M505.974 204.919H509.412V208.357H505.974V204.919Z" fill="#F5F5F5"/>
<path d="M505.974 210.689H509.412V214.127H505.974V210.689Z" fill="#F5F5F5"/>
<path d="M505.974 216.46H509.412V219.898H505.974V216.46Z" fill="#F5F5F5"/>
<path d="M505.974 222.23H509.412V225.668H505.974V222.23Z" fill="#F5F5F5"/>
<path d="M505.974 228H509.412V231.438H505.974V228Z" fill="#F5F5F5"/>
<path d="M505.974 233.77H509.412V237.208H505.974V233.77Z" fill="#F5F5F5"/>
<path d="M511.441 164.528H514.879V167.966H511.441V164.528Z" fill="#F5F5F5"/>
<path d="M511.441 170.299H514.879V173.736H511.441V170.299Z" fill="#F5F5F5"/>
<path d="M511.441 176.069H514.879V179.506H511.441V176.069Z" fill="#F5F5F5"/>
<path d="M511.441 181.839H514.879V185.276H511.441V181.839Z" fill="#F5F5F5"/>
<path d="M511.441 187.609H514.879V191.047H511.441V187.609Z" fill="#F5F5F5"/>
<path d="M511.441 193.379H514.879V196.817H511.441V193.379Z" fill="#F5F5F5"/>
<path d="M511.441 199.149H514.879V202.587H511.441V199.149Z" fill="#F5F5F5"/>
<path d="M511.441 204.919H514.879V208.357H511.441V204.919Z" fill="#F5F5F5"/>
<path d="M511.441 210.689H514.879V214.127H511.441V210.689Z" fill="#F5F5F5"/>
<path d="M511.441 216.46H514.879V219.898H511.441V216.46Z" fill="#F5F5F5"/>
<path d="M511.441 222.23H514.879V225.668H511.441V222.23Z" fill="#F5F5F5"/>
<path d="M511.441 228H514.879V231.438H511.441V228Z" fill="#F5F5F5"/>
<path d="M109.766 206.644H113.204V210.082H109.766V206.644Z" fill="#F5F5F5"/>
<path d="M109.766 212.414H113.204V215.852H109.766V212.414Z" fill="#F5F5F5"/>
<path d="M109.766 218.185H113.204V221.622H109.766V218.185Z" fill="#F5F5F5"/>
<path d="M109.766 223.955H113.204V227.392H109.766V223.955Z" fill="#F5F5F5"/>
<path d="M109.766 229.725H113.204V233.162H109.766V229.725Z" fill="#F5F5F5"/>
<path d="M109.766 235.495H113.204V238.933H109.766V235.495Z" fill="#F5F5F5"/>
<path d="M109.766 241.265H113.204V244.703H109.766V241.265Z" fill="#F5F5F5"/>
<path d="M109.766 247.035H113.204V250.473H109.766V247.035Z" fill="#F5F5F5"/>
<path d="M109.766 252.805H113.204V256.243H109.766V252.805Z" fill="#F5F5F5"/>
<path d="M109.766 258.575H113.204V262.013H109.766V258.575Z" fill="#F5F5F5"/>
<path d="M109.766 264.346H113.204V267.784H109.766V264.346Z" fill="#F5F5F5"/>
<path d="M109.766 270.116H113.204V273.554H109.766V270.116Z" fill="#F5F5F5"/>
<path d="M109.766 275.886H113.204V279.324H109.766V275.886Z" fill="#F5F5F5"/>
<path d="M109.766 281.656H113.204V285.094H109.766V281.656Z" fill="#F5F5F5"/>
<path d="M109.766 287.426H113.204V290.864H109.766V287.426Z" fill="#F5F5F5"/>
<path d="M109.766 293.196H113.204V296.634H109.766V293.196Z" fill="#F5F5F5"/>
<path d="M109.766 298.966H113.204V302.404H109.766V298.966Z" fill="#F5F5F5"/>
<path d="M109.766 304.736H113.204V308.174H109.766V304.736Z" fill="#F5F5F5"/>
<path d="M109.766 310.507H113.204V313.944H109.766V310.507Z" fill="#F5F5F5"/>
<path d="M109.766 316.277H113.204V319.715H109.766V316.277Z" fill="#F5F5F5"/>
<path d="M115.233 206.644H118.67V210.082H115.233V206.644Z" fill="#F5F5F5"/>
<path d="M115.233 212.414H118.67V215.852H115.233V212.414Z" fill="#F5F5F5"/>
<path d="M115.233 218.185H118.67V221.622H115.233V218.185Z" fill="#F5F5F5"/>
<path d="M115.233 223.955H118.67V227.392H115.233V223.955Z" fill="#F5F5F5"/>
<path d="M115.233 229.725H118.67V233.162H115.233V229.725Z" fill="#F5F5F5"/>
<path d="M115.233 235.495H118.67V238.933H115.233V235.495Z" fill="#F5F5F5"/>
<path d="M115.233 241.265H118.67V244.703H115.233V241.265Z" fill="#F5F5F5"/>
<path d="M115.233 247.035H118.67V250.473H115.233V247.035Z" fill="#F5F5F5"/>
<path d="M115.233 252.805H118.67V256.243H115.233V252.805Z" fill="#F5F5F5"/>
<path d="M115.233 258.575H118.67V262.013H115.233V258.575Z" fill="#F5F5F5"/>
<path d="M115.233 264.346H118.67V267.784H115.233V264.346Z" fill="#F5F5F5"/>
<path d="M115.233 270.116H118.67V273.554H115.233V270.116Z" fill="#F5F5F5"/>
<path d="M115.233 275.886H118.67V279.324H115.233V275.886Z" fill="#F5F5F5"/>
<path d="M115.233 281.656H118.67V285.094H115.233V281.656Z" fill="#F5F5F5"/>
<path d="M115.233 287.426H118.67V290.864H115.233V287.426Z" fill="#F5F5F5"/>
<path d="M115.233 293.196H118.67V296.634H115.233V293.196Z" fill="#F5F5F5"/>
<path d="M115.233 298.966H118.67V302.404H115.233V298.966Z" fill="#F5F5F5"/>
<path d="M115.233 304.736H118.67V308.174H115.233V304.736Z" fill="#F5F5F5"/>
<path d="M120.699 206.644H124.137V210.082H120.699V206.644Z" fill="#F5F5F5"/>
<path d="M120.699 212.414H124.137V215.852H120.699V212.414Z" fill="#F5F5F5"/>
<path d="M120.699 218.185H124.137V221.622H120.699V218.185Z" fill="#F5F5F5"/>
<path d="M120.699 223.955H124.137V227.392H120.699V223.955Z" fill="#F5F5F5"/>
<path d="M120.699 229.725H124.137V233.162H120.699V229.725Z" fill="#F5F5F5"/>
<path d="M120.699 235.495H124.137V238.933H120.699V235.495Z" fill="#F5F5F5"/>
<path d="M120.699 241.265H124.137V244.703H120.699V241.265Z" fill="#F5F5F5"/>
<path d="M120.699 247.035H124.137V250.473H120.699V247.035Z" fill="#F5F5F5"/>
<path d="M120.699 252.805H124.137V256.243H120.699V252.805Z" fill="#F5F5F5"/>
<path d="M120.699 258.575H124.137V262.013H120.699V258.575Z" fill="#F5F5F5"/>
<path d="M120.699 264.346H124.137V267.784H120.699V264.346Z" fill="#F5F5F5"/>
<path d="M120.699 270.116H124.137V273.554H120.699V270.116Z" fill="#F5F5F5"/>
<path d="M120.699 275.886H124.137V279.324H120.699V275.886Z" fill="#F5F5F5"/>
<path d="M120.699 281.656H124.137V285.094H120.699V281.656Z" fill="#F5F5F5"/>
<path d="M120.699 287.426H124.137V290.864H120.699V287.426Z" fill="#F5F5F5"/>
<path d="M120.699 293.196H124.137V296.634H120.699V293.196Z" fill="#F5F5F5"/>
<path d="M120.699 298.966H124.137V302.404H120.699V298.966Z" fill="#F5F5F5"/>
<path d="M120.699 304.736H124.137V308.174H120.699V304.736Z" fill="#F5F5F5"/>
<path d="M89.3098 248.747H92.7476V252.185H89.3098V248.747Z" fill="#F5F5F5"/>
<path d="M89.3098 254.517H92.7476V257.955H89.3098V254.517Z" fill="#F5F5F5"/>
<path d="M89.3098 260.287H92.7476V263.725H89.3098V260.287Z" fill="#F5F5F5"/>
<path d="M89.3098 266.057H92.7476V269.495H89.3098V266.057Z" fill="#F5F5F5"/>
<path d="M89.3098 271.827H92.7476V275.265H89.3098V271.827Z" fill="#F5F5F5"/>
<path d="M89.3098 277.598H92.7476V281.035H89.3098V277.598Z" fill="#F5F5F5"/>
<path d="M89.3098 283.368H92.7476V286.806H89.3098V283.368Z" fill="#F5F5F5"/>
<path d="M89.3098 289.138H92.7476V292.576H89.3098V289.138Z" fill="#F5F5F5"/>
<path d="M89.3098 294.908H92.7476V298.346H89.3098V294.908Z" fill="#F5F5F5"/>
<path d="M89.3098 300.678H92.7476V304.116H89.3098V300.678Z" fill="#F5F5F5"/>
<path d="M89.3098 306.448H92.7476V309.886H89.3098V306.448Z" fill="#F5F5F5"/>
<path d="M89.3098 312.219H92.7476V315.656H89.3098V312.219Z" fill="#F5F5F5"/>
<path d="M89.3098 317.989H92.7476V321.426H89.3098V317.989Z" fill="#F5F5F5"/>
<path d="M94.7761 248.747H98.2139V252.185H94.7761V248.747Z" fill="#F5F5F5"/>
<path d="M94.7761 254.517H98.2139V257.955H94.7761V254.517Z" fill="#F5F5F5"/>
<path d="M94.7761 260.287H98.2139V263.725H94.7761V260.287Z" fill="#F5F5F5"/>
<path d="M94.7761 266.057H98.2139V269.495H94.7761V266.057Z" fill="#F5F5F5"/>
<path d="M94.7761 271.827H98.2139V275.265H94.7761V271.827Z" fill="#F5F5F5"/>
<path d="M94.7761 277.598H98.2139V281.035H94.7761V277.598Z" fill="#F5F5F5"/>
<path d="M94.7761 283.368H98.2139V286.806H94.7761V283.368Z" fill="#F5F5F5"/>
<path d="M94.7761 289.138H98.2139V292.576H94.7761V289.138Z" fill="#F5F5F5"/>
<path d="M94.7761 294.908H98.2139V298.346H94.7761V294.908Z" fill="#F5F5F5"/>
<path d="M94.7761 300.678H98.2139V304.116H94.7761V300.678Z" fill="#F5F5F5"/>
<path d="M94.7761 306.448H98.2139V309.886H94.7761V306.448Z" fill="#F5F5F5"/>
<path d="M94.7761 312.219H98.2139V315.656H94.7761V312.219Z" fill="#F5F5F5"/>
<path d="M94.7761 317.989H98.2139V321.426H94.7761V317.989Z" fill="#F5F5F5"/>
<path d="M100.243 248.747H103.681V252.185H100.243V248.747Z" fill="#F5F5F5"/>
<path d="M100.243 254.517H103.681V257.955H100.243V254.517Z" fill="#F5F5F5"/>
<path d="M100.243 260.287H103.681V263.725H100.243V260.287Z" fill="#F5F5F5"/>
<path d="M100.243 266.057H103.681V269.495H100.243V266.057Z" fill="#F5F5F5"/>
<path d="M100.243 271.827H103.681V275.265H100.243V271.827Z" fill="#F5F5F5"/>
<path d="M100.243 277.598H103.681V281.035H100.243V277.598Z" fill="#F5F5F5"/>
<path d="M100.243 283.368H103.681V286.806H100.243V283.368Z" fill="#F5F5F5"/>
<path d="M100.243 289.138H103.681V292.576H100.243V289.138Z" fill="#F5F5F5"/>
<path d="M100.243 294.908H103.681V298.346H100.243V294.908Z" fill="#F5F5F5"/>
<path d="M100.243 300.678H103.681V304.116H100.243V300.678Z" fill="#F5F5F5"/>
<path d="M100.243 306.448H103.681V309.886H100.243V306.448Z" fill="#F5F5F5"/>
<path d="M100.243 312.219H103.681V315.656H100.243V312.219Z" fill="#F5F5F5"/>
<path d="M100.243 317.989H103.681V321.426H100.243V317.989Z" fill="#F5F5F5"/>
<path d="M100.243 323.759H103.681V327.197H100.243V323.759Z" fill="#F5F5F5"/>
<path d="M130.612 250.473H134.05V253.911H130.612V250.473Z" fill="#F5F5F5"/>
<path d="M130.612 256.243H134.05V259.681H130.612V256.243Z" fill="#F5F5F5"/>
<path d="M130.612 262.013H134.05V265.451H130.612V262.013Z" fill="#F5F5F5"/>
<path d="M130.612 267.783H134.05V271.221H130.612V267.783Z" fill="#F5F5F5"/>
<path d="M130.612 273.553H134.05V276.991H130.612V273.553Z" fill="#F5F5F5"/>
<path d="M130.612 279.324H134.05V282.762H130.612V279.324Z" fill="#F5F5F5"/>
<path d="M130.612 285.094H134.05V288.532H130.612V285.094Z" fill="#F5F5F5"/>
<path d="M130.612 290.864H134.05V294.302H130.612V290.864Z" fill="#F5F5F5"/>
<path d="M130.612 296.634H134.05V300.072H130.612V296.634Z" fill="#F5F5F5"/>
<path d="M130.612 302.404H134.05V305.842H130.612V302.404Z" fill="#F5F5F5"/>
<path d="M130.612 319.715H134.05V323.152H130.612V319.715Z" fill="#F5F5F5"/>
<path d="M136.078 250.473H139.516V253.911H136.078V250.473Z" fill="#F5F5F5"/>
<path d="M136.078 256.243H139.516V259.681H136.078V256.243Z" fill="#F5F5F5"/>
<path d="M136.078 262.013H139.516V265.451H136.078V262.013Z" fill="#F5F5F5"/>
<path d="M136.078 267.783H139.516V271.221H136.078V267.783Z" fill="#F5F5F5"/>
<path d="M136.078 273.553H139.516V276.991H136.078V273.553Z" fill="#F5F5F5"/>
<path d="M136.078 279.324H139.516V282.762H136.078V279.324Z" fill="#F5F5F5"/>
<path d="M136.078 285.094H139.516V288.532H136.078V285.094Z" fill="#F5F5F5"/>
<path d="M136.078 290.864H139.516V294.302H136.078V290.864Z" fill="#F5F5F5"/>
<path d="M136.078 296.634H139.516V300.072H136.078V296.634Z" fill="#F5F5F5"/>
<path d="M136.078 313.945H139.516V317.382H136.078V313.945Z" fill="#F5F5F5"/>
<path d="M136.078 319.715H139.516V323.152H136.078V319.715Z" fill="#F5F5F5"/>
<path d="M141.545 250.473H144.982V253.911H141.545V250.473Z" fill="#F5F5F5"/>
<path d="M141.545 256.243H144.982V259.681H141.545V256.243Z" fill="#F5F5F5"/>
<path d="M141.545 262.013H144.982V265.451H141.545V262.013Z" fill="#F5F5F5"/>
<path d="M141.545 267.783H144.982V271.221H141.545V267.783Z" fill="#F5F5F5"/>
<path d="M141.545 273.553H144.982V276.991H141.545V273.553Z" fill="#F5F5F5"/>
<path d="M141.545 279.324H144.982V282.762H141.545V279.324Z" fill="#F5F5F5"/>
<path d="M141.545 285.094H144.982V288.532H141.545V285.094Z" fill="#F5F5F5"/>
<path d="M141.545 290.864H144.982V294.302H141.545V290.864Z" fill="#F5F5F5"/>
<path d="M141.545 308.174H144.982V311.612H141.545V308.174Z" fill="#F5F5F5"/>
<path d="M141.545 313.945H144.982V317.382H141.545V313.945Z" fill="#F5F5F5"/>
<path d="M141.545 319.715H144.982V323.152H141.545V319.715Z" fill="#F5F5F5"/>
<path d="M192.37 162.802H195.808V166.24H192.37V162.802Z" fill="#F5F5F5"/>
<path d="M192.37 168.573H195.808V172.01H192.37V168.573Z" fill="#F5F5F5"/>
<path d="M192.37 174.343H195.808V177.78H192.37V174.343Z" fill="#F5F5F5"/>
<path d="M192.37 180.113H195.808V183.55H192.37V180.113Z" fill="#F5F5F5"/>
<path d="M192.37 185.883H195.808V189.321H192.37V185.883Z" fill="#F5F5F5"/>
<path d="M192.37 191.653H195.808V195.091H192.37V191.653Z" fill="#F5F5F5"/>
<path d="M192.37 197.423H195.808V200.861H192.37V197.423Z" fill="#F5F5F5"/>
<path d="M192.37 203.193H195.808V206.631H192.37V203.193Z" fill="#F5F5F5"/>
<path d="M192.37 208.963H195.808V212.401H192.37V208.963Z" fill="#F5F5F5"/>
<path d="M192.37 214.734H195.808V218.171H192.37V214.734Z" fill="#F5F5F5"/>
<path d="M192.37 220.504H195.808V223.941H192.37V220.504Z" fill="#F5F5F5"/>
<path d="M192.37 226.274H195.808V229.711H192.37V226.274Z" fill="#F5F5F5"/>
<path d="M192.37 232.044H195.808V235.482H192.37V232.044Z" fill="#F5F5F5"/>
<path d="M192.37 237.814H195.808V241.252H192.37V237.814Z" fill="#F5F5F5"/>
<path d="M192.37 243.584H195.808V247.022H192.37V243.584Z" fill="#F5F5F5"/>
<path d="M192.37 249.354H195.808V252.792H192.37V249.354Z" fill="#F5F5F5"/>
<path d="M192.37 255.125H195.808V258.562H192.37V255.125Z" fill="#F5F5F5"/>
<path d="M192.37 266.665H195.808V270.103H192.37V266.665Z" fill="#F5F5F5"/>
<path d="M192.37 272.435H195.808V275.873H192.37V272.435Z" fill="#F5F5F5"/>
<path d="M192.37 278.205H195.808V281.643H192.37V278.205Z" fill="#F5F5F5"/>
<path d="M192.37 283.975H195.808V287.413H192.37V283.975Z" fill="#F5F5F5"/>
<path d="M192.37 289.745H195.808V293.183H192.37V289.745Z" fill="#F5F5F5"/>
<path d="M197.837 162.802H201.274V166.24H197.837V162.802Z" fill="#F5F5F5"/>
<path d="M197.837 168.573H201.274V172.01H197.837V168.573Z" fill="#F5F5F5"/>
<path d="M197.837 174.343H201.274V177.78H197.837V174.343Z" fill="#F5F5F5"/>
<path d="M197.837 180.113H201.274V183.55H197.837V180.113Z" fill="#F5F5F5"/>
<path d="M197.837 185.883H201.274V189.321H197.837V185.883Z" fill="#F5F5F5"/>
<path d="M197.837 191.653H201.274V195.091H197.837V191.653Z" fill="#F5F5F5"/>
<path d="M197.837 197.423H201.274V200.861H197.837V197.423Z" fill="#F5F5F5"/>
<path d="M197.837 203.193H201.274V206.631H197.837V203.193Z" fill="#F5F5F5"/>
<path d="M197.837 208.963H201.274V212.401H197.837V208.963Z" fill="#F5F5F5"/>
<path d="M197.837 214.734H201.274V218.171H197.837V214.734Z" fill="#F5F5F5"/>
<path d="M197.837 220.504H201.274V223.941H197.837V220.504Z" fill="#F5F5F5"/>
<path d="M197.837 226.274H201.274V229.711H197.837V226.274Z" fill="#F5F5F5"/>
<path d="M197.837 232.044H201.274V235.482H197.837V232.044Z" fill="#F5F5F5"/>
<path d="M197.837 237.814H201.274V241.252H197.837V237.814Z" fill="#F5F5F5"/>
<path d="M197.837 243.584H201.274V247.022H197.837V243.584Z" fill="#F5F5F5"/>
<path d="M197.837 249.354H201.274V252.792H197.837V249.354Z" fill="#F5F5F5"/>
<path d="M197.837 283.975H201.274V287.413H197.837V283.975Z" fill="#F5F5F5"/>
<path d="M197.837 289.745H201.274V293.183H197.837V289.745Z" fill="#F5F5F5"/>
<path d="M203.303 162.802H206.741V166.24H203.303V162.802Z" fill="#F5F5F5"/>
<path d="M203.303 168.573H206.741V172.01H203.303V168.573Z" fill="#F5F5F5"/>
<path d="M203.303 174.343H206.741V177.78H203.303V174.343Z" fill="#F5F5F5"/>
<path d="M203.303 180.113H206.741V183.55H203.303V180.113Z" fill="#F5F5F5"/>
<path d="M203.303 185.883H206.741V189.321H203.303V185.883Z" fill="#F5F5F5"/>
<path d="M203.303 191.653H206.741V195.091H203.303V191.653Z" fill="#F5F5F5"/>
<path d="M203.303 197.423H206.741V200.861H203.303V197.423Z" fill="#F5F5F5"/>
<path d="M203.303 203.193H206.741V206.631H203.303V203.193Z" fill="#F5F5F5"/>
<path d="M203.303 208.963H206.741V212.401H203.303V208.963Z" fill="#F5F5F5"/>
<path d="M203.303 214.734H206.741V218.171H203.303V214.734Z" fill="#F5F5F5"/>
<path d="M203.303 220.504H206.741V223.941H203.303V220.504Z" fill="#F5F5F5"/>
<path d="M203.303 226.274H206.741V229.711H203.303V226.274Z" fill="#F5F5F5"/>
<path d="M203.303 232.044H206.741V235.482H203.303V232.044Z" fill="#F5F5F5"/>
<path d="M203.303 237.814H206.741V241.252H203.303V237.814Z" fill="#F5F5F5"/>
<path d="M203.303 243.584H206.741V247.022H203.303V243.584Z" fill="#F5F5F5"/>
<path d="M203.303 249.354H206.741V252.792H203.303V249.354Z" fill="#F5F5F5"/>
<path d="M203.303 260.895H206.741V264.332H203.303V260.895Z" fill="#F5F5F5"/>
<path d="M203.303 266.665H206.741V270.103H203.303V266.665Z" fill="#F5F5F5"/>
<path d="M203.303 272.435H206.741V275.873H203.303V272.435Z" fill="#F5F5F5"/>
<path d="M203.303 278.205H206.741V281.643H203.303V278.205Z" fill="#F5F5F5"/>
<path d="M203.303 289.745H206.741V293.183H203.303V289.745Z" fill="#F5F5F5"/>
<path d="M172.521 235.495H175.959V238.933H172.521V235.495Z" fill="#F5F5F5"/>
<path d="M172.521 241.265H175.959V244.703H172.521V241.265Z" fill="#F5F5F5"/>
<path d="M172.521 247.035H175.959V250.473H172.521V247.035Z" fill="#F5F5F5"/>
<path d="M172.521 252.805H175.959V256.243H172.521V252.805Z" fill="#F5F5F5"/>
<path d="M172.521 258.575H175.959V262.013H172.521V258.575Z" fill="#F5F5F5"/>
<path d="M172.521 264.346H175.959V267.784H172.521V264.346Z" fill="#F5F5F5"/>
<path d="M172.521 270.116H175.959V273.554H172.521V270.116Z" fill="#F5F5F5"/>
<path d="M172.521 281.656H175.959V285.094H172.521V281.656Z" fill="#F5F5F5"/>
<path d="M172.521 287.426H175.959V290.864H172.521V287.426Z" fill="#F5F5F5"/>
<path d="M172.521 293.196H175.959V296.634H172.521V293.196Z" fill="#F5F5F5"/>
<path d="M172.521 298.966H175.959V302.404H172.521V298.966Z" fill="#F5F5F5"/>
<path d="M172.521 304.736H175.959V308.174H172.521V304.736Z" fill="#F5F5F5"/>
<path d="M172.521 310.507H175.959V313.944H172.521V310.507Z" fill="#F5F5F5"/>
<path d="M172.521 316.277H175.959V319.715H172.521V316.277Z" fill="#F5F5F5"/>
<path d="M172.521 322.047H175.959V325.485H172.521V322.047Z" fill="#F5F5F5"/>
<path d="M177.987 235.495H181.425V238.933H177.987V235.495Z" fill="#F5F5F5"/>
<path d="M177.987 241.265H181.425V244.703H177.987V241.265Z" fill="#F5F5F5"/>
<path d="M177.987 247.035H181.425V250.473H177.987V247.035Z" fill="#F5F5F5"/>
<path d="M177.987 252.805H181.425V256.243H177.987V252.805Z" fill="#F5F5F5"/>
<path d="M177.987 258.575H181.425V262.013H177.987V258.575Z" fill="#F5F5F5"/>
<path d="M177.987 264.346H181.425V267.784H177.987V264.346Z" fill="#F5F5F5"/>
<path d="M177.987 281.656H181.425V285.094H177.987V281.656Z" fill="#F5F5F5"/>
<path d="M177.987 287.426H181.425V290.864H177.987V287.426Z" fill="#F5F5F5"/>
<path d="M177.987 293.196H181.425V296.634H177.987V293.196Z" fill="#F5F5F5"/>
<path d="M177.987 298.966H181.425V302.404H177.987V298.966Z" fill="#F5F5F5"/>
<path d="M177.987 304.736H181.425V308.174H177.987V304.736Z" fill="#F5F5F5"/>
<path d="M177.987 310.507H181.425V313.944H177.987V310.507Z" fill="#F5F5F5"/>
<path d="M177.987 316.277H181.425V319.715H177.987V316.277Z" fill="#F5F5F5"/>
<path d="M177.987 322.047H181.425V325.485H177.987V322.047Z" fill="#F5F5F5"/>
<path d="M183.454 235.495H186.892V238.933H183.454V235.495Z" fill="#F5F5F5"/>
<path d="M183.454 241.265H186.892V244.703H183.454V241.265Z" fill="#F5F5F5"/>
<path d="M183.454 247.035H186.892V250.473H183.454V247.035Z" fill="#F5F5F5"/>
<path d="M183.454 252.805H186.892V256.243H183.454V252.805Z" fill="#F5F5F5"/>
<path d="M183.454 258.575H186.892V262.013H183.454V258.575Z" fill="#F5F5F5"/>
<path d="M183.454 264.346H186.892V267.784H183.454V264.346Z" fill="#F5F5F5"/>
<path d="M183.454 275.886H186.892V279.324H183.454V275.886Z" fill="#F5F5F5"/>
<path d="M183.454 281.656H186.892V285.094H183.454V281.656Z" fill="#F5F5F5"/>
<path d="M183.454 287.426H186.892V290.864H183.454V287.426Z" fill="#F5F5F5"/>
<path d="M183.454 293.196H186.892V296.634H183.454V293.196Z" fill="#F5F5F5"/>
<path d="M183.454 298.966H186.892V302.404H183.454V298.966Z" fill="#F5F5F5"/>
<path d="M183.454 304.736H186.892V308.174H183.454V304.736Z" fill="#F5F5F5"/>
<path d="M183.454 310.507H186.892V313.944H183.454V310.507Z" fill="#F5F5F5"/>
<path d="M183.454 316.277H186.892V319.715H183.454V316.277Z" fill="#F5F5F5"/>
<path d="M183.454 322.047H186.892V325.485H183.454V322.047Z" fill="#F5F5F5"/>
<path d="M298.662 203.193H302.1V206.631H298.662V203.193Z" fill="#F5F5F5"/>
<path d="M298.662 208.963H302.1V212.401H298.662V208.963Z" fill="#F5F5F5"/>
<path d="M298.662 214.734H302.1V218.171H298.662V214.734Z" fill="#F5F5F5"/>
<path d="M298.662 220.504H302.1V223.941H298.662V220.504Z" fill="#F5F5F5"/>
<path d="M298.662 226.274H302.1V229.711H298.662V226.274Z" fill="#F5F5F5"/>
<path d="M298.662 232.044H302.1V235.482H298.662V232.044Z" fill="#F5F5F5"/>
<path d="M298.662 237.814H302.1V241.252H298.662V237.814Z" fill="#F5F5F5"/>
<path d="M298.662 243.584H302.1V247.022H298.662V243.584Z" fill="#F5F5F5"/>
<path d="M298.662 249.354H302.1V252.792H298.662V249.354Z" fill="#F5F5F5"/>
<path d="M298.662 255.125H302.1V258.562H298.662V255.125Z" fill="#F5F5F5"/>
<path d="M298.662 260.895H302.1V264.332H298.662V260.895Z" fill="#F5F5F5"/>
<path d="M298.662 266.665H302.1V270.103H298.662V266.665Z" fill="#F5F5F5"/>
<path d="M298.662 272.435H302.1V275.873H298.662V272.435Z" fill="#F5F5F5"/>
<path d="M298.662 283.975H302.1V287.413H298.662V283.975Z" fill="#F5F5F5"/>
<path d="M298.662 289.745H302.1V293.183H298.662V289.745Z" fill="#F5F5F5"/>
<path d="M298.662 295.515H302.1V298.953H298.662V295.515Z" fill="#F5F5F5"/>
<path d="M298.662 301.286H302.1V304.723H298.662V301.286Z" fill="#F5F5F5"/>
<path d="M298.662 312.826H302.1V316.264H298.662V312.826Z" fill="#F5F5F5"/>
<path d="M298.662 318.596H302.1V322.034H298.662V318.596Z" fill="#F5F5F5"/>
<path d="M298.662 324.366H302.1V327.804H298.662V324.366Z" fill="#F5F5F5"/>
<path d="M304.129 203.193H307.566V206.631H304.129V203.193Z" fill="#F5F5F5"/>
<path d="M304.129 208.963H307.566V212.401H304.129V208.963Z" fill="#F5F5F5"/>
<path d="M304.129 214.734H307.566V218.171H304.129V214.734Z" fill="#F5F5F5"/>
<path d="M304.129 220.504H307.566V223.941H304.129V220.504Z" fill="#F5F5F5"/>
<path d="M304.129 226.274H307.566V229.711H304.129V226.274Z" fill="#F5F5F5"/>
<path d="M304.129 232.044H307.566V235.482H304.129V232.044Z" fill="#F5F5F5"/>
<path d="M304.129 237.814H307.566V241.252H304.129V237.814Z" fill="#F5F5F5"/>
<path d="M304.129 243.584H307.566V247.022H304.129V243.584Z" fill="#F5F5F5"/>
<path d="M304.129 249.354H307.566V252.792H304.129V249.354Z" fill="#F5F5F5"/>
<path d="M304.129 255.125H307.566V258.562H304.129V255.125Z" fill="#F5F5F5"/>
<path d="M304.129 260.895H307.566V264.332H304.129V260.895Z" fill="#F5F5F5"/>
<path d="M304.129 266.665H307.566V270.103H304.129V266.665Z" fill="#F5F5F5"/>
<path d="M304.129 272.435H307.566V275.873H304.129V272.435Z" fill="#F5F5F5"/>
<path d="M304.129 289.745H307.566V293.183H304.129V289.745Z" fill="#F5F5F5"/>
<path d="M304.129 295.515H307.566V298.953H304.129V295.515Z" fill="#F5F5F5"/>
<path d="M304.129 307.056H307.566V310.493H304.129V307.056Z" fill="#F5F5F5"/>
<path d="M304.129 312.826H307.566V316.264H304.129V312.826Z" fill="#F5F5F5"/>
<path d="M304.129 318.596H307.566V322.034H304.129V318.596Z" fill="#F5F5F5"/>
<path d="M304.129 324.366H307.566V327.804H304.129V324.366Z" fill="#F5F5F5"/>
<path d="M309.595 203.193H313.033V206.631H309.595V203.193Z" fill="#F5F5F5"/>
<path d="M309.595 208.963H313.033V212.401H309.595V208.963Z" fill="#F5F5F5"/>
<path d="M309.595 214.734H313.033V218.171H309.595V214.734Z" fill="#F5F5F5"/>
<path d="M309.595 220.504H313.033V223.941H309.595V220.504Z" fill="#F5F5F5"/>
<path d="M309.595 226.274H313.033V229.711H309.595V226.274Z" fill="#F5F5F5"/>
<path d="M309.595 232.044H313.033V235.482H309.595V232.044Z" fill="#F5F5F5"/>
<path d="M309.595 237.814H313.033V241.252H309.595V237.814Z" fill="#F5F5F5"/>
<path d="M309.595 243.584H313.033V247.022H309.595V243.584Z" fill="#F5F5F5"/>
<path d="M309.595 249.354H313.033V252.792H309.595V249.354Z" fill="#F5F5F5"/>
<path d="M309.595 255.125H313.033V258.562H309.595V255.125Z" fill="#F5F5F5"/>
<path d="M309.595 260.895H313.033V264.332H309.595V260.895Z" fill="#F5F5F5"/>
<path d="M309.595 266.665H313.033V270.103H309.595V266.665Z" fill="#F5F5F5"/>
<path d="M309.595 272.435H313.033V275.873H309.595V272.435Z" fill="#F5F5F5"/>
<path d="M309.595 278.205H313.033V281.643H309.595V278.205Z" fill="#F5F5F5"/>
<path d="M309.595 289.745H313.033V293.183H309.595V289.745Z" fill="#F5F5F5"/>
<path d="M309.595 301.286H313.033V304.723H309.595V301.286Z" fill="#F5F5F5"/>
<path d="M309.595 307.056H313.033V310.493H309.595V307.056Z" fill="#F5F5F5"/>
<path d="M309.595 312.826H313.033V316.264H309.595V312.826Z" fill="#F5F5F5"/>
<path d="M309.595 318.596H313.033V322.034H309.595V318.596Z" fill="#F5F5F5"/>
<path d="M309.595 324.366H313.033V327.804H309.595V324.366Z" fill="#F5F5F5"/>
<path d="M276.384 236.102H279.822V239.54H276.384V236.102Z" fill="#F5F5F5"/>
<path d="M276.384 241.872H279.822V245.31H276.384V241.872Z" fill="#F5F5F5"/>
<path d="M276.384 247.643H279.822V251.08H276.384V247.643Z" fill="#F5F5F5"/>
<path d="M276.384 253.413H279.822V256.85H276.384V253.413Z" fill="#F5F5F5"/>
<path d="M276.384 259.183H279.822V262.621H276.384V259.183Z" fill="#F5F5F5"/>
<path d="M276.384 264.953H279.822V268.391H276.384V264.953Z" fill="#F5F5F5"/>
<path d="M276.384 282.263H279.822V285.701H276.384V282.263Z" fill="#F5F5F5"/>
<path d="M276.384 288.033H279.822V291.471H276.384V288.033Z" fill="#F5F5F5"/>
<path d="M276.384 293.804H279.822V297.242H276.384V293.804Z" fill="#F5F5F5"/>
<path d="M276.384 299.574H279.822V303.012H276.384V299.574Z" fill="#F5F5F5"/>
<path d="M276.384 305.344H279.822V308.782H276.384V305.344Z" fill="#F5F5F5"/>
<path d="M276.384 311.114H279.822V314.552H276.384V311.114Z" fill="#F5F5F5"/>
<path d="M276.384 316.884H279.822V320.322H276.384V316.884Z" fill="#F5F5F5"/>
<path d="M281.85 236.102H285.288V239.54H281.85V236.102Z" fill="#F5F5F5"/>
<path d="M281.85 241.872H285.288V245.31H281.85V241.872Z" fill="#F5F5F5"/>
<path d="M281.85 247.643H285.288V251.08H281.85V247.643Z" fill="#F5F5F5"/>
<path d="M281.85 253.413H285.288V256.85H281.85V253.413Z" fill="#F5F5F5"/>
<path d="M281.85 259.183H285.288V262.621H281.85V259.183Z" fill="#F5F5F5"/>
<path d="M281.85 264.953H285.288V268.391H281.85V264.953Z" fill="#F5F5F5"/>
<path d="M281.85 282.263H285.288V285.701H281.85V282.263Z" fill="#F5F5F5"/>
<path d="M281.85 288.033H285.288V291.471H281.85V288.033Z" fill="#F5F5F5"/>
<path d="M281.85 293.804H285.288V297.242H281.85V293.804Z" fill="#F5F5F5"/>
<path d="M281.85 299.574H285.288V303.012H281.85V299.574Z" fill="#F5F5F5"/>
<path d="M281.85 305.344H285.288V308.782H281.85V305.344Z" fill="#F5F5F5"/>
<path d="M281.85 311.114H285.288V314.552H281.85V311.114Z" fill="#F5F5F5"/>
<path d="M281.85 322.654H285.288V326.092H281.85V322.654Z" fill="#F5F5F5"/>
<path d="M463.458 210.689H466.896V214.127H463.458V210.689Z" fill="#F5F5F5"/>
<path d="M463.458 216.46H466.896V219.898H463.458V216.46Z" fill="#F5F5F5"/>
<path d="M463.458 222.23H466.896V225.668H463.458V222.23Z" fill="#F5F5F5"/>
<path d="M463.458 228H466.896V231.438H463.458V228Z" fill="#F5F5F5"/>
<path d="M463.458 233.77H466.896V237.208H463.458V233.77Z" fill="#F5F5F5"/>
<path d="M463.458 239.54H466.896V242.978H463.458V239.54Z" fill="#F5F5F5"/>
<path d="M463.458 245.31H466.896V248.748H463.458V245.31Z" fill="#F5F5F5"/>
<path d="M463.458 251.08H466.896V254.518H463.458V251.08Z" fill="#F5F5F5"/>
<path d="M463.458 256.851H466.896V260.288H463.458V256.851Z" fill="#F5F5F5"/>
<path d="M463.458 262.621H466.896V266.059H463.458V262.621Z" fill="#F5F5F5"/>
<path d="M463.458 268.391H466.896V271.829H463.458V268.391Z" fill="#F5F5F5"/>
<path d="M463.458 279.931H466.896V283.369H463.458V279.931Z" fill="#F5F5F5"/>
<path d="M463.458 285.701H466.896V289.139H463.458V285.701Z" fill="#F5F5F5"/>
<path d="M463.458 291.471H466.896V294.909H463.458V291.471Z" fill="#F5F5F5"/>
<path d="M463.458 297.241H466.896V300.679H463.458V297.241Z" fill="#F5F5F5"/>
<path d="M463.458 303.012H466.896V306.449H463.458V303.012Z" fill="#F5F5F5"/>
<path d="M463.458 308.782H466.896V312.22H463.458V308.782Z" fill="#F5F5F5"/>
<path d="M463.458 314.552H466.896V317.99H463.458V314.552Z" fill="#F5F5F5"/>
<path d="M463.458 320.322H466.896V323.76H463.458V320.322Z" fill="#F5F5F5"/>
<path d="M468.925 210.689H472.362V214.127H468.925V210.689Z" fill="#F5F5F5"/>
<path d="M468.925 216.46H472.362V219.898H468.925V216.46Z" fill="#F5F5F5"/>
<path d="M468.925 222.23H472.362V225.668H468.925V222.23Z" fill="#F5F5F5"/>
<path d="M468.925 228H472.362V231.438H468.925V228Z" fill="#F5F5F5"/>
<path d="M468.925 233.77H472.362V237.208H468.925V233.77Z" fill="#F5F5F5"/>
<path d="M468.925 239.54H472.362V242.978H468.925V239.54Z" fill="#F5F5F5"/>
<path d="M468.925 245.31H472.362V248.748H468.925V245.31Z" fill="#F5F5F5"/>
<path d="M468.925 251.08H472.362V254.518H468.925V251.08Z" fill="#F5F5F5"/>
<path d="M468.925 256.851H472.362V260.288H468.925V256.851Z" fill="#F5F5F5"/>
<path d="M468.925 262.621H472.362V266.059H468.925V262.621Z" fill="#F5F5F5"/>
<path d="M468.925 268.391H472.362V271.829H468.925V268.391Z" fill="#F5F5F5"/>
<path d="M468.925 274.161H472.362V277.599H468.925V274.161Z" fill="#F5F5F5"/>
<path d="M468.925 279.931H472.362V283.369H468.925V279.931Z" fill="#F5F5F5"/>
<path d="M468.925 285.701H472.362V289.139H468.925V285.701Z" fill="#F5F5F5"/>
<path d="M468.925 291.471H472.362V294.909H468.925V291.471Z" fill="#F5F5F5"/>
<path d="M468.925 297.241H472.362V300.679H468.925V297.241Z" fill="#F5F5F5"/>
<path d="M468.925 303.012H472.362V306.449H468.925V303.012Z" fill="#F5F5F5"/>
<path d="M468.925 308.782H472.362V312.22H468.925V308.782Z" fill="#F5F5F5"/>
<path d="M468.925 314.552H472.362V317.99H468.925V314.552Z" fill="#F5F5F5"/>
<path d="M468.925 320.322H472.362V323.76H468.925V320.322Z" fill="#F5F5F5"/>
<path d="M436.538 233.163H439.976V236.6H436.538V233.163Z" fill="#F5F5F5"/>
<path d="M436.538 238.933H439.976V242.371H436.538V238.933Z" fill="#F5F5F5"/>
<path d="M436.538 244.703H439.976V248.141H436.538V244.703Z" fill="#F5F5F5"/>
<path d="M436.538 250.473H439.976V253.911H436.538V250.473Z" fill="#F5F5F5"/>
<path d="M436.538 256.243H439.976V259.681H436.538V256.243Z" fill="#F5F5F5"/>
<path d="M436.538 262.013H439.976V265.451H436.538V262.013Z" fill="#F5F5F5"/>
<path d="M436.538 267.783H439.976V271.221H436.538V267.783Z" fill="#F5F5F5"/>
<path d="M436.538 273.553H439.976V276.991H436.538V273.553Z" fill="#F5F5F5"/>
<path d="M436.538 279.324H439.976V282.762H436.538V279.324Z" fill="#F5F5F5"/>
<path d="M436.538 285.094H439.976V288.532H436.538V285.094Z" fill="#F5F5F5"/>
<path d="M442.005 233.163H445.442V236.6H442.005V233.163Z" fill="#F5F5F5"/>
<path d="M442.005 238.933H445.442V242.371H442.005V238.933Z" fill="#F5F5F5"/>
<path d="M442.005 244.703H445.442V248.141H442.005V244.703Z" fill="#F5F5F5"/>
<path d="M442.005 250.473H445.442V253.911H442.005V250.473Z" fill="#F5F5F5"/>
<path d="M442.005 256.243H445.442V259.681H442.005V256.243Z" fill="#F5F5F5"/>
<path d="M442.005 262.013H445.442V265.451H442.005V262.013Z" fill="#F5F5F5"/>
<path d="M442.005 267.783H445.442V271.221H442.005V267.783Z" fill="#F5F5F5"/>
<path d="M442.005 273.553H445.442V276.991H442.005V273.553Z" fill="#F5F5F5"/>
<path d="M442.005 279.324H445.442V282.762H442.005V279.324Z" fill="#F5F5F5"/>
<path d="M409.474 74.9263H415.256V337.036H409.474V74.9263Z" fill="#EBEBEB"/>
<path d="M300.8 74.9263H306.582V337.036H300.8V74.9263Z" fill="#EBEBEB"/>
<path d="M192.127 74.9263H197.91V337.036H192.127V74.9263Z" fill="#EBEBEB"/>
<path d="M104.555 357.457C104.361 356.242 100.109 326.869 108.636 316.75C109.484 315.683 110.558 314.816 111.78 314.213C113.003 313.611 114.344 313.286 115.706 313.264C132.895 312.863 135.252 326.626 135.264 326.809L133.235 327.124C133.163 326.626 131.122 314.977 115.755 315.317C114.683 315.33 113.628 315.584 112.667 316.059C111.707 316.534 110.865 317.219 110.204 318.062C102.271 327.501 106.559 356.85 106.559 357.153L104.555 357.457Z" fill="#E0E0E0"/>
<path d="M103.51 356.121L101.457 356.048C101.457 355.781 102.137 329.02 88.9572 323.492C76.0321 318.087 70.2255 329.214 69.9825 329.688L68.1483 328.765C68.2211 328.631 75.036 315.402 89.7468 321.61C104.239 327.671 103.547 354.955 103.51 356.121Z" fill="#E0E0E0"/>
<path d="M103.571 358.222C103.571 357.796 103.45 315.474 95.2013 303.096C87.2689 291.203 74.4896 296.803 73.9551 297.022L73.1047 295.151C73.2505 295.09 87.9977 288.579 96.902 301.929C105.503 314.818 105.624 356.424 105.624 358.197L103.571 358.222Z" fill="#E0E0E0"/>
<path d="M118.16 314.285C118.16 314.285 110.653 317.054 112.888 323.577C115.124 330.101 138.86 340.864 138.86 340.864C138.86 340.864 148.797 331.753 139.674 316.933C130.551 302.113 118.367 309.608 118.16 314.285Z" fill="#E0E0E0"/>
<path d="M94.8245 300.861C94.8245 300.861 100.157 300.29 99.6836 297.047C99.2098 293.804 79.0326 285.446 67.0064 298.954C67.0064 298.954 74.6594 312.122 85.7502 312.317C96.841 312.511 94.8245 300.861 94.8245 300.861Z" fill="#E0E0E0"/>
<path d="M89.3582 322.545C89.3582 322.545 93.0025 319.581 89.0666 318.135C85.1308 316.69 65.6216 317.091 65.4151 336.357C65.4151 336.357 88.0948 340.135 90.9252 332.785C93.7556 325.436 89.3582 322.545 89.3582 322.545Z" fill="#E0E0E0"/>
<path d="M122.193 396.754H87.0016L83.1994 358.222H125.996L122.193 396.754Z" fill="#EBEBEB"/>
<path d="M127.866 362.461H81.3164V353.958H127.866V362.461Z" fill="#E0E0E0"/>
<path d="M502.828 357.457C503.023 356.242 507.274 326.869 498.747 316.75C497.899 315.683 496.826 314.816 495.603 314.213C494.381 313.611 493.04 313.286 491.677 313.264C474.488 312.863 472.131 326.626 472.119 326.809L474.148 327.124C474.221 326.626 476.261 314.977 491.628 315.317C492.7 315.33 493.755 315.584 494.716 316.059C495.677 316.534 496.518 317.219 497.18 318.062C505.112 327.501 500.824 356.85 500.824 357.153L502.828 357.457Z" fill="#E0E0E0"/>
<path d="M503.873 356.121L505.926 356.048C505.926 355.781 505.245 329.02 518.425 323.492C531.351 318.087 537.157 329.214 537.4 329.688L539.234 328.765C539.161 328.631 532.347 315.402 517.636 321.61C503.144 327.671 503.836 354.955 503.873 356.121Z" fill="#E0E0E0"/>
<path d="M503.812 358.222C503.812 357.796 503.933 315.474 512.182 303.096C520.114 291.203 532.893 296.803 533.428 297.022L534.278 295.151C534.133 295.09 519.385 288.579 510.481 301.929C501.881 314.842 501.698 356.448 501.698 358.222H503.812Z" fill="#E0E0E0"/>
<path d="M489.222 314.285C489.222 314.285 496.73 317.054 494.494 323.577C492.259 330.101 468.523 340.864 468.523 340.864C468.523 340.864 458.586 331.753 467.709 316.933C476.832 302.113 489.016 309.608 489.222 314.285Z" fill="#E0E0E0"/>
<path d="M512.558 300.861C512.558 300.861 507.225 300.29 507.699 297.046C508.173 293.803 528.423 285.47 540.34 298.954C540.34 298.954 532.687 312.122 521.596 312.316C510.505 312.51 512.558 300.861 512.558 300.861Z" fill="#E0E0E0"/>
<path d="M518.025 322.545C518.025 322.545 514.38 319.581 518.316 318.135C522.252 316.69 541.761 317.091 541.968 336.357C541.968 336.357 519.288 340.135 516.458 332.785C513.627 325.436 518.025 322.545 518.025 322.545Z" fill="#E0E0E0"/>
<path d="M485.19 396.754H520.394L524.184 358.222H481.387L485.19 396.754Z" fill="#EBEBEB"/>
<path d="M479.517 353.97H526.066V362.474H479.517V353.97Z" fill="#E0E0E0"/>
<path d="M303.691 452.573C173.611 452.573 68.1598 446.416 68.1598 438.822C68.1598 431.227 173.611 425.071 303.691 425.071C433.771 425.071 539.222 431.227 539.222 438.822C539.222 446.416 433.771 452.573 303.691 452.573Z" fill="#F5F5F5"/>
<path d="M302.908 187.643C302.908 187.643 305.009 191.895 306.552 192.502C308.095 193.11 322.538 171.681 322.538 171.681C322.937 170.571 323.52 169.536 324.263 168.62C325.296 167.515 330.847 165.51 333.058 165.595C335.269 165.68 336.702 169.458 337.455 171.171C338.209 172.884 337.662 173.382 334.358 174.39C331.054 175.399 329.171 176.82 327.069 175.046C327.069 175.046 314.994 202.646 308.301 203.326C299.555 204.225 294.125 190.802 294.125 190.802L302.908 187.643Z" fill="#E4897B"/>
<path d="M296.918 166.446C296.918 166.446 303.417 185.761 305.264 191.081C305.264 191.081 298.4 199.014 292.715 199.184L286.435 180.549L296.918 166.446Z" fill="#EE1C25"/>
<path opacity="0.2" d="M296.918 166.446C296.918 166.446 303.417 185.761 305.264 191.081C305.264 191.081 298.4 199.014 292.715 199.184L286.435 180.549L296.918 166.446Z" fill="white"/>
<path d="M279.839 432.562L281.163 426.561L281.394 415.738H290.444C291.416 412.409 294.088 414.268 294.088 414.268L295.303 424.253C297.599 426.306 302.98 428.468 310.135 430.023C311.727 430.376 311.229 434.226 307.329 434.226C303.43 434.226 294.914 433.935 292.096 433.935C287.516 433.935 284.807 434.154 281.163 434.214C281.062 434.227 280.96 434.227 280.859 434.214C280.684 434.173 280.518 434.097 280.372 433.992C280.226 433.886 280.102 433.753 280.007 433.6C279.912 433.446 279.849 433.276 279.82 433.098C279.791 432.92 279.798 432.738 279.839 432.562Z" fill="#263238"/>
<path d="M227.604 432.563L228.928 426.562L230.945 415.738H239.995C240.028 415.332 240.174 414.943 240.416 414.615C240.658 414.286 240.986 414.032 241.364 413.879C241.742 413.727 242.155 413.682 242.557 413.751C242.958 413.82 243.333 413.999 243.639 414.268L243.093 424.254C245.388 426.307 250.77 428.469 257.925 430.024C259.516 430.376 259.018 434.227 255.119 434.227C251.219 434.227 242.704 433.935 239.886 433.935C235.306 433.935 232.597 434.154 228.953 434.215C228.852 434.227 228.75 434.227 228.649 434.215C228.471 434.176 228.303 434.102 228.154 433.998C228.005 433.894 227.878 433.761 227.781 433.607C227.684 433.453 227.618 433.282 227.588 433.103C227.558 432.923 227.563 432.74 227.604 432.563Z" fill="#263238"/>
<path d="M228.782 422.079H244.866C244.866 422.079 261.678 336.451 263.026 326.988C263.84 321.23 265.529 265.618 265.735 262.969C266.683 265.618 280.507 321.169 280.507 321.169C280.507 321.169 277.895 388.224 279.499 419.565H296.019C296.019 419.565 302.944 355.705 301.401 321.169C299.068 269.043 288.038 221.886 286.763 214.901H237.492C230.446 247.627 237.395 327.874 237.395 327.874C237.395 327.874 230.908 390.799 228.782 422.079Z" fill="#263238"/>
<path d="M287.31 217.562L237.893 213.456L237.407 219.336L287.504 222.895L287.31 217.562Z" fill="black"/>
<path d="M253.992 212.115L255.76 212.261L254.892 222.709L253.124 222.562L253.992 212.115Z" fill="#263238"/>
<path d="M279.014 214.226L280.781 214.373L279.913 224.82L278.146 224.674L279.014 214.226Z" fill="#263238"/>
<path d="M264.869 214.669L274.009 215.429L273.462 222.015L264.322 221.255L264.869 214.669Z" fill="white"/>
<path d="M279.766 146.329C268.335 139.538 249.592 147.203 249.592 147.203C249.13 149.451 237.93 172.069 237.505 214.939L287.31 217.562C287.31 217.562 292.169 175.046 296.919 166.445C296.919 166.445 294.939 155.318 279.766 146.329Z" fill="#EE1C25"/>
<path opacity="0.4" d="M237.505 214.939L287.31 217.562C287.31 217.562 292.169 175.046 296.919 166.445C296.919 166.445 294.939 155.342 279.766 146.329C268.335 139.538 249.592 147.203 249.592 147.203C244.757 159.505 241.425 172.344 239.667 185.444C238.299 195.217 237.577 205.07 237.505 214.939Z" fill="white"/>
<path d="M285.925 145.09C285.122 146.184 284.695 147.51 284.71 148.868C285.029 149.893 285.631 150.807 286.447 151.504C285.094 152.376 283.562 152.932 281.965 153.131L275.757 150.301C275.757 150.301 272.672 149.633 271.882 148.54C271.226 147.641 270.522 146.754 269.939 145.806C269.647 145.311 269.392 144.795 269.173 144.264C270.801 144.219 272.354 143.574 273.534 142.454C276.219 139.429 280.544 126.929 280.544 126.929L291.173 138.311C291.173 138.311 290.93 138.554 290.553 138.992C288.842 140.891 287.294 142.931 285.925 145.09Z" fill="#E4897B"/>
<path opacity="0.2" d="M279.244 135.202C279.244 135.202 279.378 142.333 285.925 145.091C287.295 142.94 288.844 140.908 290.554 139.017C290.153 138.604 289.886 138.349 289.886 138.349L279.244 135.202Z" fill="black"/>
<path d="M308.313 115.827C308.313 115.827 307.038 128.339 299.446 131.315C291.853 134.291 297.648 111.879 297.648 111.879L308.313 115.827Z" fill="#263238"/>
<path d="M278.43 136.1C279.26 138.426 280.83 140.417 282.899 141.766C284.968 143.115 287.422 143.749 289.885 143.571C293.074 143.388 296.076 142.008 298.291 139.708C298.595 139.392 298.887 139.052 299.166 138.7C304.207 132.152 308.532 119.543 301.996 112.716C300.56 111.201 298.76 110.079 296.768 109.456C294.775 108.832 292.657 108.729 290.613 109.155C288.569 109.581 286.669 110.522 285.091 111.89C283.514 113.257 282.312 115.005 281.6 116.968C278.43 125.325 276.171 130.087 278.43 136.1Z" fill="#E4897B"/>
<path d="M292.959 124.803C292.79 125.041 292.721 125.336 292.766 125.624C292.812 125.912 292.968 126.172 293.202 126.346C293.651 126.553 294.235 126.164 294.526 125.496C294.818 124.828 294.708 124.135 294.283 123.953C293.858 123.771 293.263 124.135 292.959 124.803Z" fill="#263238"/>
<path d="M300.454 128.169C300.286 128.408 300.219 128.704 300.267 128.992C300.314 129.28 300.473 129.539 300.709 129.711C301.146 129.906 301.741 129.529 302.033 128.861C302.324 128.193 302.215 127.501 301.79 127.318C301.365 127.136 300.745 127.537 300.454 128.169Z" fill="#263238"/>
<path d="M297.927 127.379C297.808 129.761 298.021 132.149 298.559 134.473C297.955 134.594 297.333 134.582 296.735 134.437C296.137 134.293 295.577 134.019 295.097 133.635L297.927 127.379Z" fill="#DE5753"/>
<path d="M304.681 126.163C304.603 126.176 304.524 126.165 304.453 126.132C304.382 126.1 304.322 126.047 304.28 125.981C303.991 125.528 303.6 125.149 303.138 124.874C302.676 124.6 302.156 124.438 301.62 124.402C301.507 124.402 301.399 124.357 301.319 124.278C301.239 124.198 301.194 124.09 301.194 123.977C301.194 123.864 301.239 123.756 301.319 123.676C301.399 123.597 301.507 123.552 301.62 123.552C302.295 123.584 302.952 123.777 303.538 124.115C304.123 124.453 304.619 124.927 304.984 125.495C305.048 125.588 305.073 125.702 305.055 125.812C305.037 125.923 304.977 126.023 304.887 126.091L304.681 126.163Z" fill="#263238"/>
<path d="M292.813 121.135C292.736 121.094 292.672 121.031 292.631 120.953C292.614 120.9 292.608 120.845 292.613 120.79C292.618 120.735 292.634 120.681 292.66 120.633C292.686 120.584 292.722 120.541 292.765 120.506C292.808 120.472 292.857 120.446 292.91 120.431C293.559 120.229 294.247 120.184 294.916 120.3C295.586 120.417 296.218 120.69 296.761 121.099C296.839 121.178 296.883 121.285 296.883 121.396C296.883 121.508 296.839 121.614 296.761 121.694C296.682 121.772 296.575 121.815 296.464 121.815C296.352 121.815 296.246 121.772 296.166 121.694C295.727 121.384 295.222 121.179 294.691 121.097C294.16 121.015 293.617 121.057 293.105 121.22C293.001 121.227 292.898 121.196 292.813 121.135Z" fill="#263238"/>
<path d="M300.113 107.286L291.148 113.36C290.413 113.415 289.726 113.744 289.222 114.282C288.718 114.819 288.434 115.527 288.427 116.264C288.427 119.811 284.783 123.904 281.661 124.888C281.661 124.888 282.11 123.528 280.859 123.394C279.608 123.261 277.215 130.355 278.09 134.534C278.09 134.534 275.939 130.221 276.875 122.192C277.798 114.745 281.272 104.65 284.309 103.727C291.233 101.614 300.113 107.286 300.113 107.286Z" fill="#263238"/>
<path d="M275.041 122.058C275.118 124.308 276.083 126.435 277.726 127.974C279.924 130.003 282.366 128.363 282.901 125.544C283.35 123.115 282.803 118.985 280.034 118.037C279.428 117.833 278.781 117.785 278.152 117.898C277.524 118.01 276.933 118.279 276.435 118.679C275.938 119.08 275.549 119.6 275.306 120.19C275.062 120.781 274.971 121.423 275.041 122.058Z" fill="#E4897B"/>
<path d="M293.639 135.566C292.799 136.318 292.015 137.13 291.294 137.996C291.124 137.898 290.942 137.801 290.784 137.692C288.452 136.307 287.832 134.886 287.856 133.744C287.877 133.184 288.036 132.637 288.318 132.152C288.462 131.872 288.646 131.614 288.865 131.387C289.923 132.872 291.285 134.115 292.861 135.032L293.639 135.566Z" fill="#263238"/>
<path d="M292.861 135.08L292.145 135.785C289.958 134.461 288.597 133.234 288.318 132.141C288.462 131.86 288.646 131.602 288.865 131.375C289.916 132.882 291.279 134.146 292.861 135.08Z" fill="white"/>
<path d="M290.784 137.704C288.452 136.319 287.832 134.898 287.857 133.756C288.731 134.299 289.5 134.994 290.128 135.809C290.538 136.358 290.767 137.02 290.784 137.704Z" fill="#DE5753"/>
<path d="M308.313 115.826C308.313 116.87 305.471 119.3 301.523 119.251C297.575 119.203 302.58 117.538 302.58 117.538C302.58 117.538 294.988 116.688 295.206 115.777C295.425 114.866 298.012 114.562 298.012 114.562C298.012 114.562 291.368 114.562 287.468 111.38C283.569 108.197 295.06 104.698 300.114 107.261C305.167 109.825 308.156 112.643 308.313 115.826Z" fill="#263238"/>
<path d="M292.691 133.125C292.691 133.125 289.825 129.298 288.561 129.08C287.298 128.861 281.151 138.798 281.151 138.798C281.151 138.798 280.24 141.082 285.84 143.086C291.44 145.09 291.331 143.754 292.704 141.349C294.076 138.944 296.202 137.595 296.445 136.004C296.688 134.413 293.177 133.684 293.177 133.684L292.789 134.012C292.789 134.012 294.841 135.056 294.574 136.247C294.307 137.437 292.461 141.045 290.493 141.276C288.525 141.507 289.363 139.49 289.363 139.49L287.808 138.336C287.808 138.336 286.447 139.758 285.306 139.114C284.164 138.47 285.075 135.166 286.338 133.368C287.601 131.57 287.808 131.181 288.901 131.351C290.108 131.848 291.212 132.565 292.157 133.465L292.691 133.125Z" fill="#263238"/>
<path d="M300.156 129.328L304.134 130.863C304.384 130.96 304.509 131.241 304.412 131.492L303.756 133.192C303.659 133.442 303.378 133.567 303.128 133.47L299.15 131.935C298.899 131.838 298.775 131.557 298.871 131.307L299.527 129.607C299.624 129.356 299.905 129.232 300.156 129.328Z" stroke="#263238" strokeWidth="0.5" stroke-linecap="round" stroke-linejoin="round"/>
<path d="M292.319 126.299L296.297 127.834C296.547 127.93 296.672 128.212 296.575 128.462L295.919 130.162C295.822 130.412 295.541 130.537 295.291 130.44L291.313 128.905C291.063 128.809 290.938 128.527 291.034 128.277L291.69 126.577C291.787 126.327 292.068 126.202 292.319 126.299Z" stroke="#263238" strokeWidth="0.5" stroke-linecap="round" stroke-linejoin="round"/>
<path d="M299.19 130.476C298.89 129.993 298.441 129.62 297.911 129.414C297.381 129.208 296.798 129.18 296.251 129.334" stroke="#263238" strokeWidth="0.5" stroke-linecap="round" stroke-linejoin="round"/>
<path d="M278.053 150.775L273.996 140.486L267.12 142.903L270.898 156.63L278.223 151.99L281.175 159.619L288.27 152.318L285.22 146.438L278.053 150.775Z" fill="#EE1C25"/>
<path opacity="0.2" d="M278.053 150.775L273.996 140.486L267.12 142.903L270.898 156.63L278.223 151.99L281.175 159.619L288.27 152.318L285.22 146.438L278.053 150.775Z" fill="white"/>
<path opacity="0.1" d="M239.667 185.445C258.192 172.568 249.591 147.204 249.591 147.204C244.757 159.505 241.425 172.345 239.667 185.445Z" fill="black"/>
<path d="M338.293 171.11C342.679 172.045 354.498 193.729 355.98 193.559C360.341 193.037 360.123 181.411 362.552 182.626C363.312 183.076 363.938 183.721 364.365 184.494C364.792 185.267 365.005 186.141 364.982 187.024C364.982 187.024 364.326 197.859 360.123 201.88C352.749 208.974 338.257 185.578 338.257 185.578L338.293 171.11Z" fill="#EE1C25"/>
<path opacity="0.7" d="M338.293 171.11V185.687C338.293 185.687 352.445 208.598 359.892 202.196L360.123 201.989C364.301 197.969 364.982 187.133 364.982 187.133C365.005 186.25 364.792 185.377 364.365 184.603C363.938 183.83 363.312 183.185 362.552 182.735C360.244 181.521 360.329 191.943 356.612 193.45C356.411 193.537 356.198 193.595 355.98 193.62C354.498 193.778 342.679 172.094 338.293 171.11Z" fill="white"/>
<path opacity="0.2" d="M338.294 171.11V185.687C338.294 185.687 352.446 208.598 359.893 202.196C356.005 200.981 356.613 194.907 356.613 193.45C356.412 193.537 356.199 193.595 355.981 193.62C354.499 193.778 342.679 172.094 338.294 171.11Z" fill="black"/>
<path d="M348.219 233.974C348.219 233.974 360.597 299.96 363.901 327.049C368.226 362.399 385.864 414.063 385.864 414.063L378.806 415.885C378.806 415.885 353.928 371.947 349.081 332.419C329.317 292.016 327.726 242.259 327.726 242.259L348.219 233.974Z" fill="#EEC1BB"/>
<path d="M399.008 430.098C397.859 429.571 396.624 429.259 395.363 429.175C395.363 429.175 391.015 426.624 386.714 416.699H381.855C381.039 416.706 380.245 416.966 379.581 417.442C378.918 417.918 378.418 418.588 378.15 419.359C378.066 419.573 378.017 419.798 378.005 420.027C378.051 421.197 378.177 422.361 378.381 423.514C379.093 427.358 380.038 431.155 381.211 434.884L382.025 434.677L380.531 427.462C380.045 425.032 382.621 427.377 383.811 429.891C385.002 432.406 386.836 434.848 392.181 433.633C398.449 432.114 400.964 431.215 399.008 430.098Z" fill="#2E353A"/>
<path d="M335.366 232.917C335.366 232.917 333.823 300.045 331.455 327.231C328.369 362.703 334.941 416.942 334.941 416.942L327.652 417.27C327.652 417.27 312.407 369.117 315.772 329.454C304.839 285.832 313.525 236.829 313.525 236.829L335.366 232.917Z" fill="#EEC1BB"/>
<path d="M346.275 432.285C345.193 431.639 344.004 431.194 342.764 430.973C342.764 430.973 338.731 427.96 335.475 417.61L330.677 417.064C329.863 416.986 329.044 417.159 328.332 417.561C327.619 417.963 327.047 418.574 326.693 419.311C326.594 419.515 326.525 419.732 326.486 419.955C326.413 421.124 326.413 422.296 326.486 423.466C326.78 427.365 327.308 431.243 328.065 435.079L328.904 434.957L328.211 427.669C327.98 425.178 330.288 427.814 331.199 430.402C332.111 432.989 333.629 435.662 339.12 435.018C345.497 434.253 348.085 433.633 346.275 432.285Z" fill="#2E353A"/>
<path d="M351 223.977L376.268 362.582C376.268 362.582 318.761 369.445 299.264 365.437C299.264 365.437 294.49 265.51 314.837 226.079L351 223.977Z" fill="#EE1C25"/>
<path opacity="0.2" d="M351 223.977L376.268 362.582C376.268 362.582 318.761 369.445 299.264 365.437C299.264 365.437 294.49 265.51 314.837 226.079L351 223.977Z" fill="white"/>
<path d="M385.864 414.063C385.864 414.063 391.938 426.696 395.388 429.138C395.388 429.138 390.723 431.92 385.864 425.737C379.596 417.731 378.053 419.967 378.053 419.967C378.181 418.586 378.433 417.22 378.806 415.885C379.754 413.346 385.864 414.063 385.864 414.063Z" fill="#EEC1BB"/>
<path d="M334.2 414.063C334.2 414.063 335.912 418.74 338.196 423.879C339.244 426.543 340.795 428.98 342.764 431.058C342.764 431.058 338.804 432.345 336.69 429.843C334.576 427.341 330.883 418.376 326.777 419.408C326.997 418.678 327.303 417.977 327.688 417.319C328.272 416.25 334.2 414.063 334.2 414.063Z" fill="#EEC1BB"/>
<path d="M326.195 154.687C326.195 154.687 332.268 137.971 316.938 135.02C301.608 132.068 294.015 144.604 298.243 156.8C298.243 156.8 292.631 159.096 295.449 163.396C298.267 167.697 292.351 166.081 291.319 170.466C290.286 174.852 295.777 173.989 292.716 175.556C289.654 177.123 284.139 182.335 292.946 186.781C301.753 191.227 324.53 193.11 328.928 186.38C333.325 179.65 332.013 174.427 328.357 171.912C324.7 169.397 329.839 171.596 329.572 166.081C329.304 160.566 326.729 162.437 326.911 160.189C327.094 157.942 328.065 155.318 326.195 154.687Z" fill="#263238"/>
<path d="M300.369 196.292C302.665 200.265 304.535 203.715 306.114 206.836C309.979 214.221 313.014 222.011 315.164 230.063L349.421 220.539C345.279 195.891 341.622 182.663 339.472 176.115C337.164 169.142 336.01 169.13 336.01 169.13C336.01 169.13 328.114 170.138 321.433 171.718C316.268 173.074 311.206 174.795 306.285 176.868C301.596 178.778 297.053 181.027 292.691 183.598C293.979 185.651 295.182 187.619 296.336 189.465C297.793 191.907 299.13 194.191 300.369 196.292Z" fill="#EE1C25"/>
<path opacity="0.8" d="M292.691 183.598C293.898 185.501 295.02 187.319 296.056 189.052L296.311 189.465C297.186 190.911 298.012 192.296 298.802 193.632C299.324 194.555 299.859 195.43 300.344 196.292C300.515 196.584 300.697 196.876 300.843 197.155C302.932 200.799 304.645 203.958 306.09 206.873C307.985 210.578 309.455 213.822 310.682 216.883C311.071 217.83 311.435 218.766 311.775 219.689C312.188 220.843 312.577 221.985 312.99 223.127C313.889 225.787 314.314 227.16 315.177 230.099L349.445 220.576C345.291 195.94 341.634 182.699 339.484 176.152C337.176 169.191 336.022 169.167 336.022 169.167C336.022 169.167 328.126 170.175 321.445 171.754C316.282 173.105 311.224 174.827 306.309 176.905C301.613 178.802 297.062 181.039 292.691 183.598Z" fill="white"/>
<path d="M313.014 225.641L349.773 219.726L351.243 225.605L312.346 231.375L313.014 225.641Z" fill="#263238"/>
<path d="M340.067 223.114L340.273 225.933C340.306 226.464 340.142 226.989 339.812 227.408C339.483 227.827 339.012 228.11 338.488 228.204L334.102 228.921H333.908C333.358 228.96 332.814 228.796 332.377 228.459C331.928 228.091 331.637 227.565 331.563 226.989L331.357 224.171C331.314 223.621 331.48 223.075 331.822 222.643C332.165 222.21 332.658 221.923 333.203 221.839L337.589 221.134C337.89 221.086 338.198 221.1 338.493 221.178C338.788 221.255 339.063 221.393 339.302 221.584C339.524 221.776 339.706 222.01 339.837 222.272C339.969 222.535 340.047 222.821 340.067 223.114ZM339.144 226.005L339.071 225.082L337.856 225.264C337.67 225.272 337.488 225.211 337.344 225.092C337.201 224.974 337.107 224.806 337.079 224.622C337.052 224.438 337.094 224.25 337.197 224.095C337.3 223.94 337.457 223.829 337.637 223.782L338.852 223.6H339.022V223.175C339.011 223.029 338.97 222.886 338.901 222.756C338.832 222.627 338.737 222.513 338.621 222.422C338.413 222.253 338.148 222.17 337.88 222.191H337.795L333.41 222.896C333.145 222.935 332.904 223.073 332.737 223.283C332.571 223.493 332.49 223.758 332.511 224.025L332.718 226.844C332.728 226.99 332.77 227.133 332.839 227.262C332.908 227.392 333.003 227.506 333.118 227.597C333.234 227.691 333.369 227.759 333.514 227.797C333.658 227.835 333.809 227.841 333.957 227.815L338.342 227.099C338.591 227.049 338.815 226.912 338.971 226.711C339.127 226.51 339.206 226.26 339.192 226.005H339.144Z" fill="white"/>
<path d="M335.742 161.648L331.916 198.443C331.888 198.641 331.903 198.844 331.961 199.036C332.018 199.228 332.117 199.405 332.25 199.555C332.383 199.705 332.547 199.825 332.73 199.905C332.914 199.986 333.112 200.026 333.313 200.022H356.393C356.824 200.011 357.237 199.845 357.555 199.555C357.874 199.265 358.078 198.871 358.131 198.443L361.957 161.648C361.985 161.449 361.97 161.246 361.912 161.053C361.855 160.861 361.756 160.683 361.624 160.532C361.491 160.38 361.327 160.26 361.144 160.178C360.96 160.096 360.761 160.054 360.56 160.056H337.48C337.048 160.07 336.635 160.239 336.317 160.531C335.998 160.822 335.794 161.219 335.742 161.648Z" fill="#263238"/>
<path opacity="0.2" d="M336.957 161.648L333.131 198.443C333.103 198.641 333.118 198.844 333.175 199.036C333.233 199.228 333.332 199.405 333.465 199.555C333.597 199.705 333.761 199.825 333.945 199.905C334.128 199.986 334.327 200.026 334.528 200.022H356.393C356.824 200.011 357.237 199.845 357.555 199.555C357.874 199.265 358.078 198.871 358.131 198.443L361.957 161.648C361.985 161.449 361.97 161.246 361.912 161.053C361.855 160.861 361.756 160.683 361.624 160.532C361.491 160.38 361.327 160.26 361.144 160.178C360.96 160.096 360.761 160.054 360.56 160.056H338.694C338.263 160.07 337.85 160.239 337.531 160.531C337.213 160.822 337.009 161.219 336.957 161.648Z" fill="white"/>
<path opacity="0.6" d="M347.149 175.07C347.263 175.063 347.376 175.063 347.49 175.07C349.117 175.07 350.259 176.795 350.041 178.909C349.822 181.022 348.316 182.759 346.688 182.759C345.06 182.759 343.918 181.034 344.137 178.909C344.985 178.679 345.737 178.181 346.28 177.489C346.823 176.797 347.128 175.949 347.149 175.07Z" fill="white"/>
<path d="M358.289 175.58C358.289 175.58 365.128 179.82 364.946 182.152C364.848 183.367 364.618 186.926 363.33 187.436C361.168 188.299 355.142 183.379 355.276 182.723C355.41 182.067 355.993 176.054 358.289 175.58Z" fill="#EEC1BB"/>
<path d="M312.966 172.106C312.966 172.106 299.118 177.086 301.814 183.925C304.511 190.765 318.202 182.286 318.202 182.286L324.603 195.563L320.57 181.751C320.57 181.751 329.475 184.958 329.074 178.617C328.673 172.276 322.393 170.806 312.966 172.106Z" fill="white"/>
<path d="M305.264 164.563C306.051 165.556 306.727 166.631 307.281 167.77C308.605 170.479 309.71 174.439 307.378 177.926C307.378 177.926 310.585 180.817 318.882 180.015C318.882 180.015 322.283 176.48 319.854 173.674C319.854 173.674 318.639 173.917 317.509 172.338C316.693 171.127 316.146 169.756 315.906 168.317C315.624 166.943 315.442 165.55 315.359 164.15L305.264 164.563Z" fill="#EEC1BB"/>
<path opacity="0.2" d="M305.264 164.563C306.051 165.556 306.727 166.631 307.28 167.77C308.494 169.296 310.056 170.508 311.837 171.303C313.617 172.098 315.562 172.453 317.509 172.338C316.693 171.127 316.146 169.756 315.905 168.317C315.624 166.943 315.441 165.55 315.359 164.15L305.264 164.563Z" fill="black"/>
<path d="M315.639 139.902C324.252 140.826 326.572 145.745 326.195 154.686C325.794 165.862 322.478 173.479 311.97 169.956C297.685 165.157 301.329 138.311 315.639 139.902Z" fill="#EEC1BB"/>
<path d="M320.631 153.605C321.185 154.964 321.898 156.253 322.757 157.444C322.458 157.777 322.073 158.022 321.645 158.15C321.216 158.279 320.76 158.287 320.327 158.173L320.631 153.605Z" fill="#D4827D"/>
<path d="M315.481 152.33C315.481 153.034 314.995 153.544 314.521 153.544C314.048 153.544 313.72 152.9 313.768 152.184C313.817 151.467 314.266 150.969 314.74 150.969C315.214 150.969 315.542 151.674 315.481 152.33Z" fill="#263238"/>
<path d="M314.558 150.993L316.161 150.52C316.161 150.52 315.25 151.746 314.558 150.993Z" fill="#263238"/>
<path d="M324.276 152.888C324.215 153.605 323.778 154.103 323.304 154.103C322.83 154.103 322.502 153.459 322.563 152.743C322.624 152.026 323.049 151.528 323.522 151.528C323.996 151.528 324.373 152.22 324.276 152.888Z" fill="#263238"/>
<path d="M323.364 151.589L324.968 151.115C324.968 151.115 324.081 152.342 323.364 151.589Z" fill="#263238"/>
<path d="M316.039 146.377C315.368 146.218 314.668 146.217 313.996 146.373C313.324 146.529 312.697 146.838 312.164 147.276" stroke="#263238" strokeWidth="0.72468" stroke-linecap="round" stroke-linejoin="round"/>
<path d="M322.344 146.681C322.948 146.594 323.564 146.647 324.145 146.834C324.726 147.022 325.256 147.339 325.696 147.762" stroke="#263238" strokeWidth="0.72468" stroke-linecap="round" stroke-linejoin="round"/>
<path d="M318.809 161.392C318.296 162.323 317.849 163.289 317.472 164.283L316.926 164.161C314.496 163.639 313.476 162.582 313.136 161.562C312.989 161.061 312.96 160.533 313.051 160.019C313.097 159.725 313.183 159.439 313.306 159.169C314.695 160.168 316.281 160.859 317.958 161.197C318.481 161.392 318.809 161.392 318.809 161.392Z" fill="#263238"/>
<path d="M317.959 161.234L317.546 162.085C315.214 161.574 313.634 160.87 313.051 160.056C313.098 159.762 313.183 159.476 313.306 159.206C314.696 160.204 316.282 160.896 317.959 161.234Z" fill="white"/>
<path d="M316.926 164.198C314.496 163.676 313.476 162.619 313.136 161.598C314.079 161.813 314.976 162.196 315.784 162.728C316.312 163.083 316.713 163.598 316.926 164.198Z" fill="#DE5753"/>
<path d="M304.657 153.399C304.657 153.399 309.443 146.754 309.431 141.252C309.431 141.252 327.251 136.125 326.219 153.545C326.219 153.545 329.547 138.336 314.776 136.393C300.004 134.449 297.769 156.12 304.681 163.409C304.681 163.385 301.681 157.566 304.657 153.399Z" fill="#263238"/>
<path d="M305.872 155.379C305.895 154.371 305.518 153.395 304.824 152.665C304.13 151.934 303.174 151.508 302.167 151.479C299.47 151.479 297.612 156.824 304.099 158.865C305.034 159.157 305.678 158.282 305.872 155.379Z" fill="#EEC1BB"/>
<path d="M308.411 141.094C308.411 141.094 317.048 139.879 318.433 142.381C319.817 144.884 326.45 143.778 326.584 150.581C326.584 150.581 329.888 141.762 320.886 139.028C311.885 136.295 308.411 141.094 308.411 141.094Z" fill="#263238"/>
<path opacity="0.2" d="M297.101 213.056L296.433 213.554L297.125 213.081L297.101 213.056Z" fill="black"/>
<path opacity="0.2" d="M296.068 189.052L296.323 189.465C297.198 190.91 298.024 192.295 298.814 193.631C299.336 194.555 299.87 195.429 300.356 196.292C300.526 196.583 300.709 196.875 300.854 197.154C302.944 200.799 304.657 203.957 306.102 206.872C307.997 210.577 309.467 213.821 310.694 216.882C315.091 210.286 314.46 191.724 314.46 191.724H311.399C311.399 191.724 307.22 200.021 305.325 200.422C303.43 200.823 297.186 187.57 297.186 187.57L296.068 189.052Z" fill="black"/>
<path d="M308.909 194.191L311.059 190.024C311.022 189.063 311.196 188.105 311.569 187.218C312.104 186.501 323.073 185.347 324.591 185.286C326.11 185.226 325.102 193.049 324.591 193.79C324.081 194.531 315.311 194.677 314.108 193.79L312.347 197.774L308.909 194.191Z" fill="#EEC1BB"/>
<path d="M292.692 183.598C287.262 187.57 290.262 216.907 298.766 218.34C307.014 219.725 314.145 196.025 314.145 196.025L308.945 192.466C308.945 192.466 302.471 207.274 300.734 206.667C297.733 205.622 298.851 193.632 298.851 193.632C298.411 191.575 297.847 189.547 297.162 187.558C296.166 184.922 292.692 183.598 292.692 183.598Z" fill="#EE1C25"/>
<path opacity="0.7" d="M292.692 183.598C287.262 187.57 290.262 216.907 298.766 218.34C307.014 219.725 314.145 196.025 314.145 196.025L308.945 192.466C308.945 192.466 302.471 207.274 300.734 206.667C297.733 205.622 298.851 193.632 298.851 193.632C298.411 191.575 297.847 189.547 297.162 187.558C296.166 184.922 292.692 183.598 292.692 183.598Z" fill="white"/>
<path d="M254.451 167.867C254.451 167.867 254.852 180.61 256.783 184.813C258.715 189.016 284.893 175.58 284.893 175.58C285.968 174.646 287.141 173.832 288.391 173.151C289.946 172.434 301.414 172.957 303.126 174.366C304.839 175.775 301.632 182.602 301.632 182.602C301.632 182.602 290.444 184.412 288.27 184.181C287.574 184.057 286.913 183.786 286.33 183.386C285.748 182.986 285.258 182.466 284.893 181.861C284.893 181.861 265.457 193.231 258.496 193.401C251.535 193.571 247.794 189.453 245.486 173.758L254.451 167.867Z" fill="#E4897B"/>
<path d="M249.591 147.203C255.276 144.118 256.783 173.151 256.783 173.151L244.283 180.148C244.283 180.148 238.027 153.459 249.591 147.203Z" fill="#EE1C25"/>
<path opacity="0.2" d="M249.591 147.203C255.276 144.118 256.783 173.151 256.783 173.151L244.283 180.148C244.283 180.148 238.027 153.459 249.591 147.203Z" fill="white"/>
</svg>
