<svg width="351" height="371" viewBox="0 0 351 371" fill="none" xmlns="http://www.w3.org/2000/svg">
<path d="M48.512 349.98C49.6946 348.969 52.3206 345.764 50.298 342.045C49.5478 340.675 47.9738 340.006 46.5466 339.403C45.0883 338.902 43.7136 338.184 42.4689 337.274C40.2343 335.374 39.6227 332.226 38.1384 329.69C36.4421 326.786 33.2452 324.617 29.9178 324.797C26.0848 324.976 22.8879 328.108 21.4363 331.68C19.9846 335.252 19.9357 339.215 19.9031 343.097C19.9031 345.234 19.9846 347.64 21.5341 349.075C22.9776 350.404 25.1469 350.421 27.1042 350.364L48.0309 349.646" fill="#F5F5F5"/>
<path d="M8.42017 292.33H63.5259L53.5927 351.546C53.3897 352.781 52.8395 353.933 52.0063 354.867C51.173 355.802 50.0912 356.48 48.887 356.822L48.6913 356.871C48.5282 356.912 48.3732 356.969 48.202 357.002C47.8336 357.075 47.46 357.118 47.0847 357.132V357.189L46.8156 357.14H22.2353C20.5653 357.139 18.9504 356.542 17.6812 355.457C16.412 354.372 15.5717 352.869 15.3115 351.219L10.5243 310.443L10.3041 308.812L8.40387 292.656L8.42017 292.33ZM18.8182 330.073H24.4781L23.9072 312.881H17.3829L18.8182 330.073ZM16.8039 312.946H11.3806L13.4031 330.073H18.2963L16.8039 312.946ZM32.9678 349.156L33.3103 334.224H25.155L25.6524 349.156H32.9678ZM41.7755 334.224H33.8567L33.5142 349.156H40.6093L41.7755 334.224ZM41.1639 349.156H47.8024C48.4303 345.127 49.254 339.883 50.1429 334.224H42.322L41.1639 349.156ZM42.0936 330.073L43.4311 312.946H34.346L33.9546 330.138L42.0936 330.073ZM33.4 330.073L33.7996 312.946H24.4536L25.0245 330.138L33.4 330.073ZM33.8975 308.763L34.2645 292.843H23.7848L24.315 308.763H33.8975ZM34.4439 308.763H43.7492L44.9888 292.843H34.8109L34.4439 308.763ZM44.2956 308.763H54.1472C54.4979 306.561 54.8241 304.481 55.1259 302.613C56.1535 296.179 56.5368 293.757 56.7569 292.827H45.5433L44.2956 308.763ZM43.9775 312.84L42.64 330.073H50.7954C51.0727 328.327 51.3445 326.568 51.6109 324.796C52.247 320.718 52.8831 316.681 53.4866 312.881L43.9775 312.84ZM51.3173 330.032H56.6346L59.5461 312.946H54.0494C53.2094 318.231 52.2796 324.144 51.3418 330.073L51.3173 330.032ZM50.673 334.109C49.8575 339.28 49.042 344.369 48.3325 349.042H53.4377L55.9496 334.109H50.673ZM25.0815 349.042L24.5922 334.109H19.1445L20.4248 349.042H25.0815ZM23.7441 308.681L23.214 292.762H15.6132L16.9752 308.681H23.7441ZM57.2462 292.762C57.0342 293.912 56.023 300.175 54.6773 308.681H60.2637L62.9305 292.762H57.2462ZM15.6132 349.034H19.8948L18.6225 334.101H13.8843L15.6132 349.034ZM10.8749 308.673H16.4206L15.0668 292.754H9.00736L10.8749 308.673Z" fill="#E0E0E0"/>
<path d="M293.132 297.859H332.808V308.355H293.132V297.859Z" fill="#EBEBEB"/>
<path d="M309.907 319.414C309.915 319.352 309.915 319.289 309.907 319.226V318.656C309.907 318.158 309.907 317.473 309.907 316.584C309.907 314.774 309.907 312.172 309.973 308.885L309.85 309.008L349.526 309.089C349.436 309 349.73 309.293 349.33 308.885V319.365L349.526 319.169L321.251 319.259L312.908 319.316H310.649H310.062H309.85H310.038H310.633H312.851L321.145 319.373L349.559 319.463H349.779V308.934L349.575 308.73L309.899 308.812H309.818V308.934C309.818 312.254 309.875 314.88 309.883 316.706C309.883 317.579 309.883 318.264 309.883 318.745C309.883 318.957 309.883 319.129 309.883 319.267C309.887 319.317 309.896 319.366 309.907 319.414Z" fill="#E0E0E0"/>
<path d="M15.6704 253.209C15.6763 253.144 15.6763 253.078 15.6704 253.013V252.475C15.6704 251.986 15.6704 251.292 15.6704 250.412C15.6704 248.601 15.7112 245.991 15.7357 242.713L15.6134 242.835L55.2891 242.909L55.0934 242.713V253.193L55.2973 252.989L27.0227 253.078L18.6716 253.136H16.4126H15.8254H15.6134H15.8009H16.3637H18.5819L26.8841 253.193L55.3707 253.413H55.5664V242.729L55.3625 242.525L15.6867 242.599H15.5644V242.721C15.5644 246.032 15.6215 248.666 15.6378 250.493C15.6378 251.366 15.6378 252.043 15.6378 252.532V253.046C15.6453 253.101 15.6562 253.155 15.6704 253.209Z" fill="#E0E0E0"/>
<path d="M10.2958 242.713C10.2958 242.713 10.2958 242.639 10.2958 242.509C10.2958 242.378 10.2958 242.175 10.2958 241.954C10.2958 241.441 10.2958 240.731 10.2958 239.85C10.2958 238.007 10.3448 235.406 10.3774 232.209L10.2306 232.356L34.0687 232.413C34.2481 232.592 33.824 232.168 33.8648 232.217V237.599C33.8648 239.361 33.8648 241.065 33.8648 242.697L34.0605 242.501L17.0077 242.591L12.0411 242.648H10.6954H10.2224C10.3662 242.661 10.5109 242.661 10.6547 242.648H11.9514L16.8446 242.705L34.0279 242.794H34.2236V237.51C34.2236 236.637 34.2236 235.748 34.2236 234.843V232.209L34.0197 232.005L10.1817 232.062H10.0349V232.209C10.0349 235.471 10.092 238.072 10.1164 239.94C10.1164 240.813 10.1164 241.498 10.1164 242.011C10.161 242.249 10.2209 242.483 10.2958 242.713Z" fill="#E0E0E0"/>
<path d="M302.478 192.672C302.481 192.609 302.481 192.547 302.478 192.484C302.478 192.346 302.478 192.166 302.478 191.946C302.478 191.448 302.478 190.763 302.478 189.883C302.478 188.072 302.478 185.462 302.551 182.176L302.429 182.298L342.104 182.38L341.901 182.176V187.501C341.901 189.252 341.901 190.973 341.901 192.664L342.096 192.468L313.822 192.558L305.471 192.615H303.22H302.624H302.478C302.478 192.615 302.535 192.615 302.657 192.615H303.22H305.438L313.74 192.672L342.153 192.761H342.349V187.395C342.349 186.523 342.349 185.642 342.349 184.753V182.07L342.145 181.874L302.478 182.053H302.347V182.176C302.347 185.495 302.404 188.121 302.421 189.956C302.421 190.829 302.421 191.505 302.421 191.995C302.421 192.207 302.421 192.37 302.421 192.509C302.421 192.647 302.478 192.68 302.478 192.672Z" fill="#E0E0E0"/>
<path d="M297.079 182.176C297.086 182.11 297.086 182.045 297.079 181.98C297.079 181.825 297.079 181.645 297.079 181.425C297.079 180.903 297.079 180.202 297.079 179.321C297.079 177.478 297.128 174.877 297.161 171.68L297.014 171.826L320.917 171.859L320.713 171.655V174.387C320.713 175.284 320.713 176.181 320.713 177.054C320.713 178.816 320.713 180.512 320.713 182.143L320.901 181.955L303.848 182.045L298.881 182.094H297.544H297.063C297.207 182.106 297.351 182.106 297.495 182.094H298.792L303.685 182.151L320.868 182.241H321.064V182.045C321.064 180.414 321.064 178.718 321.064 176.956V171.557C321.064 171.606 320.681 171.174 320.86 171.353L297.022 171.411H296.875V171.557C296.875 174.819 296.932 177.421 296.957 179.28C296.957 180.153 296.957 180.846 296.957 181.352C296.976 181.629 297.017 181.905 297.079 182.176Z" fill="#E0E0E0"/>
<path d="M221.022 11.4599C221.028 11.3948 221.028 11.3293 221.022 11.2642V10.7259C221.022 10.2366 221.022 9.54337 221.022 8.66259C221.022 6.8521 221.063 4.24239 221.095 0.963941L220.965 1.08627L260.641 1.16783C260.551 1.06996 260.844 1.36355 260.445 0.963941V11.4599L260.649 11.2642L232.374 11.3539L224.023 11.4109H221.764H221.177H220.965H221.152H221.715H223.933L232.236 11.468L260.649 11.5577H260.885V0.980251L260.681 0.776367L221.006 0.857921H220.924V0.980251C220.924 4.29132 220.981 6.9255 220.997 8.7523C220.997 9.62492 220.997 10.3018 220.997 10.7911V11.3049C221.003 11.357 221.011 11.4087 221.022 11.4599Z" fill="#E0E0E0"/>
<path d="M0.0692142 356.986C0.0692142 357.1 77.7734 357.198 173.615 357.198C269.457 357.198 347.177 357.075 347.177 356.986C347.177 356.896 269.489 356.774 173.615 356.774C77.7408 356.774 0.0692142 356.847 0.0692142 356.986Z" fill="#263238"/>
<path d="M168.82 334.199C168.82 334.199 172.148 311.299 171.87 297.973C171.593 284.647 171.87 269.658 171.87 269.658H170.362C170.362 269.658 171.397 296.106 170.272 312.066C169.146 328.026 166.194 334.208 166.194 334.208H168.861" fill="#263238"/>
<path d="M158.895 243.895C159.134 243.081 159.625 242.365 160.298 241.848C161.268 241.228 162.541 241.481 163.633 241.848C168.266 243.479 172.384 252.132 174.235 256.683L168.078 277.422C156.987 267.138 155.062 253.616 158.895 243.895Z" fill="#455A64"/>
<path d="M160.657 242.688C160.673 242.781 160.703 242.872 160.747 242.957C160.82 243.153 160.926 243.405 161.048 243.707C161.317 244.368 161.693 245.338 162.149 246.488C163.055 248.845 164.204 252.14 165.24 255.85C166.276 259.561 166.977 262.978 167.418 265.466C167.63 266.713 167.801 267.717 167.907 268.418C167.956 268.744 167.997 269.013 168.037 269.233C168.049 269.327 168.068 269.42 168.095 269.511C168.107 269.416 168.107 269.32 168.095 269.225C168.095 269.013 168.046 268.744 168.013 268.41C167.931 267.708 167.793 266.697 167.597 265.449C166.556 258.932 164.786 252.553 162.321 246.431C161.848 245.265 161.44 244.319 161.146 243.683C160.999 243.381 160.885 243.136 160.796 242.941C160.76 242.851 160.713 242.766 160.657 242.688Z" fill="#263238"/>
<path d="M170.835 282.421C173.639 280.83 175.986 278.542 177.649 275.779C179.312 273.016 180.234 269.872 180.327 266.648C180.548 262.049 179.129 257.531 177.53 253.208C177.434 252.816 177.203 252.469 176.878 252.23C176.616 252.138 176.335 252.112 176.06 252.155C175.786 252.197 175.526 252.307 175.304 252.474C171.112 254.864 168.567 259.415 167.214 264.047C166.252 267.122 165.936 270.362 166.284 273.564C166.808 276.933 168.411 280.04 170.851 282.421" fill="#455A64"/>
<path d="M170.835 282.421C170.846 282.329 170.846 282.236 170.835 282.143C170.835 281.94 170.835 281.67 170.835 281.328C170.835 280.635 170.835 279.632 170.917 278.4C171.081 275.195 171.441 272.003 171.993 268.842C172.629 265.123 173.404 261.796 173.975 259.39C174.26 258.216 174.489 257.253 174.66 256.544L174.839 255.769C174.867 255.679 174.883 255.586 174.888 255.492C174.847 255.575 174.814 255.663 174.79 255.753L174.57 256.519C174.374 257.188 174.113 258.15 173.804 259.349C173.184 261.747 172.384 265.058 171.74 268.801C171.186 271.98 170.851 275.192 170.737 278.416C170.737 279.656 170.737 280.659 170.737 281.352C170.737 281.67 170.737 281.94 170.737 282.168C170.762 282.255 170.794 282.34 170.835 282.421Z" fill="#263238"/>
<g opacity="0.3">
<path d="M170.835 282.421C173.639 280.83 175.986 278.542 177.649 275.779C179.312 273.016 180.234 269.872 180.327 266.648C180.548 262.049 179.129 257.531 177.53 253.208C177.434 252.816 177.203 252.469 176.878 252.23C176.616 252.138 176.335 252.112 176.06 252.155C175.786 252.197 175.526 252.307 175.304 252.474C171.112 254.864 168.567 259.415 167.214 264.047C166.252 267.122 165.936 270.362 166.284 273.564C166.808 276.933 168.411 280.04 170.851 282.421" fill="#404041"/>
</g>
<path d="M164.327 317.465C158.618 318.713 153.969 322.717 148.489 324.666C144.86 325.955 140.758 326.411 137.887 328.948C138.556 327.194 140.187 325.995 141.818 325.025C146.328 322.206 151.143 319.907 156.171 318.174C158.748 317.285 161.546 316.543 164.172 317.269" fill="#455A64"/>
<path d="M172.539 322.521C179.65 322.407 187.137 316.355 194.216 315.996C186.811 313.607 176.201 315.564 172.539 322.521Z" fill="#455A64"/>
<path d="M169.758 305.46C166.09 304.257 162.179 303.991 158.382 304.685C154.605 305.382 150.892 306.391 147.282 307.703C147.649 305.256 149.647 303.38 151.523 301.733C152.898 300.453 154.392 299.306 155.984 298.308C157.586 297.309 159.438 296.785 161.326 296.799C162.459 296.873 163.566 297.175 164.581 297.686C165.595 298.198 166.496 298.908 167.23 299.776C168.674 301.351 169.561 303.356 169.758 305.484" fill="#455A64"/>
<path d="M184.356 297.606C188.833 293.781 195.619 294.157 201.482 294.287C192.028 298.798 183.11 304.357 174.896 310.859C174.668 306.699 178.696 302.434 184.356 297.606Z" fill="#455A64"/>
<g opacity="0.3">
<path d="M184.356 297.606C188.833 293.781 195.619 294.157 201.482 294.287C192.028 298.798 183.11 304.357 174.896 310.859C174.668 306.699 178.696 302.434 184.356 297.606Z" fill="#404041"/>
</g>
<path d="M167.744 292.33C165.558 290.812 163.253 289.473 160.853 288.325C158.496 287.257 156.302 285.553 154.027 284.313C151.074 282.682 148.514 280.496 145.806 278.514C143.098 276.533 140.097 274.747 136.835 274.217C139.554 273.738 142.347 273.903 144.99 274.698C147.633 275.493 150.21 276.494 152.697 277.691C156.188 279.265 159.743 280.879 162.598 283.399C165.452 285.919 168.037 288.48 167.736 292.297" fill="#455A64"/>
<path d="M148.62 322.521C148.698 322.5 148.772 322.467 148.84 322.423L149.46 322.105C149.998 321.82 150.765 321.396 151.735 320.906C152.214 320.651 152.744 320.379 153.325 320.091C153.896 319.805 154.516 319.528 155.169 319.275C156.581 318.64 158.046 318.129 159.548 317.75C161.038 317.336 162.607 317.297 164.115 317.636C164.774 317.777 165.42 317.97 166.048 318.215C166.59 318.44 167.111 318.713 167.605 319.031C168.327 319.49 168.987 320.038 169.571 320.662C169.979 321.11 170.183 321.379 170.199 321.363C170.215 321.347 170.199 321.29 170.068 321.151C169.938 321.012 169.84 320.833 169.644 320.596C169.077 319.943 168.424 319.37 167.703 318.892C167.206 318.57 166.679 318.297 166.129 318.076C165.493 317.817 164.835 317.612 164.164 317.465C162.622 317.107 161.016 317.141 159.491 317.563C157.975 317.945 156.498 318.466 155.079 319.12C154.418 319.406 153.798 319.699 153.228 319.993C152.657 320.286 152.127 320.547 151.654 320.808C150.691 321.314 149.933 321.763 149.411 322.073L148.816 322.44C148.685 322.464 148.612 322.513 148.62 322.521Z" fill="#263238"/>
<path d="M177.84 318.998C177.685 319.021 177.534 319.065 177.391 319.128C176.996 319.275 176.61 319.444 176.233 319.634C173.728 320.901 171.66 322.889 170.296 325.343C170.086 325.707 169.9 326.086 169.742 326.476C169.675 326.617 169.626 326.765 169.595 326.917C169.636 326.917 169.905 326.338 170.451 325.432C171.879 323.068 173.904 321.122 176.323 319.789C177.245 319.283 177.856 319.039 177.84 318.998Z" fill="#263238"/>
<path d="M193.58 297.247L193.278 297.337L192.463 297.639L191.117 298.136C190.595 298.332 190.024 298.617 189.38 298.903C186.03 300.442 182.9 302.422 180.075 304.791C178.542 306.108 177.101 307.527 175.761 309.04C174.674 310.282 173.651 311.577 172.694 312.922C171.879 314.072 171.267 315.034 170.843 315.695C170.647 316.013 170.484 316.266 170.354 316.461C170.294 316.546 170.243 316.636 170.199 316.73C170.199 316.73 170.272 316.657 170.403 316.486C170.533 316.315 170.704 316.078 170.925 315.752C171.373 315.108 172.009 314.162 172.841 313.028C173.673 311.894 174.709 310.581 175.932 309.195C177.28 307.703 178.718 306.295 180.238 304.979C183.039 302.639 186.121 300.658 189.413 299.082C190.049 298.789 190.612 298.495 191.133 298.267L192.455 297.737L193.27 297.386C193.378 297.351 193.482 297.304 193.58 297.247Z" fill="#263238"/>
<path d="M159.083 301.464C159.275 301.457 159.466 301.432 159.653 301.39L160.306 301.268C160.559 301.219 160.852 301.219 161.178 301.186C162.483 301.068 163.798 301.24 165.028 301.692C166.257 302.143 167.372 302.862 168.29 303.796C168.83 304.331 169.308 304.925 169.717 305.566C170.091 306.162 170.418 306.787 170.696 307.433C170.676 307.243 170.63 307.056 170.557 306.879C170.374 306.391 170.145 305.921 169.872 305.476C169.479 304.804 169.002 304.185 168.453 303.633C167.528 302.656 166.386 301.909 165.12 301.453C163.854 300.997 162.498 300.844 161.162 301.007C160.866 301.031 160.572 301.072 160.281 301.129L159.629 301.292C159.44 301.324 159.256 301.382 159.083 301.464Z" fill="#263238"/>
<path d="M151.93 279.281L152.199 279.452L153.015 279.876C153.7 280.251 154.695 280.798 155.902 281.507C157.109 282.217 158.52 283.138 160.02 284.19C161.664 285.338 163.204 286.629 164.62 288.048C165.353 288.777 165.987 289.599 166.504 290.494C166.969 291.383 167.417 292.248 167.825 293.08C168.562 294.544 169.221 296.047 169.799 297.581C170.189 298.614 170.51 299.671 170.761 300.746C170.949 301.512 171.014 301.936 171.038 301.936C171.051 301.831 171.051 301.724 171.038 301.618C171.038 301.414 170.973 301.113 170.891 300.729C170.674 299.638 170.376 298.564 170.003 297.516C169.446 295.969 168.8 294.455 168.07 292.982C167.662 292.166 167.254 291.277 166.757 290.38C166.234 289.463 165.589 288.621 164.84 287.877C163.412 286.449 161.856 285.155 160.192 284.011C158.675 282.934 157.239 282.07 156.024 281.36C154.809 280.651 153.798 280.145 153.088 279.803L152.273 279.411C152.166 279.351 152.05 279.307 151.93 279.281Z" fill="#263238"/>
<path d="M171.878 300.819C171.944 300.626 171.99 300.426 172.017 300.224C172.107 299.783 172.204 299.229 172.335 298.593C173.001 294.976 174.136 291.461 175.711 288.138C175.98 287.534 176.217 287.02 176.404 286.613C176.498 286.43 176.574 286.239 176.633 286.042C176.506 286.205 176.399 286.383 176.315 286.572C176.127 286.923 175.858 287.428 175.548 288.064C173.87 291.362 172.725 294.904 172.156 298.56C172.041 299.262 171.96 299.824 171.919 300.191C171.884 300.399 171.871 300.609 171.878 300.819Z" fill="#263238"/>
<path d="M172.392 284.639C172.616 281.944 173.405 279.326 174.708 276.957C176.463 273.696 178.91 270.859 181.879 268.645C184.848 266.432 188.265 264.895 191.892 264.145L175.981 287.852L173.925 292.085C172.631 289.831 172.093 287.221 172.392 284.639Z" fill="#455A64"/>
<path d="M149.574 331.362H186.566V337.918H149.574V331.362Z" fill="#EE1C25"/>
<path d="M183.802 336.621L180.654 356.961H156.098L152.338 336.621H183.802Z" fill="#EE1C25"/>
<path d="M149.598 337.926C149.598 338 157.941 338.057 168.233 338.057C178.525 338.057 186.868 338 186.868 337.926C186.868 337.853 178.525 337.796 168.233 337.796C157.941 337.796 149.598 337.853 149.598 337.926Z" fill="#263238"/>
<path d="M96.912 89.1998C96.7323 86.6504 96.2067 84.1373 95.3496 81.7293C94.4748 79.3083 92.8612 77.2227 90.7364 75.7667L90.2068 76.2958C90.0145 75.7464 89.6761 75.2597 89.2279 74.8878C88.7798 74.516 88.2388 74.273 87.6629 74.1849C87.087 74.0968 86.498 74.167 85.9589 74.3878C85.4199 74.6087 84.9513 74.972 84.6032 75.4387C83.9824 75.2777 83.3274 75.3081 82.7243 75.526C82.1211 75.7438 81.5981 76.1389 81.2239 76.6592C80.8497 77.1795 80.6418 77.8008 80.6277 78.4413C80.6136 79.0818 80.7938 79.7116 81.1447 80.2479C80.5619 80.3211 80.015 80.5692 79.5764 80.9594C79.1377 81.3496 78.8279 81.8636 78.6879 82.4334C78.5478 83.0032 78.5842 83.6021 78.7921 84.1508C79 84.6996 79.3697 85.1724 79.8524 85.5069C79.2179 86.0641 78.7646 86.7981 78.5508 87.6146C78.337 88.431 78.3724 89.2927 78.6526 90.0889C78.9327 90.8851 79.4447 91.5795 80.1228 92.0829C80.8009 92.5862 81.6142 92.8756 82.4582 92.9138C82.2746 93.6493 82.347 94.4253 82.6635 95.1141C82.9801 95.803 83.5218 96.3638 84.1998 96.7043C84.8777 97.0447 85.6515 97.1446 86.3938 96.9874C87.1361 96.8303 87.8028 96.4255 88.2842 95.8396C88.2728 96.6044 88.5227 97.3502 88.9925 97.9542C89.4623 98.5582 90.1241 98.9842 90.8688 99.1621C91.6197 99.3104 92.3957 99.268 93.1259 99.0387C93.856 98.8095 94.5168 98.4007 95.0477 97.85C96.1014 96.7296 96.7694 95.3023 96.9544 93.7762C97.1319 92.2549 97.1176 90.7175 96.912 89.1998Z" fill="#263238"/>
<path d="M85.6963 63.6455C83.421 64.3795 82.9561 66.2226 82.4831 67.7232C81.4637 71.0343 82.6054 75.9275 84.4567 78.8552C86.3079 81.783 88.3386 83.2673 91.7965 83.7485C91.8998 78.4964 92.0112 73.2416 92.1309 67.9842L85.6963 63.6455Z" fill="#EE1C25"/>
<path d="M84.4158 72.6901C83.665 71.6546 83.3019 70.3883 83.3898 69.1123C83.4778 67.8363 84.0112 66.6318 84.897 65.7091C83.902 64.4613 84.2609 62.5285 85.2721 61.2807C86.3806 60.1186 87.7387 59.2234 89.2438 58.6629C89.7121 56.8418 90.8614 55.2699 92.4548 54.2714C94.0481 53.2729 95.9638 52.924 97.8069 53.2967C99.7071 50.4994 103.76 50.0345 106.998 51.005C107.783 51.3009 108.607 51.4796 109.445 51.5351C110.048 51.4909 110.647 51.4065 111.239 51.2823C114.501 50.8419 117.812 53.1662 119.101 56.2326C119.269 56.7401 119.505 57.2228 119.802 57.6679C120.292 58.166 120.839 58.604 121.433 58.9728C122.03 59.4376 122.52 60.0257 122.869 60.6971C123.218 61.3684 123.418 62.1072 123.455 62.8629C123.504 64.1433 123.097 65.5052 123.635 66.6714C123.904 67.2586 124.393 67.7235 124.605 68.3025C125.217 70.0641 123.268 71.8582 123.627 73.685C123.7 74.0602 123.871 74.4109 123.969 74.7778C124.184 75.5321 124.114 76.3387 123.774 77.045C123.435 77.5391 123.191 78.0924 123.056 78.6761C123.089 79.1288 123.179 79.5755 123.325 80.0054C123.545 81.0982 121.196 85.3064 120.25 85.9018L92.0737 86.1546C91.0083 85.9138 90.0439 85.3483 89.3135 84.5361C88.5831 83.7239 88.1228 82.7051 87.996 81.6202C88.0117 81.2569 87.921 80.8969 87.735 80.5845C87.5189 80.3647 87.2572 80.1949 86.9684 80.087C85.1498 79.1083 84.9378 76.621 85.1253 74.5658C85.1697 74.2958 85.1697 74.0203 85.1253 73.7503C84.9621 73.353 84.7208 72.9925 84.4158 72.6901Z" fill="#263238"/>
<path d="M92.4817 72.7304C92.5131 70.0219 93.2723 67.3716 94.6799 65.0572C96.0874 62.7429 98.0915 60.8496 100.482 59.5759C102.742 58.521 105.191 57.9303 107.683 57.8388C109.989 57.6187 112.307 58.1051 114.33 59.2333C115.879 59.6003 121.572 64.8116 121.865 70.4633C122.2 76.7429 122.347 84.4252 121.556 89.1064C119.924 98.5095 112.723 99.6268 112.723 99.6268L113.4 115.261L99.5361 126.678L94.1209 108.581L92.4817 72.7304Z" fill="#FFBF9D"/>
<path d="M112.723 99.6266C108.275 99.6495 103.908 98.4384 100.107 96.1279C100.107 96.1279 103.369 102.807 112.829 102.024L112.723 99.6266Z" fill="#FF9A6C"/>
<path d="M93.9087 81.6772C93.9087 80.9759 93.0932 79.3122 92.4244 79.2306C90.5813 78.9207 87.2458 79.0349 87.1642 83.7324C87.0501 90.1506 93.5254 88.9436 93.5336 88.7561C93.5417 88.5685 93.8842 84.0994 93.9087 81.6772Z" fill="#FFBF9D"/>
<path d="M91.8047 86.3497C91.8047 86.3497 91.6905 86.4231 91.5029 86.5047C91.2413 86.6099 90.9491 86.6099 90.6874 86.5047C90.0187 86.2519 89.4641 85.159 89.4559 84.001C89.4441 83.4391 89.5584 82.8818 89.7903 82.3699C89.8582 82.1758 89.9712 82.0006 90.1201 81.8588C90.269 81.717 90.4494 81.6127 90.6466 81.5544C90.7765 81.523 90.9133 81.5376 91.0337 81.5955C91.1541 81.6535 91.2507 81.7513 91.3072 81.8724C91.3888 82.0519 91.3072 82.1823 91.3806 82.1905C91.454 82.1987 91.5192 82.0845 91.4703 81.8235C91.4381 81.6635 91.3517 81.5195 91.2257 81.4157C91.05 81.2782 90.8279 81.2139 90.6059 81.2363C90.3436 81.2899 90.0985 81.4072 89.8923 81.5778C89.6861 81.7485 89.525 81.9673 89.4233 82.215C89.1419 82.7678 88.9992 83.3807 89.0074 84.001C89.0074 85.2977 89.668 86.5128 90.5895 86.7983C90.7609 86.8524 90.9422 86.8673 91.12 86.8418C91.2979 86.8164 91.4678 86.7514 91.6171 86.6515C91.8047 86.5047 91.8047 86.3579 91.8047 86.3497Z" fill="#FF9A6C"/>
<path d="M123.244 69.5092C122.954 67.1778 122.185 64.9315 120.985 62.9115C120.257 61.4612 119.277 60.1522 118.089 59.0459C117.037 58.1983 115.877 57.4935 114.64 56.95C111.427 55.4249 107.838 54.1364 104.364 54.9193C102.505 55.429 100.742 56.2389 99.1446 57.317C97.8675 58.0384 96.6749 58.9001 95.5889 59.8859C94.686 60.8033 93.9098 61.8374 93.2809 62.9605C91.6664 65.5797 90.6862 68.54 90.4184 71.6051C90.2063 74.6634 87.8902 77.3628 89.6844 79.8502C90.8504 80.2223 92.0344 80.5353 93.232 80.7881C93.7539 81.0001 94.3248 80.4374 94.3166 79.8747C94.2855 79.5959 94.197 79.3267 94.0566 79.0838C93.9162 78.841 93.7271 78.6299 93.5011 78.4638C93.8927 78.3975 94.2442 78.1841 94.4837 77.8673C94.7232 77.5505 94.8326 77.1542 94.7896 76.7593C94.668 75.9685 94.326 75.228 93.8029 74.6226C93.73 74.5461 93.6818 74.4495 93.6642 74.3453C93.6642 74.0762 93.9333 73.9131 94.1698 73.7745C94.439 73.5899 94.6629 73.3467 94.8247 73.0632C94.9865 72.7797 95.082 72.4632 95.1039 72.1376C95.1259 71.8119 95.0738 71.4855 94.9516 71.1828C94.8294 70.8801 94.6402 70.6091 94.3982 70.39C94.7736 70.2847 95.124 70.1048 95.4284 69.8612C95.7328 69.6175 95.985 69.315 96.17 68.9717C96.3549 68.6285 96.4688 68.2514 96.5049 67.8632C96.541 67.4749 96.4985 67.0834 96.3799 66.7119C96.3171 66.6062 96.2761 66.4889 96.2593 66.3671C96.2425 66.2452 96.2502 66.1212 96.2821 66.0024C96.3535 65.9059 96.4438 65.8251 96.5476 65.7647C96.6514 65.7044 96.7664 65.666 96.8856 65.6517C97.7226 65.3671 98.4298 64.7916 98.8787 64.03C99.3277 63.2683 99.4886 62.3709 99.3322 61.5007C100.219 61.5935 101.115 61.5551 101.991 61.3865C102.43 61.2991 102.845 61.1185 103.208 60.8568C103.571 60.5951 103.873 60.2584 104.095 59.8696C104.38 60.3859 104.792 60.821 105.292 61.134C105.792 61.447 106.364 61.6274 106.953 61.6585C107.542 61.6895 108.129 61.57 108.659 61.3112C109.19 61.0525 109.645 60.663 109.983 60.1795C111.485 60.3246 112.998 60.092 114.387 59.5026C114.566 60.1996 114.916 60.8409 115.406 61.3679C115.896 61.8949 116.51 62.291 117.192 62.5201C117.453 62.6016 117.763 62.6913 117.886 62.936C117.953 63.1013 117.975 63.2813 117.951 63.458C117.902 64.355 118.514 64.7383 119.003 65.4886C119.492 66.2389 120.365 67.3481 121.229 67.1197C121.2 67.8283 121.373 68.5305 121.729 69.1443C122.084 69.7581 122.607 70.2581 123.236 70.5857L123.244 69.5092Z" fill="#263238"/>
<path d="M124.573 68.3346C124.501 68.0865 124.388 67.8521 124.238 67.6414C124.1 67.4294 123.912 67.1766 123.733 66.8259C123.53 66.4538 123.41 66.0419 123.382 65.6189C123.336 65.0762 123.336 64.5305 123.382 63.9878C123.471 63.3548 123.471 62.7125 123.382 62.0795C123.25 61.3544 122.973 60.6635 122.567 60.0488C122.328 59.7165 122.054 59.4103 121.751 59.1354C121.435 58.8536 121.097 58.5972 120.74 58.3688C120.376 58.1523 120.051 57.8767 119.777 57.5532C119.523 57.1767 119.32 56.7681 119.174 56.3381C118.409 54.4592 117.001 52.9129 115.202 51.975C114.711 51.7227 114.194 51.5232 113.661 51.3796C113.109 51.2417 112.542 51.1732 111.973 51.1758C111.684 51.1785 111.395 51.1976 111.108 51.2328C110.815 51.2328 110.537 51.3307 110.252 51.3796C109.684 51.4979 109.099 51.4979 108.531 51.3796C107.96 51.2573 107.398 51.0453 106.802 50.8903C105.6 50.5648 104.351 50.4408 103.108 50.5233C102.468 50.5717 101.835 50.681 101.216 50.8495C99.9327 51.1915 98.7908 51.9309 97.9537 52.9618L97.709 53.2717H97.8151C95.9479 52.9023 94.0102 53.2596 92.3976 54.2705C90.7849 55.2815 89.619 56.8698 89.1378 58.7113L89.1867 58.6461C88.4107 58.9917 87.6563 59.3839 86.9277 59.8204C86.2134 60.2427 85.5853 60.7961 85.0764 61.4515C84.6082 62.1001 84.3262 62.8643 84.2609 63.6616C84.174 64.4343 84.3871 65.2108 84.8562 65.8309V65.7249C83.9933 66.6065 83.4605 67.7586 83.3475 68.987C83.2349 70.0933 83.4595 71.2077 83.9917 72.1839C84.116 72.4069 84.2578 72.6196 84.4158 72.8201C84.5703 73.0051 84.7146 73.1984 84.8481 73.3991C84.9787 73.5874 85.0575 73.8068 85.0764 74.0352C85.0927 74.2551 85.0927 74.4759 85.0764 74.6958C84.9964 75.5104 85.0129 76.3316 85.1253 77.1424C85.2019 77.7971 85.4099 78.4295 85.737 79.0018C85.9814 79.4258 86.3223 79.7862 86.7319 80.0539C87.0581 80.274 87.3517 80.3638 87.5475 80.4861C87.6339 80.5383 87.711 80.6044 87.7758 80.6818C87.7196 80.593 87.6444 80.5178 87.5556 80.4616C87.4007 80.3311 87.1071 80.2414 86.789 80.0131C86.3944 79.7438 86.0677 79.3864 85.8348 78.9692C85.5194 78.4025 85.3198 77.7788 85.2477 77.1342C85.1543 76.3214 85.1543 75.5005 85.2477 74.6876C85.2685 74.457 85.2685 74.225 85.2477 73.9944C85.2247 73.7505 85.1436 73.5156 85.0112 73.3094C84.8807 73.1055 84.7176 72.9179 84.5708 72.7222C84.4208 72.5223 84.2846 72.3125 84.163 72.0942C83.6461 71.1425 83.4327 70.0554 83.5514 68.9789C83.6594 67.7771 84.1811 66.6501 85.0275 65.7901L85.0764 65.7412L85.0356 65.6841C84.5899 65.0945 84.391 64.3545 84.481 63.6208C84.5554 62.8531 84.8373 62.1201 85.2966 61.5004C85.7976 60.8684 86.4115 60.3347 87.1071 59.9264C87.8286 59.492 88.5778 59.1052 89.3498 58.7684V58.7195C89.8175 56.9262 90.9528 55.3794 92.5234 54.3955C94.0939 53.4116 95.9811 53.065 97.7988 53.4266H97.864V53.3777L98.0923 53.0678C98.9084 52.0784 100.011 51.3661 101.248 51.029C101.851 50.8598 102.468 50.7505 103.092 50.7027C103.708 50.6536 104.327 50.6536 104.943 50.7027C105.547 50.7629 106.144 50.8748 106.729 51.0371C107.316 51.1839 107.879 51.396 108.474 51.5183C108.769 51.5795 109.07 51.6122 109.371 51.6161C109.669 51.6109 109.967 51.5809 110.26 51.5264L111.076 51.3796C111.353 51.3796 111.638 51.3144 111.891 51.3144C112.441 51.3165 112.989 51.3849 113.522 51.5183C114.045 51.6508 114.551 51.8423 115.031 52.0892C115.957 52.5622 116.787 53.2038 117.478 53.9812C118.124 54.7003 118.638 55.5288 118.994 56.4278C119.171 56.8757 119.407 57.2981 119.696 57.6837C119.978 58.0298 120.317 58.3249 120.699 58.5563C121.05 58.78 121.382 59.0308 121.694 59.3066C121.984 59.5711 122.242 59.8696 122.461 60.1956C122.867 60.7923 123.145 61.4672 123.276 62.1773C123.377 62.7975 123.393 63.4285 123.325 64.0531C123.275 64.5956 123.275 65.1416 123.325 65.6841C123.359 66.1144 123.487 66.5319 123.7 66.9074C123.888 67.2336 124.083 67.4783 124.222 67.723C124.328 67.8794 124.424 68.0428 124.508 68.2123C124.548 68.2857 124.573 68.3346 124.573 68.3346Z" fill="#455A64"/>
<path d="M100.833 51.9098C100.833 51.9098 101.004 51.812 101.314 51.6652C101.757 51.4504 102.234 51.3152 102.725 51.2655C103.442 51.186 104.169 51.2986 104.829 51.5918C105.634 51.9595 106.302 52.5734 106.737 53.3452C106.869 53.5737 106.973 53.8174 107.047 54.071C107.088 54.1807 107.105 54.298 107.096 54.4148C107.088 54.5316 107.054 54.6452 106.998 54.7479L106.843 54.9681L107.096 54.8947C107.767 54.715 108.481 54.8058 109.086 55.1475C109.565 55.4195 109.943 55.8403 110.162 56.3463C110.312 56.6806 110.395 57.0406 110.407 57.4065C110.407 57.6593 110.407 57.8061 110.407 57.8061C110.41 57.7736 110.41 57.7408 110.407 57.7083C110.407 57.6349 110.407 57.537 110.407 57.4065C110.419 57.0273 110.352 56.6496 110.211 56.2974C109.996 55.7561 109.605 55.3025 109.102 55.0089C108.461 54.6363 107.7 54.5308 106.982 54.7153L107.088 54.8621C107.159 54.7399 107.203 54.6039 107.217 54.4632C107.231 54.3225 107.215 54.1804 107.169 54.0465C107.095 53.7622 106.985 53.4883 106.843 53.231C106.388 52.4241 105.684 51.7861 104.837 51.4123C104.145 51.1098 103.383 51.0054 102.635 51.1106C102.138 51.1789 101.657 51.3363 101.216 51.5755C101.097 51.6416 100.983 51.7152 100.873 51.7956C100.865 51.869 100.833 51.9017 100.833 51.9098Z" fill="#455A64"/>
<path d="M90.3531 59.201C90.3531 59.201 90.4265 59.2907 90.5814 59.4293C90.8022 59.625 91.0427 59.7972 91.2991 59.9431C91.6915 60.1671 92.1289 60.3008 92.5795 60.3346C93.1624 60.3914 93.7452 60.2253 94.2106 59.8697H94.0638C94.1309 59.9533 94.1935 60.0404 94.2514 60.1307L94.4715 60.3835C94.9188 60.8557 95.4807 61.2041 96.1026 61.3948C96.5924 61.5632 97.1108 61.6325 97.6277 61.5987C97.9743 61.5795 98.3157 61.5052 98.6389 61.3785C98.7591 61.3342 98.874 61.2768 98.9814 61.2072C98.5392 61.347 98.0821 61.4346 97.6195 61.4682C97.1227 61.4773 96.6282 61.3972 96.1597 61.2317C95.5841 61.0295 95.0643 60.6941 94.6428 60.253L94.4389 60.0165C94.3818 59.9268 94.3166 59.8453 94.2595 59.7637L94.2024 59.674L94.1209 59.7392C93.7044 60.0661 93.181 60.226 92.6529 60.1878C92.2232 60.1659 91.8032 60.0519 91.4214 59.8534C90.7038 59.4946 90.3776 59.1684 90.3531 59.201Z" fill="#455A64"/>
<path d="M86.9111 65.1296C86.9111 65.1296 86.9111 65.1704 86.9111 65.2438C86.9433 65.3554 86.9899 65.4623 87.0498 65.5618C87.2968 65.9136 87.6661 66.1608 88.0855 66.2551C88.7025 66.3704 89.3396 66.3052 89.9205 66.0675C90.2645 65.9556 90.6021 65.8249 90.9317 65.676C91.3174 65.5183 91.6351 65.2295 91.8288 64.8605L91.8696 64.7545L91.7146 64.8034C92.2855 65.2838 92.9263 65.6743 93.6148 65.9615C94.1852 66.1946 94.8091 66.2652 95.4172 66.1653C95.8236 66.0979 96.2057 65.9265 96.5263 65.6679C96.6134 65.5977 96.6926 65.5184 96.7628 65.4314C96.8117 65.3661 96.8362 65.3335 96.828 65.3335C96.8199 65.3335 96.7139 65.4395 96.4855 65.6026C96.1596 65.8279 95.7852 65.9732 95.3927 66.0267C94.8117 66.1092 94.2192 66.0302 93.6801 65.7983C93.0128 65.5071 92.3919 65.1197 91.837 64.6484L91.7391 64.5669L91.682 64.6974V64.7789C91.5042 65.1057 91.2147 65.3575 90.8665 65.4884C90.5403 65.6516 90.1978 65.7657 89.8797 65.8881C89.3266 66.1214 88.7199 66.1976 88.1263 66.1083C87.7332 66.0272 87.3811 65.8108 87.1313 65.4966C86.9601 65.2846 86.9111 65.1215 86.9111 65.1296Z" fill="#455A64"/>
<path d="M108.115 78.3816C108.129 78.69 108.021 78.9914 107.815 79.2214C107.61 79.4515 107.322 79.5921 107.014 79.6131C106.863 79.63 106.711 79.6167 106.565 79.574C106.42 79.5313 106.284 79.4601 106.167 79.3644C106.049 79.2687 105.951 79.1506 105.88 79.0169C105.808 78.8831 105.764 78.7365 105.75 78.5855C105.739 78.2755 105.848 77.9732 106.055 77.742C106.261 77.5109 106.55 77.3689 106.859 77.3459C107.01 77.329 107.163 77.3426 107.308 77.3859C107.454 77.4292 107.589 77.5013 107.706 77.5979C107.824 77.6945 107.92 77.8137 107.99 77.9483C108.06 78.0829 108.103 78.2303 108.115 78.3816Z" fill="#263238"/>
<path d="M119.419 77.8517C119.43 78.1616 119.321 78.464 119.114 78.6951C118.907 78.9263 118.619 79.0683 118.31 79.0913C118.013 79.1163 117.718 79.0233 117.489 78.8325C117.26 78.6417 117.115 78.3685 117.086 78.0719C117.073 77.7635 117.18 77.4621 117.386 77.232C117.592 77.0019 117.879 76.8614 118.187 76.8404C118.483 76.8173 118.777 76.9097 119.006 77.0982C119.236 77.2867 119.384 77.5567 119.419 77.8517Z" fill="#263238"/>
<path d="M119.631 73.9132C119.484 74.0763 118.562 73.4402 117.29 73.481C116.018 73.5217 115.096 74.1986 114.95 74.0437C114.803 73.8887 115.023 73.693 115.423 73.3831C115.961 72.9821 116.611 72.7571 117.282 72.7388C117.949 72.715 118.605 72.9035 119.158 73.2771C119.533 73.5625 119.704 73.8398 119.631 73.9132Z" fill="#263238"/>
<path d="M106.925 74.5495C106.762 74.6963 105.913 73.9705 104.633 73.8808C103.353 73.7911 102.382 74.3619 102.252 74.1988C102.121 74.0357 102.358 73.8563 102.79 73.5872C103.367 73.2427 104.037 73.0886 104.706 73.1468C105.372 73.1893 106.006 73.4436 106.517 73.8726C106.884 74.1988 106.998 74.4843 106.925 74.5495Z" fill="#263238"/>
<path d="M111.688 84.1483C112.354 83.9147 113.047 83.7667 113.751 83.7079C114.077 83.659 114.379 83.5856 114.428 83.3572C114.447 83.0215 114.361 82.6883 114.183 82.403C113.849 81.5875 113.498 80.772 113.139 79.9564C111.68 76.4578 110.619 73.5789 110.758 73.5219C110.897 73.4648 112.193 76.2539 113.645 79.7444C113.996 80.6089 114.33 81.4326 114.656 82.191C114.872 82.5809 114.944 83.0339 114.86 83.4714C114.816 83.5873 114.746 83.6915 114.656 83.7763C114.565 83.8611 114.457 83.9242 114.338 83.9607C114.161 84.0174 113.977 84.0503 113.792 84.0586C113.097 84.1787 112.39 84.2089 111.688 84.1483Z" fill="#263238"/>
<path d="M109.705 86.0486C109.463 86.0767 109.228 86.1542 109.016 86.2762C108.805 86.3982 108.62 86.5622 108.474 86.7581C108.306 87.0052 108.2 87.2889 108.165 87.5855C108.129 87.8821 108.165 88.1829 108.27 88.4626C108.507 88.7725 109.559 88.7725 110.284 88.6828C110.449 88.6611 110.604 88.5939 110.732 88.4887C110.861 88.3835 110.957 88.2445 111.01 88.0874L111.296 87.2719C111.337 87.1601 111.355 87.0412 111.349 86.9223C111.343 86.8033 111.314 86.6868 111.262 86.5795C111.21 86.4723 111.137 86.3765 111.048 86.2979C110.958 86.2193 110.854 86.1595 110.741 86.122C110.406 86.0192 110.052 85.9941 109.705 86.0486Z" fill="#FF9A6C"/>
<path d="M107.455 69.46C107.267 69.778 106.044 69.3703 104.543 69.2642C103.043 69.1582 101.762 69.3213 101.624 68.9788C101.567 68.8157 101.836 68.5384 102.382 68.3019C103.101 68.0125 103.878 67.898 104.649 67.9675C105.42 68.026 106.167 68.2663 106.827 68.6689C107.3 68.987 107.545 69.3132 107.455 69.46Z" fill="#263238"/>
<path d="M119.394 71.3438C119.182 71.67 118.13 71.5314 116.948 71.719C115.765 71.9065 114.746 72.2735 114.46 72.0044C114.33 71.8821 114.46 71.564 114.852 71.1889C115.407 70.7422 116.077 70.4597 116.784 70.3733C117.485 70.2665 118.202 70.354 118.856 70.6262C119.296 70.9116 119.484 71.1807 119.394 71.3438Z" fill="#263238"/>
<path d="M107.064 88.0706C107.064 88.1195 107.39 88.0706 107.879 87.9075C108.451 87.6919 109.045 87.5361 109.649 87.4426C109.981 87.3976 110.316 87.3758 110.652 87.3774C110.892 87.3429 111.137 87.3919 111.345 87.516C111.402 87.561 111.447 87.6197 111.476 87.6867C111.504 87.7537 111.516 87.8269 111.508 87.8993C111.508 88.0054 111.435 88.0624 111.451 88.0869C111.468 88.1114 111.574 88.0869 111.663 87.9564C111.714 87.8478 111.73 87.7263 111.71 87.6082C111.689 87.4901 111.633 87.3811 111.549 87.2958C111.304 87.0819 110.985 86.9709 110.66 86.9859C110.305 86.95 109.947 86.95 109.592 86.9859C108.953 87.0848 108.335 87.2917 107.765 87.5976C107.3 87.8585 107.047 88.0135 107.064 88.0706Z" fill="#263238"/>
<path d="M109.82 347.044V348.015C109.82 348.015 125.69 354.539 125.829 357.589L94.194 357.124L94.7812 346.604C97.1098 347.751 99.6578 348.384 102.253 348.46C104.847 348.536 107.428 348.053 109.82 347.044Z" fill="#263238"/>
<path d="M94.1941 357.091L94.3327 354.563L124.605 355.933C124.605 355.933 126 356.569 125.829 357.564L94.1941 357.091Z" fill="#455A64"/>
<path d="M109.926 348.071C109.926 348.226 109.11 348.283 108.376 348.773C107.642 349.262 107.194 349.898 107.055 349.833C106.917 349.768 107.161 348.879 108.099 348.308C109.037 347.737 109.959 347.933 109.926 348.071Z" fill="white"/>
<path d="M113.221 349.49C113.262 349.637 112.585 349.898 112.055 350.542C111.525 351.187 111.353 351.872 111.198 351.864C111.043 351.855 110.962 350.983 111.639 350.192C112.316 349.401 113.221 349.344 113.221 349.49Z" fill="white"/>
<path d="M115.048 353.487C114.909 353.487 114.705 352.745 115.113 351.905C115.521 351.065 116.255 350.738 116.312 350.869C116.369 350.999 115.929 351.448 115.602 352.141C115.276 352.834 115.203 353.479 115.048 353.487Z" fill="white"/>
<path d="M87.2052 337.502L100.67 341.27L97.3097 348.903L100.776 368.232C100.878 368.764 100.779 369.315 100.499 369.778C100.219 370.242 99.7772 370.586 99.2589 370.743C98.8578 370.858 98.4326 370.858 98.0317 370.742C97.6309 370.627 97.2705 370.401 96.9917 370.091C94.015 366.764 83.1276 354.441 83.3967 352.965L83.8289 348.944C83.9186 348.129 84.726 346.131 84.726 345.951L87.2052 337.502Z" fill="#263238"/>
<path d="M98.8838 370.849L83.5517 351.57L83.4702 352.451C83.4168 352.812 83.4448 353.18 83.5521 353.528C83.6593 353.877 83.8431 354.197 84.09 354.465C85.297 356.406 88.7222 360.81 96.951 370.123C97.1906 370.392 97.4916 370.598 97.8282 370.724C98.1648 370.85 98.527 370.893 98.8838 370.849Z" fill="#455A64"/>
<path d="M94.8387 361.308C95.4128 360.703 96.0964 360.214 96.8531 359.864C97.6634 359.633 98.5098 359.555 99.3486 359.636C99.3486 359.587 99.1121 359.399 98.6228 359.285C97.9804 359.15 97.3126 359.2 96.6981 359.432C96.0832 359.653 95.547 360.05 95.1568 360.574C94.8469 360.982 94.7898 361.283 94.8387 361.308Z" fill="white"/>
<path d="M96.1029 364.227C96.7436 363.948 97.3999 363.705 98.0683 363.501C98.7677 363.437 99.4704 363.415 100.172 363.436C100.246 363.33 99.259 362.8 97.9786 363.053C96.6982 363.306 95.9969 364.162 96.1029 364.227Z" fill="white"/>
<path d="M92.3428 357.491C93.2931 356.981 94.2799 356.543 95.295 356.178C96.3706 355.956 97.4608 355.812 98.5571 355.746C97.4707 355.358 96.2836 355.358 95.1971 355.746C93.3132 356.252 92.2449 357.418 92.3428 357.491Z" fill="white"/>
<path d="M97.4647 346.277C97.333 347.137 97.2812 348.008 97.3097 348.878C97.481 350.004 97.7093 351.431 97.9866 352.956C98.3046 354.799 98.6227 356.463 98.8674 357.654C98.9601 358.313 99.1213 358.961 99.3485 359.586C99.3516 358.92 99.2832 358.256 99.1447 357.605C98.9734 356.398 98.7043 354.726 98.378 352.891C98.1089 351.341 97.8398 349.914 97.6196 348.813C97.6442 347.965 97.5923 347.116 97.4647 346.277Z" fill="#455A64"/>
<path d="M78.2992 221.86C77.2391 216.73 74.556 207.473 75.608 203.208C78.0546 193.324 82.3688 187.607 88.2569 175.056H92.62L134.604 174.306L138.045 181.915C141.854 192.182 144.464 198.315 145.532 205.826C146.772 214.471 144.602 227.03 139.823 239.654C129.45 266.967 123.659 288.807 123.26 294.695C122.86 300.583 122.232 306.659 116.784 325.286C112.796 338.881 109.852 347.02 109.852 347.02C105.718 349.352 101.33 349.98 97.342 347.713L85.1579 343.007C85.1579 343.007 88.893 310.932 93.248 302.426C96.3878 296.302 101.518 293.39 99.128 285.406C96.7385 277.422 81.5614 237.575 78.2992 221.86Z" fill="#263238"/>
<path d="M127.436 195.958C127.436 195.958 127.37 196.023 127.264 196.17L126.799 196.814L125.03 199.342C123.472 201.569 121.221 204.815 118.367 208.909V208.95C118.693 212.538 118.815 216.697 119.036 221.329C119.256 225.962 119.5 231.067 119.761 236.547C120.022 242.028 120.349 247.883 120.675 254.016C121.001 260.149 121.352 266.567 121.963 273.165C122.608 278.653 123.17 284.044 122.697 289.231C122.59 290.514 122.415 291.791 122.175 293.056C121.968 294.295 121.665 295.516 121.27 296.709C120.406 299.042 119.394 301.293 118.432 303.486C114.558 312.253 110.929 320.091 107.912 326.68C104.894 333.27 102.407 338.611 100.702 342.306C99.8868 344.141 99.2099 345.568 98.7532 346.555L98.2557 347.664C98.1497 347.909 98.1007 348.047 98.1007 348.047C98.1007 348.047 98.1741 347.925 98.2965 347.68C98.4188 347.435 98.5982 347.052 98.8266 346.587L100.849 342.379C102.578 338.693 105.074 333.408 108.189 326.835C111.304 320.262 114.901 312.441 118.791 303.674C119.761 301.48 120.764 299.246 121.653 296.872C122.055 295.66 122.366 294.42 122.583 293.162C122.828 291.906 122.991 290.609 123.113 289.304C123.594 284.077 123.024 278.645 122.387 273.165C121.776 266.592 121.458 260.165 121.083 254.032C120.707 247.899 120.43 242.044 120.136 236.572C119.843 231.099 119.598 225.97 119.362 221.354C119.125 216.738 118.97 212.562 118.62 208.974V209.047C121.425 204.921 123.651 201.659 125.185 199.416L126.873 196.847L127.313 196.186C127.358 196.112 127.399 196.036 127.436 195.958Z" fill="#455A64"/>
<path d="M78.0386 131.987L89.1217 161.852L85.9004 178.734H138.91C138.91 178.734 132.712 163.402 132.5 159.879C132.288 156.355 135.273 135.926 133.601 129.035C131.929 122.144 127.077 107.358 127.077 107.358L113.009 105.115C106.533 108.59 101.444 108.011 94.4798 103.974L81.6759 110.27L78.0386 131.987Z" fill="#F5F5F5"/>
<path d="M126.751 107.334C126.751 107.334 131.032 108.247 134.09 114.486C137.149 120.725 148.77 147.809 149.235 152.368C149.7 156.927 145.973 163.059 142.768 163.908L132.981 154.162L124.875 154.888L114.2 105.083L126.751 107.334Z" fill="#EE1C25"/>
<g opacity="0.3">
<path d="M132.475 124.084C134.837 130.241 135.496 136.921 134.384 143.421L139.726 141.431C138.262 143.455 136.364 145.127 134.172 146.324C135.588 145.821 137.081 145.57 138.584 145.582C139.334 145.595 140.07 145.799 140.719 146.176C141.368 146.553 141.911 147.09 142.294 147.735C140.566 147.332 138.788 147.186 137.018 147.303C136.13 147.368 135.268 147.628 134.491 148.064C133.715 148.499 133.043 149.1 132.524 149.823C133.842 144.132 134.347 138.284 134.025 132.452" fill="#404041"/>
</g>
<path d="M123.684 147.27C123.754 147.148 123.806 147.016 123.839 146.879L124.206 145.713C124.516 144.644 124.948 143.185 125.478 141.39C126.008 139.596 126.644 137.313 127.346 134.866C127.749 133.58 128.084 132.273 128.349 130.952C128.615 129.576 128.862 128.143 129.091 126.654V126.474L128.928 126.417L126.432 125.553L123.847 124.664L123.896 125.047L128.504 122.429L128.65 122.34L128.585 122.176C127.086 118.672 125.401 115.25 123.537 111.925C122.885 110.677 122.387 109.682 122.053 108.997C121.896 108.634 121.714 108.282 121.506 107.945C121.526 108.047 121.559 108.146 121.604 108.239L121.93 109.054C122.232 109.756 122.689 110.775 123.317 112.031C124.54 114.567 126.522 118.017 128.21 122.323L128.292 122.079L123.692 124.713L123.284 124.949L123.741 125.104L126.31 125.993L128.756 126.849L128.618 126.621C128.389 128.097 128.153 129.533 127.892 130.911C127.631 132.289 127.264 133.561 126.93 134.801L125.152 141.325L123.994 145.68C123.88 146.161 123.782 146.553 123.7 146.863C123.684 146.998 123.679 147.134 123.684 147.27Z" fill="#263238"/>
<path d="M88.4281 161.6L74.1399 204.146C74.1399 204.146 85.0599 212.024 108.458 211.926L112.764 167.887L110.619 144.783L112.087 133.513L105.098 119.273L93.9656 100.076L91.8126 105.173L79.1799 110.539L77.1819 131.327L88.4281 161.6Z" fill="#EE1C25"/>
<path d="M125.438 166.395L133.357 210.426L148.093 206.69L136.35 166.395L134.409 154.553L128.912 158.973L125.438 166.395Z" fill="#EE1C25"/>
<g opacity="0.3">
<path d="M134.694 161.6L94.8877 165.539C97.7584 165.482 99.9684 167.904 102.448 169.347C107.047 172.006 112.772 171.264 118.024 170.432L131.073 168.385C132.188 168.318 133.259 167.92 134.148 167.243C135.599 165.881 135.2 163.524 134.694 161.6Z" fill="#404041"/>
</g>
<path d="M104.291 158.321L97.6277 151.886C97.3024 151.582 96.9155 151.352 96.4933 151.212C96.0711 151.071 95.6236 151.023 95.1811 151.071C93.2391 151.204 91.3076 151.463 89.399 151.845C88.5746 152.092 87.8386 152.57 87.2786 153.224C86.7815 154.445 86.3754 155.702 86.0634 156.983C86.0581 157.437 86.0936 157.89 86.1694 158.337C86.187 158.489 86.2416 158.635 86.3285 158.761C86.4154 158.888 86.532 158.991 86.668 159.062C86.8041 159.133 86.9554 159.169 87.1088 159.168C87.2621 159.167 87.4128 159.128 87.5477 159.055C87.8101 158.921 88.0282 158.714 88.1757 158.459C88.4011 158.132 88.5311 157.748 88.5508 157.35C88.5508 157.35 88.3388 160.213 90.6631 160.262C90.6631 160.262 89.5947 162.708 92.5959 163.703C92.5959 163.703 92.4817 165.294 94.9935 165.506C96.5841 165.631 98.182 165.631 99.7726 165.506C99.7726 165.506 104.364 168.768 107.594 169.012C110.823 169.257 118.073 167.781 118.073 167.781L118.946 154.455L104.291 158.321Z" fill="#FFBF9D"/>
<path d="M95.2627 154.243C94.9199 154.423 94.5625 154.573 94.1943 154.692C93.5256 154.936 92.5633 155.271 91.5357 155.556C91.0138 155.703 90.4837 155.785 90.0514 155.907C89.6652 156.032 89.3395 156.297 89.138 156.649C88.9929 156.893 88.8322 157.127 88.6569 157.35C88.5264 157.505 88.4367 157.571 88.4285 157.562C88.4204 157.554 88.4938 157.473 88.5998 157.31C88.7058 157.146 88.8526 156.894 89.032 156.584C89.1334 156.411 89.2568 156.252 89.399 156.111C89.5648 155.944 89.7694 155.821 89.9943 155.752C90.4674 155.613 90.9648 155.532 91.4949 155.385C92.5388 155.099 93.4767 154.79 94.1536 154.569C94.5145 154.433 94.8853 154.324 95.2627 154.243Z" fill="#FF9A6C"/>
<path d="M96.1191 158.329C95.8848 158.47 95.636 158.585 95.377 158.672C94.9121 158.859 94.2597 159.096 93.5339 159.34C92.8081 159.585 92.1312 159.789 91.65 159.919C91.386 160.009 91.1122 160.067 90.8345 160.091C91.0764 159.967 91.3306 159.868 91.5929 159.797L93.4605 159.177L95.3199 158.549C95.5777 158.448 95.8456 158.374 96.1191 158.329Z" fill="#FF9A6C"/>
<path d="M97.7666 162.121C97.7666 162.178 96.6085 162.3 95.2221 162.675C93.8357 163.051 92.7755 163.491 92.7755 163.491C92.9821 163.336 93.2101 163.213 93.4524 163.124C94.0214 162.878 94.6074 162.674 95.2058 162.512C95.805 162.349 96.4157 162.232 97.0326 162.162C97.2751 162.122 97.5212 162.108 97.7666 162.121Z" fill="#FF9A6C"/>
<path d="M113.204 168.597L142.768 163.883C142.768 163.883 139.22 149.048 134.033 149.048C133.275 149.048 107.015 157.579 107.015 157.579L113.204 168.597Z" fill="#EE1C25"/>
<path d="M108.034 162.17C107.786 161.978 107.554 161.765 107.341 161.534C106.884 161.085 106.33 160.547 105.71 159.903C105.09 159.259 104.519 158.704 104.128 158.272C103.902 158.052 103.699 157.808 103.524 157.546C103.771 157.741 104.002 157.953 104.217 158.182L105.849 159.813C106.477 160.433 107.039 161.012 107.431 161.444C107.657 161.664 107.859 161.907 108.034 162.17Z" fill="#FF9A6C"/>
<path d="M107.014 157.603C107.142 157.602 107.269 157.58 107.389 157.538L108.441 157.253L112.291 156.152C115.553 155.198 120.022 153.852 124.956 152.335L132.581 149.986H132.638L132.687 149.929C133.563 148.813 134.767 148 136.129 147.605C137.185 147.285 138.292 147.168 139.391 147.262C140.117 147.33 140.833 147.474 141.528 147.695C142.009 147.85 142.254 147.956 142.262 147.939C142.055 147.778 141.82 147.656 141.569 147.58C140.877 147.306 140.154 147.122 139.416 147.034C138.273 146.897 137.115 146.985 136.007 147.295C134.549 147.692 133.258 148.55 132.329 149.742L132.435 149.668L124.801 151.984C119.859 153.493 115.398 154.88 112.177 155.907L108.36 157.147L107.332 157.506C107.223 157.525 107.116 157.558 107.014 157.603Z" fill="#263238"/>
<path d="M82.2468 109.879L94.7816 120.603L108.238 135.038L112.96 115.163L126.18 117.879C126.18 117.879 125.242 142.5 121.164 153.632C120.389 155.753 118.098 157.335 117.086 157.816C110.693 160.858 104.454 156.185 104.454 156.185C104.454 156.185 77.794 138.292 74.907 126.312C73.5369 120.652 75.7225 114.136 78.0305 111.363C80.0856 108.908 82.2468 109.879 82.2468 109.879Z" fill="#EE1C25"/>
<path d="M113.979 109.674C113.726 108.859 112.348 101.258 111.777 99.4881C110.962 97.0414 104.503 92.5397 104.503 92.5397C104.503 92.5397 105.522 90.1991 108.279 91.4143C111.541 92.8578 113.172 95.2799 113.987 94.7906C114.803 94.3013 119.933 89.0818 121.327 89.2368C121.579 89.243 121.824 89.3149 122.039 89.4452C122.255 89.5756 122.432 89.76 122.554 89.98C122.676 90.2001 122.738 90.4482 122.735 90.6998C122.731 90.9513 122.662 91.1977 122.534 91.4143C122.15 91.8966 121.801 92.4063 121.49 92.9393C121.49 92.9393 124.451 92.0504 123.872 95.288C123.872 95.288 127.248 93.184 126.914 97.6286C126.914 97.6286 129.14 96.7234 129.629 98.2811C130.119 99.8387 128.659 101.657 127.925 102.889C127.191 104.12 124.777 111.281 124.777 111.281V117.585L112.984 115.138L113.979 109.674Z" fill="#FFBF9D"/>
<path d="M113.979 109.674C113.937 109.794 113.904 109.917 113.881 110.041L113.661 111.093C113.474 112.056 113.205 113.41 112.846 115.171V115.269H112.944L124.72 117.756H124.916V117.552C124.916 115.611 124.916 113.475 124.965 111.248V111.305C125.78 108.859 126.677 106.265 127.778 103.631C128.308 102.359 129.409 101.258 129.833 99.7167C129.942 99.3241 129.97 98.9134 129.915 98.5097C129.887 98.2923 129.816 98.0828 129.705 97.8936C129.594 97.7044 129.446 97.5395 129.271 97.4087C128.902 97.1834 128.469 97.0859 128.039 97.1314C127.631 97.1637 127.23 97.2543 126.848 97.4006L127.134 97.6126C127.17 97.1703 127.17 96.7256 127.134 96.2833C127.089 95.7959 126.889 95.3357 126.563 94.9703C126.374 94.7984 126.147 94.6734 125.9 94.6054C125.654 94.5374 125.395 94.5283 125.144 94.5788C124.668 94.6596 124.212 94.8283 123.798 95.0763L124.116 95.2965C124.28 94.6334 124.202 93.9336 123.896 93.3229C123.766 93.1293 123.597 92.9658 123.398 92.8435C123.2 92.7211 122.978 92.6426 122.746 92.6134C122.315 92.5571 121.877 92.5876 121.458 92.7031L121.702 93.013C121.991 92.5169 122.315 92.0426 122.673 91.594C122.901 91.3331 123.018 90.9937 122.999 90.6479C122.982 90.3169 122.872 89.9975 122.681 89.7264C122.488 89.4582 122.222 89.2514 121.914 89.131C121.764 89.0741 121.608 89.0331 121.45 89.0087C121.28 88.9966 121.109 89.0132 120.944 89.0576C120.39 89.2639 119.87 89.5526 119.403 89.914C117.568 91.2596 115.994 92.8009 114.403 94.1955C114.236 94.3575 114.047 94.4948 113.841 94.6033C113.63 94.6166 113.421 94.5528 113.253 94.4239C112.838 94.1629 112.438 93.8204 112.03 93.5105C111.239 92.87 110.399 92.2919 109.518 91.7815C108.681 91.2311 107.713 90.9131 106.713 90.86C106.216 90.8841 105.736 91.0446 105.325 91.3236C104.913 91.6027 104.587 91.9897 104.38 92.4421L104.315 92.5644L104.438 92.6542C106.782 94.2071 108.929 96.0391 110.831 98.1101C111.218 98.5572 111.519 99.0713 111.72 99.627C111.892 100.182 112.014 100.736 112.136 101.258C112.373 102.318 112.585 103.289 112.78 104.161C113.147 105.898 113.441 107.26 113.645 108.239C113.751 108.712 113.833 109.055 113.898 109.307C113.924 109.428 113.962 109.545 114.012 109.658C114.012 109.658 114.012 109.536 113.947 109.291C113.881 109.046 113.833 108.671 113.743 108.223C113.563 107.252 113.302 105.882 112.968 104.145C112.789 103.256 112.593 102.286 112.373 101.225C112.259 100.695 112.136 100.141 111.973 99.5944C111.774 98.9964 111.461 98.4425 111.052 97.9633C109.152 95.8473 106.996 93.9762 104.633 92.3932L104.699 92.6052C104.88 92.2164 105.164 91.8846 105.521 91.6459C105.877 91.4073 106.292 91.2708 106.721 91.2514C107.657 91.3133 108.559 91.6198 109.339 92.1404C110.198 92.6432 111.016 93.2131 111.786 93.8448C112.193 94.1547 112.601 94.4891 113.05 94.7827C113.175 94.8787 113.318 94.949 113.47 94.9896C113.623 95.0302 113.782 95.0402 113.939 95.0192C114.206 94.8934 114.451 94.7255 114.664 94.5217C116.295 93.119 117.845 91.594 119.647 90.2809C120.074 89.9398 120.55 89.6649 121.058 89.4654C121.169 89.4489 121.282 89.4489 121.393 89.4654C121.518 89.4865 121.641 89.5193 121.76 89.5633C121.991 89.6544 122.192 89.8101 122.339 90.0118C122.489 90.2052 122.571 90.4435 122.571 90.6887C122.571 90.934 122.489 91.1722 122.339 91.3656C121.966 91.8321 121.628 92.3254 121.327 92.8417L121.066 93.2903L121.572 93.1516C122.265 92.9641 123.162 92.9885 123.529 93.592C123.77 94.1008 123.827 94.6768 123.692 95.2231L123.627 95.6635L124.01 95.4351C124.375 95.2184 124.775 95.0692 125.193 94.9947C125.38 94.9506 125.575 94.9528 125.761 95.0011C125.948 95.0494 126.119 95.1424 126.261 95.272C126.701 95.9556 126.87 96.7786 126.734 97.58V97.898L127.036 97.792C127.353 97.639 127.699 97.5561 128.051 97.5491C128.403 97.542 128.752 97.611 129.075 97.7512C129.204 97.8486 129.311 97.9711 129.391 98.1113C129.471 98.2515 129.522 98.4064 129.54 98.5668C129.584 98.9135 129.559 99.2656 129.466 99.6025C129.258 100.295 128.948 100.952 128.545 101.552C128.123 102.154 127.754 102.793 127.444 103.46C126.335 106.143 125.478 108.737 124.647 111.183V111.24C124.647 113.475 124.647 115.603 124.647 117.544L124.842 117.389L113.041 115.024L113.115 115.138C113.417 113.393 113.653 112.023 113.824 111.061C113.898 110.62 113.947 110.245 113.996 110.001C113.998 109.892 113.992 109.783 113.979 109.674Z" fill="#FF9A6C"/>
<path d="M121.482 93.0215C121.029 93.4935 120.549 93.94 120.047 94.359C119.584 94.817 119.096 95.2499 118.587 95.6557C118.97 95.1246 119.419 94.6449 119.924 94.2285C120.391 93.7621 120.914 93.3565 121.482 93.0215Z" fill="#FF9A6C"/>
<path d="M124.116 95.1169C123.969 95.6005 123.721 96.0478 123.39 96.43C123.102 96.8505 122.727 97.2038 122.289 97.4657C122.289 97.4249 122.746 96.9682 123.244 96.324C123.741 95.6797 124.067 95.0925 124.116 95.1169Z" fill="#FF9A6C"/>
<path d="M126.873 97.4658C126.718 97.8317 126.509 98.1725 126.253 98.4771C126.046 98.8168 125.788 99.1222 125.487 99.3823C125.642 99.0165 125.851 98.6757 126.106 98.3711C126.313 98.0314 126.572 97.726 126.873 97.4658Z" fill="#FF9A6C"/>
<path d="M78.0384 133.594C78.0829 133.655 78.135 133.71 78.1933 133.757L78.65 134.214L80.4768 135.975C82.1079 137.476 84.424 139.654 87.4334 142.369C90.4427 145.085 94.0963 148.339 98.4023 151.895C99.487 152.775 100.604 153.673 101.787 154.57C102.366 155.018 102.994 155.442 103.605 155.891C103.915 156.111 104.258 156.299 104.576 156.511C104.901 156.724 105.239 156.917 105.587 157.09C107 157.852 108.501 158.439 110.056 158.835C111.699 159.291 113.431 159.319 115.088 158.916H115.047C116.251 158.749 117.402 158.314 118.416 157.644C119.417 156.907 120.239 155.954 120.821 154.855C121.929 152.582 122.649 150.14 122.95 147.629C123.146 146.357 123.374 145.118 123.562 143.813C123.749 142.508 123.896 141.228 124.051 139.914C124.344 137.288 124.638 134.622 124.94 131.93C125.429 127.143 125.918 122.462 126.383 117.936V117.748L126.196 117.707L113.009 114.967H112.821L112.772 115.155L107.879 135.869L108.148 135.796L94.2839 121.165L90.4753 117.186L89.4803 116.158C89.367 116.037 89.2472 115.923 89.1215 115.815L89.4396 116.191L90.4101 117.251L94.1452 121.328L107.887 136.008L108.099 136.228L108.164 135.935L113.131 115.236L112.894 115.383L126.114 118.107L125.951 117.887C125.478 122.413 124.989 127.094 124.491 131.873C124.187 134.592 123.893 137.253 123.61 139.857C123.456 141.162 123.301 142.467 123.121 143.748C122.942 145.028 122.713 146.3 122.51 147.556C122.225 150.021 121.525 152.42 120.438 154.651C119.924 155.702 119.154 156.608 118.2 157.284C117.245 157.961 116.136 158.388 114.974 158.525H114.925C113.343 158.905 111.691 158.879 110.122 158.452C108.595 158.064 107.122 157.491 105.734 156.747C105.39 156.579 105.057 156.389 104.739 156.176C104.421 155.972 104.087 155.785 103.785 155.573C103.173 155.132 102.553 154.757 101.966 154.268C100.792 153.387 99.6664 152.49 98.5817 151.617C94.2757 148.094 90.5976 144.857 87.5638 142.174L80.5339 135.861L78.6745 134.181L78.1852 133.749L78.0384 133.594Z" fill="#263238"/>
<path d="M132.475 149.497C132.646 149.22 132.777 148.921 132.867 148.608C133.163 147.774 133.402 146.922 133.585 146.056C134.091 143.192 134.329 140.287 134.294 137.378C134.435 134.465 134.161 131.546 133.479 128.709C133.226 127.625 132.981 126.752 132.793 126.165C132.716 125.848 132.601 125.541 132.451 125.251C132.48 125.575 132.542 125.895 132.639 126.206C132.777 126.809 132.973 127.682 133.185 128.775C133.762 131.601 133.984 134.489 133.845 137.37C133.875 140.257 133.681 143.142 133.266 145.999C132.899 148.209 132.402 149.473 132.475 149.497Z" fill="#263238"/>
<path d="M103.312 192.933L102.904 192.835L101.779 192.598L97.6522 191.783C94.1454 191.081 89.2848 190.152 83.6984 189.059L83.8533 189.353C84.6199 187.664 85.4355 185.878 86.2999 184.052L86.9279 182.673L86.6996 182.796L103.304 185.642L103.182 185.495C103.222 187.738 103.247 189.573 103.271 190.902C103.271 191.514 103.271 192.011 103.271 192.403C103.258 192.585 103.258 192.767 103.271 192.949C103.283 192.789 103.283 192.628 103.271 192.468C103.271 192.085 103.271 191.603 103.312 191C103.312 189.646 103.361 187.779 103.394 185.495V185.365H103.271L86.6832 182.396H86.5201L86.4549 182.543C86.251 182.999 86.039 183.456 85.8269 183.921L83.3803 189.23L83.2743 189.467L83.5353 189.516C89.244 190.576 94.1372 191.457 97.6767 192.068L101.754 192.778L102.839 192.957L103.312 192.933Z" fill="#263238"/>
<path d="M135.15 184.997L141.446 183.415L145.206 191.114L137.352 192.467L135.15 184.997Z" fill="#EE1C25"/>
<path d="M135.15 184.997C135.17 185.172 135.208 185.344 135.265 185.511L135.656 187.02C136.007 188.333 136.52 190.233 137.181 192.516L137.222 192.679H137.385L144.896 191.415L145.238 191.358L145.524 191.309L145.393 191.056L141.601 183.374L141.536 183.244L141.405 183.284C139.465 183.79 137.874 184.23 136.798 184.532C135.721 184.834 135.126 185.013 135.167 185.03C135.331 185.013 135.495 184.986 135.656 184.948L136.961 184.663C138.07 184.418 139.628 184.067 141.503 183.619L141.308 183.521C142.368 185.723 143.648 188.373 145.026 191.244L145.181 190.942L144.839 190.999L137.344 192.321L137.548 192.451C136.879 190.257 136.3 188.422 135.876 187.117C135.68 186.514 135.517 186.008 135.379 185.592C135.319 185.388 135.242 185.189 135.15 184.997Z" fill="#263238"/>
<path d="M92.4983 103.762C92.4801 103.883 92.4801 104.007 92.4983 104.129C92.4983 104.357 92.5881 104.708 92.6778 105.148C92.8409 106.045 93.11 107.334 93.4933 108.924C94.4932 113.167 96.1761 117.218 98.4762 120.921L98.5333 121.01H98.623C99.5705 121.017 100.517 120.946 101.453 120.798C101.855 120.736 102.263 120.723 102.668 120.757L102.619 120.35C102.289 120.542 101.98 120.769 101.698 121.027L100.882 121.736C100.408 122.192 99.8981 122.61 99.357 122.984L99.145 123.114L99.2591 123.286C101.706 127.094 104.152 130.095 105.783 132.33C106.599 133.439 107.251 134.344 107.684 134.964C107.895 135.291 108.124 135.607 108.369 135.91C108.369 135.91 108.369 135.812 108.238 135.633C108.108 135.453 108.002 135.209 107.798 134.883C107.406 134.238 106.795 133.317 105.995 132.183C104.43 129.891 101.967 126.858 99.5853 123.065L99.4875 123.367C99.8001 123.191 100.09 122.977 100.352 122.731C100.613 122.508 100.885 122.28 101.167 122.046L101.983 121.353C102.235 121.124 102.508 120.919 102.799 120.741L103.435 120.407L102.75 120.333C102.31 120.288 101.868 120.288 101.428 120.333C100.528 120.48 99.6169 120.551 98.7046 120.545L98.8514 120.643C96.5719 116.977 94.8667 112.984 93.795 108.802C93.3547 107.228 93.0448 105.947 92.8327 105.075C92.7464 104.631 92.6347 104.193 92.4983 103.762Z" fill="#263238"/>
<path d="M245.716 328.009L246.458 346.595C246.458 346.595 227.823 353.584 227.628 357.034L263.707 356.887V327.887L245.716 328.009Z" fill="#263238"/>
<path d="M257.623 344.981C257.971 345.085 258.267 345.315 258.455 345.625C258.644 345.935 258.71 346.304 258.643 346.661C258.554 347.008 258.335 347.308 258.032 347.499C257.728 347.69 257.363 347.758 257.012 347.688C256.642 347.581 256.326 347.339 256.126 347.009C255.927 346.68 255.858 346.288 255.935 345.91C256.066 345.553 256.331 345.262 256.674 345.097C257.016 344.933 257.41 344.909 257.77 345.03" fill="#E0E0E0"/>
<path d="M263.707 356.887L263.593 353.968L229.039 355.199C229.039 355.199 227.408 355.9 227.628 357.034L263.707 356.887Z" fill="#455A64"/>
<path d="M245.871 346.383C245.871 346.563 246.76 346.636 247.633 347.199C248.506 347.762 248.962 348.504 249.125 348.43C249.289 348.357 249.019 347.346 247.959 346.685C246.899 346.024 245.839 346.245 245.871 346.383Z" fill="white"/>
<path d="M242.128 348.014C242.087 348.186 242.854 348.479 243.457 349.221C244.061 349.964 244.232 350.755 244.411 350.747C244.591 350.738 244.689 349.743 243.93 348.83C243.172 347.917 242.128 347.819 242.128 348.014Z" fill="white"/>
<path d="M239.967 352.533C240.13 352.533 240.366 351.717 239.91 350.722C239.453 349.727 238.629 349.376 238.556 349.523C238.483 349.67 238.996 350.184 239.371 350.983C239.747 351.782 239.787 352.508 239.967 352.533Z" fill="white"/>
<path d="M246.205 342.159C246.279 342.314 247.086 342.069 248.089 342.159C249.092 342.249 249.859 342.534 249.949 342.379C250.038 342.224 249.296 341.604 248.122 341.564C246.948 341.523 246.091 342.02 246.205 342.159Z" fill="white"/>
<path d="M287.985 327.259L289.869 348.83L286.428 366.348C286.37 366.647 286.373 366.954 286.439 367.252C286.505 367.549 286.632 367.829 286.811 368.076C286.99 368.322 287.217 368.529 287.48 368.684C287.742 368.838 288.034 368.937 288.336 368.974C288.687 369.02 289.043 368.982 289.375 368.861C289.708 368.74 290.006 368.541 290.244 368.28C293.343 364.904 304.679 352.418 304.459 350.844C304.19 349.018 303.978 327.928 303.978 327.928L287.985 327.259Z" fill="#263238"/>
<path d="M288.336 369.006L304.361 349.433L304.418 350.347C304.469 351.14 304.238 351.925 303.766 352.565C302.494 354.261 298.873 358.894 290.31 368.329C290.064 368.599 289.755 368.803 289.41 368.924C289.066 369.045 288.697 369.079 288.336 369.023V369.006Z" fill="#455A64"/>
<g opacity="0.6">
<path d="M299.477 342.722C299.222 342.932 299.055 343.23 299.007 343.557C298.959 343.883 299.033 344.216 299.216 344.491C299.419 344.753 299.715 344.926 300.043 344.977C300.371 345.027 300.705 344.949 300.977 344.761C301.244 344.535 301.418 344.219 301.466 343.873C301.515 343.527 301.433 343.175 301.238 342.885C301 342.632 300.672 342.483 300.325 342.468C299.978 342.452 299.639 342.573 299.379 342.803" fill="white"/>
</g>
<path d="M292.691 359.236C292.569 359.31 292.006 358.2 290.685 357.678C289.873 357.412 289.017 357.304 288.165 357.36C288.165 357.311 288.401 357.124 288.907 357.018C289.567 356.899 290.247 356.976 290.864 357.238C291.486 357.492 292.021 357.919 292.405 358.47C292.691 358.902 292.691 359.22 292.691 359.236Z" fill="white"/>
<path d="M291.321 362.237C290.678 361.924 290.016 361.652 289.339 361.422C288.633 361.331 287.922 361.285 287.211 361.283C287.137 361.177 288.157 360.647 289.445 360.957C290.734 361.267 291.427 362.172 291.321 362.237Z" fill="white"/>
<path d="M295.301 355.354C295.211 355.468 294.077 354.449 292.34 353.902C291.269 353.637 290.178 353.457 289.078 353.364C290.197 353.071 291.377 353.102 292.479 353.454C293.581 353.807 294.56 354.466 295.301 355.354Z" fill="white"/>
<path d="M295.276 348.724C295.227 348.863 294.004 348.439 292.446 348.479C290.889 348.52 289.674 348.977 289.617 348.846C290.461 348.318 291.433 348.027 292.43 348.006C293.426 347.984 294.409 348.233 295.276 348.724Z" fill="white"/>
<path d="M294.885 342.371C293.923 342.126 292.932 342.013 291.94 342.036C290.963 342.208 290.014 342.513 289.119 342.942C289.078 342.942 289.298 342.607 289.779 342.289C290.416 341.884 291.14 341.635 291.892 341.563C292.644 341.484 293.405 341.588 294.11 341.865C294.648 342.085 294.917 342.305 294.885 342.371Z" fill="white"/>
<path d="M291.875 340.821C291.792 340.558 291.765 340.28 291.794 340.006C291.823 339.251 291.997 338.509 292.307 337.82C292.495 337.298 292.847 336.852 293.311 336.548C293.474 336.464 293.66 336.432 293.842 336.457C294.025 336.481 294.195 336.562 294.33 336.687C294.576 336.945 294.721 337.284 294.738 337.641C294.735 338.371 294.478 339.078 294.011 339.639C293.543 340.2 292.895 340.581 292.177 340.715C291.465 340.833 290.734 340.737 290.077 340.439C289.419 340.142 288.864 339.656 288.483 339.044C288.388 338.889 288.328 338.716 288.305 338.536C288.283 338.356 288.299 338.173 288.352 338C288.427 337.83 288.553 337.689 288.712 337.595C288.872 337.501 289.057 337.46 289.241 337.478C289.781 337.561 290.289 337.783 290.717 338.122C291.332 338.557 291.868 339.095 292.299 339.712C292.479 339.922 292.608 340.17 292.674 340.438C292.067 339.656 291.344 338.971 290.53 338.407C290.144 338.127 289.696 337.943 289.225 337.869C289.125 337.859 289.024 337.882 288.937 337.933C288.851 337.984 288.783 338.062 288.744 338.155C288.713 338.27 288.709 338.39 288.73 338.507C288.751 338.624 288.797 338.734 288.866 338.831C289.214 339.358 289.708 339.773 290.287 340.025C290.866 340.277 291.505 340.355 292.128 340.251C292.731 340.128 293.275 339.807 293.673 339.338C294.071 338.869 294.299 338.28 294.322 337.665C294.316 337.418 294.227 337.179 294.069 336.988C293.996 336.917 293.902 336.87 293.801 336.856C293.7 336.841 293.597 336.859 293.506 336.907C293.116 337.165 292.812 337.534 292.634 337.967C292.216 338.867 291.959 339.833 291.875 340.821Z" fill="white"/>
<path d="M230.229 175.553C227.976 183.323 227.063 191.421 227.53 199.497C227.905 204.309 243.596 339.305 243.596 339.305H265.525L259.36 214.185L261.154 214.577C261.154 214.577 273.126 267.937 274.105 276.557C274.977 284.321 285.074 340.74 285.074 340.74L305.12 340.968L298.718 266.347L291.264 194.735L288.466 173.89L230.229 175.553Z" fill="#263238"/>
<path d="M263.968 28.0893L263.087 28.0404C258.838 27.7971 254.653 29.1622 251.365 31.8641C248.077 34.566 245.926 38.4067 245.341 42.6222C244.216 50.7775 243.074 59.7484 242.895 64.1278C242.479 73.2129 251.474 75.1457 251.474 75.1457L251.156 78.8319C251.028 80.2811 251.189 81.7413 251.627 83.1284C252.066 84.5155 252.774 85.8023 253.712 86.9148C254.649 88.0273 255.797 88.9436 257.09 89.611C258.382 90.2785 259.794 90.6839 261.244 90.804C264.133 91.0356 266.997 90.1222 269.219 88.2608C271.44 86.3995 272.841 83.7394 273.118 80.8545L276.38 47.1647C277.702 37.7861 273.379 29.1903 263.968 28.0893Z" fill="#FFBF9D"/>
<path d="M251.384 75.1284C255.595 75.3799 259.789 74.4205 263.471 72.3638C263.471 72.3638 260.306 78.7331 251.295 77.3956L251.384 75.1284Z" fill="#FF9A6C"/>
<path d="M247.885 51.0538C247.86 51.3918 247.97 51.726 248.19 51.984C248.409 52.242 248.722 52.4029 249.06 52.4321C249.224 52.4549 249.391 52.4445 249.551 52.4016C249.711 52.3586 249.861 52.284 249.992 52.1821C250.123 52.0802 250.232 51.9531 250.313 51.8084C250.393 51.6636 250.444 51.5041 250.462 51.3393C250.483 51.0022 250.372 50.6703 250.153 50.4133C249.934 50.1563 249.624 49.9941 249.288 49.961C249.124 49.9382 248.957 49.9486 248.797 49.9915C248.636 50.0344 248.486 50.1091 248.356 50.211C248.225 50.3128 248.116 50.4399 248.035 50.5847C247.954 50.7295 247.903 50.889 247.885 51.0538Z" fill="#263238"/>
<path d="M247.021 47.172C247.176 47.3514 248.196 46.6745 249.59 46.7642C250.985 46.8539 251.972 47.5797 252.127 47.4411C252.282 47.3025 252.061 47.0578 251.637 46.7071C251.057 46.2521 250.351 45.9872 249.615 45.9487C248.89 45.9085 248.171 46.0968 247.56 46.4869C247.127 46.7887 246.964 47.0823 247.021 47.172Z" fill="#263238"/>
<path d="M259.94 51.9103C259.919 52.2473 260.03 52.5792 260.249 52.8362C260.468 53.0933 260.778 53.2554 261.114 53.2885C261.278 53.3113 261.445 53.3009 261.605 53.258C261.766 53.2151 261.915 53.1404 262.046 53.0386C262.177 52.9367 262.286 52.8096 262.367 52.6648C262.448 52.52 262.499 52.3605 262.517 52.1957C262.539 51.8582 262.429 51.5251 262.21 51.2676C261.99 51.0101 261.679 50.8486 261.342 50.8174C261.178 50.7946 261.011 50.805 260.851 50.8479C260.691 50.8909 260.541 50.9655 260.41 51.0674C260.279 51.1693 260.17 51.2964 260.089 51.4412C260.009 51.5859 259.958 51.7454 259.94 51.9103Z" fill="#263238"/>
<path d="M260.731 48.2157C260.877 48.3951 261.905 47.7264 263.3 47.8079C264.694 47.8895 265.673 48.6235 265.836 48.4848C265.999 48.3462 265.771 48.1015 265.338 47.7508C264.763 47.3 264.062 47.038 263.332 47.0005C262.607 46.9541 261.886 47.1429 261.277 47.5388C260.82 47.8405 260.657 48.1341 260.731 48.2157Z" fill="#263238"/>
<path d="M255.078 58.2711C254.357 57.9931 253.604 57.8095 252.836 57.7247C252.477 57.6676 252.151 57.5779 252.102 57.3332C252.09 56.9633 252.192 56.5987 252.395 56.2893C252.787 55.4738 253.211 54.5686 253.61 53.6389C255.29 49.8629 256.53 46.7557 256.383 46.6905C256.236 46.6253 254.752 49.6264 253.056 53.4024C252.648 54.3321 252.24 55.221 251.89 56.0692C251.644 56.487 251.549 56.9763 251.62 57.4556C251.665 57.5854 251.738 57.7032 251.836 57.7995C251.934 57.8958 252.053 57.9679 252.183 58.0101C252.375 58.0773 252.576 58.1185 252.779 58.1325C253.537 58.2691 254.309 58.3156 255.078 58.2711Z" fill="#263238"/>
<path d="M260.682 42.7354C260.804 43.1187 262.207 43.0208 263.829 43.3144C265.452 43.608 266.749 44.1299 266.986 43.7956C267.092 43.6406 266.88 43.2736 266.374 42.874C265.688 42.3819 264.899 42.0527 264.066 41.9114C263.234 41.77 262.38 41.8204 261.57 42.0585C260.959 42.2705 260.633 42.5478 260.682 42.7354Z" fill="#263238"/>
<path d="M247.788 43.1675C248.008 43.4937 248.987 43.2246 250.145 43.2736C251.303 43.3225 252.265 43.6079 252.51 43.2736C252.616 43.1186 252.51 42.7924 252.077 42.458C251.525 42.0621 250.865 41.8432 250.185 41.8301C249.504 41.8013 248.831 41.9867 248.261 42.3602C247.837 42.6864 247.682 43.0044 247.788 43.1675Z" fill="#263238"/>
<path d="M246.458 38.512C246.458 38.512 249.174 32.9664 251.996 31.792C255.405 30.3812 256.62 34.1082 259.833 33.4231C263.046 32.7381 266.3 31.368 269.391 33.994C272.768 36.8728 271.022 38.6588 271.022 42.6957C270.973 59.0635 273.689 63.8507 274.978 56.2173C275.116 55.4018 277.498 54.839 278.044 51.3241C278.762 46.7408 279.259 41.1462 278.419 37.8107C277.71 35.0052 276.25 33.0072 273.526 30.74C269.261 27.1679 263.152 26.7439 258.969 26.9233C254.785 27.1027 246.483 31.368 246.458 38.512Z" fill="#263238"/>
<path d="M274.383 55.9064C274.41 55.5713 274.506 55.2455 274.665 54.9492C274.824 54.653 275.042 54.3926 275.306 54.1845C275.57 53.9763 275.874 53.8248 276.2 53.7394C276.525 53.654 276.864 53.6366 277.196 53.6881C278.876 53.9491 280.703 55.0174 280.393 58.5079C279.839 64.6978 273.738 62.8629 273.738 62.6835C273.738 62.504 274.13 58.4998 274.383 55.9064Z" fill="#FFBF9D"/>
<path d="M275.279 60.4733C275.279 60.4733 275.377 60.563 275.556 60.6609C275.807 60.7947 276.099 60.8269 276.372 60.7506C277.041 60.5712 277.685 59.5762 277.816 58.4671C277.88 57.9368 277.824 57.3988 277.652 56.8931C277.612 56.6953 277.524 56.5104 277.396 56.3541C277.268 56.1979 277.104 56.075 276.918 55.996C276.798 55.9532 276.666 55.9534 276.546 55.9965C276.426 56.0396 276.324 56.123 276.258 56.2325C276.152 56.3956 276.184 56.5261 276.152 56.5343C276.119 56.5424 276.029 56.4201 276.103 56.1673C276.149 56.016 276.247 55.886 276.38 55.8003C276.562 55.6857 276.782 55.6476 276.992 55.6943C277.24 55.7683 277.466 55.9046 277.647 56.0901C277.828 56.2756 277.959 56.5042 278.028 56.7544C278.244 57.3148 278.319 57.9196 278.248 58.516C278.093 59.7638 277.351 60.8729 276.437 61.0523C276.267 61.0862 276.091 61.0811 275.923 61.0373C275.755 60.9935 275.599 60.9122 275.467 60.7995C275.279 60.6282 275.255 60.4896 275.279 60.4733Z" fill="#FF9A6C"/>
<path d="M245.137 31.7916C246.091 31.0739 247.404 30.976 248.35 30.2502C250.071 28.9291 250.145 25.9279 252.175 25.145C253.374 24.672 254.72 25.251 256 25.145C258.072 24.9329 258.871 23.3671 262.019 23.3589C263.11 23.2902 264.199 23.5365 265.155 24.0686C266.11 24.6006 266.893 25.396 267.41 26.3601C268.164 26.014 268.996 25.8732 269.823 25.9519C270.649 26.0307 271.44 26.3262 272.115 26.8087C272.688 27.2615 273.159 27.8292 273.499 28.4754C273.839 29.1215 274.04 29.8317 274.089 30.5601C274.089 30.5601 274.733 30.2339 276.69 31.7834C277.938 32.7702 278.958 34.8988 279.414 36.4157C280.091 38.691 279.104 41.0887 278.134 43.2499C277.612 44.4161 276.959 45.6965 275.744 46.1124C274.268 46.6099 272.637 45.4518 272.058 44.0001C271.479 42.5485 270.566 41.0887 269.864 39.6941C268.641 37.2475 267.418 35.0129 268.421 33.4634C267.003 33.0029 265.476 33.0029 264.058 33.4634C262.631 33.9364 261.391 34.8498 259.98 35.3473C258.569 35.8448 256.775 35.8203 255.813 34.6704C255.61 35.0802 255.318 35.4392 254.958 35.7205C254.598 36.0019 254.179 36.1985 253.732 36.2956C253.285 36.3928 252.822 36.3881 252.378 36.2818C251.933 36.1755 251.518 35.9704 251.164 35.6817C250.604 36.5944 249.72 37.2625 248.689 37.5527C247.659 37.8429 246.556 37.734 245.602 37.2475C243.759 36.1058 243.433 33.0801 245.137 31.7916Z" fill="#263238"/>
<path d="M278.753 41.7892C278.467 42.237 278.227 42.7124 278.036 43.2082C277.812 43.7091 277.461 44.1423 277.016 44.4642C276.423 44.768 275.739 44.8462 275.092 44.6843C274.419 44.5539 273.784 44.2753 273.232 43.8688C272.787 43.5235 272.383 43.1296 272.025 42.6944C271.713 42.2675 271.367 41.8666 270.99 41.4956C271.188 41.9895 271.464 42.4491 271.805 42.8575C272.147 43.3378 272.553 43.7687 273.012 44.1379C273.601 44.5826 274.285 44.8841 275.01 45.0187C275.745 45.2009 276.522 45.0928 277.179 44.717C277.671 44.3573 278.045 43.8609 278.256 43.2898C278.483 42.812 278.65 42.308 278.753 41.7892Z" fill="#455A64"/>
<path d="M278.517 46.5764C278.144 46.8594 277.732 47.0874 277.294 47.2533C276.817 47.4042 276.314 47.4488 275.818 47.3838C275.209 47.2913 274.628 47.0688 274.113 46.7313C273.178 46.0819 272.385 45.2496 271.781 44.2847C271.55 43.8662 271.277 43.4726 270.965 43.1104C271.108 43.5769 271.32 44.0194 271.593 44.4234C272.148 45.4855 272.951 46.3977 273.934 47.082C274.494 47.4526 275.134 47.6846 275.802 47.7589C276.355 47.8198 276.915 47.7442 277.433 47.5387C278.264 47.1391 278.558 46.5845 278.517 46.5764Z" fill="#455A64"/>
<path d="M259.034 60.5459C259.246 61.2226 259.364 61.925 259.385 62.6337C259.41 62.9689 259.362 63.3056 259.245 63.6208C259.128 63.9361 258.945 64.2224 258.708 64.4605C258.462 64.7528 258.155 64.9876 257.808 65.1483C257.461 65.3089 257.084 65.3915 256.702 65.3902C256.012 65.3888 255.346 65.1417 254.823 64.6932C254.3 64.2447 253.954 63.6243 253.847 62.9436L253.603 61.4022C255.03 60.9944 258.928 60.6519 259.034 60.5459Z" fill="#FF9A6C"/>
<path d="M255.176 64.9504C255.176 64.9504 255.364 64.9504 255.674 64.9993C256.109 65.0664 256.552 65.0664 256.987 64.9993C257.615 64.9004 258.183 64.5684 258.577 64.0696C259.047 63.4455 259.27 62.6704 259.205 61.8921C259.186 61.4541 259.072 61.0256 258.871 60.6362L259.066 60.7259C257.672 60.9379 256.448 61.1092 255.584 61.207C255.119 61.294 254.646 61.3296 254.173 61.3131C254.614 61.1418 255.074 61.0267 255.543 60.9705C256.408 60.8074 257.615 60.5872 259.009 60.3589H259.14L259.197 60.4731C259.509 61.079 259.642 61.7617 259.58 62.4407C259.518 63.1197 259.263 63.7669 258.846 64.3061C258.388 64.8582 257.733 65.2094 257.019 65.2847C256.556 65.3254 256.089 65.2812 255.641 65.1542C255.473 65.1205 255.315 65.0509 255.176 64.9504Z" fill="#263238"/>
<path d="M295.953 90.6069C296.492 90.6069 304.174 93.6733 306.197 101.209C308.219 108.744 313.74 136.391 313.74 136.391L319.604 144.514C319.604 144.514 317.704 159.332 306.931 156.51C306.931 156.51 299.738 157.766 297.446 150.475C295.154 143.184 290.71 121.434 290.71 121.434L295.953 90.6069Z" fill="#455A64"/>
<path d="M273.575 77.9497L277.653 84.1152L296.002 90.6394L290.75 143.861L292.691 171.72C292.753 172.596 292.631 173.476 292.332 174.302C292.034 175.128 291.566 175.883 290.958 176.517C290.351 177.152 289.617 177.652 288.805 177.986C287.992 178.32 287.119 178.48 286.24 178.456L228.574 176.752C227.131 176.711 226.454 174.884 226.217 172.911C226.013 171.139 226.169 169.344 226.674 167.634L229.716 156.967C229.267 163.605 231.257 117.365 231.347 115.676L226.902 91.8872L247.78 83.4383L251.042 78.4553L260.437 85.5994L273.575 77.9497Z" fill="#455A64"/>
<path d="M226.886 91.8872C226.886 91.8872 222.686 95.5734 221.992 98.4115C221.299 101.25 206.196 133.944 206.196 133.944L198.693 135.967L196.686 140.126C195.515 142.511 195.199 145.227 195.793 147.817C196.387 150.407 197.855 152.713 199.949 154.349C200.209 154.547 200.482 154.73 200.764 154.895C204.842 157.342 212.1 157.212 216.349 152.204C220.37 147.458 232.138 130.397 232.138 130.397V109.519L226.886 91.8872Z" fill="#455A64"/>
<path d="M202.281 137.223L191.491 130.854L186.288 137.223L187.365 140.306L201.278 150.655C203.005 149.245 204.164 147.258 204.54 145.061C205.152 141.171 202.281 137.223 202.281 137.223Z" fill="#FFBF9D"/>
<path d="M205.706 133.928C205.706 134.034 206.628 133.928 207.981 134.385C209.731 134.99 211.28 136.065 212.459 137.492C213.624 138.951 214.584 140.561 215.313 142.28C215.588 143.016 215.929 143.725 216.333 144.4C216.224 143.617 216.004 142.854 215.68 142.133C215.039 140.319 214.093 138.628 212.883 137.133C211.645 135.622 209.97 134.531 208.087 134.01C207.318 133.756 206.491 133.728 205.706 133.928Z" fill="#263238"/>
<path d="M191.671 134.385C191.94 132.977 191.843 131.523 191.391 130.162C190.938 128.802 190.145 127.58 189.086 126.613C186.538 124.518 183.657 122.864 180.563 121.72C178.671 120.904 174.732 117.585 174.039 118.384C173.346 119.184 173.036 120.374 174.039 121.826C175.042 123.278 180.743 125.439 179.943 127.274C179.617 128.016 177.823 128.155 177.823 128.155C174.566 128.384 171.3 128.449 168.037 128.35C165.15 128.097 162.556 128.652 162.711 129.647C162.866 130.642 163.404 131.188 165.794 131.392C168.183 131.596 172.074 131.441 172.318 131.988C172.563 132.534 171.715 132.885 170.32 132.803C168.926 132.722 162.352 132.697 161.904 133.447C161.795 133.638 161.729 133.85 161.712 134.069C161.695 134.288 161.726 134.508 161.804 134.713C161.882 134.918 162.005 135.103 162.163 135.255C162.321 135.407 162.511 135.522 162.719 135.592L164.261 136.139C164.261 136.139 163.364 137.386 164.114 138.08C164.864 138.773 166.561 138.528 166.561 138.528L175.279 138.284C175.279 138.284 175.776 138.805 175.531 139.164C175.287 139.523 168.453 139.026 168.404 139.776C168.355 140.526 167.759 140.869 169.798 141.407C172.784 141.905 175.832 141.905 178.818 141.407C180.661 140.901 188.384 140.591 188.384 140.591L191.671 134.385Z" fill="#FFBF9D"/>
<path d="M310.16 138.357L320.248 129.989L326.038 136.514L325.329 139.702L312.72 151.576C310.851 150.505 309.441 148.784 308.757 146.74C307.501 143.144 310.16 138.357 310.16 138.357Z" fill="#FFBF9D"/>
<path d="M320.362 134.344C319.928 132.978 319.851 131.524 320.136 130.12C320.421 128.716 321.061 127.407 321.993 126.319C324.288 123.937 326.971 121.962 329.928 120.48C331.706 119.412 335.229 115.693 336.021 116.402C336.49 116.825 336.789 117.404 336.862 118.032C336.936 118.659 336.779 119.291 336.42 119.811C335.605 121.369 331.674 123.179 331.812 125.177C331.827 125.371 331.879 125.559 331.967 125.732C332.054 125.905 332.174 126.06 332.321 126.186C332.468 126.313 332.639 126.409 332.823 126.469C333.007 126.53 333.201 126.554 333.395 126.539C336.649 126.39 339.893 126.077 343.116 125.602C345.962 125.014 348.596 125.259 348.563 126.262C348.531 127.265 348.05 127.893 345.701 128.358C343.352 128.823 339.47 129.174 339.34 129.704C339.209 130.234 340.033 130.519 341.411 130.266C342.789 130.014 349.314 129.239 349.844 129.932C349.975 130.106 350.066 130.308 350.111 130.522C350.155 130.735 350.151 130.956 350.099 131.168C350.048 131.381 349.95 131.579 349.813 131.749C349.676 131.918 349.502 132.056 349.306 132.15L347.838 132.876C347.838 132.876 348.873 134.01 348.213 134.784C347.552 135.559 345.84 135.518 345.84 135.518L337.146 136.285C337.146 136.285 336.714 136.864 337.007 137.19C337.301 137.516 344.013 136.228 344.151 136.97C344.29 137.712 344.926 137.981 342.953 138.715C340.041 139.559 337.01 139.915 333.982 139.767C332.09 139.482 324.375 140.036 324.375 140.036L320.362 134.344Z" fill="#FFBF9D"/>
<path d="M248.285 84.9634C248.831 85.6445 249.437 86.2751 250.096 86.8473C251.246 87.9727 252.82 89.5467 254.483 91.3409C254.834 91.7242 255.185 92.0993 255.511 92.4663L255.731 92.7028L255.935 92.45C257.224 90.8189 258.341 89.3183 259.124 88.25C259.584 87.7071 259.975 87.11 260.29 86.4721C259.749 86.9347 259.262 87.4572 258.838 88.0298C257.982 89.0411 256.808 90.4764 255.503 92.1075H255.919L254.899 90.9739C253.466 89.4248 251.953 87.9521 250.365 86.5618C249.739 85.9464 249.041 85.4096 248.285 84.9634Z" fill="#263238"/>
<path d="M294.804 104.716C294.654 105.076 294.552 105.454 294.502 105.841C294.347 106.575 294.151 107.644 293.939 108.965C293.515 111.607 293.067 115.277 292.691 119.338C292.316 123.4 292.039 127.086 291.827 129.753C291.745 130.992 291.664 132.044 291.607 132.909C291.556 133.296 291.556 133.688 291.607 134.075C291.723 133.704 291.8 133.321 291.835 132.933C291.949 132.191 292.088 131.115 292.235 129.785C292.545 127.135 292.887 123.457 293.262 119.395C293.637 115.334 294.004 111.672 294.322 109.063C294.477 107.831 294.608 106.779 294.714 105.923C294.798 105.526 294.828 105.12 294.804 104.716Z" fill="#263238"/>
<path d="M230.996 102.865C230.879 103.327 230.811 103.8 230.792 104.276C230.702 105.197 230.604 106.518 230.523 108.166C230.335 111.428 230.246 115.995 230.229 121.002V137.729C230.203 138.205 230.222 138.683 230.286 139.156C230.392 138.691 230.444 138.214 230.441 137.737C230.507 136.815 230.572 135.486 230.621 133.847C230.735 130.585 230.776 126.018 230.784 121.01C230.792 116.003 230.833 111.46 230.914 108.182C230.955 106.624 230.988 105.32 231.012 104.292C231.051 103.817 231.045 103.339 230.996 102.865Z" fill="#263238"/>
<path d="M303.081 149.921C303.336 148.995 303.524 148.052 303.643 147.099C304.026 144.823 304.763 142.621 305.829 140.575C306.917 138.568 308.551 136.911 310.543 135.796C311.399 135.387 312.285 135.043 313.193 134.768C312.925 134.709 312.647 134.709 312.378 134.768C311.671 134.886 310.985 135.103 310.339 135.412C308.196 136.481 306.44 138.191 305.315 140.305C304.236 142.406 303.551 144.686 303.293 147.034C303.101 147.983 303.03 148.953 303.081 149.921Z" fill="#263238"/>
<path d="M300.463 138.903C300.578 139.033 302.2 137.362 304.843 136.456C307.485 135.551 309.736 135.861 309.785 135.69C309.834 135.518 307.444 134.964 304.663 135.934C301.882 136.905 300.341 138.838 300.463 138.903Z" fill="#263238"/>
<path d="M259.075 176.801C259.124 176.499 259.146 176.194 259.14 175.888C259.14 175.244 259.14 174.371 259.197 173.278C259.246 170.954 259.311 167.684 259.393 163.663C259.58 155.508 259.841 144.31 260.135 131.947C260.429 119.583 260.584 108.337 260.567 100.214C260.567 96.1366 260.526 92.8745 260.477 90.591C260.477 89.4982 260.42 88.6255 260.396 87.9813C260.403 87.6754 260.381 87.3696 260.331 87.0679C260.308 87.3719 260.308 87.6772 260.331 87.9813C260.331 88.6255 260.331 89.4982 260.331 90.591C260.331 92.9153 260.282 96.1937 260.249 100.206C260.168 108.361 259.931 119.542 259.654 131.93C259.377 144.318 259.132 155.532 259.067 163.655C259.067 167.732 259.067 170.995 259.067 173.278C259.067 174.371 259.067 175.244 259.107 175.888C259.076 176.191 259.065 176.496 259.075 176.801Z" fill="#263238"/>
<path d="M310.633 138.014C310.633 137.949 309.818 138.56 309.165 139.914C308.765 140.686 308.474 141.509 308.301 142.361C308.133 143.442 308.133 144.542 308.301 145.623C308.422 146.705 308.743 147.756 309.247 148.722C309.683 149.505 310.284 150.184 311.008 150.712C311.645 151.24 312.448 151.529 313.275 151.527C312.559 151.231 311.88 150.85 311.253 150.394C310.61 149.867 310.08 149.215 309.695 148.477C309.259 147.555 308.983 146.565 308.88 145.55C308.733 144.533 308.733 143.5 308.88 142.483C309.02 141.643 309.258 140.822 309.589 140.037C310.095 138.74 310.715 138.063 310.633 138.014Z" fill="#263238"/>
<path d="M199.255 151.788C199.255 151.788 199.516 151.788 199.932 151.584C200.516 151.327 201.064 150.995 201.563 150.597C203.272 149.281 204.441 147.386 204.85 145.268C205.258 143.15 204.878 140.956 203.782 139.098C203.462 138.54 203.073 138.025 202.624 137.565C202.306 137.255 202.102 137.109 202.077 137.133C202.053 137.157 202.73 137.891 203.439 139.286C204.388 141.09 204.694 143.163 204.307 145.164C203.92 147.166 202.863 148.975 201.311 150.296C200.144 151.323 199.215 151.698 199.255 151.788Z" fill="#263238"/>
<path d="M240.497 127.347C240.939 127.657 241.405 127.93 241.891 128.163C242.805 128.66 244.142 129.345 245.806 130.177C249.133 131.808 253.79 134.01 259.01 136.22C264.229 138.43 269.041 140.257 272.547 141.489C274.301 142.108 275.72 142.59 276.715 142.899C277.22 143.09 277.742 143.238 278.272 143.34C277.8 143.076 277.303 142.861 276.788 142.696L272.711 141.122C269.244 139.792 264.465 137.916 259.254 135.715C254.043 133.513 249.37 131.384 246.002 129.818L242.014 127.967C241.528 127.714 241.021 127.507 240.497 127.347Z" fill="#263238"/>
<path d="M178.516 124.884C178.451 124.949 178.924 125.398 179.519 126.189C179.862 126.642 180.098 127.166 180.212 127.722C180.343 128.35 180.327 129.084 180.441 129.891C180.538 130.584 180.772 131.251 181.129 131.853C181.486 132.455 181.959 132.98 182.52 133.398C182.95 133.785 183.494 134.02 184.07 134.067C184.111 133.977 183.507 133.749 182.765 133.088C181.81 132.242 181.181 131.088 180.987 129.826C180.933 129.088 180.841 128.353 180.71 127.624C180.554 127.017 180.251 126.457 179.829 125.993C179.487 125.523 179.036 125.143 178.516 124.884Z" fill="#FF9A6C"/>
<path d="M335.817 133.464C335.817 133.61 338.532 133.757 341.884 133.594C345.236 133.431 347.927 133.039 347.911 132.884C347.895 132.73 345.195 132.884 341.86 133.039C338.524 133.194 335.817 133.3 335.817 133.464Z" fill="#FF9A6C"/>
<path d="M329.643 132.999C329.643 133.056 330.288 132.95 331.054 132.306C331.551 131.874 331.946 131.338 332.211 130.736C332.476 130.134 332.604 129.481 332.587 128.823C332.529 128.128 332.404 127.439 332.212 126.768C332.069 126.236 332.001 125.688 332.008 125.137C332.055 124.646 332.168 124.163 332.343 123.702C332.343 123.645 331.747 124.077 331.617 125.104C331.551 125.682 331.584 126.267 331.715 126.833C331.868 127.48 331.975 128.137 332.033 128.799C332.05 129.982 331.602 131.124 330.785 131.979C330.157 132.713 329.603 132.917 329.643 132.999Z" fill="#FF9A6C"/>
<path d="M176.999 134.932C176.999 134.777 174.088 134.891 170.532 135.184C166.976 135.478 164.097 135.853 164.105 136C164.114 136.147 167.017 136.041 170.573 135.739C174.128 135.437 177.007 135.078 176.999 134.932Z" fill="#FF9A6C"/>
<path d="M260.95 85.9419C261.276 87.0278 261.688 88.0859 262.182 89.1062C262.402 89.5955 262.63 90.1256 262.867 90.672C263.101 91.2946 263.373 91.902 263.682 92.4907C263.8 92.6842 263.971 92.8395 264.175 92.9379C264.379 93.0363 264.607 93.0736 264.832 93.0453C265.227 92.9412 265.595 92.7519 265.909 92.4907L267.833 91.1777C270.459 89.3672 272.816 87.6953 274.513 86.472C275.461 85.8521 276.356 85.1538 277.188 84.3843C276.177 84.8935 275.209 85.4826 274.292 86.1458C272.539 87.2957 270.141 88.9023 267.515 90.721L265.599 92.0422C265.349 92.2588 265.057 92.4225 264.742 92.5233C264.614 92.5388 264.484 92.5151 264.369 92.4555C264.254 92.3958 264.16 92.303 264.098 92.1889C263.478 91.0635 262.965 89.8484 262.467 88.9268C262.045 87.8914 261.538 86.893 260.95 85.9419Z" fill="#263238"/>
</svg>
